<?xml version="1.0" encoding="utf-8"?>
<svg version="1.1" x="0px" y="0px" viewBox="628.784 484.564 564.348 296.423" style="enable-background:new 0 0 3000 1080;" xmlns="http://www.w3.org/2000/svg">
  <style type="text/css">
	.st0{fill:#FFFFFF;}
	.st1{fill:#F05848;}
</style>
  <g id="Layer_1" transform="matrix(1, 0, 0, 1, 8, 0)">
    <g>
      <g transform="matrix(0.889455, 0, 0, 0.877348, -991.091492, 62.479088)" style="">
        <path class="st0" d="M1978.5,730.2c-4.2,7-83.7,0.6-91.6,5.6c-7.8,5-46,46.3-51.7,46.7s-13.5-11.1-7.8-17.5s50.7-55.3,65.6-55.3 c14.9,0,67.3,7.5,74.8,9.3C1975.3,720.8,1978.5,730.2,1978.5,730.2z"/>
        <path class="st1" d="M1834.9,783.7c-3.7,0-7.4-3.7-9.3-7.4c-2.2-4.5-1.9-8.9,0.8-11.9c0.5-0.6,50-55.7,66.5-55.7c0,0,0,0,0,0 c15,0,67.2,7.4,75.1,9.3c8,1.9,11.3,11.5,11.5,11.9l0.2,0.5l-0.3,0.5c-2.5,4.1-20.8,4.3-50.8,4.1c-18.6-0.1-37.8-0.2-41.1,1.9 c-3.2,2-11.8,10.5-21,19.6c-17.1,16.8-27.7,27.1-31.2,27.3C1835.2,783.7,1835.1,783.7,1834.9,783.7z M1893,710.9 c-13,0-52.1,40.6-64.8,54.9c-3,3.3-1.3,7.7-0.5,9.4c1.8,3.6,5.1,6.3,7.4,6.1c2.9-0.2,19.1-16.1,29.8-26.6 c9.7-9.5,18-17.7,21.4-19.9c3.6-2.3,18.4-2.4,42.4-2.2c19,0.1,44.8,0.3,48.5-2.6c-0.8-2-3.9-8.4-9.6-9.8 C1959.9,718.4,1907.4,710.9,1893,710.9C1893,710.9,1893,710.9,1893,710.9z"/>
        <path class="st0" d="M2248.3,603.8c-30.2-12-31.2-13.5-30.7-25.5c0.5-12,2.1-33.8,10.4-33.8s32.2,29.6,32.2,29.6"/>
        <path class="st0" d="M2251.8,564.2c16.6-3.1,32-0.9,37.6,1.9c5.6,2.8,28.2,27.6,36.4,29.8s14.7,0.9,18.2,9.7 c3.4,8.8-19.1,24.1-27.6,26.3c-8.5,2.2-21.6-1.3-27.3,4.7s-10.7,21.6-10,28.5c0.6,6.9,13.2,39.8,19,45.8s89.2,17.9,101.4,16.9 c12.2-0.9,21.3-8.5,31-8.2c9.7,0.3-0.9,24.5-12.5,28.5c-11.6,4.1-177.8-3.4-190.3,0s-26,16.9-36.1,19.8s-80.6-29.2-99.4-32.3 c-18.8-3.1-66.5-36.4-66.5-36.4s113.9-22.8,145.1-49.4c18.1-15.5,28.2-21.5,37.3-31.3c15.8-16.9,26.7-19.3,28.6-29.2 C2238.7,579.5,2251.8,564.2,2251.8,564.2z"/>
        <path class="st1" d="M2190,769.4c-7.4,0-26.3-6.9-53.2-17.2c-18.9-7.2-36.7-13.9-44.8-15.3c-18.9-3.1-65-35.2-66.9-36.6 c-0.5-0.4-0.6-1.1-0.3-1.6c0.4-0.5,1.1-0.6,1.6-0.3c0.5,0.3,47.7,33.1,66,36.2c8.3,1.4,26.3,8.2,45.2,15.4 c22.7,8.6,48.4,18.4,53.7,16.9c4.5-1.3,9.9-4.9,15.7-8.7c6.7-4.5,13.6-9.1,20.4-11c6.2-1.7,47.3-0.8,90.8,0.1 c43.9,0.9,93.6,2,99.5-0.1c8.5-3,16.4-17.8,15.5-23.8c-0.3-1.7-1.1-2.4-2.6-2.5c-4.7-0.1-9.4,1.7-14.4,3.6 c-5.1,2-10.4,4-16.5,4.5c-10.5,0.8-95.9-10.6-102.3-17.3c-5.9-6.1-18.6-39-19.3-46.5c-0.6-7.1,4.4-23.2,10.3-29.4 c3.9-4.1,10.7-4.1,17.2-4.2c3.7,0,7.5-0.1,10.6-0.8c6.2-1.6,21.9-11.6,26.1-19.8c1-2,1.2-3.7,0.7-5c-2.4-6.2-6.4-6.9-12-7.9 c-1.7-0.3-3.5-0.6-5.5-1.2c-5.2-1.4-15.1-10.7-23.9-18.9c-5.4-5.1-10.6-9.9-12.7-11c-5.3-2.6-20.2-4.9-36.9-1.8 c-0.6,0.1-1.2-0.3-1.3-0.9c-0.1-0.6,0.3-1.2,0.9-1.3c17.3-3.2,32.8-0.7,38.4,2c2.4,1.2,7.2,5.7,13.3,11.3 c8.2,7.6,18.3,17.1,22.9,18.4c1.8,0.5,3.6,0.8,5.3,1.1c5.8,1,10.8,1.9,13.7,9.3c0.8,2,0.5,4.3-0.8,6.9 c-4.7,9.2-20.9,19.2-27.6,21c-3.3,0.9-7.3,0.9-11.1,0.9c-6.1,0-12.4,0.1-15.6,3.5c-5.4,5.7-10.3,21.1-9.7,27.6 c0.6,6.7,13.2,39.5,18.7,45.1c5.1,5.3,86.7,17.7,100.5,16.6c5.8-0.4,10.9-2.4,15.9-4.4c5.2-2,10.1-4,15.3-3.8 c2.6,0.1,4.4,1.7,4.8,4.4c1.2,7.6-7.7,23.1-17,26.3c-6.2,2.2-51.9,1.2-100.3,0.2c-41.4-0.9-84.3-1.8-90.1-0.2 c-6.5,1.8-13.2,6.3-19.7,10.7c-5.9,3.9-11.4,7.7-16.3,9.1C2191.4,769.4,2190.8,769.4,2190,769.4z"/>
        <path class="st0" d="M2029.2,651.2c0.6,17.6-0.3,58-7.5,69.3s-41.4,12.2-51.7,7.8c-10.3-4.4-51.1-20.4-51.1-20.4"/>
        <path class="st0" d="M1918.8,701.6c0,6.3-3.7,39.5-6.2,48.1c-2.5,8.6-19.6,31.4-27.4,30.7c-7.8-0.7-2.9-24.6,2.5-29.2 c5.3-4.6,6.1-13.5,5.7-31.7c-0.4-18.2-2.8-34.6,6.6-36.4s26.2,4.3,28.3,2.1c2.1-2.1,0-45.3,2.1-51.3s21.7-13.9,21.7-13.9 s-34.6-21.4-41.3-30.3c-6.8-8.9-33.5-30.3-35.3-37.4c-1.8-7.1-0.4-63.1,3.9-59.2c4.3,3.9,38.5,50.6,44.2,60.6 c5.7,10,42.8,44.6,47.4,46.7c4.6,2.1,30.7-10.6,63.8,3.4c33.2,14,52,28.7,77.7,34.4c25.7,5.7,63.8,3,70.9-1.5 c7.1-4.5,32.3-41.1,48.9-39.4c0,0-110.9,117.3-139.2,118.8c-28.3,1.6-68.8-18.9-72.1-18.3c-3.3,0.6-94.6,11.9-100.5,10.9 S1918.8,701.6,1918.8,701.6z"/>
        <path class="st1" d="M1885.5,781.5c-0.2,0-0.3,0-0.4,0c-1.5-0.1-3.4-1-4.4-4.1c-2.4-7.5,1.8-23.3,6.3-27.1c5-4.3,5.7-13,5.3-30.8 c-0.1-2.9-0.2-5.8-0.3-8.6c-0.6-15.2-1.1-27.3,7.8-28.9c5.3-1,12.7,0.4,18.7,1.5c3.7,0.7,8.2,1.5,9.1,1 c0.7-1.4,0.7-13.6,0.7-23.4c0-12.5,0-24.3,1.1-27.5c1.9-5.4,15-11.4,20.3-13.7c-7.4-4.7-33.8-21.5-39.8-29.4 c-2.7-3.5-8.7-9.2-15-15.1c-10-9.4-19.4-18.2-20.5-22.8c-1.3-5.1-1.3-57.6,3.8-60.6c0.7-0.4,1.4-0.3,2,0.3 c4.5,4.2,39,51.4,44.4,60.9c5.7,10,42.6,44.2,46.9,46.2c1,0.4,4.1-0.2,7.8-0.9c11.1-2.1,31.7-6,55.9,4.3 c13,5.5,23.9,11.2,33.6,16.2c15.2,7.9,28.4,14.7,43.9,18.1c25,5.6,63,3.1,70.1-1.4c1.9-1.2,5.6-5.4,9.9-10.2 c11.5-12.9,27.4-30.6,39.7-29.4c0.6,0.1,1.1,0.6,1,1.3c-0.1,0.6-0.6,1.1-1.3,1c-11.2-1.2-27.2,16.8-37.8,28.6 c-4.6,5.1-8.2,9.2-10.4,10.6c-7.5,4.8-45.8,7.4-71.8,1.7c-15.8-3.5-29.1-10.4-44.4-18.3c-9.6-5-20.6-10.6-33.5-16.1 c-23.6-10-43.8-6.2-54.6-4.1c-4.7,0.9-7.6,1.4-9.2,0.7c-5.4-2.5-42.3-37.3-47.9-47.2c-5.8-10.2-38-53.9-43.5-59.9 c-2.7,5.7-4.2,50.7-2.5,57.6c1,3.9,11,13.3,19.8,21.6c6.4,6,12.4,11.7,15.2,15.4c6.6,8.6,40.7,29.8,41,30l1.9,1.2l-2.1,0.8 c-5.3,2.1-19.5,8.7-21.1,13.2c-1,2.8-1,15.5-1,26.8c0,18.3-0.2,23.8-1.4,25c-1.3,1.3-4.5,0.8-11.1-0.4 c-5.8-1.1-12.9-2.4-17.8-1.5c-6.9,1.3-6.5,12.5-6,26.6c0.1,2.8,0.2,5.7,0.3,8.6c0.4,18.6-0.4,27.7-6.1,32.6 c-3.8,3.3-7.7,18.1-5.6,24.7c0.8,2.4,2,2.5,2.4,2.5c0.1,0,0.2,0,0.3,0c6.8,0,23.4-21.1,26-29.8c2.4-8.3,6.2-41.6,6.2-47.8 c0-0.6,0.5-1.1,1.1-1.1c0.6,0,1.1,0.5,1.1,1.1c0,6.4-3.7,39.7-6.3,48.4C1911.4,758,1894.5,781.5,1885.5,781.5z"/>
        <path class="st0" d="M2249,747.4c6.8,2.6,29.4,27.9,43,28.3s23.7,1.7,33.5,8.1c9.8,6.4,42,24.4,66.7,23.7s24.7-19.3,16.6-19 c-8.1,0.3-23,0-31.8-1.4c-8.8-1.4-55.8-38.8-82.6-39.2C2267.6,747.5,2249,747.4,2249,747.4z"/>
        <path class="st1" d="M2390.8,808.7c-23.3,0-53.2-15.5-65.9-23.9c-9.4-6.2-19.2-7.6-32.9-7.9c-9.2-0.2-21.8-11-31.9-19.6 c-5-4.3-9.3-8-11.5-8.8l-6-2.3l6.4,0c0.2,0,18.9,0.1,45.4,0.6c18.1,0.3,44.4,16.7,63.6,28.6c8.8,5.5,16.4,10.2,19.1,10.6 c8.4,1.3,22.9,1.7,31.6,1.3c2-0.1,3.9,0.9,5,2.6c1.5,2.4,1.4,5.8-0.3,8.9c-1.5,2.8-6.5,9.3-21.2,9.7 C2391.7,808.7,2391.3,808.7,2390.8,808.7z M2253.2,748.6c2.3,1.7,5.2,4.1,8.4,6.9c9.3,7.9,22,18.8,30.4,19 c14.1,0.4,24.2,1.8,34.1,8.3c12.8,8.4,43.1,24.1,66,23.5c13.5-0.4,18-6.1,19.3-8.5c1.3-2.4,1.4-5,0.3-6.6 c-0.5-0.7-1.3-1.6-2.9-1.5c-8.8,0.4-23.5-0.1-32-1.4c-3.2-0.5-10.2-4.9-20-10.9c-17.9-11.1-45-28-62.4-28.3 C2275.2,748.8,2260.1,748.7,2253.2,748.6z"/>
        <path class="st0" d="M2326.4,627.2c-17.7,0.8-34.2-4.8-34.2-4.8"/>
        <path class="st1" d="M2322.9,628.5c-16.4,0-31-4.9-31.1-5c-0.6-0.2-0.9-0.9-0.7-1.5c0.2-0.6,0.9-0.9,1.5-0.7 c0.2,0.1,16.5,5.6,33.8,4.8c0.7,0,1.2,0.5,1.2,1.1c0,0.6-0.5,1.2-1.1,1.2C2325.3,628.4,2324.1,628.5,2322.9,628.5z"/>
        <path class="st1" d="M1987.7,731.8c-7.7,0-14.6-0.9-18.2-2.5c-10.2-4.3-50.7-20.2-51.1-20.4c-0.6-0.2-0.9-0.9-0.7-1.5 c0.2-0.6,0.9-0.9,1.5-0.7c0.4,0.2,40.9,16,51.1,20.4c10.4,4.4,43.6,3.1,50.3-7.4c7-11,8-51,7.3-68.6c0-0.6,0.5-1.2,1.1-1.2 c0.7-0.1,1.2,0.5,1.2,1.1c0.5,14.2,0.2,57.6-7.7,70C2017.6,728.9,2001.4,731.8,1987.7,731.8z"/>
        <path class="st1" d="M2248.3,604.9c-0.1,0-0.3,0-0.4-0.1c-29.9-11.9-32-13.6-31.4-26.6c0.7-15,2.6-34.9,11.6-34.9 c8.6,0,30.7,27,33.1,30.1c0.4,0.5,0.3,1.2-0.2,1.6c-0.5,0.4-1.2,0.3-1.6-0.2c-9.5-11.7-25.7-29.2-31.4-29.2 c-3.6,0-8.1,5.7-9.3,32.7c-0.5,10.9-0.5,12.3,30,24.4c0.6,0.2,0.9,0.9,0.6,1.5C2249.2,604.7,2248.8,604.9,2248.3,604.9z"/>
        <g>
          <path class="st0" d="M2338.9,598.2c-4.7-0.6-1.1,10.5,3.2,11.1s2.9-6.5,1.4-8.6C2341.6,598.1,2338.9,598.2,2338.9,598.2z"/>
          <path class="st1" d="M2342.7,610.5c-0.3,0-0.5,0-0.8,0c-3.9-0.6-6.8-7.1-6.4-10.6c0.3-1.9,1.5-3,3.4-2.8c0.6,0,3.5,0.2,5.5,3 c1.2,1.6,2.5,6.4,0.9,8.9C2344.8,610,2343.9,610.5,2342.7,610.5z M2338.5,599.3c-0.3,0-0.5,0.2-0.6,0.8c-0.4,2.6,2.1,7.7,4.4,8 c0.8,0.1,1-0.1,1.2-0.4c0.8-1.4,0.1-5.1-0.9-6.3c-1.5-2.1-3.5-2.1-3.7-2.1l0,0l-0.2,0C2338.6,599.4,2338.5,599.3,2338.5,599.3z"/>
        </g>
      </g>
    </g>
  </g>
  <g id="Layer_2"/>
  <g id="Layer_3"/>
  <g id="Layer_4"/>
  <g id="Layer_5"/>
  <g id="Layer_6"/>
</svg>