<?xml version="1.0" encoding="utf-8"?>
<svg version="1.1" x="0px" y="0px" viewBox="680.039 471 445.505 346.452" style="enable-background:new 0 0 3000 1080;" xmlns="http://www.w3.org/2000/svg">
  <style type="text/css">
	.st0{fill:#FFFFFF;}
	.st1{fill:#F05848;}
</style>
  <g id="Layer_1" transform="matrix(1, 0, 0, 1, 0, 4)">
    <g>
      <g>
        <path class="st1" d="M963.1,681.9c-2.9,17.2,7.8,102.4,13.4,116.9c5.6,14.4,14.9,4.3,14.9,4.3l-7.9-128.1L963.1,681.9z"/>
        <path class="st1" d="M984.5,807.6c-0.4,0-0.9,0-1.3-0.1c-3.2-0.6-5.8-3.4-7.7-8.4c-5.7-14.6-16.3-100.4-13.5-117.5l0.1-0.7 l22.5-7.7l8,130.1l-0.3,0.4C992.1,804,988.7,807.6,984.5,807.6z M964.1,682.7c-2.5,18.4,7.9,101.3,13.4,115.6 c1.6,4.2,3.6,6.5,6,6.9c2.9,0.6,5.7-1.8,6.6-2.7l-7.8-126.1L964.1,682.7z"/>
        <path class="st1" d="M825.5,643.9c2.9,18-26.9,62.2-45.5,88.3s-24.2,37.2-24.7,45.2c-0.5,7.9,9.3,5.1,9.3,13s-24.7,3.3-24.7,3.3 s-8.4-0.9-7-22.3s60-105.2,60-105.2L825.5,643.9z"/>
        <path class="st1" d="M753.7,796.1c-6.2,0-12.7-1.2-13.9-1.4c-0.3,0-9.4-1.3-7.9-23.5c1.4-21.5,57.9-102.4,60.3-105.8l0.3-0.3 l33.9-23.2l0.3,1.8c2.2,13.6-13.1,43.6-45.7,89.1c-17.3,24.3-24,36.4-24.5,44.6c-0.2,3.3,1.5,4.2,3.9,5.5 c2.4,1.3,5.4,2.9,5.4,7.5c0,1.4-0.6,2.6-1.7,3.5C762,795.6,757.9,796.1,753.7,796.1z M793.9,666.9c-3,4.3-58.4,84.1-59.7,104.4 c-1.3,19.8,5.9,21.1,6,21.1c5,0.9,18.8,2.7,22.5-0.4c0.6-0.5,0.8-1,0.8-1.7c0-3.2-1.8-4.2-4.2-5.5c-2.4-1.3-5.4-2.9-5.1-7.6 c0.5-8.7,7.3-21.1,24.9-45.8c30.7-43,46-71.7,45.5-85.6L793.9,666.9z"/>
        <path class="st0" d="M971.6,674c2.1,10.9,4.5,130.2,18.2,133c13.6,2.7,21.8-4.5,22.4-9.7c0.6-5.1-9.1-5.1-13.6-10 c-4.5-4.8-2.1-94.2,0-98.1c2.1-3.9,33.9-66.9,33.9-73.6c0-6.7,27-50.9,40.6-64.3l-30.4-56.5l-40.2,34.8l-36.1,107.9L971.6,674z"/>
        <path class="st0" d="M1042.7,504.9c-6.2,7.9-10.8,48.2-18.7,44.2c-7.9-4-27.2-24.4-19.9-36.9c7.4-12.5,31.2-28.4,51.6-26.1 c20.4,2.3,48.8,26.5,61.3,34c5.4,3.3-1.7,32.3-11.3,32.9s-43.2-2.8-43.2-2.8"/>
        <path class="st1" d="M1103,554.3c-11.9,0-39.4-2.8-40.7-2.9c-0.6-0.1-1.1-0.6-1-1.3c0.1-0.6,0.6-1.1,1.3-1c0.3,0,33.6,3.4,43,2.8 c4.5-0.3,8.9-8.7,10.9-16.9c1.9-7.5,1.4-12.9-0.1-13.9c-3.1-1.9-7.2-4.8-11.9-8.2c-14.3-10.1-33.8-24-48.9-25.7 c-20.3-2.3-43.5,13.6-50.5,25.5c-1.7,2.9-1.9,6.5-0.7,10.7c3.1,10.6,14.8,21.9,20.1,24.6c0.4,0.2,0.7,0.2,1.1,0 c3.2-1.5,6.4-13.5,9-23.1c2.4-9,4.6-17.4,7.3-20.8c0.4-0.5,1.1-0.6,1.6-0.2c0.5,0.4,0.6,1.1,0.2,1.6c-2.4,3-4.7,11.7-6.9,20 c-3.1,11.7-6,22.7-10.2,24.6c-1,0.4-2,0.4-3-0.1c-6.4-3.2-18.1-15.2-21.3-26c-1.4-4.8-1.1-9,0.9-12.5c7.4-12.4,31.5-29,52.7-26.6 c15.6,1.7,35.5,15.8,49.9,26.1c4.7,3.3,8.7,6.2,11.8,8.1c3.3,2,2.8,9.8,1.1,16.4c-2.1,8.4-6.7,18.3-13,18.7 C1105,554.3,1104,554.3,1103,554.3z"/>
        <path class="st0" d="M972.4,682.2c-37.1,2.4-123.2-47.3-137.4-43.9s-50,50.9-57.2,64.8s-24.5,40.3-32.4,53.6 c-7.9,13.3-7.6,27.9-5.5,30.6c2.1,2.7,12.1,5.1,9.7,10.9c-2.4,5.8-22.1,7.3-24.2,0c-2.1-7.3-3.1-57.8,26-82.1 c3.6-3-2.4-50.9,1.2-75.4c3.6-24.5,13.9-51.5,11.5-55.1c-2.4-3.6-45.7-13.6-62.4-43.9s-20-72.1-14.2-69.7s12.1,35.7,23.9,53.3 c11.8,17.6,54.2,39.7,63.6,43c9.4,3.3,40.9-10.3,80.3-6.7c39.4,3.6,90.9,1.2,107.2-7s42.3-26.8,42.3-26.8"/>
        <path class="st1" d="M995.6,808.7c-1.8,0-3.8-0.2-6-0.6c-10.2-2-14.2-55-17.3-109.1c-0.7-12.4-1.3-22.1-1.8-24.8 c-0.1-0.6,0.3-1.2,0.9-1.3c0.6-0.1,1.2,0.3,1.3,0.9c0.5,2.8,1.1,12.1,1.8,25.1c2,34.1,6.1,105.1,15.4,107 c8.9,1.8,14.4-1,16.9-2.8c2.4-1.7,3.9-3.9,4.2-5.9c0.2-2-1.9-3-5.5-4.5c-2.7-1.1-5.7-2.4-7.8-4.6c-5-5.3-2.6-94.9-0.2-99.5 c2.8-5.3,33.8-66.8,33.8-73.1c0-7.1,27.3-51.7,41-65.1c0.5-0.4,1.2-0.4,1.6,0c0.4,0.5,0.4,1.2,0,1.6 c-14.1,13.8-40.3,57.6-40.3,63.4c0,7.3-33.7,73.5-34.1,74.1c-2.1,4.6-4.4,92-0.2,96.8c1.8,1.9,4.4,3,7,4c3.6,1.5,7.4,3,6.9,6.9 c-0.3,2.6-2.2,5.4-5.1,7.5C1006.1,806.5,1001.9,808.7,995.6,808.7z"/>
        <path class="st1" d="M736.4,804.2c-0.5,0-1,0-1.6,0c-5.8-0.3-9.6-2.4-10.6-5.7c-2.1-7.3-3.1-58.7,26.4-83.3 c1.3-1.5,0.7-14.7,0.3-26.4c-0.6-15.7-1.4-35.3,0.5-48.3c1.8-11.8,5.1-24.3,7.7-34.3c2.3-8.7,4.9-18.6,4-20 c-0.5-0.7-4.3-2.2-8-3.7c-14.6-6-41.8-17.2-54.5-40.3c-14.9-27.1-19.9-65.6-15.3-70.7c0.7-0.8,1.6-1,2.6-0.6 c3.1,1.3,5.7,8.3,9.9,20.5c3.8,10.8,8.5,24.3,14.5,33.2c11.9,17.7,54.4,39.5,63,42.6c3.5,1.2,11.1-0.2,20.7-2.1 c15.1-2.9,35.7-6.9,59.3-4.7c37.1,3.4,90,1.5,106.6-6.8c16.1-8,41.9-26.5,42.2-26.7c0.5-0.4,1.2-0.3,1.6,0.3 c0.4,0.5,0.3,1.2-0.3,1.6c-0.3,0.2-26.3,18.7-42.5,26.9c-17.2,8.6-69.7,10.6-107.8,7.1c-23.3-2.2-43.8,1.8-58.7,4.6 c-10.3,2-17.8,3.4-21.9,2c-8.8-3.1-52-25.3-64.2-43.5c-6.2-9.2-11-22.8-14.8-33.8c-3.1-8.9-6.3-18.2-8.6-19.1 c-2.8,1.9-0.6,38.5,15.7,68c12.3,22.3,39,33.3,53.3,39.2c5.8,2.4,8.2,3.4,9,4.6c1.5,2.2-0.1,8.7-3.7,21.9 c-2.6,9.9-5.9,22.3-7.7,34c-1.9,12.8-1.1,32.3-0.5,47.9c0.8,19.2,0.9,26.6-1.1,28.2c-28.7,23.9-27.8,73.8-25.7,80.9 c0.7,2.3,3.8,3.8,8.5,4c6.1,0.4,12.5-1.6,13.5-4.2c1.2-2.8-1.5-4.6-5.5-6.9c-1.7-1-3.2-1.9-4.1-2.9c-2.6-3.4-2.6-18.4,5.4-31.9 c2.8-4.8,6.9-11.3,11.2-18.2c7.7-12.4,16.5-26.4,21.2-35.3c7.3-14,43.3-62,58-65.4c6.3-1.5,24.4,6.2,47.4,16 c30.7,13.1,68.9,29.3,90.2,27.9c0.6,0,1.2,0.4,1.2,1.1c0,0.6-0.4,1.2-1.1,1.2c-21.8,1.4-60.3-15-91.2-28.1 c-21.7-9.2-40.4-17.2-46-15.9c-13.8,3.2-49.5,50.8-56.5,64.2c-4.7,9-13.5,23.1-21.2,35.5c-4.3,6.9-8.4,13.4-11.2,18.2 c-7.9,13.4-7.2,27.2-5.5,29.3c0.5,0.7,2,1.5,3.4,2.3c3.6,2.1,8.5,4.9,6.5,9.7C749.1,802.2,742.5,804.2,736.4,804.2z"/>
      </g>
    </g>
  </g>
  <g id="Layer_2"/>
  <g id="Layer_3"/>
  <g id="Layer_4"/>
  <g id="Layer_5"/>
  <g id="Layer_6"/>
</svg>