<?xml version="1.0" encoding="utf-8"?>
<svg version="1.1" x="0px" y="0px" viewBox="598.31 231.549 611.831 677.426" style="enable-background:new 0 0 3000 1080;" xmlns="http://www.w3.org/2000/svg">
  <style type="text/css">
	.st0{fill:#FFFFFF;}
	.st1{fill:#F05848;}
</style>
  <g id="Layer_1">
    <g>
      <g transform="matrix(1, 0, 0, 1, -1783.753296, 68.618019)">
        <path class="st0" d="M2668.7,374.7c-6.5-7.7-14.2-14.5-18.2-8.3s-20.1,42.1-15.8,48.2c4.3,6.2,26.9,13.9,30.6,10.5 c3.7-3.4,14.5-42.4,14.5-45.2"/>
        <path class="st0" d="M2648.4,370c-2-12.3-2.3-40.4,2.3-50s26.9-12.7,30.9-23.5s11.1-24.4,22.6-21.6s-0.6,49.5,0,55 c0.6,5.6,17.6-19.8,22-25.7c4.3-5.9,1.9,23.2-3.4,33.7c-5.3,10.5-6.2,24.6-4,32.1c2.2,7.5,42.1,44,54.4,53.6 c12.4,9.6,16.4,17.9,17,34"/>
        <path class="st0" d="M2645.2,632c0,0-57.2,5.3-70.5,0c-13.3-5.3-25-7.4-30.6-9.3c-5.6-1.9-20.4-26.3-19.5-31.2 c0.9-4.9,23.5,4,50.4,10.2c26.9,6.2,65.6,8.7,89.4-13.6c23.8-22.3,18.6-96.8,18.6-122.8c0-26-3.4-48.9-7.9-66.7l1-20.3 c0,0,106.3,64.7,111.9,64.4c5.6-0.3,13.6,10,15.8,19.3c2.2,9.3-18.5,32-18.3,39c0.2,6.9-5.8,32.8-21.6,44.1 C2748.2,556.5,2645.2,632,2645.2,632z"/>
        <path class="st1" d="M2599.1,635.5c-10.6,0-20.2-0.6-24.8-2.4c-8.9-3.5-17.2-5.7-23.3-7.2c-2.9-0.8-5.4-1.4-7.3-2 c-5.8-1.9-21.3-26.9-20.2-32.5c0.1-0.7,0.5-1.3,1.2-1.7c2.9-1.8,10.3,0.2,25.6,4.5c7.5,2.1,16,4.5,25,6.6 c22.2,5.1,63.2,10.2,88.3-13.3c20.3-19,19.1-77.8,18.4-109.4c-0.1-4.9-0.2-9.1-0.2-12.5c0-29-4.3-52.1-7.8-66.4 c-0.2-0.6,0.2-1.2,0.8-1.4c0.6-0.2,1.2,0.2,1.4,0.8c3.6,14.4,7.9,37.7,7.9,67c0,3.4,0.1,7.6,0.2,12.5c0.7,32,2,91.4-19.1,111.1 c-25.9,24.2-67.8,19.1-90.4,13.9c-9.1-2.1-17.6-4.5-25.1-6.6c-11.1-3.1-21.6-6.1-23.7-4.7c-0.1,0.1-0.1,0.1-0.2,0.2 c-0.7,3.9,13.4,28.2,18.7,29.9c1.8,0.6,4.2,1.2,7.1,2c6.1,1.6,14.5,3.7,23.6,7.3c12.9,5.1,69.4,0,70-0.1c0.6-0.1,1.2,0.4,1.3,1 c0.1,0.6-0.4,1.2-1,1.3C2643.8,633.3,2619.4,635.5,2599.1,635.5z"/>
        <path class="st0" d="M2645.8,624c-0.9,10.5,3.1,19.2,5.9,23.2s7.7,16.1,7.7,23.5c0,7.4,26.9,29.4,28.5,35.6 c1.5,6.2-1.5,48.9,0,53.5c1.5,4.6,28.5,45.8,31.5,47s32.2,1.9,31.5-4.6c-0.6-6.5-22.6-17-30-26.9c-7.4-9.9-11.4-17-11.8-21.3 s-0.3-27.8,1.2-30.3c1.5-2.5,15.8-24.1,17.9-39.6c2.2-15.5-2.8-42.7-1.5-47.9c1.2-5.3,37.4-24.1,49.2-57.8 c11.8-33.7,9.6-76.1,9.6-76.1"/>
        <path class="st0" d="M2755.3,495.6c17.3,6.8,30.3,8,39.3,0s14.2-13,13.6-10.2c-0.6,2.8-2.4,31.5,0,36.8s15.7,9.6,17.6,4.3 s-1.5-12.1-1.9-17c-0.3-4.9,2.5-42.7-4-47c-6.5-4.3-39-1.5-43.9-11.1"/>
        <path class="st0" d="M2788,442.7c18.4-0.9,40-4.3,41.5,6.9c1.5,11.1,4.3,36.4,8,40.6c3.7,4.2,9.9,9.8,1.5,12 c-8.3,2.2-14.9-4.6-14.9-4.6"/>
        <path class="st0" d="M2679.8,419.9c7.1,5.6,23.2,6.1,23.2,6.1"/>
        <path class="st1" d="M2703,427.1C2703,427.1,2703,427.1,2703,427.1c-0.7,0-16.6-0.6-23.9-6.3c-0.5-0.4-0.6-1.1-0.2-1.6 c0.4-0.5,1.1-0.6,1.6-0.2c6.7,5.3,22.4,5.8,22.5,5.8c0.6,0,1.1,0.6,1.1,1.2C2704.2,426.6,2703.6,427.1,2703,427.1z"/>
        <path class="st0" d="M2726.2,780.5c26.8,1.8,28.3-1.3,27.7-6.9c-0.6-5.6-18.3-12.1-21.8-14.2c-3.4-2.2-13.3-38-9.1-58.7 c0,0-15.9,13.6-17.7,30.2c-1.7,16.6-3,25.8,4,32.8C2716.3,770.8,2726.2,780.5,2726.2,780.5z"/>
        <path class="st1" d="M2738.8,782.2c-3.4,0-7.6-0.2-12.8-0.5c-0.6,0-1.1-0.6-1.1-1.2c0-0.6,0.6-1.1,1.2-1.1 c15.6,1,23.6,0.5,25.8-1.8c0.8-0.9,0.9-2,0.7-3.8c-0.4-3.5-10.8-8.4-16.4-11c-2.2-1-4-1.8-4.9-2.4c-4.3-2.8-13.8-39.3-9.6-59.9 c0.1-0.6,0.7-1,1.4-0.9c0.6,0.1,1,0.7,0.9,1.4c-4.3,21.1,6,55.7,8.6,57.5c0.8,0.5,2.5,1.3,4.6,2.3c9,4.2,17.2,8.3,17.7,12.8 c0.2,1.9,0.3,4-1.3,5.6C2751.9,781,2748.4,782.2,2738.8,782.2z"/>
        <path class="st1" d="M2662,427.1c-0.6,0-1.3,0-2.1-0.1c-8.5-0.9-22.7-6.8-26.1-11.7c-5.1-7.2,12.7-44.9,15.7-49.5 c1.2-1.8,2.7-2.8,4.6-2.9c3.9-0.2,9,3.4,15.5,11.2c0.4,0.5,0.3,1.2-0.1,1.6c-0.5,0.4-1.2,0.3-1.6-0.1 c-7.4-8.8-11.4-10.5-13.6-10.3c-1.1,0.1-2.1,0.7-2.8,1.9c-4.8,7.4-19.5,41.7-15.8,47c3.1,4.4,16.6,9.9,24.5,10.7 c3.3,0.4,4.2-0.2,4.4-0.4c3.1-2.8,14.1-41,14.2-44.3c0-0.6,0.5-1.1,1.1-1.1c0,0,0,0,0,0c0.6,0,1.1,0.5,1.1,1.1 c0,3.4-10.9,42.3-14.9,46C2665.2,426.7,2663.9,427.1,2662,427.1z"/>
        <path class="st1" d="M2821.2,530.1c-4.9,0-12.2-3.3-14.1-7.4c-2.4-5.2-1-29.9-0.3-36.3c-1.9,1.4-5.5,4.6-9.2,7.9l-2.3,2.1 c-8.6,7.7-21.1,7.8-40.5,0.2c-0.6-0.2-0.9-0.9-0.7-1.5c0.2-0.6,0.9-0.9,1.5-0.7c18.4,7.2,30.2,7.3,38.1,0.2l2.3-2.1 c9.5-8.5,11.1-9.8,12.5-9c0.4,0.2,0.9,0.7,0.6,2c-0.6,2.8-2.2,31.3,0,36.1c1.4,3.1,7.9,6.3,12.4,6c1.7-0.1,2.7-0.6,3.1-1.6 c1.1-3.1,0.1-6.9-0.8-10.6c-0.5-2.1-1-4.1-1.1-6c-0.1-1.1,0-3.5,0.1-6.8c0.3-10.8,1-36.3-3.6-39.3c-2.3-1.5-8.8-2.1-15.7-2.8 c-11.8-1.1-25.3-2.4-28.6-8.8c-0.3-0.6-0.1-1.3,0.5-1.5c0.6-0.3,1.3-0.1,1.5,0.5c2.7,5.3,16,6.5,26.7,7.5 c7.5,0.7,14,1.3,16.8,3.2c5.2,3.5,5.1,23.2,4.6,41.3c-0.1,3.1-0.2,5.6-0.1,6.6c0.1,1.6,0.6,3.5,1.1,5.5c1,3.8,2,8.2,0.7,11.9 c-0.7,1.9-2.5,3-5.1,3.1C2821.6,530.1,2821.4,530.1,2821.2,530.1z"/>
        <path class="st1" d="M2835.7,503.7c-7.1,0-12.1-5.2-12.4-5.4c-0.4-0.5-0.4-1.2,0-1.6c0.5-0.4,1.2-0.4,1.6,0 c0.1,0.1,6.2,6.3,13.8,4.3c1.3-0.3,2.9-1,3.2-2c0.5-1.6-2.2-4.6-4.2-6.8c-0.4-0.4-0.8-0.9-1.2-1.3c-3.1-3.6-5.4-18.9-7.6-35.7 c-0.3-2.1-0.5-4-0.7-5.5c-1.2-8.4-16.8-7.4-32-6.4c-2.8,0.2-5.6,0.4-8.4,0.5c-0.6,0.1-1.2-0.5-1.2-1.1c0-0.6,0.5-1.2,1.1-1.2 c2.7-0.1,5.5-0.3,8.3-0.5c16.2-1.1,32.9-2.2,34.4,8.4c0.2,1.6,0.5,3.5,0.7,5.6c1.5,11.6,4.1,31.1,7,34.5c0.4,0.4,0.7,0.8,1.1,1.3 c2.6,2.9,5.6,6.1,4.7,9c-0.5,1.7-2.1,2.8-4.9,3.5C2838.1,503.6,2836.9,503.7,2835.7,503.7z"/>
        <path class="st1" d="M2790.2,458.7c-0.6,0-1.1-0.5-1.1-1.1c-0.6-15.8-4.6-23.9-16.6-33.2c-12-9.3-52.5-46.1-54.8-54.2 c-2.2-7.7-1.3-22.1,4.1-32.9c4.2-8.5,6.3-28.2,5.2-32.4c-0.7,1-1.7,2.4-2.9,4.1c-12.7,17.9-17.2,23.2-19.7,22.6 c-0.4-0.1-1.2-0.4-1.3-1.8c-0.2-1.6,0.4-5.3,1.5-11.8c2.4-14.1,6.7-40.4-0.6-42.2c-8.2-2-15.3,5-21.2,20.9 c-2.3,6.1-9.6,9.8-16.8,13.3c-6.3,3.1-12.2,6.1-14.2,10.3c-4.5,9.3-4.1,37.6-2.2,49.3c0.1,0.6-0.3,1.2-0.9,1.3 c-0.6,0.1-1.2-0.3-1.3-1c-1.9-11.7-2.4-40.6,2.4-50.7c2.4-4.9,8.6-8,15.3-11.3c6.7-3.4,13.7-6.8,15.6-12.1 c6.4-17.2,14.4-24.7,23.9-22.4c8.7,2.1,6,23.3,2.4,44.9c-0.8,4.8-1.5,8.9-1.5,10.7c3.2-2.1,13-16,16.8-21.4 c1.3-1.8,2.4-3.3,3.1-4.3c1.2-1.7,2.4-1.3,2.8-1c3.6,2.2,0,27.3-4.2,35.9c-5.1,10.3-6,24-3.9,31.2c2,7,41.2,43,54,53 c12.6,9.7,16.8,18.2,17.5,34.9C2791.4,458.2,2790.9,458.7,2790.2,458.7C2790.3,458.7,2790.2,458.7,2790.2,458.7z"/>
        <g>
          <path class="st0" d="M2696.1,274.6c-3.8,3.3,6.4,7.4,9.9,4.4c3.5-3-2.3-6.4-4.8-6.5C2698,272.3,2696.1,274.6,2696.1,274.6z"/>
          <path class="st1" d="M2707.2,279.3c-0.2,0.2-0.4,0.4-0.6,0.6c-3.2,2.7-9.8,0.9-11.8-1.6c-1.1-1.4-0.9-3.1,0.5-4.4 c0.5-0.5,2.6-2.7,6-2.5c2,0.1,6.1,2.1,6.7,4.8C2708.4,277.2,2708.1,278.3,2707.2,279.3z M2696.6,275.6c-0.2,0.2-0.3,0.5,0.1,1 c1.5,1.9,6.7,3.2,8.6,1.6c0.6-0.5,0.7-0.9,0.6-1.2c-0.3-1.5-3.4-3.2-4.9-3.3c-2.5-0.1-4,1.5-4,1.6l0,0l-0.2,0.2 C2696.7,275.5,2696.6,275.6,2696.6,275.6z"/>
        </g>
        <path class="st1" d="M2729.8,808.7c-5.2,0-9.5-0.4-10.8-0.9c-3.9-1.6-30.9-43.7-32.2-47.7c-0.8-2.3-0.5-11.5-0.1-26.3 c0.4-11.4,0.8-24.3,0-27.3c-0.6-2.4-6.4-8.4-12-14.2c-9.9-10.3-16.4-17.3-16.4-21.6c0-7.3-4.9-19.1-7.5-22.8 c-3.5-5.1-7-14-6.1-23.9c0.1-0.6,0.6-1.1,1.2-1c0.6,0.1,1.1,0.6,1,1.2c-1.1,12,4.5,20.8,5.7,22.4c2.8,4,7.9,16.3,7.9,24.2 c0,3.7,8.8,12.7,15.8,20c6.4,6.6,11.9,12.3,12.6,15.3c0.8,3.3,0.4,15.2,0,27.9c-0.4,11-0.8,23.4,0,25.5 c1.8,5.3,28.1,44.7,30.9,46.3c2.5,1,24.3,1.4,29.2-2.3c0.8-0.6,0.8-1,0.7-1.2c-0.3-3-6.9-7.7-13.4-12.3 c-6.3-4.5-12.9-9.2-16.4-14c-7.8-10.5-11.7-17.4-12-21.9c-0.2-3.1-0.5-28,1.4-31l0.4-0.6c9.9-15.6,16.1-29.3,17.4-38.5 c1.3-9,0.1-22-0.9-32.5c-0.7-7.7-1.2-13.2-0.7-15.5c0.4-1.9,3.1-4.1,9.1-8.9c11.9-9.6,31.9-25.6,40.1-49.1 c11.5-33.1,9.5-75.2,9.5-75.6c0-0.6,0.5-1.2,1.1-1.2c0.7,0,1.2,0.5,1.2,1.1c0,0.4,2,43-9.6,76.5c-8.4,24.1-28.7,40.4-40.8,50.1 c-4.1,3.3-8,6.4-8.3,7.6c-0.5,2,0.1,7.9,0.7,14.8c1,10.6,2.2,23.8,0.9,33c-1.4,9.7-7.5,23.3-17.7,39.4l-0.4,0.6 c-1.2,2.1-1.5,24-1.1,29.6c0.3,3.9,4.2,10.9,11.5,20.7c3.3,4.5,9.7,9.1,15.9,13.5c7.5,5.4,13.9,10,14.3,14 c0.1,0.9-0.1,2.1-1.7,3.3C2747,807.8,2737.5,808.7,2729.8,808.7z"/>
      </g>
    </g>
  </g>
  <g id="Layer_2"/>
  <g id="Layer_3"/>
  <g id="Layer_4"/>
  <g id="Layer_5"/>
  <g id="Layer_6"/>
</svg>