<?xml version="1.0" encoding="utf-8"?>
<svg version="1.1" x="0px" y="0px" viewBox="0 231.549 3000 848.451" style="enable-background:new 0 0 3000 1080;" xmlns="http://www.w3.org/2000/svg">
  <style type="text/css">
	.st0{fill:#FFFFFF;}
	.st1{fill:#F05848;}
</style>
  <g id="Layer_1">
    <g>
      <path class="st0" d="M1279.1,797.4c-4.7-0.8-1.4,10.5,2.9,11.2c4.3,0.7,3.1-6.4,1.7-8.5C1281.8,797.4,1279.1,797.4,1279.1,797.4z"/>
      <path class="st1" d="M1282.6,808.7c-0.3,0-0.5,0-0.8-0.1c-3.9-0.7-6.6-7.3-6-10.8c0.3-1.9,1.6-3,3.4-2.7c0.6,0,3.5,0.3,5.5,3.2 c1.1,1.7,2.3,6.5,0.7,8.9C1284.7,808.2,1283.7,808.7,1282.6,808.7z M1278.6,797.4c-0.3,0-0.5,0.1-0.6,0.8 c-0.4,2.6,1.9,7.8,4.2,8.1c0.8,0.1,1-0.1,1.2-0.4c0.9-1.4,0.2-5.1-0.7-6.4c-1.4-2.1-3.5-2.2-3.6-2.2h0l-0.2,0 C1278.8,797.4,1278.7,797.4,1278.6,797.4z"/>
      <g>
        <path class="st1" d="M963.1,681.9c-2.9,17.2,7.8,102.4,13.4,116.9c5.6,14.4,14.9,4.3,14.9,4.3l-7.9-128.1L963.1,681.9z"/>
        <path class="st1" d="M984.5,807.6c-0.4,0-0.9,0-1.3-0.1c-3.2-0.6-5.8-3.4-7.7-8.4c-5.7-14.6-16.3-100.4-13.5-117.5l0.1-0.7 l22.5-7.7l8,130.1l-0.3,0.4C992.1,804,988.7,807.6,984.5,807.6z M964.1,682.7c-2.5,18.4,7.9,101.3,13.4,115.6 c1.6,4.2,3.6,6.5,6,6.9c2.9,0.6,5.7-1.8,6.6-2.7l-7.8-126.1L964.1,682.7z"/>
        <path class="st1" d="M825.5,643.9c2.9,18-26.9,62.2-45.5,88.3s-24.2,37.2-24.7,45.2c-0.5,7.9,9.3,5.1,9.3,13s-24.7,3.3-24.7,3.3 s-8.4-0.9-7-22.3s60-105.2,60-105.2L825.5,643.9z"/>
        <path class="st1" d="M753.7,796.1c-6.2,0-12.7-1.2-13.9-1.4c-0.3,0-9.4-1.3-7.9-23.5c1.4-21.5,57.9-102.4,60.3-105.8l0.3-0.3 l33.9-23.2l0.3,1.8c2.2,13.6-13.1,43.6-45.7,89.1c-17.3,24.3-24,36.4-24.5,44.6c-0.2,3.3,1.5,4.2,3.9,5.5 c2.4,1.3,5.4,2.9,5.4,7.5c0,1.4-0.6,2.6-1.7,3.5C762,795.6,757.9,796.1,753.7,796.1z M793.9,666.9c-3,4.3-58.4,84.1-59.7,104.4 c-1.3,19.8,5.9,21.1,6,21.1c5,0.9,18.8,2.7,22.5-0.4c0.6-0.5,0.8-1,0.8-1.7c0-3.2-1.8-4.2-4.2-5.5c-2.4-1.3-5.4-2.9-5.1-7.6 c0.5-8.7,7.3-21.1,24.9-45.8c30.7-43,46-71.7,45.5-85.6L793.9,666.9z"/>
        <path class="st0" d="M971.6,674c2.1,10.9,4.5,130.2,18.2,133c13.6,2.7,21.8-4.5,22.4-9.7c0.6-5.1-9.1-5.1-13.6-10 c-4.5-4.8-2.1-94.2,0-98.1c2.1-3.9,33.9-66.9,33.9-73.6c0-6.7,27-50.9,40.6-64.3l-30.4-56.5l-40.2,34.8l-36.1,107.9L971.6,674z"/>
        <path class="st0" d="M1042.7,504.9c-6.2,7.9-10.8,48.2-18.7,44.2c-7.9-4-27.2-24.4-19.9-36.9c7.4-12.5,31.2-28.4,51.6-26.1 c20.4,2.3,48.8,26.5,61.3,34c5.4,3.3-1.7,32.3-11.3,32.9s-43.2-2.8-43.2-2.8"/>
        <path class="st1" d="M1103,554.3c-11.9,0-39.4-2.8-40.7-2.9c-0.6-0.1-1.1-0.6-1-1.3c0.1-0.6,0.6-1.1,1.3-1c0.3,0,33.6,3.4,43,2.8 c4.5-0.3,8.9-8.7,10.9-16.9c1.9-7.5,1.4-12.9-0.1-13.9c-3.1-1.9-7.2-4.8-11.9-8.2c-14.3-10.1-33.8-24-48.9-25.7 c-20.3-2.3-43.5,13.6-50.5,25.5c-1.7,2.9-1.9,6.5-0.7,10.7c3.1,10.6,14.8,21.9,20.1,24.6c0.4,0.2,0.7,0.2,1.1,0 c3.2-1.5,6.4-13.5,9-23.1c2.4-9,4.6-17.4,7.3-20.8c0.4-0.5,1.1-0.6,1.6-0.2c0.5,0.4,0.6,1.1,0.2,1.6c-2.4,3-4.7,11.7-6.9,20 c-3.1,11.7-6,22.7-10.2,24.6c-1,0.4-2,0.4-3-0.1c-6.4-3.2-18.1-15.2-21.3-26c-1.4-4.8-1.1-9,0.9-12.5c7.4-12.4,31.5-29,52.7-26.6 c15.6,1.7,35.5,15.8,49.9,26.1c4.7,3.3,8.7,6.2,11.8,8.1c3.3,2,2.8,9.8,1.1,16.4c-2.1,8.4-6.7,18.3-13,18.7 C1105,554.3,1104,554.3,1103,554.3z"/>
        <path class="st0" d="M972.4,682.2c-37.1,2.4-123.2-47.3-137.4-43.9s-50,50.9-57.2,64.8s-24.5,40.3-32.4,53.6 c-7.9,13.3-7.6,27.9-5.5,30.6c2.1,2.7,12.1,5.1,9.7,10.9c-2.4,5.8-22.1,7.3-24.2,0c-2.1-7.3-3.1-57.8,26-82.1 c3.6-3-2.4-50.9,1.2-75.4c3.6-24.5,13.9-51.5,11.5-55.1c-2.4-3.6-45.7-13.6-62.4-43.9s-20-72.1-14.2-69.7s12.1,35.7,23.9,53.3 c11.8,17.6,54.2,39.7,63.6,43c9.4,3.3,40.9-10.3,80.3-6.7c39.4,3.6,90.9,1.2,107.2-7s42.3-26.8,42.3-26.8"/>
        <path class="st1" d="M995.6,808.7c-1.8,0-3.8-0.2-6-0.6c-10.2-2-14.2-55-17.3-109.1c-0.7-12.4-1.3-22.1-1.8-24.8 c-0.1-0.6,0.3-1.2,0.9-1.3c0.6-0.1,1.2,0.3,1.3,0.9c0.5,2.8,1.1,12.1,1.8,25.1c2,34.1,6.1,105.1,15.4,107 c8.9,1.8,14.4-1,16.9-2.8c2.4-1.7,3.9-3.9,4.2-5.9c0.2-2-1.9-3-5.5-4.5c-2.7-1.1-5.7-2.4-7.8-4.6c-5-5.3-2.6-94.9-0.2-99.5 c2.8-5.3,33.8-66.8,33.8-73.1c0-7.1,27.3-51.7,41-65.1c0.5-0.4,1.2-0.4,1.6,0c0.4,0.5,0.4,1.2,0,1.6 c-14.1,13.8-40.3,57.6-40.3,63.4c0,7.3-33.7,73.5-34.1,74.1c-2.1,4.6-4.4,92-0.2,96.8c1.8,1.9,4.4,3,7,4c3.6,1.5,7.4,3,6.9,6.9 c-0.3,2.6-2.2,5.4-5.1,7.5C1006.1,806.5,1001.9,808.7,995.6,808.7z"/>
        <path class="st1" d="M736.4,804.2c-0.5,0-1,0-1.6,0c-5.8-0.3-9.6-2.4-10.6-5.7c-2.1-7.3-3.1-58.7,26.4-83.3 c1.3-1.5,0.7-14.7,0.3-26.4c-0.6-15.7-1.4-35.3,0.5-48.3c1.8-11.8,5.1-24.3,7.7-34.3c2.3-8.7,4.9-18.6,4-20 c-0.5-0.7-4.3-2.2-8-3.7c-14.6-6-41.8-17.2-54.5-40.3c-14.9-27.1-19.9-65.6-15.3-70.7c0.7-0.8,1.6-1,2.6-0.6 c3.1,1.3,5.7,8.3,9.9,20.5c3.8,10.8,8.5,24.3,14.5,33.2c11.9,17.7,54.4,39.5,63,42.6c3.5,1.2,11.1-0.2,20.7-2.1 c15.1-2.9,35.7-6.9,59.3-4.7c37.1,3.4,90,1.5,106.6-6.8c16.1-8,41.9-26.5,42.2-26.7c0.5-0.4,1.2-0.3,1.6,0.3 c0.4,0.5,0.3,1.2-0.3,1.6c-0.3,0.2-26.3,18.7-42.5,26.9c-17.2,8.6-69.7,10.6-107.8,7.1c-23.3-2.2-43.8,1.8-58.7,4.6 c-10.3,2-17.8,3.4-21.9,2c-8.8-3.1-52-25.3-64.2-43.5c-6.2-9.2-11-22.8-14.8-33.8c-3.1-8.9-6.3-18.2-8.6-19.1 c-2.8,1.9-0.6,38.5,15.7,68c12.3,22.3,39,33.3,53.3,39.2c5.8,2.4,8.2,3.4,9,4.6c1.5,2.2-0.1,8.7-3.7,21.9 c-2.6,9.9-5.9,22.3-7.7,34c-1.9,12.8-1.1,32.3-0.5,47.9c0.8,19.2,0.9,26.6-1.1,28.2c-28.7,23.9-27.8,73.8-25.7,80.9 c0.7,2.3,3.8,3.8,8.5,4c6.1,0.4,12.5-1.6,13.5-4.2c1.2-2.8-1.5-4.6-5.5-6.9c-1.7-1-3.2-1.9-4.1-2.9c-2.6-3.4-2.6-18.4,5.4-31.9 c2.8-4.8,6.9-11.3,11.2-18.2c7.7-12.4,16.5-26.4,21.2-35.3c7.3-14,43.3-62,58-65.4c6.3-1.5,24.4,6.2,47.4,16 c30.7,13.1,68.9,29.3,90.2,27.9c0.6,0,1.2,0.4,1.2,1.1c0,0.6-0.4,1.2-1.1,1.2c-21.8,1.4-60.3-15-91.2-28.1 c-21.7-9.2-40.4-17.2-46-15.9c-13.8,3.2-49.5,50.8-56.5,64.2c-4.7,9-13.5,23.1-21.2,35.5c-4.3,6.9-8.4,13.4-11.2,18.2 c-7.9,13.4-7.2,27.2-5.5,29.3c0.5,0.7,2,1.5,3.4,2.3c3.6,2.1,8.5,4.9,6.5,9.7C749.1,802.2,742.5,804.2,736.4,804.2z"/>
      </g>
      <g>
        <path class="st0" d="M213.8,593.7c28.2-0.5,315.8-5.2,321,0c5.2,5.2,47.7,94.4,51.5,104.1s8.7,99.8,0,105.7s-381,6.8-418.6-8.7 c-9.2-3.8-11.9-109.1-10.8-118.5C158,666.9,207.3,593.8,213.8,593.7z"/>
        <path class="st1" d="M449.8,808.7c-113.9,0-260.6-3.7-282.6-12.8c-10.8-4.5-12.2-114.2-11.6-119.7c1-8.3,50.4-83.5,58.1-83.7 l0,1.1l0-1.1c32.3-0.6,316.2-5.3,321.8,0.3c5.6,5.6,48.4,95.9,51.8,104.5c3.6,9.2,9,100.6-0.4,107.1 C583,807.1,523.3,808.7,449.8,808.7z M213.8,594.8c-6.2,0.9-54.7,71.8-55.8,81.6c-1.6,14,2.6,114.2,10.1,117.3 c15.7,6.5,97.6,11.1,219,12.3c106.5,1.1,194.1-1,198.5-3.5c7.4-5.1,3.8-93.4-0.4-104.3c-3.6-9.4-46.2-98.7-51.2-103.7 C526.4,590.4,300.3,593.3,213.8,594.8z"/>
        <path class="st0" d="M495.8,543.1c10.4,4.1,29.3,22.7,30.8,28.8c1.4,6.1,0,21.8-1.4,22.9c-1.4,1.1-11-4.3-11-4.3"/>
        <path class="st1" d="M524.7,596c-1.4,0-4.4-0.8-11.1-4.6c-0.6-0.3-0.8-1-0.4-1.6c0.3-0.6,1-0.8,1.6-0.4c3.8,2.1,8.4,4.2,9.8,4.3 c1-2.2,2.3-16.1,1-21.6c-1.2-5.3-19.5-23.8-30.1-28c-0.6-0.2-0.9-0.9-0.6-1.5c0.2-0.6,0.9-0.9,1.5-0.6 c10.9,4.3,29.9,23.1,31.5,29.6c1.3,5.6,0.3,22.4-1.9,24.1C525.7,595.8,525.4,596,524.7,596z M525.2,594.7L525.2,594.7 L525.2,594.7z"/>
        <path class="st0" d="M220.1,694.9c8.6,11.1,20,15,53.7,29c33.6,14,42.2,68.3,38.3,68.7c-3.9,0.4-23.6-21.8-33.3-32.9 c-9.7-11.1-19.7-10.4-34.3-9.7c-14.7,0.7-39-11.4-45.1-19c-6.1-7.5-12.2-46.1-11.4-52.9s20-33.3,30.4-41.1 c10.4-7.9,47.2-20.7,61.5-24.7c14.3-3.9,103.7-10,113.7-12.9c10-2.9,17.9-12.2,25.8-25.1l33.1-5.3l12.9,43.4L220.1,694.9z"/>
        <path class="st0" d="M328.1,676.3c13.2,6.1,22.2,22.2,20,35.4c-2.1,13.2-12.9,37.6-7.9,41.5c5,3.9,59.8-4.4,68.3,17.9 c1.8,4.7-98.6,1.6-98.6,1.6"/>
        <path class="st1" d="M368.6,774.9c-20.7,0-44.3-0.6-58.6-1c-0.6,0-1.1-0.6-1.1-1.2c0-0.6,0.4-1.1,1.2-1.1 c34.8,1.1,90.7,1.8,97.2-0.7c-6.3-14.4-34.9-14.8-52.1-15.1c-9.3-0.2-13.9-0.3-15.6-1.6c-3.9-3-0.7-13.6,3.1-25.9 c1.8-5.9,3.6-12,4.4-16.6c2.1-12.8-6.8-28.4-19.4-34.2c-0.6-0.3-0.8-0.9-0.6-1.5s1-0.8,1.5-0.6c13.7,6.3,22.9,22.7,20.7,36.6 c-0.8,4.8-2.6,10.9-4.5,16.9c-2.9,9.5-6.5,21.4-3.8,23.5c1.2,0.9,7.8,1,14.2,1.1c19.2,0.3,48.1,0.8,54.5,17.2 c0.2,0.5,0.1,1-0.2,1.4C407.9,774.2,389.8,774.9,368.6,774.9z M407.5,771.5L407.5,771.5L407.5,771.5z"/>
        <path class="st0" d="M348.4,708.8c24.8,2.9,68.1-2.1,68.1-2.1"/>
        <path class="st1" d="M367,710.9c-6.7,0-13.2-0.2-18.7-0.9c-0.6-0.1-1.1-0.6-1-1.3c0.1-0.6,0.7-1.1,1.3-1 c24.3,2.8,67.4-2.1,67.8-2.1c0.6-0.1,1.2,0.4,1.3,1c0.1,0.6-0.4,1.2-1,1.3C416.3,707.9,390.1,710.9,367,710.9z"/>
        <path class="st0" d="M397.5,686c5.7,11.4,30,32.9,59,44.7c29,11.8,51.9,21.8,66.2,21.8s47.2,26.1,54.4,25 c7.2-1.1,6.8-12.2-6.4-22.2c-13.2-10-66.5-34.3-78.3-42.6c-11.8-8.2-17.9-15.7-24.7-47.2"/>
        <path class="st1" d="M576.6,778.7c-3.6,0-10.4-3.9-20.9-10.1c-11.3-6.7-25.4-15-33-15c-13.1,0-33.1-8.2-58.3-18.5l-8.3-3.4 c-30.3-12.3-54.1-34.2-59.6-45.3c-0.3-0.6-0.1-1.3,0.5-1.5c0.6-0.3,1.3-0.1,1.5,0.5c5.4,10.7,28.6,32,58.4,44.2l8.3,3.4 c25,10.2,44.7,18.3,57.4,18.3c8.3,0,22.1,8.1,34.2,15.3c8.5,5,17.2,10.2,20,9.8c1.8-0.3,3-1.3,3.5-3c1-3.8-1.9-10.6-10.4-17.1 c-7.2-5.4-26.9-15.4-44.3-24.3c-14.7-7.5-28.6-14.5-34-18.3c-11.8-8.3-18.2-15.7-25.1-47.9c-0.1-0.6,0.3-1.2,0.9-1.4 c0.6-0.1,1.2,0.3,1.4,0.9c6.8,31.4,12.9,38.6,24.2,46.5c5.3,3.7,19.1,10.7,33.7,18.1c18.3,9.3,37.3,18.9,44.6,24.5 c10.1,7.6,12.4,15.2,11.3,19.5c-0.7,2.6-2.6,4.3-5.4,4.8C577,778.7,576.8,778.7,576.6,778.7z"/>
        <path class="st0" d="M480.8,662.4c9.7,1,30.1,9.2,42.6,9.6c12.5,0.4,29.7,6.8,37.2,20.4c7.5,13.6,4.3,33.7,0,32.6 c-4.3-1.1-14.7-32.9-24-32.9c-9.3,0-45.7,1.6-58.6-9.9"/>
        <path class="st1" d="M408.9,550.4L408.9,550.4l-16.5,0c-0.3,0-0.7-0.2-0.9-0.5c-0.4-0.6-0.7-1.2,9.8-11.4h-8.9 c-0.5,0-0.9-0.4-0.9-0.9c0-0.5,0.4-0.9,0.9-0.9h11c0.4,0,0.7,0.2,0.8,0.5c0.1,0.3,0.1,0.7-0.2,0.9c-4.1,3.9-8.4,8.3-10.2,10.4 l15,0c0.5,0,0.9,0.4,0.9,0.9C409.7,550,409.4,550.4,408.9,550.4z"/>
        <path class="st1" d="M383.7,541.9h-18c-0.3,0-0.7-0.2-0.8-0.5c-0.1-0.3-0.1-0.7,0.1-0.9l13.5-15.4h-15c-0.5,0-0.9-0.4-0.9-0.9 s0.4-0.9,0.9-0.9h16.9c0.3,0,0.7,0.2,0.8,0.5c0.1,0.3,0.1,0.7-0.1,0.9l-13.5,15.4h16.1c0.5,0,0.9,0.4,0.9,0.9 S384.2,541.9,383.7,541.9z"/>
        <path class="st1" d="M331.2,511.3h17.3c0.5,0,0.9,0.3,1.1,0.7c0.2,0.4,0.1,0.9-0.1,1.3l-13.6,17.1h19.1c0.7,0,1.2,0.5,1.2,1.2 c0,0.7-0.5,1.2-1.2,1.2h-21.5c-0.5,0-0.9-0.3-1.1-0.7c-0.2-0.4-0.1-0.9,0.1-1.3l13.6-17.1h-14.9c-0.7,0-1.2-0.5-1.2-1.2 C330,511.8,330.5,511.3,331.2,511.3z"/>
        <path class="st1" d="M203.5,778.7c-0.6,0-1.1-0.5-1.1-1.1v-23.4c0-8.9-32.6-58.8-46.4-77.2c-0.4-0.5-0.3-1.2,0.2-1.6 c0.5-0.4,1.2-0.3,1.6,0.2c11.7,15.5,46.9,68.1,46.9,78.6v23.4C204.6,778.2,204.1,778.7,203.5,778.7z"/>
        <path class="st1" d="M180.2,752.1c-0.5,0-1-0.3-1.1-0.8c-0.2-0.6,0.2-1.2,0.8-1.4c0.1,0,11.1-3.3,17.2-10.4 c0.4-0.5,1.1-0.5,1.6-0.1c0.5,0.4,0.5,1.1,0.1,1.6c-6.5,7.7-17.8,11-18.3,11.2C180.4,752.1,180.3,752.1,180.2,752.1z"/>
        <path class="st1" d="M408.6,772.2c-0.6,0-1.1-0.5-1.1-1.1c0-0.6,0.4-1.2,1.1-1.2c0.3,0,27.2-1.7,43.9-1.7 c5.6,0,12.7-1.5,21.6-3.5c17-3.7,40.3-8.7,69.1-5.9c0.6,0.1,1.1,0.6,1,1.3c-0.1,0.6-0.6,1.1-1.3,1c-28.5-2.7-51.5,2.2-68.4,5.9 c-9.1,2-16.3,3.5-22.1,3.5C435.8,770.5,408.9,772.2,408.6,772.2C408.6,772.2,408.6,772.2,408.6,772.2z"/>
        <path class="st1" d="M175.3,778.7c-0.3,0-0.7-0.1-0.9-0.4c-0.4-0.5-0.3-1.2,0.2-1.6c0.2-0.2,23.9-19.6,28.2-23.4l0.4-0.4l0.5,0.1 c0.6,0.1,63,10.3,80.6,11.7c0.6,0,1.1,0.6,1.1,1.2s-0.6,1.1-1.2,1.1c-16.8-1.3-74.1-10.6-80.3-11.6c-5.2,4.5-27.6,22.9-27.8,23.1 C175.8,778.6,175.6,778.7,175.3,778.7z"/>
        <path class="st1" d="M187.9,679.2c-0.5,0-0.9-0.3-1.1-0.8c-0.1-0.2-2.2-5.6-11.5-5.6c-0.6,0-1.1-0.5-1.1-1.1s0.5-1.1,1.1-1.1 c11,0,13.5,6.8,13.6,7.1c0.2,0.6-0.1,1.3-0.7,1.5C188.1,679.2,188,679.2,187.9,679.2z"/>
        <path class="st1" d="M218.3,638.1c-0.6,0-1.1-0.5-1.1-1.1c-0.4-10.9-7.9-19.1-8-19.2c-0.4-0.5-0.4-1.2,0.1-1.6 c0.5-0.4,1.2-0.4,1.6,0.1c0.3,0.4,8.2,8.9,8.6,20.7C219.4,637.5,218.9,638.1,218.3,638.1C218.3,638.1,218.3,638.1,218.3,638.1z"/>
        <path class="st1" d="M232.9,630.3C232.9,630.3,232.8,630.3,232.9,630.3c-0.7,0-1.2-0.6-1.1-1.2c0.6-12.7-11.6-24.7-11.7-24.8 c-0.5-0.4-0.5-1.2,0-1.6c0.4-0.5,1.2-0.5,1.6,0c0.5,0.5,13,12.9,12.4,26.6C234,629.8,233.5,630.3,232.9,630.3z"/>
        <path class="st1" d="M242.9,626.1C242.9,626.1,242.9,626.1,242.9,626.1c-0.7,0-1.2-0.6-1.1-1.2c0.3-8.5-4.6-20.9-4.6-21 c-0.2-0.6,0.1-1.3,0.6-1.5c0.6-0.2,1.3,0.1,1.5,0.6c0.2,0.5,5.1,13,4.8,22C244,625.6,243.5,626.1,242.9,626.1z"/>
        <path class="st1" d="M517.9,672.6c-0.6,0-1.1-0.5-1.1-1.1c0-17.8,3.3-48.5,12.4-55.4c0.5-0.4,1.2-0.3,1.6,0.2 c0.4,0.5,0.3,1.2-0.2,1.6c-8,6-11.5,34.9-11.5,53.5C519.1,672.1,518.6,672.6,517.9,672.6L517.9,672.6z"/>
        <path class="st1" d="M527.2,673.5C527.2,673.5,527.2,673.5,527.2,673.5c-0.7,0-1.2-0.6-1.1-1.2c1.1-19.7,7-40.2,7.1-40.4 c0.2-0.6,0.8-1,1.4-0.8c0.6,0.2,1,0.8,0.8,1.4c-0.1,0.2-5.9,20.4-7,39.9C528.3,673,527.8,673.5,527.2,673.5z"/>
        <path class="st1" d="M536.8,675.5c-0.6,0-1.1-0.5-1.1-1.1c-0.4-6.5,6-20,6.3-20.6c0.3-0.6,1-0.8,1.5-0.5c0.6,0.3,0.8,1,0.5,1.5 c-0.1,0.1-6.5,13.5-6.1,19.4C538,674.9,537.5,675.5,536.8,675.5C536.8,675.5,536.8,675.5,536.8,675.5z"/>
        <path class="st1" d="M560.6,750.2c-0.2,0-0.4,0-0.5-0.1c-0.6-0.3-0.8-1-0.5-1.5l25.7-51.3c0.3-0.6,1-0.8,1.5-0.5 c0.6,0.3,0.8,1,0.5,1.5l-25.7,51.3C561.4,750,561,750.2,560.6,750.2z"/>
        <path class="st1" d="M569.6,787.8c0,0-0.1,0-0.1,0c-0.6-0.1-1.1-0.7-1-1.3c0.9-7.6-8.5-15.4-8.6-15.5c-0.5-0.4-0.6-1.1-0.2-1.6 c0.4-0.5,1.1-0.6,1.6-0.2c0.4,0.4,10.6,8.7,9.5,17.5C570.7,787.4,570.2,787.8,569.6,787.8z"/>
        <path class="st0" d="M489.6,620.6c-5.2,8.8-12.3,67.3-13.2,74"/>
        <path class="st1" d="M476.4,695.8c-0.1,0-0.1,0-0.2,0c-0.6-0.1-1.1-0.7-1-1.3l0.4-3.2c5.5-42.4,9.7-65.7,12.9-71.2 c0.3-0.5,1-0.7,1.6-0.4c0.5,0.3,0.7,1,0.4,1.6c-3,5.2-7.3,28.8-12.6,70.3l-0.4,3.2C477.4,695.3,476.9,695.8,476.4,695.8z"/>
        <path class="st0" d="M444.9,575.7c0.5,12.2,6.6,40.2,0,41.8c-6.6,1.5-27,5.6-28,0c-1-5.6-0.5-43.8,5.6-51.4 c6.1-7.6,26.5-28.5,35.1-29.5c8.7-1,31.1-2,38.2,6.6c7.1,8.7,11.2,29.2,14.3,35s5.7,16.7,2.9,26.7c-1.9,6.8-15.7,17.9-27.4,15.6 s-25.5-9-25.5-9"/>
        <path class="st1" d="M489,621.8c-1.2,0-2.4-0.1-3.6-0.3c-11.7-2.4-25.2-8.8-25.7-9.1c-0.6-0.3-0.8-1-0.5-1.5 c0.3-0.6,1-0.8,1.5-0.5c0.1,0.1,13.8,6.6,25.2,8.9c11.2,2.3,24.3-8.5,26-14.7c2.5-9.3,0.3-19.9-2.8-25.9c-1.1-2.1-2.3-6-3.7-10.4 c-2.6-8.4-5.9-18.9-10.4-24.4c-6.3-7.6-26.3-7.5-37.2-6.2c-8,0.9-28,21.1-34.4,29.1c-5.6,7-6.4,44.6-5.4,50.5 c0,0.2,0.2,0.5,0.7,0.9c3.5,2.3,16.2,0.5,26-1.8c3.8-0.9,1.8-16.9,0.4-27.5c-0.6-4.9-1.2-9.6-1.3-13.1c0-0.6,0.5-1.2,1.1-1.2 c0.6-0.1,1.2,0.5,1.2,1.1c0.1,3.4,0.7,8,1.3,12.9c2.2,17.4,3.2,28.8-2.2,30.1c-5.2,1.2-22.6,4.9-27.7,1.5 c-0.9-0.6-1.5-1.4-1.7-2.4c-0.9-5.2-0.7-44.2,5.8-52.4c6.3-7.8,26.8-28.9,35.9-30c3.1-0.4,30.7-3.3,39.2,7 c4.8,5.8,8.1,16.5,10.8,25.1c1.4,4.4,2.5,8.1,3.6,10c3.5,6.5,5.7,17.6,3,27.5C512.4,611.5,500.6,621.8,489,621.8z"/>
        <path class="st0" d="M503.2,589.7c2.9-0.8,7.5,1.2,6.6,5.2c-1.3,5.6-11.2,1.7-12.7,0C496,593.5,499.5,590.7,503.2,589.7z"/>
        <path class="st1" d="M505.5,598.9c-3.7,0-8.1-2.1-9.2-3.3c-0.5-0.6-0.6-1.3-0.4-2.1c0.6-2.1,4-4.2,7-5l0,0 c2.2-0.6,4.9,0.1,6.6,1.7c1.4,1.3,1.9,3,1.5,4.9c-0.4,1.9-1.6,3.1-3.5,3.6C506.8,598.9,506.2,598.9,505.5,598.9z M503.5,590.8 c-3.2,0.9-5.4,2.9-5.4,3.5c0.7,0.8,5.8,3,8.8,2.2c1-0.3,1.6-0.9,1.9-1.9c0.2-1.1,0-2-0.8-2.7 C506.8,590.9,504.9,590.4,503.5,590.8L503.5,590.8z"/>
        <path class="st1" d="M311.8,793.7c-1.7,0-6.5-1.9-33.9-33.3c-9.1-10.5-18.4-10-32.6-9.3l-0.8,0c-15,0.7-39.7-11.6-46-19.4 C192,723.9,186,685,186.7,678c0.8-7.3,20.4-34,30.9-41.9c10.7-8.1,48.3-21.1,61.9-24.9c7.8-2.1,36.5-4.8,64.4-7.4 c23.1-2.1,44.9-4.2,49.4-5.5c8.6-2.5,16.1-9.8,25.1-24.6c0.3-0.5,1-0.7,1.6-0.4c0.5,0.3,0.7,1,0.4,1.6 c-9.4,15.3-17.3,23-26.5,25.6c-4.7,1.4-25.6,3.3-49.8,5.5c-26.4,2.5-56.4,5.2-64,7.3c-13.5,3.7-50.7,16.5-61.1,24.5 c-10.4,7.9-29.3,34.2-30,40.3c-0.6,6.2,5.3,44.9,11.2,52.1c5.9,7.3,30,19.2,44.1,18.5l0.8,0c14.3-0.7,24.6-1.2,34.4,10.1 c24.1,27.6,30.4,31.9,32,32.5c0.6-2-0.1-10.4-3.6-21.6c-3.3-10.5-13.3-35.9-34.7-44.8l-8.9-3.7c-27.1-11.2-37.2-15.4-45.2-25.6 c-0.4-0.5-0.3-1.2,0.2-1.6c0.5-0.4,1.2-0.3,1.6,0.2c7.6,9.8,17.6,13.9,44.2,24.9l9,3.7c31.4,13,41,60.2,39.7,68.5 c-0.2,1.5-0.8,2.3-1.8,2.4C312,793.7,311.9,793.7,311.8,793.7z"/>
        <path class="st1" d="M560.9,726.2c-0.2,0-0.5,0-0.6-0.1c-2.1-0.5-4.2-4.5-8.1-12.1c-4.5-8.8-10.6-20.8-15.6-20.8 c-0.8,0-1.9,0-3.2,0c-13.2,0.2-44.2,0.6-56.2-10.2c-0.5-0.4-0.5-1.1-0.1-1.6c0.4-0.5,1.2-0.5,1.6-0.1 c11.4,10.2,42.8,9.8,54.7,9.7c1.3,0,2.3,0,3.2,0c6.4,0,12.4,11.7,17.7,22.1c2.4,4.7,5.4,10.5,6.6,10.9c0.2,0,0.5-0.2,0.7-0.5 c2.9-3.7,4.1-19.5-2-30.4c-7.2-13.1-23.9-19.4-36.2-19.8c-7.3-0.2-17.3-3-26-5.6c-6.5-1.9-12.6-3.6-16.7-4 c-0.6-0.1-1.1-0.6-1-1.3c0.1-0.6,0.6-1.1,1.3-1c4.3,0.4,10.5,2.2,17.1,4.1c8.6,2.5,18.4,5.3,25.5,5.5c13,0.4,30.5,7.1,38.2,21 c6.7,12.1,5.2,28.6,1.8,32.9C562.5,725.9,561.6,726.2,560.9,726.2z"/>
      </g>
      <g>
        <path class="st0" d="M1621.9,529.6c0,0-41.7,36-69,41.7s-68.5,0.5-104.5-4.1c-36-4.6-78.7,7.7-86.5,7.7s-51.5-19.6-62.8-25.1 c-11.3-5.5-45.3-3.8-59.2,0c-13.9,3.8-28.3,23.5-24.2,24.5c4.1,1,9.8-4.6,20.1-10.3c10.3-5.7,62.3-1,69.5,0 c7.2,1,48.4,29.3,44.3,38.1c-4.1,8.8-13.4,47.9-15.4,62.3c-2.1,14.4-1.5,18-10.3,26.2c-8.7,8.2-29.9,17-37.1,28.8 s-33.5,47.9-33.5,55.1c0,7.2,23.7,30.4,27.8,25.1c4.1-5.2-1-26.2,0-30.4c1-4.2,19-31.8,27.8-39c8.8-7.2,58.7-34.5,74.4-46.1 c0,0,50.3-25.6,53.2-24.7s46.5,14.2,56.9,18c10.4,3.8,20.8,9.6,30.3,10.4c9.5,0.8,75.5-10.8,79.8-14.6 c4.3-3.9,14.1-13.3,16.5-18.5s7.7-18.4,8.2-24c0.5-5.6,20.1-38.2,20.1-38.2s17.3-40.7,16.8-40.8 C1664.6,551.7,1621.9,529.6,1621.9,529.6z"/>
        <path class="st0" d="M1665.7,529.6c-5.7,8.2-11.8,38.6-17,40.7c-5.1,2.1-26.2-35.5-26.8-40.7c-0.5-5.1,11.3-11.3,21.9-12.9 c10.6-1.5,34.2-1,43,4.6c8.7,5.7,19,27.3,31.9,31.4c12.9,4.1,16,18.5,7.2,22.6c-8.8,4.1-39.6,4.6-46.3,0 c-6.7-4.6-3.1,6.7,9.8,12.9s19.6,7.7,14.4,10.3c-5.1,2.6-36-9.3-44.8-4.6c-8.7,4.6-28.3,22.1-30.9,37.6 c-2.6,15.4-13.4,33.5-14.9,36"/>
        <path class="st0" d="M1619.1,656.7c-1.3,23.3-0.3,64.4,7.9,75.2c8.2,10.8,12.9,16.5,12.9,21.1s16.5,22.6,24.2,25.7 s21.6,2.6,23.7,7.2c2.1,4.6-2.2,18.5-15.8,18s-17.1,2.6-26.9-6.7c-9.8-9.3-74.1-87-80.3-109.6"/>
        <path class="st1" d="M1660.4,805.2c-5.6,0-9.6-0.9-16.1-7.1c-9.4-8.9-74.3-87-80.6-110.2c-0.2-0.6,0.2-1.2,0.8-1.4 c0.6-0.2,1.2,0.2,1.4,0.8c6.2,22.8,70.6,100.3,80,109.1c7.1,6.7,10.5,6.6,17.9,6.4c2.3-0.1,5-0.2,8.3,0 c6.8,0.3,10.5-3.2,12.5-6.1c2.5-3.8,3.1-8.3,2.2-10.3c-1-2.2-6.5-3.1-11.9-4c-3.9-0.6-8-1.3-11.2-2.6 c-7.9-3.2-24.9-21.5-24.9-26.8c0-3.9-4-9.2-10.7-17.9l-1.9-2.5c-8.5-11.1-9.5-52.5-8.2-76c0-0.6,0.6-1.1,1.2-1.1 c0.6,0,1.1,0.6,1.1,1.2c-1.4,24.9,0,64.4,7.7,74.5l1.9,2.5c7.2,9.5,11.2,14.7,11.2,19.3c0,4,16.1,21.7,23.5,24.7 c2.9,1.2,6.9,1.8,10.7,2.4c6.5,1.1,12.1,2,13.6,5.4c1.4,3.1,0.3,8.4-2.4,12.5c-3.3,4.8-8.4,7.4-14.4,7.1c-3.2-0.1-5.8,0-8.1,0 C1662.6,805.2,1661.5,805.2,1660.4,805.2z"/>
        <path class="st0" d="M1598.8,671.2c-11.8,10.8-39.6,15.4-39.6,21.6s3.6,71.5-3.6,74.1c-7.2,2.6-66.4,4.6-66.9-2.1 c-0.5-6.7-0.5-13.9,5.7-13.9c6.2,0,37.1,5.1,38.1,0.5s1-52-13.9-62.8s13.4-32.9,13.9-34.5"/>
        <path class="st1" d="M1520,770.5c-13.9,0-27.3-0.9-31-3.3c-0.9-0.6-1.4-1.3-1.5-2.2c-0.4-4.9-0.6-10.4,2.1-13.2 c1.2-1.3,2.7-1.9,4.7-1.9c1.8,0,5.2,0.4,9.6,0.9c7.2,0.8,26.2,2.8,27.4,0.5c0.9-3.9,0.9-51.2-13.5-61.6c-3-2.1-4.6-4.9-4.8-8.1 c-0.7-9.5,10.8-20.5,16.3-25.8c0.9-0.9,1.9-1.9,2.1-2.1c0.2-0.6,0.8-0.8,1.4-0.6c0.6,0.2,0.9,0.9,0.7,1.5c-0.2,0.5-0.6,1-2.6,2.9 c-4.8,4.7-16.1,15.6-15.6,23.9c0.2,2.5,1.4,4.6,3.8,6.4c15.8,11.5,15.3,59.6,14.3,64c-0.8,3.7-9.9,3.4-29.8,1.2 c-4.2-0.5-7.7-0.8-9.4-0.8c-1.3,0-2.3,0.4-3,1.1c-1.9,2.1-1.9,7-1.5,11.5c0,0,0.1,0.2,0.7,0.6c8.3,4.7,58.2,2.8,64.7,0.5 c2.4-0.9,4.9-13.2,3-66.7c-0.1-3.1-0.2-5.4-0.2-6.3c0-3.9,6.7-6.5,16.1-10.1c8.5-3.3,18.2-7.1,23.9-12.3c0.5-0.4,1.2-0.4,1.6,0.1 c0.4,0.5,0.4,1.2-0.1,1.6c-6.1,5.6-15.9,9.4-24.6,12.8c-6.9,2.7-14.6,5.7-14.6,8c0,0.9,0.1,3.1,0.2,6.2c1.7,47.2,0.4,67.2-4.6,69 C1552.2,769.3,1535.8,770.5,1520,770.5z"/>
        <path class="st0" d="M1516.4,686.8c-15.4-8.4-78.7-26.9-78.7-26.9"/>
        <path class="st1" d="M1516.4,687.9c-0.2,0-0.4,0-0.6-0.1c-15.1-8.2-77.9-26.6-78.5-26.8c-0.6-0.2-1-0.8-0.8-1.4 c0.2-0.6,0.8-1,1.4-0.8c2.6,0.8,63.6,18.7,79,27c0.6,0.3,0.8,1,0.5,1.6C1517.2,687.7,1516.8,687.9,1516.4,687.9z"/>
        <path class="st0" d="M1437.7,650.1c0,9.8-17,87-17,91.1s16.5,41.7,25.2,44.3c8.8,2.6,30.9,5.7,31.1,13.4c0.3,7.7-27,9.8-39.4,8.2 c-12.4-1.5-48.9-44.8-48.4-53.5c0.5-8.8,6.2-56.3-3.6-66.8c-9.8-10.4-23.7-26.9-23.7-26.9"/>
        <path class="st1" d="M1446.8,808.7c-3.6,0-6.8-0.2-9.3-0.5c-13.1-1.6-49.9-45.2-49.4-54.7c0.1-1.1,0.2-2.9,0.4-5.2 c1.2-14.2,4.5-52-3.7-60.7c-9.7-10.3-23.6-26.8-23.7-27c-0.4-0.5-0.3-1.2,0.1-1.6c0.5-0.4,1.2-0.3,1.6,0.1 c0.1,0.2,14,16.6,23.6,26.9c8.9,9.5,5.7,46.6,4.3,62.5c-0.2,2.3-0.3,4-0.4,5.1c-0.5,8.1,35.7,50.9,47.4,52.3 c10.9,1.4,31.7-0.2,37-5c0.7-0.7,1.1-1.4,1.1-2.1c-0.2-5.2-14.1-8.4-23.3-10.6c-2.8-0.6-5.2-1.2-7-1.7c-9.7-2.8-26-41.6-26-45.4 c0-1.7,2.1-12.1,5.8-30.5c4.7-23.1,11.1-54.8,11.1-60.6c0-0.6,0.5-1.1,1.1-1.1c0.6,0,1.1,0.5,1.1,1.1c0,6-6.2,36.6-11.2,61.1 c-3,14.7-5.8,28.5-5.8,30c0,4.5,16.6,40.9,24.4,43.2c1.8,0.5,4.2,1.1,6.9,1.7c11.1,2.6,24.8,5.8,25.1,12.7c0,1.4-0.6,2.7-1.8,3.9 C1471.5,807.1,1457.6,808.7,1446.8,808.7z"/>
        <path class="st1" d="M1279.4,801.7c-0.6,0-1.4-0.1-2.3-0.4c-7.9-2.7-24.8-19.9-24.8-26.6c0-5.1,10.3-20.8,23.9-40.9 c4.1-6.1,7.7-11.5,9.8-14.8c4.6-7.6,14.7-13.9,23.5-19.5c5.4-3.4,10.5-6.6,13.7-9.6c7.4-7,7.9-10.2,9.3-21 c0.2-1.4,0.4-2.9,0.6-4.6c2-14,11.3-53.6,15.5-62.6c0.5-1.1-0.1-2.6-0.8-3.8c-6.2-11.6-37.2-31.9-42.6-32.7 c-7.5-1.1-59-5.5-68.8-0.1c-3.5,1.9-6.5,3.9-9.1,5.6c-5.2,3.4-8.6,5.6-11.8,4.8c-1-0.2-1.6-1.1-1.6-2.2 c-0.1-5.2,13.4-21.2,25.8-24.6c14.5-3.9,48.6-5.5,60,0.1c12.7,6.2,55.1,24.9,62.3,24.9c1.9,0,6.6-0.9,12.4-2 c17.8-3.4,47.5-9.1,74.2-5.7c34.1,4.4,76.6,9.8,104.1,4.1c26.7-5.5,68-41.1,68.5-41.4c0.5-0.4,1.2-0.4,1.6,0.1 c0.4,0.5,0.4,1.2-0.1,1.6c-1.7,1.5-42.2,36.3-69.5,41.9c-27.9,5.8-70.6,0.3-104.9-4.1c-26.3-3.4-55.8,2.3-73.5,5.7 c-6.2,1.2-10.7,2.1-12.9,2.1c-8.4,0-54.5-20.9-63.3-25.2c-10.7-5.2-44.3-3.8-58.4,0.1c-9.4,2.6-19.6,13.2-23,19.5 c-0.9,1.6-1,2.5-1,2.8c2.2,0.4,5.4-1.7,9.8-4.6c2.6-1.7,5.6-3.7,9.2-5.7c11.2-6.1,65.5-0.8,70.2-0.1c6.6,0.9,38,22.2,44.3,33.9 c1.3,2.3,1.5,4.3,0.8,5.9c-4.2,8.9-13.4,48-15.3,62c-0.2,1.7-0.4,3.2-0.6,4.6c-1.4,10.8-2,14.8-10,22.4 c-3.4,3.2-8.6,6.4-14.1,9.9c-8.7,5.4-18.5,11.6-22.8,18.7c-2.1,3.4-5.7,8.7-9.8,14.9c-9.3,13.8-23.5,34.8-23.5,39.6 c0,5.4,15.7,21.8,23.3,24.4c0.7,0.2,2,0.6,2.4,0c2.3-3,1.2-12.8,0.3-19.9c-0.5-4.6-1-8.3-0.6-10.1c1.1-4.7,19.4-32.3,28.2-39.6 c4.3-3.5,18.3-11.8,33.1-20.6c15.6-9.2,33.2-19.6,41.3-25.6c0.5-0.4,1.2-0.3,1.6,0.2c0.4,0.5,0.3,1.2-0.2,1.6 c-8.2,6-25.1,16-41.5,25.7c-14.8,8.7-28.7,16.9-32.9,20.4c-8.5,7-26.4,34.2-27.4,38.4c-0.3,1.3,0.1,5.2,0.6,9.2 c1,8.4,2.1,17.9-0.8,21.6C1281.6,801.1,1280.8,801.7,1279.4,801.7z"/>
        <path class="st1" d="M1613.2,668.7c-0.2,0-0.4-0.1-0.6-0.2c-0.5-0.3-0.7-1-0.4-1.6c2.9-4.8,12.4-21.5,14.8-35.6 c2.6-15.7,21.9-33.3,31.5-38.4c5.4-2.8,17.7-0.1,28.5,2.3c6.8,1.5,14.5,3.2,16.3,2.3c1-0.5,1.1-0.8,1.1-0.8 c-0.3-0.6-4.1-2.3-7.7-3.9c-2.2-1-4.9-2.2-7.8-3.6c-8.7-4.2-13.7-10.9-13.7-14c0-0.9,0.3-1.6,1-1.9c1-0.5,2.3-0.2,4.1,1.1 c6,4.1,36.4,4.1,45.2-0.1c2.9-1.4,4.5-4.2,4.3-7.7c-0.3-4.7-3.9-10.4-11.3-12.8c-8-2.6-15-11.5-21.1-19.4 c-4-5.1-7.7-9.9-11.1-12.1c-8.7-5.6-32.4-5.9-42.2-4.5c-10.6,1.5-21.3,7.5-20.9,11.6c0.4,4.3,16.8,33.9,24,39.1 c0.9,0.7,1.2,0.6,1.2,0.6c2.3-0.9,5.7-11.5,8.5-20c2.6-8.1,5.3-16.4,8-20.3c0.4-0.5,1.1-0.7,1.6-0.3c0.5,0.4,0.7,1.1,0.3,1.6 c-2.5,3.6-5.1,11.7-7.7,19.7c-4,12.5-6.7,20.2-9.8,21.4c-0.8,0.3-1.8,0.2-2.9-0.5c-7.5-4.6-25-36.1-25.5-41.1 c-0.6-6,11.8-12.5,22.9-14.1c10.3-1.5,34.5-1.2,43.8,4.8c3.7,2.4,7.5,7.4,11.6,12.6c5.9,7.6,12.6,16.3,20,18.6 c8.4,2.7,12.6,9.4,12.9,14.9c0.3,4.4-1.8,8.1-5.6,9.9c-9,4.2-40.3,4.9-47.5-0.1c-0.7-0.5-1.2-0.7-1.5-0.8 c0.3,1.9,4.3,7.8,12.4,11.7c2.9,1.4,5.5,2.6,7.8,3.6c6.2,2.8,9,4,9,6c0,1.5-1.7,2.4-2.4,2.8c-2.5,1.2-8.4,0-17.8-2.1 c-9.9-2.2-22.3-5-26.9-2.5c-9,4.8-27.8,22-30.3,36.7c-2.4,14.1-11.3,30.2-15.1,36.4C1613.9,668.5,1613.6,668.7,1613.2,668.7z"/>
        <g>
          <path class="st0" d="M1725,555.8c-4.7-0.6-1.1,10.5,3.2,11.1s2.9-6.5,1.4-8.6C1727.8,555.7,1725,555.8,1725,555.8z"/>
          <path class="st1" d="M1728.9,568.1c-0.3,0-0.5,0-0.8,0c-3.9-0.6-6.8-7.1-6.4-10.6c0.3-1.9,1.5-3,3.4-2.8c0.6,0,3.5,0.2,5.5,3 c1.2,1.6,2.5,6.4,0.9,8.9C1731,567.6,1730,568.1,1728.9,568.1z M1724.6,556.9c-0.3,0-0.5,0.2-0.6,0.8c-0.4,2.6,2.1,7.7,4.4,8 c0.8,0.1,1-0.1,1.2-0.4c0.8-1.4,0.1-5.1-0.9-6.3c-1.5-2.1-3.5-2.1-3.7-2.1l0,0l-0.2,0C1724.8,557,1724.7,556.9,1724.6,556.9z"/>
        </g>
      </g>
      <g>
        <path class="st0" d="M1978.5,730.2c-4.2,7-83.7,0.6-91.6,5.6c-7.8,5-46,46.3-51.7,46.7s-13.5-11.1-7.8-17.5s50.7-55.3,65.6-55.3 c14.9,0,67.3,7.5,74.8,9.3C1975.3,720.8,1978.5,730.2,1978.5,730.2z"/>
        <path class="st1" d="M1834.9,783.7c-3.7,0-7.4-3.7-9.3-7.4c-2.2-4.5-1.9-8.9,0.8-11.9c0.5-0.6,50-55.7,66.5-55.7c0,0,0,0,0,0 c15,0,67.2,7.4,75.1,9.3c8,1.9,11.3,11.5,11.5,11.9l0.2,0.5l-0.3,0.5c-2.5,4.1-20.8,4.3-50.8,4.1c-18.6-0.1-37.8-0.2-41.1,1.9 c-3.2,2-11.8,10.5-21,19.6c-17.1,16.8-27.7,27.1-31.2,27.3C1835.2,783.7,1835.1,783.7,1834.9,783.7z M1893,710.9 c-13,0-52.1,40.6-64.8,54.9c-3,3.3-1.3,7.7-0.5,9.4c1.8,3.6,5.1,6.3,7.4,6.1c2.9-0.2,19.1-16.1,29.8-26.6 c9.7-9.5,18-17.7,21.4-19.9c3.6-2.3,18.4-2.4,42.4-2.2c19,0.1,44.8,0.3,48.5-2.6c-0.8-2-3.9-8.4-9.6-9.8 C1959.9,718.4,1907.4,710.9,1893,710.9C1893,710.9,1893,710.9,1893,710.9z"/>
        <path class="st0" d="M2248.3,603.8c-30.2-12-31.2-13.5-30.7-25.5c0.5-12,2.1-33.8,10.4-33.8s32.2,29.6,32.2,29.6"/>
        <path class="st0" d="M2251.8,564.2c16.6-3.1,32-0.9,37.6,1.9c5.6,2.8,28.2,27.6,36.4,29.8s14.7,0.9,18.2,9.7 c3.4,8.8-19.1,24.1-27.6,26.3c-8.5,2.2-21.6-1.3-27.3,4.7s-10.7,21.6-10,28.5c0.6,6.9,13.2,39.8,19,45.8s89.2,17.9,101.4,16.9 c12.2-0.9,21.3-8.5,31-8.2c9.7,0.3-0.9,24.5-12.5,28.5c-11.6,4.1-177.8-3.4-190.3,0s-26,16.9-36.1,19.8s-80.6-29.2-99.4-32.3 c-18.8-3.1-66.5-36.4-66.5-36.4s113.9-22.8,145.1-49.4c18.1-15.5,28.2-21.5,37.3-31.3c15.8-16.9,26.7-19.3,28.6-29.2 C2238.7,579.5,2251.8,564.2,2251.8,564.2z"/>
        <path class="st1" d="M2190,769.4c-7.4,0-26.3-6.9-53.2-17.2c-18.9-7.2-36.7-13.9-44.8-15.3c-18.9-3.1-65-35.2-66.9-36.6 c-0.5-0.4-0.6-1.1-0.3-1.6c0.4-0.5,1.1-0.6,1.6-0.3c0.5,0.3,47.7,33.1,66,36.2c8.3,1.4,26.3,8.2,45.2,15.4 c22.7,8.6,48.4,18.4,53.7,16.9c4.5-1.3,9.9-4.9,15.7-8.7c6.7-4.5,13.6-9.1,20.4-11c6.2-1.7,47.3-0.8,90.8,0.1 c43.9,0.9,93.6,2,99.5-0.1c8.5-3,16.4-17.8,15.5-23.8c-0.3-1.7-1.1-2.4-2.6-2.5c-4.7-0.1-9.4,1.7-14.4,3.6 c-5.1,2-10.4,4-16.5,4.5c-10.5,0.8-95.9-10.6-102.3-17.3c-5.9-6.1-18.6-39-19.3-46.5c-0.6-7.1,4.4-23.2,10.3-29.4 c3.9-4.1,10.7-4.1,17.2-4.2c3.7,0,7.5-0.1,10.6-0.8c6.2-1.6,21.9-11.6,26.1-19.8c1-2,1.2-3.7,0.7-5c-2.4-6.2-6.4-6.9-12-7.9 c-1.7-0.3-3.5-0.6-5.5-1.2c-5.2-1.4-15.1-10.7-23.9-18.9c-5.4-5.1-10.6-9.9-12.7-11c-5.3-2.6-20.2-4.9-36.9-1.8 c-0.6,0.1-1.2-0.3-1.3-0.9c-0.1-0.6,0.3-1.2,0.9-1.3c17.3-3.2,32.8-0.7,38.4,2c2.4,1.2,7.2,5.7,13.3,11.3 c8.2,7.6,18.3,17.1,22.9,18.4c1.8,0.5,3.6,0.8,5.3,1.1c5.8,1,10.8,1.9,13.7,9.3c0.8,2,0.5,4.3-0.8,6.9 c-4.7,9.2-20.9,19.2-27.6,21c-3.3,0.9-7.3,0.9-11.1,0.9c-6.1,0-12.4,0.1-15.6,3.5c-5.4,5.7-10.3,21.1-9.7,27.6 c0.6,6.7,13.2,39.5,18.7,45.1c5.1,5.3,86.7,17.7,100.5,16.6c5.8-0.4,10.9-2.4,15.9-4.4c5.2-2,10.1-4,15.3-3.8 c2.6,0.1,4.4,1.7,4.8,4.4c1.2,7.6-7.7,23.1-17,26.3c-6.2,2.2-51.9,1.2-100.3,0.2c-41.4-0.9-84.3-1.8-90.1-0.2 c-6.5,1.8-13.2,6.3-19.7,10.7c-5.9,3.9-11.4,7.7-16.3,9.1C2191.4,769.4,2190.8,769.4,2190,769.4z"/>
        <path class="st0" d="M2029.2,651.2c0.6,17.6-0.3,58-7.5,69.3s-41.4,12.2-51.7,7.8c-10.3-4.4-51.1-20.4-51.1-20.4"/>
        <path class="st0" d="M1918.8,701.6c0,6.3-3.7,39.5-6.2,48.1c-2.5,8.6-19.6,31.4-27.4,30.7c-7.8-0.7-2.9-24.6,2.5-29.2 c5.3-4.6,6.1-13.5,5.7-31.7c-0.4-18.2-2.8-34.6,6.6-36.4s26.2,4.3,28.3,2.1c2.1-2.1,0-45.3,2.1-51.3s21.7-13.9,21.7-13.9 s-34.6-21.4-41.3-30.3c-6.8-8.9-33.5-30.3-35.3-37.4c-1.8-7.1-0.4-63.1,3.9-59.2c4.3,3.9,38.5,50.6,44.2,60.6 c5.7,10,42.8,44.6,47.4,46.7c4.6,2.1,30.7-10.6,63.8,3.4c33.2,14,52,28.7,77.7,34.4c25.7,5.7,63.8,3,70.9-1.5 c7.1-4.5,32.3-41.1,48.9-39.4c0,0-110.9,117.3-139.2,118.8c-28.3,1.6-68.8-18.9-72.1-18.3c-3.3,0.6-94.6,11.9-100.5,10.9 S1918.8,701.6,1918.8,701.6z"/>
        <path class="st1" d="M1885.5,781.5c-0.2,0-0.3,0-0.4,0c-1.5-0.1-3.4-1-4.4-4.1c-2.4-7.5,1.8-23.3,6.3-27.1c5-4.3,5.7-13,5.3-30.8 c-0.1-2.9-0.2-5.8-0.3-8.6c-0.6-15.2-1.1-27.3,7.8-28.9c5.3-1,12.7,0.4,18.7,1.5c3.7,0.7,8.2,1.5,9.1,1 c0.7-1.4,0.7-13.6,0.7-23.4c0-12.5,0-24.3,1.1-27.5c1.9-5.4,15-11.4,20.3-13.7c-7.4-4.7-33.8-21.5-39.8-29.4 c-2.7-3.5-8.7-9.2-15-15.1c-10-9.4-19.4-18.2-20.5-22.8c-1.3-5.1-1.3-57.6,3.8-60.6c0.7-0.4,1.4-0.3,2,0.3 c4.5,4.2,39,51.4,44.4,60.9c5.7,10,42.6,44.2,46.9,46.2c1,0.4,4.1-0.2,7.8-0.9c11.1-2.1,31.7-6,55.9,4.3 c13,5.5,23.9,11.2,33.6,16.2c15.2,7.9,28.4,14.7,43.9,18.1c25,5.6,63,3.1,70.1-1.4c1.9-1.2,5.6-5.4,9.9-10.2 c11.5-12.9,27.4-30.6,39.7-29.4c0.6,0.1,1.1,0.6,1,1.3c-0.1,0.6-0.6,1.1-1.3,1c-11.2-1.2-27.2,16.8-37.8,28.6 c-4.6,5.1-8.2,9.2-10.4,10.6c-7.5,4.8-45.8,7.4-71.8,1.7c-15.8-3.5-29.1-10.4-44.4-18.3c-9.6-5-20.6-10.6-33.5-16.1 c-23.6-10-43.8-6.2-54.6-4.1c-4.7,0.9-7.6,1.4-9.2,0.7c-5.4-2.5-42.3-37.3-47.9-47.2c-5.8-10.2-38-53.9-43.5-59.9 c-2.7,5.7-4.2,50.7-2.5,57.6c1,3.9,11,13.3,19.8,21.6c6.4,6,12.4,11.7,15.2,15.4c6.6,8.6,40.7,29.8,41,30l1.9,1.2l-2.1,0.8 c-5.3,2.1-19.5,8.7-21.1,13.2c-1,2.8-1,15.5-1,26.8c0,18.3-0.2,23.8-1.4,25c-1.3,1.3-4.5,0.8-11.1-0.4 c-5.8-1.1-12.9-2.4-17.8-1.5c-6.9,1.3-6.5,12.5-6,26.6c0.1,2.8,0.2,5.7,0.3,8.6c0.4,18.6-0.4,27.7-6.1,32.6 c-3.8,3.3-7.7,18.1-5.6,24.7c0.8,2.4,2,2.5,2.4,2.5c0.1,0,0.2,0,0.3,0c6.8,0,23.4-21.1,26-29.8c2.4-8.3,6.2-41.6,6.2-47.8 c0-0.6,0.5-1.1,1.1-1.1c0.6,0,1.1,0.5,1.1,1.1c0,6.4-3.7,39.7-6.3,48.4C1911.4,758,1894.5,781.5,1885.5,781.5z"/>
        <path class="st0" d="M2249,747.4c6.8,2.6,29.4,27.9,43,28.3s23.7,1.7,33.5,8.1c9.8,6.4,42,24.4,66.7,23.7s24.7-19.3,16.6-19 c-8.1,0.3-23,0-31.8-1.4c-8.8-1.4-55.8-38.8-82.6-39.2C2267.6,747.5,2249,747.4,2249,747.4z"/>
        <path class="st1" d="M2390.8,808.7c-23.3,0-53.2-15.5-65.9-23.9c-9.4-6.2-19.2-7.6-32.9-7.9c-9.2-0.2-21.8-11-31.9-19.6 c-5-4.3-9.3-8-11.5-8.8l-6-2.3l6.4,0c0.2,0,18.9,0.1,45.4,0.6c18.1,0.3,44.4,16.7,63.6,28.6c8.8,5.5,16.4,10.2,19.1,10.6 c8.4,1.3,22.9,1.7,31.6,1.3c2-0.1,3.9,0.9,5,2.6c1.5,2.4,1.4,5.8-0.3,8.9c-1.5,2.8-6.5,9.3-21.2,9.7 C2391.7,808.7,2391.3,808.7,2390.8,808.7z M2253.2,748.6c2.3,1.7,5.2,4.1,8.4,6.9c9.3,7.9,22,18.8,30.4,19 c14.1,0.4,24.2,1.8,34.1,8.3c12.8,8.4,43.1,24.1,66,23.5c13.5-0.4,18-6.1,19.3-8.5c1.3-2.4,1.4-5,0.3-6.6 c-0.5-0.7-1.3-1.6-2.9-1.5c-8.8,0.4-23.5-0.1-32-1.4c-3.2-0.5-10.2-4.9-20-10.9c-17.9-11.1-45-28-62.4-28.3 C2275.2,748.8,2260.1,748.7,2253.2,748.6z"/>
        <path class="st0" d="M2326.4,627.2c-17.7,0.8-34.2-4.8-34.2-4.8"/>
        <path class="st1" d="M2322.9,628.5c-16.4,0-31-4.9-31.1-5c-0.6-0.2-0.9-0.9-0.7-1.5c0.2-0.6,0.9-0.9,1.5-0.7 c0.2,0.1,16.5,5.6,33.8,4.8c0.7,0,1.2,0.5,1.2,1.1c0,0.6-0.5,1.2-1.1,1.2C2325.3,628.4,2324.1,628.5,2322.9,628.5z"/>
        <path class="st1" d="M1987.7,731.8c-7.7,0-14.6-0.9-18.2-2.5c-10.2-4.3-50.7-20.2-51.1-20.4c-0.6-0.2-0.9-0.9-0.7-1.5 c0.2-0.6,0.9-0.9,1.5-0.7c0.4,0.2,40.9,16,51.1,20.4c10.4,4.4,43.6,3.1,50.3-7.4c7-11,8-51,7.3-68.6c0-0.6,0.5-1.2,1.1-1.2 c0.7-0.1,1.2,0.5,1.2,1.1c0.5,14.2,0.2,57.6-7.7,70C2017.6,728.9,2001.4,731.8,1987.7,731.8z"/>
        <path class="st1" d="M2248.3,604.9c-0.1,0-0.3,0-0.4-0.1c-29.9-11.9-32-13.6-31.4-26.6c0.7-15,2.6-34.9,11.6-34.9 c8.6,0,30.7,27,33.1,30.1c0.4,0.5,0.3,1.2-0.2,1.6c-0.5,0.4-1.2,0.3-1.6-0.2c-9.5-11.7-25.7-29.2-31.4-29.2 c-3.6,0-8.1,5.7-9.3,32.7c-0.5,10.9-0.5,12.3,30,24.4c0.6,0.2,0.9,0.9,0.6,1.5C2249.2,604.7,2248.8,604.9,2248.3,604.9z"/>
        <g>
          <path class="st0" d="M2338.9,598.2c-4.7-0.6-1.1,10.5,3.2,11.1s2.9-6.5,1.4-8.6C2341.6,598.1,2338.9,598.2,2338.9,598.2z"/>
          <path class="st1" d="M2342.7,610.5c-0.3,0-0.5,0-0.8,0c-3.9-0.6-6.8-7.1-6.4-10.6c0.3-1.9,1.5-3,3.4-2.8c0.6,0,3.5,0.2,5.5,3 c1.2,1.6,2.5,6.4,0.9,8.9C2344.8,610,2343.9,610.5,2342.7,610.5z M2338.5,599.3c-0.3,0-0.5,0.2-0.6,0.8c-0.4,2.6,2.1,7.7,4.4,8 c0.8,0.1,1-0.1,1.2-0.4c0.8-1.4,0.1-5.1-0.9-6.3c-1.5-2.1-3.5-2.1-3.7-2.1l0,0l-0.2,0C2338.6,599.4,2338.5,599.3,2338.5,599.3z"/>
        </g>
      </g>
      <g>
        <path class="st0" d="M2668.7,374.7c-6.5-7.7-14.2-14.5-18.2-8.3s-20.1,42.1-15.8,48.2c4.3,6.2,26.9,13.9,30.6,10.5 c3.7-3.4,14.5-42.4,14.5-45.2"/>
        <path class="st0" d="M2648.4,370c-2-12.3-2.3-40.4,2.3-50s26.9-12.7,30.9-23.5s11.1-24.4,22.6-21.6s-0.6,49.5,0,55 c0.6,5.6,17.6-19.8,22-25.7c4.3-5.9,1.9,23.2-3.4,33.7c-5.3,10.5-6.2,24.6-4,32.1c2.2,7.5,42.1,44,54.4,53.6 c12.4,9.6,16.4,17.9,17,34"/>
        <path class="st0" d="M2645.2,632c0,0-57.2,5.3-70.5,0c-13.3-5.3-25-7.4-30.6-9.3c-5.6-1.9-20.4-26.3-19.5-31.2 c0.9-4.9,23.5,4,50.4,10.2c26.9,6.2,65.6,8.7,89.4-13.6c23.8-22.3,18.6-96.8,18.6-122.8c0-26-3.4-48.9-7.9-66.7l1-20.3 c0,0,106.3,64.7,111.9,64.4c5.6-0.3,13.6,10,15.8,19.3c2.2,9.3-18.5,32-18.3,39c0.2,6.9-5.8,32.8-21.6,44.1 C2748.2,556.5,2645.2,632,2645.2,632z"/>
        <path class="st1" d="M2599.1,635.5c-10.6,0-20.2-0.6-24.8-2.4c-8.9-3.5-17.2-5.7-23.3-7.2c-2.9-0.8-5.4-1.4-7.3-2 c-5.8-1.9-21.3-26.9-20.2-32.5c0.1-0.7,0.5-1.3,1.2-1.7c2.9-1.8,10.3,0.2,25.6,4.5c7.5,2.1,16,4.5,25,6.6 c22.2,5.1,63.2,10.2,88.3-13.3c20.3-19,19.1-77.8,18.4-109.4c-0.1-4.9-0.2-9.1-0.2-12.5c0-29-4.3-52.1-7.8-66.4 c-0.2-0.6,0.2-1.2,0.8-1.4c0.6-0.2,1.2,0.2,1.4,0.8c3.6,14.4,7.9,37.7,7.9,67c0,3.4,0.1,7.6,0.2,12.5c0.7,32,2,91.4-19.1,111.1 c-25.9,24.2-67.8,19.1-90.4,13.9c-9.1-2.1-17.6-4.5-25.1-6.6c-11.1-3.1-21.6-6.1-23.7-4.7c-0.1,0.1-0.1,0.1-0.2,0.2 c-0.7,3.9,13.4,28.2,18.7,29.9c1.8,0.6,4.2,1.2,7.1,2c6.1,1.6,14.5,3.7,23.6,7.3c12.9,5.1,69.4,0,70-0.1c0.6-0.1,1.2,0.4,1.3,1 c0.1,0.6-0.4,1.2-1,1.3C2643.8,633.3,2619.4,635.5,2599.1,635.5z"/>
        <path class="st0" d="M2645.8,624c-0.9,10.5,3.1,19.2,5.9,23.2s7.7,16.1,7.7,23.5c0,7.4,26.9,29.4,28.5,35.6 c1.5,6.2-1.5,48.9,0,53.5c1.5,4.6,28.5,45.8,31.5,47s32.2,1.9,31.5-4.6c-0.6-6.5-22.6-17-30-26.9c-7.4-9.9-11.4-17-11.8-21.3 s-0.3-27.8,1.2-30.3c1.5-2.5,15.8-24.1,17.9-39.6c2.2-15.5-2.8-42.7-1.5-47.9c1.2-5.3,37.4-24.1,49.2-57.8 c11.8-33.7,9.6-76.1,9.6-76.1"/>
        <path class="st0" d="M2755.3,495.6c17.3,6.8,30.3,8,39.3,0s14.2-13,13.6-10.2c-0.6,2.8-2.4,31.5,0,36.8s15.7,9.6,17.6,4.3 s-1.5-12.1-1.9-17c-0.3-4.9,2.5-42.7-4-47c-6.5-4.3-39-1.5-43.9-11.1"/>
        <path class="st0" d="M2788,442.7c18.4-0.9,40-4.3,41.5,6.9c1.5,11.1,4.3,36.4,8,40.6c3.7,4.2,9.9,9.8,1.5,12 c-8.3,2.2-14.9-4.6-14.9-4.6"/>
        <path class="st0" d="M2679.8,419.9c7.1,5.6,23.2,6.1,23.2,6.1"/>
        <path class="st1" d="M2703,427.1C2703,427.1,2703,427.1,2703,427.1c-0.7,0-16.6-0.6-23.9-6.3c-0.5-0.4-0.6-1.1-0.2-1.6 c0.4-0.5,1.1-0.6,1.6-0.2c6.7,5.3,22.4,5.8,22.5,5.8c0.6,0,1.1,0.6,1.1,1.2C2704.2,426.6,2703.6,427.1,2703,427.1z"/>
        <path class="st0" d="M2726.2,780.5c26.8,1.8,28.3-1.3,27.7-6.9c-0.6-5.6-18.3-12.1-21.8-14.2c-3.4-2.2-13.3-38-9.1-58.7 c0,0-15.9,13.6-17.7,30.2c-1.7,16.6-3,25.8,4,32.8C2716.3,770.8,2726.2,780.5,2726.2,780.5z"/>
        <path class="st1" d="M2738.8,782.2c-3.4,0-7.6-0.2-12.8-0.5c-0.6,0-1.1-0.6-1.1-1.2c0-0.6,0.6-1.1,1.2-1.1 c15.6,1,23.6,0.5,25.8-1.8c0.8-0.9,0.9-2,0.7-3.8c-0.4-3.5-10.8-8.4-16.4-11c-2.2-1-4-1.8-4.9-2.4c-4.3-2.8-13.8-39.3-9.6-59.9 c0.1-0.6,0.7-1,1.4-0.9c0.6,0.1,1,0.7,0.9,1.4c-4.3,21.1,6,55.7,8.6,57.5c0.8,0.5,2.5,1.3,4.6,2.3c9,4.2,17.2,8.3,17.7,12.8 c0.2,1.9,0.3,4-1.3,5.6C2751.9,781,2748.4,782.2,2738.8,782.2z"/>
        <path class="st1" d="M2662,427.1c-0.6,0-1.3,0-2.1-0.1c-8.5-0.9-22.7-6.8-26.1-11.7c-5.1-7.2,12.7-44.9,15.7-49.5 c1.2-1.8,2.7-2.8,4.6-2.9c3.9-0.2,9,3.4,15.5,11.2c0.4,0.5,0.3,1.2-0.1,1.6c-0.5,0.4-1.2,0.3-1.6-0.1 c-7.4-8.8-11.4-10.5-13.6-10.3c-1.1,0.1-2.1,0.7-2.8,1.9c-4.8,7.4-19.5,41.7-15.8,47c3.1,4.4,16.6,9.9,24.5,10.7 c3.3,0.4,4.2-0.2,4.4-0.4c3.1-2.8,14.1-41,14.2-44.3c0-0.6,0.5-1.1,1.1-1.1c0,0,0,0,0,0c0.6,0,1.1,0.5,1.1,1.1 c0,3.4-10.9,42.3-14.9,46C2665.2,426.7,2663.9,427.1,2662,427.1z"/>
        <path class="st1" d="M2821.2,530.1c-4.9,0-12.2-3.3-14.1-7.4c-2.4-5.2-1-29.9-0.3-36.3c-1.9,1.4-5.5,4.6-9.2,7.9l-2.3,2.1 c-8.6,7.7-21.1,7.8-40.5,0.2c-0.6-0.2-0.9-0.9-0.7-1.5c0.2-0.6,0.9-0.9,1.5-0.7c18.4,7.2,30.2,7.3,38.1,0.2l2.3-2.1 c9.5-8.5,11.1-9.8,12.5-9c0.4,0.2,0.9,0.7,0.6,2c-0.6,2.8-2.2,31.3,0,36.1c1.4,3.1,7.9,6.3,12.4,6c1.7-0.1,2.7-0.6,3.1-1.6 c1.1-3.1,0.1-6.9-0.8-10.6c-0.5-2.1-1-4.1-1.1-6c-0.1-1.1,0-3.5,0.1-6.8c0.3-10.8,1-36.3-3.6-39.3c-2.3-1.5-8.8-2.1-15.7-2.8 c-11.8-1.1-25.3-2.4-28.6-8.8c-0.3-0.6-0.1-1.3,0.5-1.5c0.6-0.3,1.3-0.1,1.5,0.5c2.7,5.3,16,6.5,26.7,7.5 c7.5,0.7,14,1.3,16.8,3.2c5.2,3.5,5.1,23.2,4.6,41.3c-0.1,3.1-0.2,5.6-0.1,6.6c0.1,1.6,0.6,3.5,1.1,5.5c1,3.8,2,8.2,0.7,11.9 c-0.7,1.9-2.5,3-5.1,3.1C2821.6,530.1,2821.4,530.1,2821.2,530.1z"/>
        <path class="st1" d="M2835.7,503.7c-7.1,0-12.1-5.2-12.4-5.4c-0.4-0.5-0.4-1.2,0-1.6c0.5-0.4,1.2-0.4,1.6,0 c0.1,0.1,6.2,6.3,13.8,4.3c1.3-0.3,2.9-1,3.2-2c0.5-1.6-2.2-4.6-4.2-6.8c-0.4-0.4-0.8-0.9-1.2-1.3c-3.1-3.6-5.4-18.9-7.6-35.7 c-0.3-2.1-0.5-4-0.7-5.5c-1.2-8.4-16.8-7.4-32-6.4c-2.8,0.2-5.6,0.4-8.4,0.5c-0.6,0.1-1.2-0.5-1.2-1.1c0-0.6,0.5-1.2,1.1-1.2 c2.7-0.1,5.5-0.3,8.3-0.5c16.2-1.1,32.9-2.2,34.4,8.4c0.2,1.6,0.5,3.5,0.7,5.6c1.5,11.6,4.1,31.1,7,34.5c0.4,0.4,0.7,0.8,1.1,1.3 c2.6,2.9,5.6,6.1,4.7,9c-0.5,1.7-2.1,2.8-4.9,3.5C2838.1,503.6,2836.9,503.7,2835.7,503.7z"/>
        <path class="st1" d="M2790.2,458.7c-0.6,0-1.1-0.5-1.1-1.1c-0.6-15.8-4.6-23.9-16.6-33.2c-12-9.3-52.5-46.1-54.8-54.2 c-2.2-7.7-1.3-22.1,4.1-32.9c4.2-8.5,6.3-28.2,5.2-32.4c-0.7,1-1.7,2.4-2.9,4.1c-12.7,17.9-17.2,23.2-19.7,22.6 c-0.4-0.1-1.2-0.4-1.3-1.8c-0.2-1.6,0.4-5.3,1.5-11.8c2.4-14.1,6.7-40.4-0.6-42.2c-8.2-2-15.3,5-21.2,20.9 c-2.3,6.1-9.6,9.8-16.8,13.3c-6.3,3.1-12.2,6.1-14.2,10.3c-4.5,9.3-4.1,37.6-2.2,49.3c0.1,0.6-0.3,1.2-0.9,1.3 c-0.6,0.1-1.2-0.3-1.3-1c-1.9-11.7-2.4-40.6,2.4-50.7c2.4-4.9,8.6-8,15.3-11.3c6.7-3.4,13.7-6.8,15.6-12.1 c6.4-17.2,14.4-24.7,23.9-22.4c8.7,2.1,6,23.3,2.4,44.9c-0.8,4.8-1.5,8.9-1.5,10.7c3.2-2.1,13-16,16.8-21.4 c1.3-1.8,2.4-3.3,3.1-4.3c1.2-1.7,2.4-1.3,2.8-1c3.6,2.2,0,27.3-4.2,35.9c-5.1,10.3-6,24-3.9,31.2c2,7,41.2,43,54,53 c12.6,9.7,16.8,18.2,17.5,34.9C2791.4,458.2,2790.9,458.7,2790.2,458.7C2790.3,458.7,2790.2,458.7,2790.2,458.7z"/>
        <g>
          <path class="st0" d="M2696.1,274.6c-3.8,3.3,6.4,7.4,9.9,4.4c3.5-3-2.3-6.4-4.8-6.5C2698,272.3,2696.1,274.6,2696.1,274.6z"/>
          <path class="st1" d="M2707.2,279.3c-0.2,0.2-0.4,0.4-0.6,0.6c-3.2,2.7-9.8,0.9-11.8-1.6c-1.1-1.4-0.9-3.1,0.5-4.4 c0.5-0.5,2.6-2.7,6-2.5c2,0.1,6.1,2.1,6.7,4.8C2708.4,277.2,2708.1,278.3,2707.2,279.3z M2696.6,275.6c-0.2,0.2-0.3,0.5,0.1,1 c1.5,1.9,6.7,3.2,8.6,1.6c0.6-0.5,0.7-0.9,0.6-1.2c-0.3-1.5-3.4-3.2-4.9-3.3c-2.5-0.1-4,1.5-4,1.6l0,0l-0.2,0.2 C2696.7,275.5,2696.6,275.6,2696.6,275.6z"/>
        </g>
        <path class="st1" d="M2729.8,808.7c-5.2,0-9.5-0.4-10.8-0.9c-3.9-1.6-30.9-43.7-32.2-47.7c-0.8-2.3-0.5-11.5-0.1-26.3 c0.4-11.4,0.8-24.3,0-27.3c-0.6-2.4-6.4-8.4-12-14.2c-9.9-10.3-16.4-17.3-16.4-21.6c0-7.3-4.9-19.1-7.5-22.8 c-3.5-5.1-7-14-6.1-23.9c0.1-0.6,0.6-1.1,1.2-1c0.6,0.1,1.1,0.6,1,1.2c-1.1,12,4.5,20.8,5.7,22.4c2.8,4,7.9,16.3,7.9,24.2 c0,3.7,8.8,12.7,15.8,20c6.4,6.6,11.9,12.3,12.6,15.3c0.8,3.3,0.4,15.2,0,27.9c-0.4,11-0.8,23.4,0,25.5 c1.8,5.3,28.1,44.7,30.9,46.3c2.5,1,24.3,1.4,29.2-2.3c0.8-0.6,0.8-1,0.7-1.2c-0.3-3-6.9-7.7-13.4-12.3 c-6.3-4.5-12.9-9.2-16.4-14c-7.8-10.5-11.7-17.4-12-21.9c-0.2-3.1-0.5-28,1.4-31l0.4-0.6c9.9-15.6,16.1-29.3,17.4-38.5 c1.3-9,0.1-22-0.9-32.5c-0.7-7.7-1.2-13.2-0.7-15.5c0.4-1.9,3.1-4.1,9.1-8.9c11.9-9.6,31.9-25.6,40.1-49.1 c11.5-33.1,9.5-75.2,9.5-75.6c0-0.6,0.5-1.2,1.1-1.2c0.7,0,1.2,0.5,1.2,1.1c0,0.4,2,43-9.6,76.5c-8.4,24.1-28.7,40.4-40.8,50.1 c-4.1,3.3-8,6.4-8.3,7.6c-0.5,2,0.1,7.9,0.7,14.8c1,10.6,2.2,23.8,0.9,33c-1.4,9.7-7.5,23.3-17.7,39.4l-0.4,0.6 c-1.2,2.1-1.5,24-1.1,29.6c0.3,3.9,4.2,10.9,11.5,20.7c3.3,4.5,9.7,9.1,15.9,13.5c7.5,5.4,13.9,10,14.3,14 c0.1,0.9-0.1,2.1-1.7,3.3C2747,807.8,2737.5,808.7,2729.8,808.7z"/>
      </g>
    </g>
  </g>
  <g id="Layer_2"/>
  <g id="Layer_3"/>
  <g id="Layer_4"/>
  <g id="Layer_5"/>
  <g id="Layer_6"/>
</svg>