<?xml version="1.0" encoding="utf-8"?>
<svg version="1.1" x="0px" y="0px" viewBox="598.31 231.549 611.831 572.636" style="enable-background:new 0 0 3000 1080;" xmlns="http://www.w3.org/2000/svg">
  <style type="text/css">
	.st0{fill:#FFFFFF;}
	.st1{fill:#F05848;}
</style>
  <g id="Layer_1">
    <g>
      <g transform="matrix(1, 0, 0, 1, 526.187683, -31.77504)">
        <path class="st0" d="M213.8,593.7c28.2-0.5,315.8-5.2,321,0c5.2,5.2,47.7,94.4,51.5,104.1s8.7,99.8,0,105.7s-381,6.8-418.6-8.7 c-9.2-3.8-11.9-109.1-10.8-118.5C158,666.9,207.3,593.8,213.8,593.7z"/>
        <path class="st1" d="M449.8,808.7c-113.9,0-260.6-3.7-282.6-12.8c-10.8-4.5-12.2-114.2-11.6-119.7c1-8.3,50.4-83.5,58.1-83.7 l0,1.1l0-1.1c32.3-0.6,316.2-5.3,321.8,0.3c5.6,5.6,48.4,95.9,51.8,104.5c3.6,9.2,9,100.6-0.4,107.1 C583,807.1,523.3,808.7,449.8,808.7z M213.8,594.8c-6.2,0.9-54.7,71.8-55.8,81.6c-1.6,14,2.6,114.2,10.1,117.3 c15.7,6.5,97.6,11.1,219,12.3c106.5,1.1,194.1-1,198.5-3.5c7.4-5.1,3.8-93.4-0.4-104.3c-3.6-9.4-46.2-98.7-51.2-103.7 C526.4,590.4,300.3,593.3,213.8,594.8z"/>
        <path class="st0" d="M495.8,543.1c10.4,4.1,29.3,22.7,30.8,28.8c1.4,6.1,0,21.8-1.4,22.9c-1.4,1.1-11-4.3-11-4.3"/>
        <path class="st1" d="M524.7,596c-1.4,0-4.4-0.8-11.1-4.6c-0.6-0.3-0.8-1-0.4-1.6c0.3-0.6,1-0.8,1.6-0.4c3.8,2.1,8.4,4.2,9.8,4.3 c1-2.2,2.3-16.1,1-21.6c-1.2-5.3-19.5-23.8-30.1-28c-0.6-0.2-0.9-0.9-0.6-1.5c0.2-0.6,0.9-0.9,1.5-0.6 c10.9,4.3,29.9,23.1,31.5,29.6c1.3,5.6,0.3,22.4-1.9,24.1C525.7,595.8,525.4,596,524.7,596z M525.2,594.7L525.2,594.7 L525.2,594.7z"/>
        <path class="st0" d="M220.1,694.9c8.6,11.1,20,15,53.7,29c33.6,14,42.2,68.3,38.3,68.7c-3.9,0.4-23.6-21.8-33.3-32.9 c-9.7-11.1-19.7-10.4-34.3-9.7c-14.7,0.7-39-11.4-45.1-19c-6.1-7.5-12.2-46.1-11.4-52.9s20-33.3,30.4-41.1 c10.4-7.9,47.2-20.7,61.5-24.7c14.3-3.9,103.7-10,113.7-12.9c10-2.9,17.9-12.2,25.8-25.1l33.1-5.3l12.9,43.4L220.1,694.9z"/>
        <path class="st0" d="M328.1,676.3c13.2,6.1,22.2,22.2,20,35.4c-2.1,13.2-12.9,37.6-7.9,41.5c5,3.9,59.8-4.4,68.3,17.9 c1.8,4.7-98.6,1.6-98.6,1.6"/>
        <path class="st1" d="M368.6,774.9c-20.7,0-44.3-0.6-58.6-1c-0.6,0-1.1-0.6-1.1-1.2c0-0.6,0.4-1.1,1.2-1.1 c34.8,1.1,90.7,1.8,97.2-0.7c-6.3-14.4-34.9-14.8-52.1-15.1c-9.3-0.2-13.9-0.3-15.6-1.6c-3.9-3-0.7-13.6,3.1-25.9 c1.8-5.9,3.6-12,4.4-16.6c2.1-12.8-6.8-28.4-19.4-34.2c-0.6-0.3-0.8-0.9-0.6-1.5s1-0.8,1.5-0.6c13.7,6.3,22.9,22.7,20.7,36.6 c-0.8,4.8-2.6,10.9-4.5,16.9c-2.9,9.5-6.5,21.4-3.8,23.5c1.2,0.9,7.8,1,14.2,1.1c19.2,0.3,48.1,0.8,54.5,17.2 c0.2,0.5,0.1,1-0.2,1.4C407.9,774.2,389.8,774.9,368.6,774.9z M407.5,771.5L407.5,771.5L407.5,771.5z"/>
        <path class="st0" d="M348.4,708.8c24.8,2.9,68.1-2.1,68.1-2.1"/>
        <path class="st1" d="M367,710.9c-6.7,0-13.2-0.2-18.7-0.9c-0.6-0.1-1.1-0.6-1-1.3c0.1-0.6,0.7-1.1,1.3-1 c24.3,2.8,67.4-2.1,67.8-2.1c0.6-0.1,1.2,0.4,1.3,1c0.1,0.6-0.4,1.2-1,1.3C416.3,707.9,390.1,710.9,367,710.9z"/>
        <path class="st0" d="M397.5,686c5.7,11.4,30,32.9,59,44.7c29,11.8,51.9,21.8,66.2,21.8s47.2,26.1,54.4,25 c7.2-1.1,6.8-12.2-6.4-22.2c-13.2-10-66.5-34.3-78.3-42.6c-11.8-8.2-17.9-15.7-24.7-47.2"/>
        <path class="st1" d="M576.6,778.7c-3.6,0-10.4-3.9-20.9-10.1c-11.3-6.7-25.4-15-33-15c-13.1,0-33.1-8.2-58.3-18.5l-8.3-3.4 c-30.3-12.3-54.1-34.2-59.6-45.3c-0.3-0.6-0.1-1.3,0.5-1.5c0.6-0.3,1.3-0.1,1.5,0.5c5.4,10.7,28.6,32,58.4,44.2l8.3,3.4 c25,10.2,44.7,18.3,57.4,18.3c8.3,0,22.1,8.1,34.2,15.3c8.5,5,17.2,10.2,20,9.8c1.8-0.3,3-1.3,3.5-3c1-3.8-1.9-10.6-10.4-17.1 c-7.2-5.4-26.9-15.4-44.3-24.3c-14.7-7.5-28.6-14.5-34-18.3c-11.8-8.3-18.2-15.7-25.1-47.9c-0.1-0.6,0.3-1.2,0.9-1.4 c0.6-0.1,1.2,0.3,1.4,0.9c6.8,31.4,12.9,38.6,24.2,46.5c5.3,3.7,19.1,10.7,33.7,18.1c18.3,9.3,37.3,18.9,44.6,24.5 c10.1,7.6,12.4,15.2,11.3,19.5c-0.7,2.6-2.6,4.3-5.4,4.8C577,778.7,576.8,778.7,576.6,778.7z"/>
        <path class="st0" d="M480.8,662.4c9.7,1,30.1,9.2,42.6,9.6c12.5,0.4,29.7,6.8,37.2,20.4c7.5,13.6,4.3,33.7,0,32.6 c-4.3-1.1-14.7-32.9-24-32.9c-9.3,0-45.7,1.6-58.6-9.9"/>
        <path class="st1" d="M408.9,550.4L408.9,550.4l-16.5,0c-0.3,0-0.7-0.2-0.9-0.5c-0.4-0.6-0.7-1.2,9.8-11.4h-8.9 c-0.5,0-0.9-0.4-0.9-0.9c0-0.5,0.4-0.9,0.9-0.9h11c0.4,0,0.7,0.2,0.8,0.5c0.1,0.3,0.1,0.7-0.2,0.9c-4.1,3.9-8.4,8.3-10.2,10.4 l15,0c0.5,0,0.9,0.4,0.9,0.9C409.7,550,409.4,550.4,408.9,550.4z"/>
        <path class="st1" d="M383.7,541.9h-18c-0.3,0-0.7-0.2-0.8-0.5c-0.1-0.3-0.1-0.7,0.1-0.9l13.5-15.4h-15c-0.5,0-0.9-0.4-0.9-0.9 s0.4-0.9,0.9-0.9h16.9c0.3,0,0.7,0.2,0.8,0.5c0.1,0.3,0.1,0.7-0.1,0.9l-13.5,15.4h16.1c0.5,0,0.9,0.4,0.9,0.9 S384.2,541.9,383.7,541.9z"/>
        <path class="st1" d="M331.2,511.3h17.3c0.5,0,0.9,0.3,1.1,0.7c0.2,0.4,0.1,0.9-0.1,1.3l-13.6,17.1h19.1c0.7,0,1.2,0.5,1.2,1.2 c0,0.7-0.5,1.2-1.2,1.2h-21.5c-0.5,0-0.9-0.3-1.1-0.7c-0.2-0.4-0.1-0.9,0.1-1.3l13.6-17.1h-14.9c-0.7,0-1.2-0.5-1.2-1.2 C330,511.8,330.5,511.3,331.2,511.3z"/>
        <path class="st1" d="M203.5,778.7c-0.6,0-1.1-0.5-1.1-1.1v-23.4c0-8.9-32.6-58.8-46.4-77.2c-0.4-0.5-0.3-1.2,0.2-1.6 c0.5-0.4,1.2-0.3,1.6,0.2c11.7,15.5,46.9,68.1,46.9,78.6v23.4C204.6,778.2,204.1,778.7,203.5,778.7z"/>
        <path class="st1" d="M180.2,752.1c-0.5,0-1-0.3-1.1-0.8c-0.2-0.6,0.2-1.2,0.8-1.4c0.1,0,11.1-3.3,17.2-10.4 c0.4-0.5,1.1-0.5,1.6-0.1c0.5,0.4,0.5,1.1,0.1,1.6c-6.5,7.7-17.8,11-18.3,11.2C180.4,752.1,180.3,752.1,180.2,752.1z"/>
        <path class="st1" d="M408.6,772.2c-0.6,0-1.1-0.5-1.1-1.1c0-0.6,0.4-1.2,1.1-1.2c0.3,0,27.2-1.7,43.9-1.7 c5.6,0,12.7-1.5,21.6-3.5c17-3.7,40.3-8.7,69.1-5.9c0.6,0.1,1.1,0.6,1,1.3c-0.1,0.6-0.6,1.1-1.3,1c-28.5-2.7-51.5,2.2-68.4,5.9 c-9.1,2-16.3,3.5-22.1,3.5C435.8,770.5,408.9,772.2,408.6,772.2C408.6,772.2,408.6,772.2,408.6,772.2z"/>
        <path class="st1" d="M175.3,778.7c-0.3,0-0.7-0.1-0.9-0.4c-0.4-0.5-0.3-1.2,0.2-1.6c0.2-0.2,23.9-19.6,28.2-23.4l0.4-0.4l0.5,0.1 c0.6,0.1,63,10.3,80.6,11.7c0.6,0,1.1,0.6,1.1,1.2s-0.6,1.1-1.2,1.1c-16.8-1.3-74.1-10.6-80.3-11.6c-5.2,4.5-27.6,22.9-27.8,23.1 C175.8,778.6,175.6,778.7,175.3,778.7z"/>
        <path class="st1" d="M187.9,679.2c-0.5,0-0.9-0.3-1.1-0.8c-0.1-0.2-2.2-5.6-11.5-5.6c-0.6,0-1.1-0.5-1.1-1.1s0.5-1.1,1.1-1.1 c11,0,13.5,6.8,13.6,7.1c0.2,0.6-0.1,1.3-0.7,1.5C188.1,679.2,188,679.2,187.9,679.2z"/>
        <path class="st1" d="M218.3,638.1c-0.6,0-1.1-0.5-1.1-1.1c-0.4-10.9-7.9-19.1-8-19.2c-0.4-0.5-0.4-1.2,0.1-1.6 c0.5-0.4,1.2-0.4,1.6,0.1c0.3,0.4,8.2,8.9,8.6,20.7C219.4,637.5,218.9,638.1,218.3,638.1C218.3,638.1,218.3,638.1,218.3,638.1z"/>
        <path class="st1" d="M232.9,630.3C232.9,630.3,232.8,630.3,232.9,630.3c-0.7,0-1.2-0.6-1.1-1.2c0.6-12.7-11.6-24.7-11.7-24.8 c-0.5-0.4-0.5-1.2,0-1.6c0.4-0.5,1.2-0.5,1.6,0c0.5,0.5,13,12.9,12.4,26.6C234,629.8,233.5,630.3,232.9,630.3z"/>
        <path class="st1" d="M242.9,626.1C242.9,626.1,242.9,626.1,242.9,626.1c-0.7,0-1.2-0.6-1.1-1.2c0.3-8.5-4.6-20.9-4.6-21 c-0.2-0.6,0.1-1.3,0.6-1.5c0.6-0.2,1.3,0.1,1.5,0.6c0.2,0.5,5.1,13,4.8,22C244,625.6,243.5,626.1,242.9,626.1z"/>
        <path class="st1" d="M517.9,672.6c-0.6,0-1.1-0.5-1.1-1.1c0-17.8,3.3-48.5,12.4-55.4c0.5-0.4,1.2-0.3,1.6,0.2 c0.4,0.5,0.3,1.2-0.2,1.6c-8,6-11.5,34.9-11.5,53.5C519.1,672.1,518.6,672.6,517.9,672.6L517.9,672.6z"/>
        <path class="st1" d="M527.2,673.5C527.2,673.5,527.2,673.5,527.2,673.5c-0.7,0-1.2-0.6-1.1-1.2c1.1-19.7,7-40.2,7.1-40.4 c0.2-0.6,0.8-1,1.4-0.8c0.6,0.2,1,0.8,0.8,1.4c-0.1,0.2-5.9,20.4-7,39.9C528.3,673,527.8,673.5,527.2,673.5z"/>
        <path class="st1" d="M536.8,675.5c-0.6,0-1.1-0.5-1.1-1.1c-0.4-6.5,6-20,6.3-20.6c0.3-0.6,1-0.8,1.5-0.5c0.6,0.3,0.8,1,0.5,1.5 c-0.1,0.1-6.5,13.5-6.1,19.4C538,674.9,537.5,675.5,536.8,675.5C536.8,675.5,536.8,675.5,536.8,675.5z"/>
        <path class="st1" d="M560.6,750.2c-0.2,0-0.4,0-0.5-0.1c-0.6-0.3-0.8-1-0.5-1.5l25.7-51.3c0.3-0.6,1-0.8,1.5-0.5 c0.6,0.3,0.8,1,0.5,1.5l-25.7,51.3C561.4,750,561,750.2,560.6,750.2z"/>
        <path class="st1" d="M569.6,787.8c0,0-0.1,0-0.1,0c-0.6-0.1-1.1-0.7-1-1.3c0.9-7.6-8.5-15.4-8.6-15.5c-0.5-0.4-0.6-1.1-0.2-1.6 c0.4-0.5,1.1-0.6,1.6-0.2c0.4,0.4,10.6,8.7,9.5,17.5C570.7,787.4,570.2,787.8,569.6,787.8z"/>
        <path class="st0" d="M489.6,620.6c-5.2,8.8-12.3,67.3-13.2,74"/>
        <path class="st1" d="M476.4,695.8c-0.1,0-0.1,0-0.2,0c-0.6-0.1-1.1-0.7-1-1.3l0.4-3.2c5.5-42.4,9.7-65.7,12.9-71.2 c0.3-0.5,1-0.7,1.6-0.4c0.5,0.3,0.7,1,0.4,1.6c-3,5.2-7.3,28.8-12.6,70.3l-0.4,3.2C477.4,695.3,476.9,695.8,476.4,695.8z"/>
        <path class="st0" d="M444.9,575.7c0.5,12.2,6.6,40.2,0,41.8c-6.6,1.5-27,5.6-28,0c-1-5.6-0.5-43.8,5.6-51.4 c6.1-7.6,26.5-28.5,35.1-29.5c8.7-1,31.1-2,38.2,6.6c7.1,8.7,11.2,29.2,14.3,35s5.7,16.7,2.9,26.7c-1.9,6.8-15.7,17.9-27.4,15.6 s-25.5-9-25.5-9"/>
        <path class="st1" d="M489,621.8c-1.2,0-2.4-0.1-3.6-0.3c-11.7-2.4-25.2-8.8-25.7-9.1c-0.6-0.3-0.8-1-0.5-1.5 c0.3-0.6,1-0.8,1.5-0.5c0.1,0.1,13.8,6.6,25.2,8.9c11.2,2.3,24.3-8.5,26-14.7c2.5-9.3,0.3-19.9-2.8-25.9c-1.1-2.1-2.3-6-3.7-10.4 c-2.6-8.4-5.9-18.9-10.4-24.4c-6.3-7.6-26.3-7.5-37.2-6.2c-8,0.9-28,21.1-34.4,29.1c-5.6,7-6.4,44.6-5.4,50.5 c0,0.2,0.2,0.5,0.7,0.9c3.5,2.3,16.2,0.5,26-1.8c3.8-0.9,1.8-16.9,0.4-27.5c-0.6-4.9-1.2-9.6-1.3-13.1c0-0.6,0.5-1.2,1.1-1.2 c0.6-0.1,1.2,0.5,1.2,1.1c0.1,3.4,0.7,8,1.3,12.9c2.2,17.4,3.2,28.8-2.2,30.1c-5.2,1.2-22.6,4.9-27.7,1.5 c-0.9-0.6-1.5-1.4-1.7-2.4c-0.9-5.2-0.7-44.2,5.8-52.4c6.3-7.8,26.8-28.9,35.9-30c3.1-0.4,30.7-3.3,39.2,7 c4.8,5.8,8.1,16.5,10.8,25.1c1.4,4.4,2.5,8.1,3.6,10c3.5,6.5,5.7,17.6,3,27.5C512.4,611.5,500.6,621.8,489,621.8z"/>
        <path class="st0" d="M503.2,589.7c2.9-0.8,7.5,1.2,6.6,5.2c-1.3,5.6-11.2,1.7-12.7,0C496,593.5,499.5,590.7,503.2,589.7z"/>
        <path class="st1" d="M505.5,598.9c-3.7,0-8.1-2.1-9.2-3.3c-0.5-0.6-0.6-1.3-0.4-2.1c0.6-2.1,4-4.2,7-5l0,0 c2.2-0.6,4.9,0.1,6.6,1.7c1.4,1.3,1.9,3,1.5,4.9c-0.4,1.9-1.6,3.1-3.5,3.6C506.8,598.9,506.2,598.9,505.5,598.9z M503.5,590.8 c-3.2,0.9-5.4,2.9-5.4,3.5c0.7,0.8,5.8,3,8.8,2.2c1-0.3,1.6-0.9,1.9-1.9c0.2-1.1,0-2-0.8-2.7 C506.8,590.9,504.9,590.4,503.5,590.8L503.5,590.8z"/>
        <path class="st1" d="M311.8,793.7c-1.7,0-6.5-1.9-33.9-33.3c-9.1-10.5-18.4-10-32.6-9.3l-0.8,0c-15,0.7-39.7-11.6-46-19.4 C192,723.9,186,685,186.7,678c0.8-7.3,20.4-34,30.9-41.9c10.7-8.1,48.3-21.1,61.9-24.9c7.8-2.1,36.5-4.8,64.4-7.4 c23.1-2.1,44.9-4.2,49.4-5.5c8.6-2.5,16.1-9.8,25.1-24.6c0.3-0.5,1-0.7,1.6-0.4c0.5,0.3,0.7,1,0.4,1.6 c-9.4,15.3-17.3,23-26.5,25.6c-4.7,1.4-25.6,3.3-49.8,5.5c-26.4,2.5-56.4,5.2-64,7.3c-13.5,3.7-50.7,16.5-61.1,24.5 c-10.4,7.9-29.3,34.2-30,40.3c-0.6,6.2,5.3,44.9,11.2,52.1c5.9,7.3,30,19.2,44.1,18.5l0.8,0c14.3-0.7,24.6-1.2,34.4,10.1 c24.1,27.6,30.4,31.9,32,32.5c0.6-2-0.1-10.4-3.6-21.6c-3.3-10.5-13.3-35.9-34.7-44.8l-8.9-3.7c-27.1-11.2-37.2-15.4-45.2-25.6 c-0.4-0.5-0.3-1.2,0.2-1.6c0.5-0.4,1.2-0.3,1.6,0.2c7.6,9.8,17.6,13.9,44.2,24.9l9,3.7c31.4,13,41,60.2,39.7,68.5 c-0.2,1.5-0.8,2.3-1.8,2.4C312,793.7,311.9,793.7,311.8,793.7z"/>
        <path class="st1" d="M560.9,726.2c-0.2,0-0.5,0-0.6-0.1c-2.1-0.5-4.2-4.5-8.1-12.1c-4.5-8.8-10.6-20.8-15.6-20.8 c-0.8,0-1.9,0-3.2,0c-13.2,0.2-44.2,0.6-56.2-10.2c-0.5-0.4-0.5-1.1-0.1-1.6c0.4-0.5,1.2-0.5,1.6-0.1 c11.4,10.2,42.8,9.8,54.7,9.7c1.3,0,2.3,0,3.2,0c6.4,0,12.4,11.7,17.7,22.1c2.4,4.7,5.4,10.5,6.6,10.9c0.2,0,0.5-0.2,0.7-0.5 c2.9-3.7,4.1-19.5-2-30.4c-7.2-13.1-23.9-19.4-36.2-19.8c-7.3-0.2-17.3-3-26-5.6c-6.5-1.9-12.6-3.6-16.7-4 c-0.6-0.1-1.1-0.6-1-1.3c0.1-0.6,0.6-1.1,1.3-1c4.3,0.4,10.5,2.2,17.1,4.1c8.6,2.5,18.4,5.3,25.5,5.5c13,0.4,30.5,7.1,38.2,21 c6.7,12.1,5.2,28.6,1.8,32.9C562.5,725.9,561.6,726.2,560.9,726.2z"/>
      </g>
    </g>
  </g>
  <g id="Layer_2"/>
  <g id="Layer_3"/>
  <g id="Layer_4"/>
  <g id="Layer_5"/>
  <g id="Layer_6"/>
</svg>