<?xml version="1.0" encoding="utf-8"?>
<svg version="1.1" x="0px" y="0px" viewBox="598.31 231.549 611.831 598.34" style="enable-background:new 0 0 3000 1080;" xmlns="http://www.w3.org/2000/svg">
  <style type="text/css">
	.st0{fill:#FFFFFF;}
	.st1{fill:#F05848;}
</style>
  <g id="Layer_1">
    <g>
      <g transform="matrix(1, 0, 0, 1, -579.831665, 0.814793)">
        <path class="st0" d="M1621.9,529.6c0,0-41.7,36-69,41.7s-68.5,0.5-104.5-4.1c-36-4.6-78.7,7.7-86.5,7.7s-51.5-19.6-62.8-25.1 c-11.3-5.5-45.3-3.8-59.2,0c-13.9,3.8-28.3,23.5-24.2,24.5c4.1,1,9.8-4.6,20.1-10.3c10.3-5.7,62.3-1,69.5,0 c7.2,1,48.4,29.3,44.3,38.1c-4.1,8.8-13.4,47.9-15.4,62.3c-2.1,14.4-1.5,18-10.3,26.2c-8.7,8.2-29.9,17-37.1,28.8 s-33.5,47.9-33.5,55.1c0,7.2,23.7,30.4,27.8,25.1c4.1-5.2-1-26.2,0-30.4c1-4.2,19-31.8,27.8-39c8.8-7.2,58.7-34.5,74.4-46.1 c0,0,50.3-25.6,53.2-24.7s46.5,14.2,56.9,18c10.4,3.8,20.8,9.6,30.3,10.4c9.5,0.8,75.5-10.8,79.8-14.6 c4.3-3.9,14.1-13.3,16.5-18.5s7.7-18.4,8.2-24c0.5-5.6,20.1-38.2,20.1-38.2s17.3-40.7,16.8-40.8 C1664.6,551.7,1621.9,529.6,1621.9,529.6z"/>
        <path class="st0" d="M1665.7,529.6c-5.7,8.2-11.8,38.6-17,40.7c-5.1,2.1-26.2-35.5-26.8-40.7c-0.5-5.1,11.3-11.3,21.9-12.9 c10.6-1.5,34.2-1,43,4.6c8.7,5.7,19,27.3,31.9,31.4c12.9,4.1,16,18.5,7.2,22.6c-8.8,4.1-39.6,4.6-46.3,0 c-6.7-4.6-3.1,6.7,9.8,12.9s19.6,7.7,14.4,10.3c-5.1,2.6-36-9.3-44.8-4.6c-8.7,4.6-28.3,22.1-30.9,37.6 c-2.6,15.4-13.4,33.5-14.9,36"/>
        <path class="st0" d="M1619.1,656.7c-1.3,23.3-0.3,64.4,7.9,75.2c8.2,10.8,12.9,16.5,12.9,21.1s16.5,22.6,24.2,25.7 s21.6,2.6,23.7,7.2c2.1,4.6-2.2,18.5-15.8,18s-17.1,2.6-26.9-6.7c-9.8-9.3-74.1-87-80.3-109.6"/>
        <path class="st1" d="M1660.4,805.2c-5.6,0-9.6-0.9-16.1-7.1c-9.4-8.9-74.3-87-80.6-110.2c-0.2-0.6,0.2-1.2,0.8-1.4 c0.6-0.2,1.2,0.2,1.4,0.8c6.2,22.8,70.6,100.3,80,109.1c7.1,6.7,10.5,6.6,17.9,6.4c2.3-0.1,5-0.2,8.3,0 c6.8,0.3,10.5-3.2,12.5-6.1c2.5-3.8,3.1-8.3,2.2-10.3c-1-2.2-6.5-3.1-11.9-4c-3.9-0.6-8-1.3-11.2-2.6 c-7.9-3.2-24.9-21.5-24.9-26.8c0-3.9-4-9.2-10.7-17.9l-1.9-2.5c-8.5-11.1-9.5-52.5-8.2-76c0-0.6,0.6-1.1,1.2-1.1 c0.6,0,1.1,0.6,1.1,1.2c-1.4,24.9,0,64.4,7.7,74.5l1.9,2.5c7.2,9.5,11.2,14.7,11.2,19.3c0,4,16.1,21.7,23.5,24.7 c2.9,1.2,6.9,1.8,10.7,2.4c6.5,1.1,12.1,2,13.6,5.4c1.4,3.1,0.3,8.4-2.4,12.5c-3.3,4.8-8.4,7.4-14.4,7.1c-3.2-0.1-5.8,0-8.1,0 C1662.6,805.2,1661.5,805.2,1660.4,805.2z"/>
        <path class="st0" d="M1598.8,671.2c-11.8,10.8-39.6,15.4-39.6,21.6s3.6,71.5-3.6,74.1c-7.2,2.6-66.4,4.6-66.9-2.1 c-0.5-6.7-0.5-13.9,5.7-13.9c6.2,0,37.1,5.1,38.1,0.5s1-52-13.9-62.8s13.4-32.9,13.9-34.5"/>
        <path class="st1" d="M1520,770.5c-13.9,0-27.3-0.9-31-3.3c-0.9-0.6-1.4-1.3-1.5-2.2c-0.4-4.9-0.6-10.4,2.1-13.2 c1.2-1.3,2.7-1.9,4.7-1.9c1.8,0,5.2,0.4,9.6,0.9c7.2,0.8,26.2,2.8,27.4,0.5c0.9-3.9,0.9-51.2-13.5-61.6c-3-2.1-4.6-4.9-4.8-8.1 c-0.7-9.5,10.8-20.5,16.3-25.8c0.9-0.9,1.9-1.9,2.1-2.1c0.2-0.6,0.8-0.8,1.4-0.6c0.6,0.2,0.9,0.9,0.7,1.5c-0.2,0.5-0.6,1-2.6,2.9 c-4.8,4.7-16.1,15.6-15.6,23.9c0.2,2.5,1.4,4.6,3.8,6.4c15.8,11.5,15.3,59.6,14.3,64c-0.8,3.7-9.9,3.4-29.8,1.2 c-4.2-0.5-7.7-0.8-9.4-0.8c-1.3,0-2.3,0.4-3,1.1c-1.9,2.1-1.9,7-1.5,11.5c0,0,0.1,0.2,0.7,0.6c8.3,4.7,58.2,2.8,64.7,0.5 c2.4-0.9,4.9-13.2,3-66.7c-0.1-3.1-0.2-5.4-0.2-6.3c0-3.9,6.7-6.5,16.1-10.1c8.5-3.3,18.2-7.1,23.9-12.3c0.5-0.4,1.2-0.4,1.6,0.1 c0.4,0.5,0.4,1.2-0.1,1.6c-6.1,5.6-15.9,9.4-24.6,12.8c-6.9,2.7-14.6,5.7-14.6,8c0,0.9,0.1,3.1,0.2,6.2c1.7,47.2,0.4,67.2-4.6,69 C1552.2,769.3,1535.8,770.5,1520,770.5z"/>
        <path class="st0" d="M1516.4,686.8c-15.4-8.4-78.7-26.9-78.7-26.9"/>
        <path class="st1" d="M1516.4,687.9c-0.2,0-0.4,0-0.6-0.1c-15.1-8.2-77.9-26.6-78.5-26.8c-0.6-0.2-1-0.8-0.8-1.4 c0.2-0.6,0.8-1,1.4-0.8c2.6,0.8,63.6,18.7,79,27c0.6,0.3,0.8,1,0.5,1.6C1517.2,687.7,1516.8,687.9,1516.4,687.9z"/>
        <path class="st0" d="M1437.7,650.1c0,9.8-17,87-17,91.1s16.5,41.7,25.2,44.3c8.8,2.6,30.9,5.7,31.1,13.4c0.3,7.7-27,9.8-39.4,8.2 c-12.4-1.5-48.9-44.8-48.4-53.5c0.5-8.8,6.2-56.3-3.6-66.8c-9.8-10.4-23.7-26.9-23.7-26.9"/>
        <path class="st1" d="M1446.8,808.7c-3.6,0-6.8-0.2-9.3-0.5c-13.1-1.6-49.9-45.2-49.4-54.7c0.1-1.1,0.2-2.9,0.4-5.2 c1.2-14.2,4.5-52-3.7-60.7c-9.7-10.3-23.6-26.8-23.7-27c-0.4-0.5-0.3-1.2,0.1-1.6c0.5-0.4,1.2-0.3,1.6,0.1 c0.1,0.2,14,16.6,23.6,26.9c8.9,9.5,5.7,46.6,4.3,62.5c-0.2,2.3-0.3,4-0.4,5.1c-0.5,8.1,35.7,50.9,47.4,52.3 c10.9,1.4,31.7-0.2,37-5c0.7-0.7,1.1-1.4,1.1-2.1c-0.2-5.2-14.1-8.4-23.3-10.6c-2.8-0.6-5.2-1.2-7-1.7c-9.7-2.8-26-41.6-26-45.4 c0-1.7,2.1-12.1,5.8-30.5c4.7-23.1,11.1-54.8,11.1-60.6c0-0.6,0.5-1.1,1.1-1.1c0.6,0,1.1,0.5,1.1,1.1c0,6-6.2,36.6-11.2,61.1 c-3,14.7-5.8,28.5-5.8,30c0,4.5,16.6,40.9,24.4,43.2c1.8,0.5,4.2,1.1,6.9,1.7c11.1,2.6,24.8,5.8,25.1,12.7c0,1.4-0.6,2.7-1.8,3.9 C1471.5,807.1,1457.6,808.7,1446.8,808.7z"/>
        <path class="st1" d="M1279.4,801.7c-0.6,0-1.4-0.1-2.3-0.4c-7.9-2.7-24.8-19.9-24.8-26.6c0-5.1,10.3-20.8,23.9-40.9 c4.1-6.1,7.7-11.5,9.8-14.8c4.6-7.6,14.7-13.9,23.5-19.5c5.4-3.4,10.5-6.6,13.7-9.6c7.4-7,7.9-10.2,9.3-21 c0.2-1.4,0.4-2.9,0.6-4.6c2-14,11.3-53.6,15.5-62.6c0.5-1.1-0.1-2.6-0.8-3.8c-6.2-11.6-37.2-31.9-42.6-32.7 c-7.5-1.1-59-5.5-68.8-0.1c-3.5,1.9-6.5,3.9-9.1,5.6c-5.2,3.4-8.6,5.6-11.8,4.8c-1-0.2-1.6-1.1-1.6-2.2 c-0.1-5.2,13.4-21.2,25.8-24.6c14.5-3.9,48.6-5.5,60,0.1c12.7,6.2,55.1,24.9,62.3,24.9c1.9,0,6.6-0.9,12.4-2 c17.8-3.4,47.5-9.1,74.2-5.7c34.1,4.4,76.6,9.8,104.1,4.1c26.7-5.5,68-41.1,68.5-41.4c0.5-0.4,1.2-0.4,1.6,0.1 c0.4,0.5,0.4,1.2-0.1,1.6c-1.7,1.5-42.2,36.3-69.5,41.9c-27.9,5.8-70.6,0.3-104.9-4.1c-26.3-3.4-55.8,2.3-73.5,5.7 c-6.2,1.2-10.7,2.1-12.9,2.1c-8.4,0-54.5-20.9-63.3-25.2c-10.7-5.2-44.3-3.8-58.4,0.1c-9.4,2.6-19.6,13.2-23,19.5 c-0.9,1.6-1,2.5-1,2.8c2.2,0.4,5.4-1.7,9.8-4.6c2.6-1.7,5.6-3.7,9.2-5.7c11.2-6.1,65.5-0.8,70.2-0.1c6.6,0.9,38,22.2,44.3,33.9 c1.3,2.3,1.5,4.3,0.8,5.9c-4.2,8.9-13.4,48-15.3,62c-0.2,1.7-0.4,3.2-0.6,4.6c-1.4,10.8-2,14.8-10,22.4 c-3.4,3.2-8.6,6.4-14.1,9.9c-8.7,5.4-18.5,11.6-22.8,18.7c-2.1,3.4-5.7,8.7-9.8,14.9c-9.3,13.8-23.5,34.8-23.5,39.6 c0,5.4,15.7,21.8,23.3,24.4c0.7,0.2,2,0.6,2.4,0c2.3-3,1.2-12.8,0.3-19.9c-0.5-4.6-1-8.3-0.6-10.1c1.1-4.7,19.4-32.3,28.2-39.6 c4.3-3.5,18.3-11.8,33.1-20.6c15.6-9.2,33.2-19.6,41.3-25.6c0.5-0.4,1.2-0.3,1.6,0.2c0.4,0.5,0.3,1.2-0.2,1.6 c-8.2,6-25.1,16-41.5,25.7c-14.8,8.7-28.7,16.9-32.9,20.4c-8.5,7-26.4,34.2-27.4,38.4c-0.3,1.3,0.1,5.2,0.6,9.2 c1,8.4,2.1,17.9-0.8,21.6C1281.6,801.1,1280.8,801.7,1279.4,801.7z"/>
        <path class="st1" d="M1613.2,668.7c-0.2,0-0.4-0.1-0.6-0.2c-0.5-0.3-0.7-1-0.4-1.6c2.9-4.8,12.4-21.5,14.8-35.6 c2.6-15.7,21.9-33.3,31.5-38.4c5.4-2.8,17.7-0.1,28.5,2.3c6.8,1.5,14.5,3.2,16.3,2.3c1-0.5,1.1-0.8,1.1-0.8 c-0.3-0.6-4.1-2.3-7.7-3.9c-2.2-1-4.9-2.2-7.8-3.6c-8.7-4.2-13.7-10.9-13.7-14c0-0.9,0.3-1.6,1-1.9c1-0.5,2.3-0.2,4.1,1.1 c6,4.1,36.4,4.1,45.2-0.1c2.9-1.4,4.5-4.2,4.3-7.7c-0.3-4.7-3.9-10.4-11.3-12.8c-8-2.6-15-11.5-21.1-19.4 c-4-5.1-7.7-9.9-11.1-12.1c-8.7-5.6-32.4-5.9-42.2-4.5c-10.6,1.5-21.3,7.5-20.9,11.6c0.4,4.3,16.8,33.9,24,39.1 c0.9,0.7,1.2,0.6,1.2,0.6c2.3-0.9,5.7-11.5,8.5-20c2.6-8.1,5.3-16.4,8-20.3c0.4-0.5,1.1-0.7,1.6-0.3c0.5,0.4,0.7,1.1,0.3,1.6 c-2.5,3.6-5.1,11.7-7.7,19.7c-4,12.5-6.7,20.2-9.8,21.4c-0.8,0.3-1.8,0.2-2.9-0.5c-7.5-4.6-25-36.1-25.5-41.1 c-0.6-6,11.8-12.5,22.9-14.1c10.3-1.5,34.5-1.2,43.8,4.8c3.7,2.4,7.5,7.4,11.6,12.6c5.9,7.6,12.6,16.3,20,18.6 c8.4,2.7,12.6,9.4,12.9,14.9c0.3,4.4-1.8,8.1-5.6,9.9c-9,4.2-40.3,4.9-47.5-0.1c-0.7-0.5-1.2-0.7-1.5-0.8 c0.3,1.9,4.3,7.8,12.4,11.7c2.9,1.4,5.5,2.6,7.8,3.6c6.2,2.8,9,4,9,6c0,1.5-1.7,2.4-2.4,2.8c-2.5,1.2-8.4,0-17.8-2.1 c-9.9-2.2-22.3-5-26.9-2.5c-9,4.8-27.8,22-30.3,36.7c-2.4,14.1-11.3,30.2-15.1,36.4C1613.9,668.5,1613.6,668.7,1613.2,668.7z"/>
        <g>
          <path class="st0" d="M1725,555.8c-4.7-0.6-1.1,10.5,3.2,11.1s2.9-6.5,1.4-8.6C1727.8,555.7,1725,555.8,1725,555.8z"/>
          <path class="st1" d="M1728.9,568.1c-0.3,0-0.5,0-0.8,0c-3.9-0.6-6.8-7.1-6.4-10.6c0.3-1.9,1.5-3,3.4-2.8c0.6,0,3.5,0.2,5.5,3 c1.2,1.6,2.5,6.4,0.9,8.9C1731,567.6,1730,568.1,1728.9,568.1z M1724.6,556.9c-0.3,0-0.5,0.2-0.6,0.8c-0.4,2.6,2.1,7.7,4.4,8 c0.8,0.1,1-0.1,1.2-0.4c0.8-1.4,0.1-5.1-0.9-6.3c-1.5-2.1-3.5-2.1-3.7-2.1l0,0l-0.2,0C1724.8,557,1724.7,556.9,1724.6,556.9z"/>
        </g>
      </g>
    </g>
  </g>
  <g id="Layer_2"/>
  <g id="Layer_3"/>
  <g id="Layer_4"/>
  <g id="Layer_5"/>
  <g id="Layer_6"/>
</svg>