<?xml version="1.0" encoding="utf-8"?>
<!-- Generator: Adobe Illustrator 25.0.0, SVG Export Plug-In . SVG Version: 6.00 Build 0)  -->
<svg version="1.1" xmlns="http://www.w3.org/2000/svg" xmlns:xlink="http://www.w3.org/1999/xlink" x="0px" y="0px"
	 viewBox="0 0 1200 1200" style="enable-background:new 0 0 1200 1200;" xml:space="preserve">
<style type="text/css">
	.st0{fill:#FFFFFF;}
	.st1{fill:#371A45;}
	.st2{opacity:0.35;}
	.st3{fill:#1D1C22;}
	.st4{fill:#F9744B;}
	.st5{opacity:0.25;}
	.st6{opacity:0.3;}
	.st7{fill:#6B184E;}
	.st8{opacity:0.5;}
	.st9{fill:#F99191;}
	.st10{fill:none;stroke:#371A45;stroke-width:32;stroke-linecap:round;stroke-miterlimit:10;}
	.st11{opacity:0.7;}
</style>
<g id="Layer_1">
	<g>
		<g>
			<g>
				<path class="st0" d="M246.4,944.9c-53.8-9.5-88.8-20.9-146-8.2c-57.7,12.8-86.9,67.4-73.2,97.8c15.4,34.1,100.4,21.6,128.8,14.5
					c16.8-4.2,28.8-9.8,37.3-15.3c18.8-12.1,45.3-13.6,62.8-14.7c23.3-1.5,54.3,3.9,80-16.5"/>
			</g>
			<g>
				<path class="st1" d="M89.1,1058.6c-28,0-54.9-5.4-63.1-23.5c-5.9-12.9-4.3-30.1,4.2-47.1c13.1-26.2,39.2-45.9,69.9-52.7
					c48.3-10.7,80.8-4.4,122,3.6c7.8,1.5,15.9,3.1,24.6,4.6l-0.5,2.8c-8.6-1.5-16.7-3.1-24.6-4.6c-40.8-7.9-73.1-14.2-120.9-3.6
					c-29.9,6.6-55.3,25.7-68.1,51.2c-8.1,16.3-9.6,32.6-4.1,44.7c15.1,33.2,99,20.7,127.2,13.8c14.5-3.6,26.9-8.7,36.8-15.1
					c18.9-12.1,45.2-13.8,62.7-14.9l0.8,0c4.9-0.3,10.1-0.3,15.6-0.3c20.5,0,43.7-0.1,63.7-15.9l1.7,2.2
					c-20.7,16.4-44.4,16.4-65.4,16.5c-5.4,0-10.6,0-15.4,0.3l-0.8,0c-17.2,1.1-43.1,2.7-61.3,14.4c-10.2,6.6-22.9,11.8-37.7,15.4
					C142.5,1053.9,115.3,1058.6,89.1,1058.6z"/>
			</g>
		</g>
		<g class="st2">
			<path class="st3" d="M336.2,1002.6c-25.7,20.4-56.7,15-80,16.5c-17.4,1.1-43.9,2.6-62.8,14.7c-8.5,5.5-20.5,11.1-37.3,15.3
				c-28.4,7-113.4,19.5-128.8-14.5c-4.5-9.8-4.4-22.2-0.4-34.9c0.1,0.3,0.2,0.6,0.4,0.9c15.4,34.1,100.4,21.6,128.8,14.5
				c16.8-4.2,28.8-9.8,37.3-15.3c18.8-12.1,45.3-13.6,62.8-14.7c8.2-0.5,17.8,1.1,27.7,2C302.2,988.8,320,994,336.2,1002.6
				L336.2,1002.6z"/>
		</g>
		<path class="st3" d="M88.5,1066.3c-29.5,0-59.4-6-69.4-28c-6.8-15-5.2-34.6,4.3-53.6c14.1-28.2,42.2-49.4,75.1-56.7
			c49.9-11,83.1-4.6,125.1,3.5c7.8,1.5,15.9,3.1,24.4,4.6c4.9,0.9,8.1,5.5,7.2,10.4c-0.9,4.9-5.5,8.1-10.4,7.2
			c-8.7-1.5-16.8-3.1-24.7-4.6c-40-7.7-71.5-13.9-117.8-3.6c-27.7,6.1-51.2,23.8-62.9,47.2c-7,14-8.5,28.3-4,38.2
			c11.2,24.7,82.7,18.4,118.5,9.5c13.7-3.4,25.3-8.1,34.6-14.1c20.5-13.2,48.1-14.9,66.3-16.1l0.8,0c5.1-0.3,10.4-0.3,16.1-0.3
			c20.2,0,41.1-0.1,59-14.2c3.9-3.1,9.5-2.4,12.6,1.5c3.1,3.9,2.4,9.5-1.5,12.6c-22.8,18-49,18.1-70.1,18.1c-5.3,0-10.4,0-15,0.3
			l-0.8,0c-16.4,1-41.1,2.6-57.7,13.2c-10.9,7-24.4,12.6-40,16.4C157.6,1057.9,123.3,1066.3,88.5,1066.3z"/>
		<path class="st3" d="M117.6,997.5c-2.4,4.4-3.9,9.2-5,13.9c-1.1,4.7-1.6,9.5-1.9,14.3c-0.3,4.8,0,9.6,0,14.3
			c0.1,2.4,0.3,4.8,0.2,7.2c0.1,2.4,0.2,4.8,0.1,7.3l0,0.6c-0.3,3.9-3.6,6.8-7.5,6.6c-3.1-0.2-5.7-2.5-6.4-5.4
			c-0.6-2.7-1.1-5.4-1.4-8.1c-0.2-2.7-0.3-5.5-0.2-8.3c0.3-5.5,1.1-11.1,2.8-16.4c1.6-5.4,3.7-10.6,6.7-15.3
			c3-4.7,6.5-9.1,11.3-12.1c0.5-0.3,1.1-0.2,1.4,0.3c0.2,0.3,0.2,0.7,0,1L117.6,997.5z"/>
		<path class="st3" d="M66.8,993.5c-2.3,4.6-4,9.5-5.1,14.3c-1.2,4.8-1.9,9.6-2,14.4c-0.1,4.8,0.1,9.5,0.7,14.1
			c0.1,2.3,0.7,4.7,0.9,7c0.3,2.3,0.8,4.7,1,7.1l0.1,0.9c0.2,3.9-2.7,7.2-6.6,7.4c-3.1,0.2-5.9-1.7-6.9-4.5c-1-2.7-1.9-5.4-2.5-8.2
			c-0.3-1.4-0.5-2.8-0.7-4.3c-0.2-1.4-0.4-2.9-0.3-4.3l-0.1-4.4l0.4-4.4c0.1-1.4,0.4-2.9,0.7-4.3c0.3-1.4,0.5-2.8,1-4.2
			c1.5-5.6,3.8-10.9,6.8-15.7c3.1-4.8,6.7-9.1,11.3-12.4c0.5-0.3,1.1-0.2,1.4,0.2c0.2,0.3,0.2,0.7,0.1,1L66.8,993.5z"/>
		<g>
			<g>
				<path class="st0" d="M1174.6,216.3c-13.1,63.3-83.3,48.4-103.4,39.4c-27.1-12.1-56.8-18-76-5.8c-17.5,11.1-26.4,37.2-16.6,87.3
					c19,97.2,56.3,208.7-79.5,300.1l-54-24.5c0,0,74.9-55.5,79.2-146c4.2-88.7-40.2-172.9-35.5-244.1c1.8-27.7,11.1-53.5,33.5-76.7
					C1016,49,1194.4,120.7,1174.6,216.3z"/>
			</g>
			<g>
				<path class="st1" d="M899.2,639l-56.8-25.9l1.9-1.4c0.7-0.6,74.4-56.2,78.6-144.9c2.2-45.9-8.6-90.2-19.1-133
					c-9.6-39.4-18.7-76.7-16.4-111.1c2-30.6,13.1-56,33.9-77.6c57.1-59.2,141.7-55.2,196.2-26.4c43.8,23.1,66.2,60.7,58.5,98v0
					c-4.1,19.7-13.9,33.7-29.3,41.5c-25,12.8-59.9,6.1-76.1-1.1c-18.4-8.2-52.6-19.9-74.7-5.9c-19.3,12.3-24.7,41.2-15.9,85.9
					c1.6,8,3.3,16.2,5,24.4c18.9,90.3,40.3,192.7-85.1,277.1L899.2,639z M847.8,612.5l51.1,23.3c123.1-83.3,101.9-184.5,83.2-273.8
					c-1.7-8.2-3.4-16.4-5-24.5c-9-46-3.2-75.8,17.2-88.8c23.2-14.7,58.4-2.8,77.4,5.7c10.5,4.7,46.7,15,73.7,1.2
					c14.6-7.5,23.9-20.8,27.8-39.6v0c7.4-36-14.4-72.4-57-94.9c-53.6-28.3-136.8-32.2-192.9,25.9c-20.3,21.1-31.2,45.9-33.2,75.8
					c-2.2,34,6.8,71,16.4,110.3c10.5,43,21.3,87.5,19.2,133.8C921.8,549.1,859.4,603.2,847.8,612.5z"/>
			</g>
		</g>
		<g>
			<path class="st4" d="M1174.6,216.3c-13.1,63.3-83.3,48.4-103.4,39.4c-27.1-12.1-56.8-18-76-5.8l-9.8-19.2
				c-3.5-6.9-11.7-9.8-18.8-6.8l-12.9,5.4c-1.9,0.8-3.8,1.2-5.7,1.2c-6.5,0-12.5-4.3-14.2-11.1c-2.3-9.3-12.7-13.9-21.2-9.4
				l-23.8,12.8c1.8-27.7,11.1-53.5,33.5-76.7C1016,49,1194.4,120.7,1174.6,216.3z"/>
		</g>
		<path class="st3" d="M899.1,646.3c-2.9,0-5.7-1.4-7.4-4c-2.8-4.1-1.7-9.7,2.4-12.4c119.6-80.5,99.8-175,80.7-266.4
			c-1.7-8.3-3.4-16.5-5-24.6c-9.1-46.3-3.5-77.8,16.5-93.8c19.3-15.4,50.7-14.5,88.5,2.3c12.2,5.4,44.6,12.9,67.2,1.4
			c12.6-6.5,20.4-17.7,23.9-34.4c8.1-39-22.2-70.3-53.1-86.7c-51.2-27-130.5-30.9-183.9,24.4c-46.8,48.4-32,109-14.9,179.1
			c10.6,43.6,21.6,88.6,19.4,136c-4.4,93.6-79.6,150.4-82.8,152.7c-4,2.9-9.6,2.1-12.5-1.9c-2.9-4-2.1-9.6,1.9-12.5
			c1.1-0.8,71.6-54.5,75.6-139.2c2.1-44.8-8.6-88.6-18.9-130.9c-17.6-72.1-34.2-140.2,19.4-195.7c59.8-62,148.3-57.9,205.2-27.8
			c46.9,24.7,70.7,65.4,62.3,106.2c-4.6,22-15.7,37.8-33.2,46.7c-30.8,15.7-70.1,4.6-82.6-1c-30.9-13.8-56.4-15.5-70-4.7
			c-14.2,11.3-17.7,37.7-10.1,76.3c1.6,8,3.3,16.1,5,24.3c19.4,92.7,41.3,197.7-88.2,284.9C902.6,645.8,900.8,646.3,899.1,646.3z"/>
		<g class="st2">
			<path class="st3" d="M1174.6,216.3c-13.1,63.3-83.2,48.4-103.4,39.4c-27.1-12.1-56.8-18-76-5.8c-17.6,11.1-26.4,37.2-16.6,87.3
				c19,97.2,56.3,208.7-79.5,300.1l-54-24.5c0,0,4.3-3.2,11-9.4l22.6,10.3c135.8-91.5,98.5-202.9,79.5-300.1
				c-9.8-50.1-0.6-77.4,15.1-90.9c22.7-19.4,65.5-9.7,93.9-1.3c32.8,9.7,86.4,3.8,96.9-28.1c3.1-9.3,3.8-18.4,2.6-27.2
				C1175.1,181.4,1178.3,198.4,1174.6,216.3z"/>
		</g>
		<g class="st5">
			<path class="st3" d="M1081.9,930c-16.2,91.2-495,174.3-562.8,177.3c-274.1,12.3-356.9-40.8-360.8-49.2
				c-18.2-39,385.8-16,385.8-16l294.7-113.1C838.7,929.1,1011.1,882.4,1081.9,930z"/>
		</g>
		<g>
			<g>
				<path class="st0" d="M1087.7,906.1c0,48.9-196.6,94.5-360.7,119.4c-86.9,13.2-164.6,20.6-199.4,19.6c0,0-14.7-318.6-17.7-350.3
					c85.6-165.2,286.2-209,397.6-111.3c87.7,77,70.3,173.9,52.9,240.7c-1.8,6.8-3.6,13.4-5.2,19.5c0,0,47.8-3.8,86,9
					c11.7,3.9,22.4,9.4,30.6,16.9c0.6,0.6,1.2,1.1,1.8,1.7c0.6,0.6,1.1,1.2,1.7,1.8c0.5,0.5,0.9,1,1.3,1.5c0.4,0.5,0.9,1,1.3,1.6
					c0.3,0.4,0.6,0.7,0.8,1.1c0.4,0.5,0.8,1.1,1.2,1.6c0.2,0.4,0.5,0.8,0.7,1.2c0.2,0.3,0.4,0.7,0.6,1c0.8,1.3,1.4,2.6,2.1,3.9
					c0.3,0.6,0.5,1.2,0.8,1.8c0.2,0.5,0.4,1,0.6,1.5c0.2,0.4,0.3,0.9,0.5,1.4c0.2,0.7,0.5,1.4,0.6,2.1c0.1,0.4,0.3,0.9,0.4,1.4
					c0.1,0.4,0.2,0.8,0.3,1.2c0.1,0.4,0.2,0.9,0.3,1.3c0.1,0.2,0.1,0.5,0.1,0.7c0.1,0.6,0.2,1.1,0.3,1.7c0.1,0.7,0.2,1.5,0.3,2.2
					c0.1,0.6,0.1,1.2,0.1,1.8c0,0.4,0.1,0.9,0.1,1.3C1087.7,904.4,1087.7,905.3,1087.7,906.1z"/>
			</g>
			<g>
				<path class="st1" d="M534.6,1046.6c-2.5,0-4.8,0-7-0.1l-1.3,0l-0.1-1.3c-0.1-3.2-14.7-318.9-17.7-350.2l0-0.4l0.2-0.4
					c43.7-84.4,119.5-142.3,207.9-159c72.2-13.6,142.1,3.6,191.9,47.3c83.4,73.2,73.8,163.5,53.3,242.1c-1.3,5.1-2.7,10.1-4,14.8
					l-0.8,2.8c9.4-0.5,51-2.1,84.6,9.2c13,4.4,23.4,10.2,31.1,17.2c0.6,0.6,1.2,1.1,1.8,1.7c0.6,0.6,1.2,1.2,1.7,1.8
					c0.5,0.5,0.9,1,1.4,1.6c0.4,0.5,0.9,1,1.3,1.6c0.3,0.3,0.6,0.7,0.8,1.1c0.4,0.5,0.8,1.1,1.2,1.6c0.3,0.4,0.5,0.8,0.8,1.2l0.6,1
					c0.8,1.3,1.5,2.6,2.1,4.1c0.3,0.6,0.6,1.2,0.8,1.9c0.2,0.5,0.4,1,0.6,1.5c0.2,0.4,0.4,0.9,0.5,1.5c0.2,0.6,0.5,1.4,0.7,2.1
					c0.1,0.4,0.3,0.9,0.4,1.4c0.1,0.4,0.2,0.8,0.3,1.3c0.1,0.4,0.2,0.9,0.3,1.4c0.1,0.2,0.1,0.5,0.1,0.8c0.1,0.4,0.2,1,0.3,1.6
					c0.1,0.8,0.2,1.5,0.3,2.3c0.1,0.6,0.1,1.2,0.1,1.9c0,0.4,0.1,0.9,0.1,1.3c0,0.8,0.1,1.7,0.1,2.6c0,48.6-186.9,94.3-361.9,120.8
					C647.2,1039.1,573.2,1046.6,534.6,1046.6z M529,1043.8c36.5,0.8,113.8-6.8,197.8-19.6c165.9-25.2,359.5-71.2,359.5-118.1
					c0-0.8,0-1.7-0.1-2.5c0-0.4,0-0.8-0.1-1.2c0-0.7-0.1-1.2-0.1-1.8c-0.1-0.8-0.2-1.5-0.3-2.2c-0.1-0.6-0.2-1.1-0.3-1.6
					c0-0.3-0.1-0.5-0.1-0.7c-0.1-0.6-0.2-1-0.3-1.4c-0.1-0.5-0.2-0.8-0.3-1.1c-0.1-0.5-0.3-1-0.4-1.4c-0.2-0.7-0.4-1.4-0.6-2
					c-0.2-0.5-0.3-0.9-0.5-1.3c-0.2-0.5-0.3-0.9-0.6-1.4c-0.3-0.7-0.5-1.2-0.8-1.8c-0.6-1.4-1.3-2.7-2-3.9l-0.6-1
					c-0.2-0.4-0.5-0.8-0.7-1.1c-0.3-0.5-0.7-1-1.1-1.6c-0.3-0.4-0.5-0.7-0.8-1c-0.4-0.6-0.8-1.1-1.2-1.5c-0.4-0.6-0.9-1-1.3-1.5
					c-0.5-0.6-1.1-1.2-1.6-1.7c-0.6-0.6-1.1-1.1-1.7-1.7c-7.4-6.8-17.5-12.4-30.1-16.6c-37.5-12.6-85-9-85.4-8.9l-2,0.2l1.8-6.6
					c1.3-4.7,2.6-9.7,3.9-14.8c20.3-77.8,29.9-167-52.4-239.3c-49.1-43.1-118.2-60.1-189.5-46.7c-87.5,16.5-162.4,73.8-205.7,157.1
					C514.4,727.7,528,1021.6,529,1043.8z"/>
			</g>
		</g>
		<g class="st6">
			<path class="st1" d="M1041.3,852.8c-2.8,0.4-6,0.5-9.8,0.4c-55.9-1.1-93.9,54-95,55.7l23-84.4l1.1-0.4
				c-1.8,6.8-3.6,13.4-5.2,19.5C955.3,843.8,1003.2,840,1041.3,852.8z"/>
		</g>
		<path class="st3" d="M534.5,1054.2c-2.5,0-4.9,0-7.1-0.1l-8.3-0.2l-0.4-8.3c-0.1-3.2-14.7-318.7-17.6-349.8l-0.2-2.6l1.2-2.3
			c44.8-86.4,122.5-145.8,213.2-162.9c74.5-14,146.8,3.8,198.3,49.1c95.2,83.5,71.7,189.6,53.6,257.4c25.2-0.4,81.7,1.9,110.9,28.9
			c12.3,11.4,18.6,25.8,18.6,42.9c0,8.9-4.4,17.7-13,26.1C1014.3,999.7,639.3,1054.2,534.5,1054.2z M519.2,696.7
			c3.1,39.6,14.7,289.1,17.1,339.6c48.4-0.3,158.9-12.4,273.4-33.7c138.4-25.8,233.7-56.1,261.6-83.2c5-4.9,7.5-9.3,7.5-13.2
			c0-12-4.2-21.7-12.8-29.7c-31.8-29.4-109.2-23.7-109.9-23.7l-12.7,1l4-14.6c18.2-67.1,45.8-168.6-45.6-248.7
			c-47.4-41.6-114.1-57.9-183.2-44.9C634.1,561.4,561.5,616.5,519.2,696.7z"/>
		<g>
			<path class="st0" d="M577.1,994.3C577.1,994.3,577.1,994.3,577.1,994.3c7.8-6.8,36-49.4,56.3-52.9c11.1-1.9,20.5-4.1,22.4-9.9
				c1.7-5.4-2.4-13-7.5-22.9c-4.1-8-5.9-13-6.5-15.2c-0.2-0.6,0.3-1.1,0.8-0.9c5.9,2.5,33.1,13.4,33.8,0.1
				c0.4-7.4-12.6-28.8-18.1-51.1c-15.8-64.9-20-77.6-20-77.6c-0.1-0.4-14.2-50.1-33.4-83.7c9.6-33.3,39.2-171.1-6.5-202.3
				c-26.1-17.8-111.1,49.3-136.2,70.1c-33.5-16.5-79.4-27.8-120.6-27.1c-8.3,0.1-16.5,0.6-24.4,1.4c-0.2,0-0.4,0-0.6,0.1
				c-29.8,2.9-55.8,13-80.7,23.7c-97,42-144.1,138.1-144.1,138.1c-11.3,23.3-20.2,44.3-26.4,65.6c-3.1,10.4-5.5,21-7.3,31.8
				c0,0,0,0.2-0.1,0.6l0.1-0.6c0,0-5.4,31.6-13.1,97.9c-2.7,22.9-12.9,45.7-11.6,53c2.3,13.1,28-1,33.5-4.3c0.5-0.3,1,0.2,0.9,0.8
				c-0.4,2.3-1.5,7.5-4.6,15.9c-3.8,10.4-7,18.5-4.6,23.6c2.5,5.5,12.2,6.2,23.3,4.1c16.7-3.2,29.5,14.3,29.5,14.3
				c2,2.6,9.4,9.7,9.4,9.7c32.1,28.2,71.1,44.2,120.6,56.2c0,0,51.8,15.3,141.9,6.5C497.7,1048,554.7,1019.2,577.1,994.3z"/>
		</g>
		<g class="st6">
			<g>
				<path class="st7" d="M57.9,781.9L57.9,781.9c0,0,0-0.1,0-0.2C57.9,781.8,57.9,781.9,57.9,781.9z"/>
			</g>
			<g>
				<polygon class="st1" points="53.3,794.5 56.7,781.1 59.3,776.3 59.1,782.6 				"/>
			</g>
		</g>
		<g class="st2">
			<path class="st3" d="M655.7,931.5c-1.8,5.8-11.2,8-22.4,9.9c-20.3,3.5-48.4,46.1-56.2,52.8c0,0,0,0-0.1,0.1
				c-22.4,24.9-79.3,53.6-193.9,64.9c-90.1,8.9-141.9-6.5-141.9-6.5c-49.5-12-88.5-28-120.6-56.2c0,0-7.5-7-9.4-9.7
				c0,0-12.8-17.4-29.5-14.3c-11.1,2.1-20.8,1.4-23.3-4.1c-2.3-5.2,0.8-13.2,4.6-23.6c1.6-4.2,2.6-7.6,3.3-10.2
				c4.2,0.7,9.6,0.4,15.4-0.7c16.7-3.2,29.5,14.3,29.5,14.3c2,2.6,9.4,9.7,9.4,9.7c32.1,28.2,71.1,44.2,120.6,56.2
				c0,0,51.8,15.4,141.9,6.5c114.6-11.3,171.6-40,193.9-64.9c0,0,0-0.1,0.1-0.1c7.8-6.7,35.9-49.3,56.2-52.8
				c3.9-0.7,7.7-1.4,10.9-2.3c1,2.3,2.2,5,3.9,8.2C653.2,918.5,657.4,926.1,655.7,931.5z"/>
		</g>
		<g class="st6">
			<g>
				<path class="st7" d="M57.8,782c0-0.1,0-0.2,0-0.2C57.9,781.8,57.9,781.9,57.8,782c0,0,0,0.1,0,0.2L57.8,782z"/>
			</g>
			<g>
				<polygon class="st1" points="59.2,782.5 56.4,782 56.5,781.7 56.5,781.7 56.7,781.1 59.3,776.3 				"/>
			</g>
		</g>
		<g class="st6">
			<g>
				<path class="st7" d="M57.8,743.3c0-0.1,0-0.2,0-0.2C57.9,743.2,57.9,743.2,57.8,743.3L57.8,743.3z"/>
			</g>
			<g>
				<polygon class="st1" points="53.3,755.8 56.6,742.6 59.3,735.3 59.1,743.9 				"/>
			</g>
		</g>
		<g class="st6">
			<g>
				<path class="st7" d="M653.1,896.5c-2.1,1.7-5.1,3-8.8,4c-1.5-3.4-2.2-5.7-2.6-7c-0.2-0.6,0.3-1.1,0.8-0.9
					C644.3,893.4,648.4,895,653.1,896.5z"/>
			</g>
			<g>
				<path class="st1" d="M643.5,902.2L643,901c-1.5-3.4-2.3-5.8-2.7-7.2c-0.2-0.9,0-1.7,0.6-2.3c0.6-0.5,1.3-0.6,2-0.3
					c2.5,1.1,6.3,2.6,10.6,3.9l2.5,0.8l-2,1.6c-2,1.7-5,3.1-9.4,4.3L643.5,902.2z M643.4,894.5c0.4,1.1,0.9,2.5,1.6,4.3
					c1.9-0.6,3.5-1.2,4.8-1.9C647.5,896.1,645.2,895.2,643.4,894.5z"/>
			</g>
		</g>
		<g>
			<path class="st4" d="M236.6,588.5c-28-16.7-155.9-91.1-179-69.6c-40.5,37.7,7.1,164.8,18.6,193.5"/>
		</g>
		<g class="st8">
			<path class="st0" d="M236.6,588.5l-17.1,13.2c-41.3-24-147.1-82.3-167.8-62.9c-3.6,3.4-6.5,7.5-8.8,12.1
				c2-13.2,6.6-24.4,14.7-31.9C80.6,497.4,208.6,571.7,236.6,588.5z"/>
		</g>
		<path class="st3" d="M76.1,721.4c-3.6,0-6.9-2.1-8.3-5.6c-19.1-47.9-59-163.7-16.4-203.4c8.9-8.3,28.1-13.7,97.6,18.9
			c39.9,18.7,80.6,42.6,92.1,49.5c4.2,2.5,5.6,8,3.1,12.3c-2.5,4.2-8,5.6-12.3,3.1c-11.4-6.8-51.4-30.4-90.5-48.7
			c-66.7-31.3-77.4-22.4-77.8-22c-28.3,26.3-6.5,115.4,20.8,183.7c1.8,4.6-0.4,9.8-5,11.6C78.3,721.2,77.2,721.4,76.1,721.4z"/>
		<g>
			<path class="st9" d="M73.3,556.9c0,0-6.3-1.9-5.3,12.8c1.7,25.2,15.4,88.1,45.5,109.7c0,0,40.3-66.4,51.7-74.4
				c11.3-8-14.1-14.9-21.7-23.8C135.9,572.3,77.9,554.4,73.3,556.9z"/>
		</g>
		<g class="st2">
			<path class="st3" d="M165.2,605c-6.6,4.7-23,29.1-35.6,48.7c-18-28-26.5-70.5-27.8-90.1c0-0.2,0-0.4,0-0.6
				c17.6,5.5,37.5,13.2,41.8,18.2C151,590.1,176.5,597.1,165.2,605z"/>
		</g>
		<path class="st3" d="M115.9,671.9c3.5-7,7.1-14,11.1-20.8c3.9-6.8,8.3-13.5,12.7-20c4.6-6.5,9.3-12.9,14.4-18.9c2.6-3.1,5.2-6,8-9
			c2.8-3,5.5-5.7,8.8-8.7l-0.1,9.7c-7.8-6.3-16.4-11.8-25.4-16.5c-9-4.8-18.4-9-28-12.6c-9.6-3.8-19.4-6.9-29.3-9.7
			c-2.5-0.7-5-1.4-7.4-2c-0.5-0.1-0.2,0-0.3-0.1c0,0,0,0,0,0c0,0,0,0,0,0c0,0,0,0,0,0s0,0,0,0c0,0,0,0,0,0l0,0l0,0.4l-0.2,1.9
			c-0.2,2.5-0.4,5-0.5,7.5c-0.5,10,0,20.1,1.5,30.1c1.5,9.9,3.9,19.7,7.6,29.1c3.6,9.5,8,19.2,12.5,28.4c1.1,2.3,2.3,4.6,3.6,6.8
			l1.9,3.3l0.5,0.8l0.3,0.5c0.2,0.3,0.4,0.5,0.6,0.8c0.9,1,2.4,1.4,3.9,1.3C113.6,674.1,115,673.3,115.9,671.9L115.9,671.9z
			 M122,675.1c-1.5,3.2-4.6,6-8.3,6.8c-3.6,0.9-7.8,0.3-11-2.1c-0.8-0.6-1.5-1.2-2.2-2c-0.3-0.3-0.7-0.8-0.9-1.1l-0.6-0.8
			c-0.8-1.1-1.6-2.2-2.4-3.3c-1.5-2.3-3-4.5-4.4-6.9c-5.7-9.3-10.6-18.6-15.2-28.5c-4.6-10.1-7.9-20.8-10-31.6
			c-2-10.9-2.9-22-2.6-33.1c0.1-2.8,0.3-5.5,0.5-8.3l0.2-2.1l0.1-0.5l0.1-1c0.1-0.6,0.3-1.3,0.5-1.9c0.8-2.5,2.3-4.9,4.2-6.7
			c1.9-1.8,4.3-3.1,6.9-3.7c1.3-0.3,2.6-0.4,4-0.4c0.7,0,1.3,0.1,2,0.2c0.6,0.1,1.5,0.3,1.7,0.3c2.6,0.6,5.3,1.3,7.9,2
			c10.4,2.9,20.7,6.4,30.7,10.5c10,4.2,19.9,8.9,29.3,14.4c9.4,5.6,18.5,11.9,26.7,19.3l5.7,5.1l-5.8,4.7c-2.6,2.1-5.5,4.8-8.2,7.3
			c-2.7,2.6-5.4,5.3-7.9,8.1c-5.2,5.6-10.2,11.3-14.9,17.3c-4.7,6-9.3,12.2-13.6,18.6c-2.2,3.1-4.2,6.4-6.3,9.6
			C126,668.5,124,671.8,122,675.1L122,675.1z"/>
		<g>
			<path class="st4" d="M59.2,774.4c43.9,10.6,94,10.2,141.4-19c107.4-66.3,90.5-172.2,73.7-224.2c-13.4,4.2-26.1,9.4-38.6,14.8
				c-97,42-144.1,138.1-144.1,138.1c-11.3,23.3-20.2,44.3-26.4,65.6C62.9,757.9,60.8,766.1,59.2,774.4z"/>
		</g>
		<g>
			<path class="st10" d="M560,694.9"/>
		</g>
		<g>
			<path class="st0" d="M431.8,573.7c25.1-20.7,140.4-113.6,166.5-95.8c45.7,31.2,11.5,183.6,4.5,213.8"/>
		</g>
		<g class="st8">
			<path class="st0" d="M38.7,932.5c0.5,2.9,2.1,4.4,4.4,5.1c2.9-10.2,7-23.5,8.6-36.8c7.1-61.2,12.3-92.8,13-97.3
				c0-0.4,0.1-0.6,0.1-0.6c1.8-10.9,4.3-21.4,7.3-31.8c6.3-21.3,10.1-44.7,21.4-68c0,0,52.1-93.7,149.1-135.7
				c24.9-10.8,50.9-20.8,80.7-23.7c0.2,0,0.4-0.1,0.6,0c7.9-0.8,16.1-1.3,24.4-1.4c41.2-0.7,76,3.9,110.7,21.2l11.5,6.4
				c37.2-30,118.6-89.2,142.1-73.1c4.1,2.8,7.6,6.4,10.6,10.7c-4-12.8-10.2-23.1-19.4-29.4c-22.3-15.2-99.5,40-137,69.3l1.1-2.2
				c-37.9-18.2-79.6-24.8-120.8-24.1c-8.3,0.1-16.5,0.6-24.4,1.4c-0.2,0-0.4,0-0.6,0c-29.8,2.9-55.8,13-80.7,23.7
				c-97,42-144.1,138.1-144.1,138.1c-11.3,23.3-20.2,44.3-26.4,65.6c-3.1,10.4-5.5,20.9-7.4,31.8c0,0,0,0.2-0.1,0.6
				c-0.8,4.5-6,36.1-13,97.3C47.7,902.4,37.4,925.2,38.7,932.5z"/>
		</g>
		<g>
			<path class="st9" d="M588.4,517.8c0,0,5.9-2.9,7.1,11.8c2.1,25.2-1.9,89.4-28.4,115.3c0,0-49.9-59.5-62.3-65.7
				c-12.4-6.2,11.7-16.9,17.9-26.8C528.9,542.5,583.5,516,588.4,517.8z"/>
		</g>
		<g class="st2">
			<path class="st3" d="M504.8,579.3c7.2,3.6,27.2,25.3,42.5,42.8c13.5-30.4,15.6-73.7,13.9-93.3c0-0.2,0-0.4-0.1-0.6
				c-16.6,8.1-35.1,18.7-38.6,24.3C516.6,562.4,492.4,573.1,504.8,579.3z"/>
		</g>
		<path class="st3" d="M566.8,649.6c-4.7,0-9.2-2.2-12.1-6.1c-32.4-43.2-63.7-62.2-64.1-62.4c-1.8-1.1-3-2.8-3.3-4.9
			c-0.3-2,0.2-4.1,1.6-5.7c27-31.4,69.9-51.5,87-58.7c4.3-1.8,9.1-1.7,13.4,0.2c4.2,1.9,7.5,5.5,9,9.9c4.2,12.5,7.4,35.6-1.4,74
			c-3,13-7.5,25.9-13.4,38.4l-3.1,6.5c-2.3,4.8-6.8,8-12.1,8.6C567.9,649.6,567.4,649.6,566.8,649.6z M505,573.9
			c11.6,8.3,35.9,27.8,61,61.3l0,0c0.3,0.3,0.6,0.5,1,0.4c0.6-0.1,0.8-0.5,0.9-0.6l3.1-6.5c5.5-11.6,9.7-23.6,12.4-35.6
			c8.5-37.1,4.8-57.6,1.8-66.4c-0.3-1-1.1-1.5-1.5-1.6c-0.4-0.2-1.2-0.4-2.2,0C566.3,531.1,530.1,548,505,573.9z"/>
		<path class="st3" d="M328.2,1071c-54.5,0-85.9-8.6-89.3-9.6c-56.2-13.6-93.4-31-124.2-58.1c-0.3-0.2-8.2-7.6-10.7-11.1
			c-0.1-0.1-9.8-12.8-20.7-10.8c-22,4.2-30.2-2.7-33.1-9.2c-3.7-8-0.6-16.9,3.5-27.9c-8.7,3-15.7,3.4-20.9,1
			c-4.5-2.1-7.5-6.1-8.4-11.3c-1-5.5,1.1-12.7,4.2-23.6c2.7-9.3,6-20.8,7.3-32C43,817,48.3,784.8,49,780.6c0.1-0.4,0.1-0.6,0.1-0.6
			c1.8-10.9,4.3-21.7,7.6-32.7c5.9-20.2,14.2-40.8,26.9-67c2-4.1,49.7-99.6,148.6-142.4c23.5-10.2,51.3-21.3,83.1-24.4
			c0.3,0,0.7-0.1,1.2-0.1c8-0.8,16.4-1.3,24.8-1.4c38.4-0.7,83.7,9,119.5,25.5c51-41.6,115.5-85.4,142.5-66.9
			c53.1,36.3,17.6,183.3,11,208.5c17.8,32.6,30.9,77.2,32.3,82.2c0.5,1.6,5.1,16.4,20.2,78.2c2.7,10.9,7.4,22,11.2,30.9
			c4.5,10.4,7.4,17.2,7.1,22.9c-0.3,5.2-2.7,9.6-7,12.2c-4.8,3-11.8,3.5-20.9,1.6c5.4,10.5,9.5,18.9,6.9,27.3
			c-3.6,11.6-18.5,14.2-29.4,16c-11.5,2-31.2,26.3-40.7,38c-4.7,5.8-8.1,10.1-10.8,12.5c-18,19.8-67.7,54.5-199.4,67.5
			C363.4,1070.2,344.7,1071,328.2,1071z M126.6,989.9c28.5,25,63.4,41.2,116.7,54.1l0.4,0.1c0.5,0.1,51.5,14.7,138.5,6.2
			c130.7-12.9,174.9-47.4,188-61.8l1.2-1.5l0.6-0.3c1.8-1.9,5.1-5.9,8.3-9.8c17.6-21.7,34.8-41.4,51.5-44.3
			c8.4-1.5,13.6-2.9,15.4-4.2c-0.1-2.5-3.7-9.4-6.3-14.5l-0.6-1.2c-4.2-8.1-6.2-13.6-7.2-16.8c-1.1-3.6,0-7.5,2.8-10
			c2.7-2.4,6.7-3.1,10-1.6c9.6,4.1,17.1,5.8,20.9,5.9c-1-3.1-3.3-8.4-5.2-12.9c-4.1-9.5-9.1-21.3-12.2-33.7
			c-15.4-63.2-19.7-76.4-19.8-77l-0.2-0.6c-0.1-0.3-14-49.2-32.4-81.5l-1.9-3.3l1-3.6c14.4-49.9,33.6-167.5-2.9-192.4
			c-11.2-7.7-57.9,13.8-125.4,69.6l-4.5,3.7l-5.2-2.6c-34.1-16.8-78.8-26.8-116.5-26.2c-8.1,0.1-16,0.6-23.7,1.4l-0.6,0.1l0,0l0,0
			c-29.4,2.9-54.6,12.9-78,23c-92.9,40.3-139.1,132.9-139.6,133.8c-12.3,25.2-20.2,45-25.9,64.2c-3.1,10.3-5.4,20.4-7.1,30.7l0,0
			l-0.1,0.6l0,0c-0.7,4.2-5.9,36-13,96.9c-1.5,12.6-5,25-7.9,34.9c-1.3,4.6-2.9,10.1-3.5,13.4c3.7-0.6,11-3.2,20-8.4
			c3.2-1.8,7.2-1.7,10.2,0.4c3.1,2.1,4.6,5.9,4,9.6c-0.4,2.6-1.7,8.5-5,17.5l-0.5,1.3c-1.9,5.2-4.5,12.1-4.4,14.9
			c1.6,0.5,5.9,1,13.6-0.4c22-4.1,37.8,16.9,38.4,17.8C119.3,982.7,123.4,986.9,126.6,989.9z M58.7,927.5
			C58.7,927.5,58.7,927.5,58.7,927.5C58.7,927.5,58.7,927.5,58.7,927.5z"/>
		<g>
			<path class="st3" d="M963.3,846.3c-0.7,5.4-2.3,10.6-4,15.8c-1.7,5.1-4,10.1-6.2,15.1c-2.2,5-4.7,9.9-7.2,14.8
				c-2.6,4.9-5.3,9.8-8.4,14.5c-0.4,0.6-1.1,0.7-1.7,0.4c-0.4-0.2-0.6-0.7-0.6-1.1c0-5.7,0.5-11.2,1.1-16.7
				c0.6-5.5,1.4-10.9,2.3-16.3c0.9-5.4,1.8-10.8,3.2-16c1.4-5.3,3-10.4,5.4-15.4c2.1-4.2,7.1-6,11.4-3.9
				C962,839.1,963.8,842.7,963.3,846.3L963.3,846.3z"/>
		</g>
		<g>
			<g>
				<path class="st0" d="M632.7,956.1c-53.8-9.5-88.8-20.9-146-8.2c-57.7,12.8-86.9,67.4-73.2,97.8c15.4,34.1,100.4,21.6,128.8,14.5
					c16.8-4.2,28.8-9.8,37.3-15.3c18.8-12.1,45.3-13.6,62.8-14.7c23.3-1.5,54.3,3.9,80-16.5"/>
			</g>
			<g>
				<path class="st1" d="M475.4,1069.8c-28,0-54.9-5.4-63.1-23.5c-5.9-12.9-4.3-30.1,4.2-47.1c13.1-26.2,39.2-45.9,69.9-52.7
					c48.4-10.7,80.9-4.4,122,3.6c7.8,1.5,16,3.1,24.6,4.6l-0.5,2.8c-8.6-1.5-16.7-3.1-24.6-4.6c-40.8-7.9-73.1-14.2-120.9-3.6
					c-29.9,6.6-55.3,25.7-68.1,51.2c-8.1,16.3-9.6,32.6-4.1,44.7c15.1,33.2,99,20.8,127.2,13.8c14.5-3.6,26.9-8.7,36.8-15.1
					c18.9-12.1,45.2-13.8,62.7-14.9l0.8,0c4.9-0.3,10.1-0.3,15.6-0.3c20.5,0,43.7-0.1,63.7-15.9l1.7,2.2
					c-20.7,16.4-44.4,16.4-65.4,16.5c-5.4,0-10.6,0-15.4,0.3l-0.8,0c-17.2,1.1-43.1,2.7-61.3,14.4c-10.2,6.6-22.9,11.8-37.7,15.4
					C528.8,1065.1,501.6,1069.8,475.4,1069.8z"/>
			</g>
		</g>
		<path class="st3" d="M474.8,1077.4c-29.5,0-59.4-6-69.4-28c-6.8-15-5.2-34.6,4.3-53.6c14.1-28.2,42.2-49.4,75.1-56.7
			c49.9-11,83.1-4.6,125.1,3.5c7.8,1.5,15.9,3.1,24.4,4.6c4.9,0.9,8.1,5.5,7.2,10.4c-0.9,4.9-5.5,8.1-10.4,7.2
			c-8.7-1.5-16.8-3.1-24.7-4.6c-40-7.7-71.5-13.9-117.8-3.6c-27.7,6.1-51.2,23.8-62.9,47.2c-7,14-8.5,28.3-4,38.2
			c11.2,24.7,82.7,18.4,118.5,9.5c13.7-3.4,25.3-8.1,34.6-14.1c20.5-13.2,48.1-14.9,66.3-16.1l0.8,0c5.1-0.3,10.4-0.3,16.1-0.3
			c20.2,0,41.1-0.1,59-14.2c3.9-3.1,9.5-2.4,12.6,1.5c3.1,3.9,2.4,9.5-1.5,12.6c-22.8,18-49,18.1-70.1,18.1c-5.3,0-10.4,0-15,0.3
			l-0.8,0c-16.4,1-41.1,2.6-57.7,13.2c-10.9,7-24.4,12.6-40,16.4C543.9,1069.1,509.6,1077.4,474.8,1077.4z"/>
		<g>
			<path class="st3" d="M509.5,1008.7c-2.4,4.4-3.9,9.2-5,13.9c-1.1,4.7-1.6,9.5-1.9,14.3c-0.3,4.8,0,9.6,0,14.3
				c0.1,2.4,0.3,4.8,0.2,7.2c0.1,2.4,0.2,4.8,0.1,7.3l0,0.6c-0.3,3.9-3.6,6.8-7.5,6.6c-3.1-0.2-5.7-2.5-6.4-5.4
				c-0.6-2.7-1.1-5.4-1.4-8.1c-0.2-2.7-0.3-5.5-0.2-8.3c0.3-5.5,1.2-11.1,2.8-16.4c1.6-5.4,3.7-10.6,6.7-15.3
				c3-4.7,6.5-9.1,11.3-12.1c0.5-0.3,1.1-0.2,1.4,0.3c0.2,0.3,0.2,0.7,0,1L509.5,1008.7z"/>
		</g>
		<g>
			<path class="st3" d="M458.7,1004.6c-2.3,4.6-4,9.5-5.1,14.3c-1.2,4.8-1.9,9.6-2,14.4c-0.1,4.8,0.1,9.5,0.7,14.1
				c0.1,2.3,0.7,4.7,0.9,7c0.3,2.3,0.8,4.7,1,7.1l0.1,0.9c0.2,3.9-2.7,7.2-6.6,7.4c-3.1,0.2-5.9-1.7-6.9-4.5c-1-2.7-1.9-5.4-2.5-8.2
				c-0.3-1.4-0.5-2.8-0.7-4.3c-0.2-1.4-0.4-2.9-0.3-4.3l-0.1-4.4l0.4-4.4c0.1-1.4,0.4-2.9,0.7-4.3c0.3-1.4,0.5-2.8,1-4.2
				c1.5-5.6,3.8-10.9,6.8-15.7c3.1-4.8,6.7-9.1,11.3-12.4c0.5-0.3,1.1-0.2,1.4,0.2c0.2,0.3,0.2,0.7,0.1,1L458.7,1004.6z"/>
		</g>
		<g class="st2">
			<path class="st3" d="M247.4,934.4c14.4,9.1,29.4,2.9,36.4-5.7c0,0,13.7,21.2,36.6,10.7c14.3-6.6,9.2-26,9.2-26l-85.8-3.1
				C243.8,910.2,236.2,927.3,247.4,934.4z"/>
		</g>
		<g>
			<path class="st0" d="M247.3,904.2c0,0-7,15.8,3.2,22.3c13.3,8.4,27.1-2.1,33.6-10c0,0,13.7,23,33.7,14.6c13.4-5.7,8.5-24,8.5-24"
				/>
		</g>
		<g>
			<path class="st3" d="M248.2,904.6c-0.1,5.3,0.2,10.5,1.9,13.8c0.9,1.6,1.9,2.5,3.1,3.1l0.5,0.3l0.7,0.3c0.4,0.2,0.9,0.4,1.3,0.6
				c0.9,0.2,1.7,0.6,2.6,0.7c3.4,0.7,7.2-0.1,11.1-1.9c3.8-1.9,7.6-4.9,10.4-8.4l4.8-6.1l4.3,6.7c1.1,1.8,2.8,3.9,4.6,5.6
				c1.7,1.7,3.6,3.2,5.6,4.5c4,2.3,8,3.5,12,2.9l1.5-0.2c0.5-0.1,1-0.3,1.5-0.4l1.5-0.4c0.4-0.2,0.8-0.4,1.2-0.5
				c1.5-0.8,2.7-1.9,3.8-3.5c2.3-3.2,3.6-8.5,4.8-14.2l0-0.1c0.1-0.5,0.6-0.9,1.2-0.8c0.2,0.1,0.5,0.2,0.6,0.4
				c1.9,2.6,3.1,5.6,3.7,8.8c0.5,3.2,0.5,6.7-0.8,10.3c-1.2,3.6-3.9,6.9-7.2,9.1l-2.5,1.5c-0.8,0.4-1.6,0.6-2.5,1
				c-0.8,0.3-1.7,0.6-2.5,0.8l-2.7,0.5c-1.8,0.4-3.6,0.2-5.5,0.3c-1.8-0.2-3.6-0.4-5.4-0.9c-3.5-0.9-6.6-2.6-9.4-4.5
				c-2.7-2-5.2-4.1-7.3-6.5c-2.2-2.4-4-4.7-5.9-7.7l9.2,0.7c-3.8,4.6-8.2,8.5-13.6,11.7c-2.7,1.5-5.7,2.8-9,3.5
				c-3.3,0.7-6.9,0.7-10.2-0.2c-1.7-0.4-3.3-1-4.8-1.8c-0.8-0.4-1.4-0.8-2.2-1.3l-1.1-0.7c-0.4-0.3-0.8-0.6-1.1-0.9
				c-3-2.4-5-6.1-5.5-9.6c-0.6-3.5,0-6.7,1-9.5c1-2.8,2.5-5.3,4.4-7.5c0.4-0.4,1-0.4,1.4-0.1C248,904,248.2,904.2,248.2,904.6
				L248.2,904.6z"/>
		</g>
		<g class="st2">
			<path class="st3" d="M317.9,931.1c-20,8.5-33.7-14.6-33.7-14.6c-6.4,8-20.3,18.4-33.6,10c-6.7-4.3-3.1-16-1.9-21.2
				c0.7,2.7,1.8,8,3.4,10.5c6.3,9.5,22.9-7,29.4-14.9c0,0,18.5,31.4,36.7,19.6c5.1-3.3,5.4-10.2,6.4-14.5
				C325.4,911.5,327.9,926.8,317.9,931.1z"/>
		</g>
		<g>
			<path class="st3" d="M286,890c-0.2,2-0.3,4.3-0.3,6.4c0,2.1,0.1,4.2,0.3,6.3c0.2,2,0.5,4.1,1,5.9c0.5,1.8,1.1,3.4,1.9,4.5
				c2.1,3.1,1.3,7.4-1.8,9.5c-3.1,2.1-7.4,1.3-9.5-1.8c-0.4-0.6-0.7-1.2-0.9-1.8l-0.2-0.7c-0.9-3.1-1.1-5.8-1.2-8.5
				c0-2.6,0.3-5.1,0.6-7.5c0.4-2.4,0.9-4.7,1.5-7c0.6-2.3,1.2-4.5,2.1-6.8c0.6-1.8,2.6-2.7,4.3-2.1c1.5,0.5,2.4,2,2.3,3.5L286,890z"
				/>
		</g>
		<g>
			<path class="st3" d="M315.6,879.1c0,8.6-24,21.3-33.5,21.5c-9.5,0.2-33.5-13.6-32.4-21.9c0.4-2.9,9-12.4,35.7-12
				C307.2,866.9,315.6,875.6,315.6,879.1z"/>
		</g>
		<g class="st11">
			<g>
				<path class="st0" d="M289,876.3c1.2,3.3-5.3,6.1-11.7,6.3c-2.7,0.1-10.8-1.2-11.6-3.7c-0.8-2.5,1.8-4.6,10.9-4.9
					C285.1,873.7,288.2,874.1,289,876.3z"/>
			</g>
			<g>
				<path class="st1" d="M277.2,884c-1.8,0-11.7-0.8-12.8-4.7c-0.4-1.2-0.2-2.3,0.5-3.3c1.5-2.1,5.3-3.2,11.7-3.4
					c8.4-0.3,12.5-0.1,13.7,3.2v0c0.4,1.2,0.2,2.4-0.5,3.5c-2.1,3-7.9,4.5-12.4,4.6C277.3,884,277.3,884,277.2,884z M280.6,875.3
					c-1.1,0-2.5,0-4,0.1c-7.3,0.2-9.1,1.6-9.5,2.2c-0.1,0.2-0.2,0.4-0.1,0.9c0.4,1.2,6.8,2.8,10.2,2.7c4.9-0.1,9.2-1.9,10.2-3.4
					c0.3-0.5,0.3-0.8,0.2-1C287.3,875.8,285.4,875.3,280.6,875.3z"/>
			</g>
		</g>
		<g>
			<path class="st3" d="M136.5,861.3c-0.2-5.8,0.9-11.2,2.6-16.7c1.8-5.4,4.5-10.7,8.4-15.5c3.8-4.8,9.2-8.9,15.3-11.3
				c1.5-0.5,3-1.3,4.7-1.6l4.8-0.9c1.6-0.3,3.2-0.2,4.8-0.3c1.6,0,3.2-0.1,4.7,0.1c3,0.4,6,0.7,9,1.7c1.5,0.4,3,0.9,4.4,1.4l4.3,2
				c5.5,2.9,10.6,6.9,14.2,11.8c3.7,4.8,6.4,10.1,8.1,15.6c1.7,5.5,2.6,10.9,2.3,16.7c-0.1,1.6-1.4,2.8-3,2.8
				c-1.2-0.1-2.1-0.8-2.6-1.8l-0.1-0.3c-3.6-9.1-8.8-17.7-15.2-23.5c-6.4-5.9-14.2-8.7-22.8-9.3c-1.1-0.2-2,0-3,0
				c-1,0.1-2-0.1-3,0.1c-0.9,0.2-1.9,0.3-2.8,0.5c-1,0.1-1.8,0.6-2.7,0.8c-3.5,1.3-7.1,3.1-10.2,6c-6.4,5.6-11.8,14-16.5,22.8
				l-0.1,0.2c-0.8,1.4-2.5,2-4,1.2C137.1,863.3,136.5,862.4,136.5,861.3z"/>
		</g>
		<g>
			<path class="st3" d="M432.9,865.3c-4.8-8.8-10.1-17.2-16.5-22.8c-3.1-2.9-6.7-4.7-10.2-6c-0.9-0.2-1.8-0.7-2.7-0.8
				c-1-0.1-1.9-0.3-2.8-0.5c-0.9-0.2-2-0.1-3-0.1c-1,0-2-0.2-3,0c-8.6,0.6-16.4,3.4-22.8,9.3c-6.4,5.8-11.6,14.4-15.2,23.5l-0.1,0.3
				c-0.6,1.5-2.3,2.2-3.8,1.6c-1.1-0.4-1.8-1.5-1.8-2.6c-0.3-5.8,0.7-11.2,2.3-16.7c1.7-5.5,4.4-10.8,8.1-15.6
				c3.6-4.9,8.7-8.8,14.2-11.8l4.3-2c1.5-0.5,2.9-1,4.4-1.4c3-1,6-1.2,9-1.7c1.5-0.3,3.1-0.1,4.7-0.1c1.6,0.1,3.2-0.1,4.8,0.3
				l4.8,0.9c1.6,0.3,3.1,1.1,4.7,1.6c6.1,2.5,11.4,6.5,15.3,11.3c3.9,4.8,6.6,10.1,8.4,15.5c1.7,5.5,2.8,10.9,2.6,16.7
				c0,1.6-1.4,2.9-3,2.8c-1.1,0-2-0.6-2.5-1.5L432.9,865.3z"/>
		</g>
		<g class="st2">
			<path class="st3" d="M1087.7,903.5c0-0.4,0-0.9-0.1-1.3c0-0.6-0.1-1.2-0.1-1.8c-0.1-0.8-0.2-1.5-0.3-2.2
				c-0.1-0.6-0.2-1.1-0.3-1.7c0-0.2-0.1-0.5-0.1-0.7c-0.1-0.4-0.2-0.9-0.3-1.3c-0.1-0.4-0.2-0.8-0.3-1.2c-0.1-0.5-0.2-0.9-0.4-1.4
				c-0.2-0.7-0.4-1.4-0.7-2.1c-0.1-0.5-0.3-0.9-0.5-1.4c-0.2-0.5-0.4-1-0.6-1.5c-0.2-0.6-0.5-1.2-0.8-1.8c-0.6-1.4-1.3-2.7-2.1-3.9
				c-0.2-0.3-0.4-0.7-0.6-1c-0.2-0.4-0.5-0.8-0.7-1.2c-0.4-0.6-0.8-1.1-1.2-1.6c-0.2-0.4-0.5-0.7-0.8-1.1c-0.4-0.5-0.8-1.1-1.3-1.6
				c-0.4-0.5-0.9-1-1.3-1.5c-0.5-0.6-1.1-1.2-1.7-1.8c-0.6-0.6-1.2-1.1-1.8-1.7c0.1,1.1,0.1,2.2,0.1,3.4c0,26.4-28.6,48.1-71.6,66.5
				c-34.7,14.9-70.6-19.2-57.7-54.7c0.2-0.5,0.3-0.9,0.5-1.4c0,0,135.9-335.3-194.1-349.3c0,0,32.9,27.1,66.8,69.9
				c109.5,138.2,35,345-138,379.1c-2.4,0.5-35.4,13.1-35.4,13.1c-17.4,1.1-43.9,2.6-62.8,14.7c-8.5,5.5-20.5,11.1-37.3,15.3
				c-28.4,7-113.4,19.5-128.8-14.5c-0.1-0.3-0.3-0.6-0.4-0.9c-4,12.7-4.1,25,0.4,34.9c15.4,34.1,100.4,21.6,128.8,14.5
				c16.8-4.1,28.8-9.8,37.3-15.3c18.8-12.1,45.3-13.6,62.8-14.7c19.7-1.2,45,2.3,67.9-8.9l16.7,4.1
				c164.1-24.9,360.7-70.6,360.7-119.4C1087.7,905.3,1087.7,904.4,1087.7,903.5z"/>
		</g>
	</g>
</g>
<g id="Layer_2">
</g>
<g id="Layer_3">
</g>
<g id="Layer_4">
</g>
<g id="Layer_5">
</g>
<g id="Layer_6">
</g>
</svg>
