<?xml version="1.0" encoding="utf-8"?>
<svg version="1.1" x="0px" y="0px" viewBox="0 179.094 1200 1426.887" style="enable-background:new 0 0 1200 1800;" xmlns="http://www.w3.org/2000/svg">
  <style type="text/css">
	.st0{opacity:0.25;}
	.st1{fill:#1D1C22;}
	.st2{fill:#767A81;}
	.st3{opacity:0.35;}
	.st4{fill:#FFFFFF;}
	.st5{fill:#F99191;}
	.st6{fill:#E4B684;}
	.st7{fill:#F9744B;}
</style>
  <g id="Layer_1" transform="matrix(1, 0, 0, 1, 0, -10)">
    <g>
      <g class="st0">
        <g>
          <ellipse class="st1" cx="557.1" cy="1532.9" rx="553.5" ry="57.4"/>
        </g>
      </g>
      <g>
        <g>
          <g>
            <path class="st2" d="M1165.2,1204.8c-7.3,47.4-115.2,73.3-115.2,73.3s24.3,11.1,11.5,27.1c-19.7,24.6-97.4,18.9-97.4,18.9 s22.9,34,1,38.3c-43.4,8.4-155.3-10.1-212.2-13.6l-5.5-97.6c2.5-0.4,5.1-0.8,7.6-1.3c1.1-0.2,2.3-0.4,3.4-0.6 c2.6-0.5,5.2-1,7.7-1.5c13.1-2.6,25.4-5.6,37.1-9c4.4-1.3,8.8-2.6,13.1-4.1c128.7-42.3,165.9-131.4,136.8-190.2 c-6-12.2-25.7-29-50.5-31.9c-4.7-0.5-9.5-0.6-14.5-0.1c-14.4,1.6-29.8,8.3-45,23c-19.4,18.9-37.8,7.6-42.7-16.7 c0-0.1,0-0.1-0.1-0.2c-0.5-2.5-0.8-5.1-1-7.8c0-0.3-0.1-0.7-0.1-1c-3-49.4,11.4-77.4,11.4-77.4s-27.1-17.2-23.2-33.4 c12.3-50.2,139.5-43.7,139.5-43.7s-15-47.3,14.7-45.4c68.4,4.2,144.3,86.7,144.3,86.7s19-16.4,31.9-12.2 c34.7,11.4,29.4,128.1,29.4,128.1s30.8-7.1,38.7,18.2c20.4,64.9-57.7,152.4-57.7,152.4S1169,1180.1,1165.2,1204.8z"/>
          </g>
        </g>
      </g>
      <g class="st3">
        <g>
          <path class="st4" d="M951.1,1173c-30.6,40.5-101.7,80.1-134.8,61.6c128.7-42.3,165.9-131.4,136.8-190.2 c-6-12.2-25.7-29-50.5-31.9c-4.7-0.5-9.5-0.6-14.5-0.1c7.2-3.2,14.4-4.8,21.5-4C964.2,1014.6,1012.8,1091.4,951.1,1173z"/>
        </g>
      </g>
      <g>
        <g>
          <path class="st4" d="M1165.2,1204.7c-7.3,47.5-115.2,73.3-115.2,73.3s24.3,11.1,11.5,27.1c-19.7,24.6-97.4,18.9-97.4,18.9 s22.9,34,1,38.3c-43.5,8.4-155.3-10.1-212.2-13.6l-5.5-97.5c0,0,0,0,0,0l7.5-1.3c1.2-0.2,2.3-0.4,3.4-0.6c2.6-0.5,5.2-1,7.7-1.5 l29.9-10.1c2.4,0.2,4.8,0.5,7.1,1.1c45.7,10.9,79.6,95,124.9,72.8c17.2-8.4,8.2-41.2,8-42c0,0,0,0,0,0 c1.1,0.5,65.8,33.3,82.8,12.1c11.1-13.9-27.4-46.3-27.4-46.3s98.8,27.4,123.1-8.1c12.3-17.9-50.3-26.2-50.3-26.2 s113.6-82.7,89.7-152.4c-4.9-14.4-40.9,18.2-40.9,18.2s23.3-135.2-6.9-145.1c-11.2-3.7-30.6,31.5-30.6,31.5s-50.2-61.6-115-58.3 c-28.5,1.5-54.8,16.4-66.6,43.5c-8.8,20.2-11.6,44.6,8.3,73.9c-18.1-2.1-39,3.1-59.4,23c-19.4,18.9-37.8,7.6-42.7-16.7 c0-0.1,0-0.1,0-0.2c-0.5-3.1-0.9-5.7-1-7.8c0-0.3-0.1-0.7-0.1-1c-3-49.3,11.4-77.4,11.4-77.4s-27.2-17.2-23.2-33.4 c12.3-50.2,139.5-43.7,139.5-43.7s-15-47.3,14.7-45.4c68.4,4.2,144.2,86.7,144.2,86.7s19-16.4,31.9-12.2 c34.4,11.3,29.5,126.2,29.4,128.1c0,0,0,0,0,0c1-0.2,30.9-6.7,38.7,18.2c20.4,64.9-57.7,152.4-57.7,152.4 S1169,1180.1,1165.2,1204.7z"/>
        </g>
      </g>
      <g>
        <g>
          <path class="st1" d="M935.2,1371.5c-32.8,0-76.8-4.9-116.9-9.3c-24.7-2.7-48.1-5.3-65.8-6.4c-3.9-0.2-6.8-3.6-6.6-7.5 c0.2-3.9,3.7-6.9,7.5-6.6c18.1,1.1,41.6,3.7,66.5,6.5c54,6,115.2,12.8,143.9,7.2c2.8-0.5,3.2-1.5,3.4-2c2-4.9-3.9-17.9-8.9-25.4 l-8.1-12l14.5,1.1c20.6,1.5,77.1,1.5,91.4-16.3c2.4-3,2.3-4.8,2-6c-1-4.4-8-8.9-11-10.3l-18.6-8.5l19.9-4.8 c28.7-6.9,104.5-32.5,109.9-67.5c0.6-4.1-0.6-6-1.8-7.3c-5.2-5.6-19.8-6.8-27.8-6.2l-17.4,1.3l11.6-13 c0.8-0.8,75.2-85.3,56.2-145.6c-5.8-18.6-29.4-13.6-30.4-13.4l-9,2l0.4-9.2c2.1-46.3-4.2-114.4-24.6-121.1 c-6.2-2-18.4,5.1-25.1,10.9l-5.2,4.4l-4.6-5c-0.7-0.8-74.7-80.4-139.5-84.4c-5.2-0.3-7.1,1.4-8.2,2.7 c-5.4,6.9-1.9,25.6,0.6,33.6l3.1,9.7l-10.1-0.5c-33.8-1.7-123.3,1.8-132.3,38.3c-2.1,8.4,12.7,21,20.1,25.7l5.4,3.5l-2.9,5.7 c-0.1,0.2-13.4,27.2-10.6,73.8c0.8,14,6.2,24.9,13.6,27.7c6.7,2.6,13.7-2.2,18.3-6.7c26.2-25.4,51.9-27.3,69-24.3 c24.9,4.3,45.1,21,52.2,35.2c14.6,29.4,13.2,65.1-3.8,98c-30.5,59.3-106,102.5-207.1,118.7c-3.8,0.6-7.5-2-8.1-5.8 c-0.6-3.8,2-7.5,5.8-8.1c96.6-15.5,168.3-56,196.8-111.3c14.9-28.9,16.2-59.9,3.7-85.2c-4.6-9.3-20.6-23.9-42-27.6 c-19.8-3.4-39.4,3.7-56.8,20.6c-14.5,14.1-27,12.2-33.2,9.8c-12.7-4.9-21.4-20.3-22.6-40c-2.3-38.4,5.5-64.4,9.7-75.3 c-8.8-6.6-25.3-21.5-21.3-37.6c11.7-47.6,105.2-49.9,137.2-49.3c-2.1-10.5-3.7-27,4.1-37c3.2-4.1,9.2-8.8,20.2-8.1 c61.6,3.8,126.9,66.3,144.5,84.3c7.6-5.4,21.6-13.3,33.4-9.5c17.5,5.8,28.2,30.1,32.5,74.4c2.1,21.2,2.1,41.5,2,52.5 c13.6-0.5,31.9,4,38.2,24.1c17.1,54.5-29.1,121.6-49.8,148c8.3,1,18,3.7,24,10.2c4.6,5,6.5,11.6,5.4,19 c-6.3,40.9-75.7,66-106.3,75.2c2.6,2.9,4.9,6.4,5.9,10.5c1,4.3,1,10.9-4.7,18.1c-16.9,21.1-66.3,22.7-90.5,22.1 c3.8,8.2,7.1,18.9,3.7,27.2c-1.6,3.8-5.3,8.8-13.8,10.4C958.1,1370.9,947.4,1371.5,935.2,1371.5z"/>
        </g>
      </g>
      <g>
        <g>
          <path class="st1" d="M935.2,1371.5c-32.8,0-76.8-4.9-116.9-9.3c-24.7-2.7-48.1-5.3-65.8-6.4c-3.9-0.2-6.8-3.6-6.6-7.5 c0.2-3.9,3.7-6.9,7.5-6.6c18.1,1.1,41.6,3.7,66.5,6.5c54,6,115.2,12.8,143.9,7.2c2.8-0.5,3.2-1.5,3.4-2c2-4.9-3.9-17.9-8.9-25.4 l-8.1-12l14.5,1.1c20.6,1.5,77.1,1.5,91.4-16.3c2.4-3,2.3-4.8,2-6c-1-4.4-8-8.9-11-10.3l-18.6-8.5l19.9-4.8 c28.7-6.9,104.5-32.5,109.9-67.5c0.6-4.1-0.6-6-1.8-7.3c-5.2-5.6-19.8-6.8-27.8-6.2l-17.4,1.3l11.6-13 c0.8-0.8,75.2-85.3,56.2-145.6c-5.8-18.6-29.4-13.6-30.4-13.4l-9,2l0.4-9.2c2.1-46.3-4.2-114.4-24.6-121.1 c-6.2-2-18.4,5.1-25.1,10.9l-5.2,4.4l-4.6-5c-0.7-0.8-74.7-80.4-139.5-84.4c-5.2-0.3-7.1,1.4-8.2,2.7 c-5.4,6.9-1.9,25.6,0.6,33.6l3.1,9.7l-10.1-0.5c-33.8-1.7-123.3,1.8-132.3,38.3c-2.1,8.4,12.7,21,20.1,25.7l5.4,3.5l-2.9,5.7 c-0.1,0.2-13.4,27.2-10.6,73.8c0.8,14,6.2,24.9,13.6,27.7c6.7,2.6,13.7-2.2,18.3-6.7c26.2-25.4,51.9-27.3,69-24.3 c24.9,4.3,45.1,21,52.2,35.2c14.6,29.4,13.2,65.1-3.8,98c-30.5,59.3-106,102.5-207.1,118.7c-3.8,0.6-7.5-2-8.1-5.8 c-0.6-3.8,2-7.5,5.8-8.1c96.6-15.5,168.3-56,196.8-111.3c14.9-28.9,16.2-59.9,3.7-85.2c-4.6-9.3-20.6-23.9-42-27.6 c-19.8-3.4-39.4,3.7-56.8,20.6c-14.5,14.1-27,12.2-33.2,9.8c-12.7-4.9-21.4-20.3-22.6-40c-2.3-38.4,5.5-64.4,9.7-75.3 c-8.8-6.6-25.3-21.5-21.3-37.6c11.7-47.6,105.2-49.9,137.2-49.3c-2.1-10.5-3.7-27,4.1-37c3.2-4.1,9.2-8.8,20.2-8.1 c61.6,3.8,126.9,66.3,144.5,84.3c7.6-5.4,21.6-13.3,33.4-9.5c17.5,5.8,28.2,30.1,32.5,74.4c2.1,21.2,2.1,41.5,2,52.5 c13.6-0.5,31.9,4,38.2,24.1c17.1,54.5-29.1,121.6-49.8,148c8.3,1,18,3.7,24,10.2c4.6,5,6.5,11.6,5.4,19 c-6.3,40.9-75.7,66-106.3,75.2c2.6,2.9,4.9,6.4,5.9,10.5c1,4.3,1,10.9-4.7,18.1c-16.9,21.1-66.3,22.7-90.5,22.1 c3.8,8.2,7.1,18.9,3.7,27.2c-1.6,3.8-5.3,8.8-13.8,10.4C958.1,1370.9,947.4,1371.5,935.2,1371.5z"/>
        </g>
      </g>
      <g class="st3">
        <g>
          <path class="st1" d="M1165.2,1204.8c-7.3,47.4-115.2,73.3-115.2,73.3s24.3,11.1,11.5,27.1c-19.7,24.6-97.4,18.9-97.4,18.9 s22.9,34,1,38.3c-43.4,8.4-155.3-10.1-212.2-13.6l-1.2-20.9c60.1,5.8,138.4,27,170,5c18.6-12.9,2.4-41.3,2.4-41.3 s70.6,18.5,90.3-6.1c12.8-16-31.5-45.4-31.5-45.4s120,6.7,124.4-28.2c2.6-20.3-49.3-19-49.3-19s126.6-102.5,100.3-145.6 c-9.5-15.5-37.2-4-37.2-4s29.5-107.1-13.1-158.9c3.4-0.8,6.7-1,9.7,0c34.7,11.4,29.4,128.1,29.4,128.1s30.8-7.1,38.7,18.2 c20.4,64.9-57.7,152.4-57.7,152.4S1169,1180.1,1165.2,1204.8z"/>
        </g>
      </g>
      <g>
        <g>
          <path class="st5" d="M470.4,339.6c0,40.6,27.9,73.7,63,75.7c1.1,0.1,2.2,0.1,3.3,0.1c36.6,0,66.3-33.9,66.3-75.8 c0-41.9-29.7-75.8-66.3-75.8c-19.5,0-37.1,9.6-49.2,24.9C476.9,302.2,470.4,320,470.4,339.6z"/>
        </g>
      </g>
      <g class="st3">
        <g>
          <path class="st1" d="M541.9,294.7c2.3,20.3-6.3,101.3-8.4,120.5c1.1,0.1,2.2,0.1,3.3,0.1c36.6,0,66.3-33.9,66.3-75.8 c0-41.9-29.7-75.8-66.3-75.8c-19.5,0-37.1,9.6-49.2,24.9C502.3,283,539.2,271,541.9,294.7z"/>
        </g>
      </g>
      <g>
        <g>
          <path class="st5" d="M276,339.6c0,40.6-27.9,73.7-63,75.7c-1.1,0.1-2.2,0.1-3.3,0.1c-36.6,0-66.3-33.9-66.3-75.8 c0-41.9,29.7-75.8,66.3-75.8c19.5,0,37.1,9.6,49.2,24.9C269.5,302.2,276,320,276,339.6z"/>
        </g>
      </g>
      <g class="st3">
        <g>
          <path class="st1" d="M204.5,294.7c-2.3,20.3,6.3,101.3,8.4,120.5c-1.1,0.1-2.2,0.1-3.3,0.1c-36.6,0-66.3-33.9-66.3-75.8 c0-41.9,29.7-75.8,66.3-75.8c19.5,0,37.1,9.6,49.2,24.9C244.1,283,207.2,271,204.5,294.7z"/>
        </g>
      </g>
      <g>
        <g>
          <path class="st4" d="M439.5,1104.8c0,0-88.6-8.5-108.7,105.4c-9,51,6.8,144.9,76.1,229.2c0,0-55.7,13.6-61.6,55.4 c-7.4,52.5,74.5,51.7,74.5,51.7h27.6c38.1,0,73.4-20.2,92.7-53c50-85,114.4-264.2-45.1-479.3"/>
        </g>
      </g>
      <g class="st3">
        <g>
          <path class="st1" d="M578.6,1406.2c-10.9,35.1-25.3,64.6-38.6,87.3c-19.3,32.8-54.6,53-92.7,53h-27.6c0,0-81.9,0.8-74.5-51.7 c0.9-6.5,3.1-12.4,6-17.6c17.9,29.7,75.6,29.1,75.6,29.1h29.7c41,0,79-21.7,99.8-57.1C563.7,1436.7,571.4,1422.3,578.6,1406.2z"/>
        </g>
      </g>
      <g>
        <g>
          <path class="st1" d="M419.4,1553.5c-5.1,0-50.6-0.7-71.3-24.3c-8.4-9.6-11.7-21.5-9.8-35.4c4.9-34.7,39.1-51.6,56.7-58 c-62.5-80.5-80.9-171.2-71.1-226.8c21-118.9,115.3-111.3,116.3-111.2c3.9,0.4,6.7,3.8,6.4,7.7c-0.4,3.9-3.8,6.7-7.7,6.4 c-3.3-0.3-82.4-6.2-101.1,99.6c-9.6,54.4,9.7,144.6,74.6,223.5l7.1,8.7l-10.9,2.7c-0.5,0.1-51.2,13-56.3,49.5 c-1.4,9.7,0.7,17.6,6.4,24.1c17.3,19.7,60.6,19.6,61.1,19.5h27.6c35.4,0,68.6-19,86.6-49.5c50.4-85.7,111.5-260.8-44.7-471.5 c-2.3-3.1-1.7-7.5,1.5-9.9c3.1-2.3,7.5-1.7,9.9,1.5c161.1,217.2,97.6,398.4,45.5,487.1c-20.5,34.8-58.3,56.5-98.8,56.5h-27.6 C419.7,1553.5,419.6,1553.5,419.4,1553.5z"/>
        </g>
      </g>
      <g>
        <g>
          <path class="st1" d="M483.3,1446.7c-0.4,0-0.8,0-1.2-0.1c-0.4-0.1-42.6-7.1-76.1-0.3c-3.8,0.8-7.5-1.7-8.3-5.5 c-0.8-3.8,1.7-7.5,5.5-8.3c36.1-7.4,79.5-0.1,81.3,0.2c3.8,0.7,6.4,4.3,5.8,8.1C489.7,1444.3,486.7,1446.7,483.3,1446.7z"/>
        </g>
      </g>
      <g>
        <g>
          <path class="st1" d="M462.4,1552.5c-0.3,0-0.6,0-0.9-0.1c-13.2-1.8-38.5-13.5-39.8-45.6c-1.1-26.8,24.4-39.1,38-41.9 c3.8-0.8,7.5,1.7,8.3,5.5c0.8,3.8-1.7,7.5-5.5,8.3c-1.1,0.2-27.6,6-26.8,27.5c1.2,28.3,26.5,32,27.5,32.2 c3.9,0.5,6.6,4.1,6.1,7.9C468.9,1549.9,465.8,1552.5,462.4,1552.5z"/>
        </g>
      </g>
      <g>
        <g>
          <path class="st1" d="M414.8,1464.1c-8.2,4.6-15.8,9.7-21.8,15.7c-2.9,3.1-5.5,6.3-7.2,9.7c-1.7,3.5-2.5,7-2.6,10.7 c0.1,4.1,0.2,8.1,1.3,11.9c0.4,1.9,1.2,3.7,1.8,5.5c0.8,1.7,1.5,3.5,2.6,5.1c1.9,3.3,4.4,6.4,7.2,9.1c1.4,1.3,2.9,2.6,4.5,3.8 c0.8,0.6,1.6,1.2,2.4,1.7c0.7,0.5,1.7,1.1,2.2,1.4l0.7,0.4c3.3,2,4.4,6.3,2.4,9.7c-1.9,3.1-5.8,4.2-9,2.7 c-1.6-0.7-2.6-1.3-3.8-2c-1.2-0.7-2.3-1.4-3.3-2.2c-1.1-0.7-2.1-1.6-3.2-2.4l-3-2.6c-3.8-3.6-7.1-7.9-9.7-12.6 c-5.3-9.4-6.7-20.5-5.5-30.6c0.8-5.4,2.7-10.9,5.7-15.4c3.1-4.4,7-7.9,11.2-10.7l3.2-2c1.1-0.6,2.2-1.1,3.3-1.7 c2.2-1,4.4-2,6.7-2.7C405.4,1465.4,410,1464.4,414.8,1464.1z"/>
        </g>
      </g>
      <g>
        <g>
          <g>
            <path class="st2" d="M356.6,1147.1c-0.3,1.9-0.6,3.7-0.9,5.5c-34.6,210.8,24.1,393.4-85,393.4c-73.2,0-119.4,5.6-128.7-29.2 c-13.8-51.5,64.4-60.2,64.4-60.2s13.1-67.4-18.3-170.3c-1.1-3.6-2.2-7.2-3.4-10.8c-4.7-14.1-29.9,6.1-41.5-8.8 c-10-13,20.4-57.7,17.2-68.9c-0.8-2.6-41.3,0-37.2-21c3.1-15.7,11.7-47.8,9.6-93.5c-1.5-33.2-8.4-69.2-2.2-130 c6.1-60.4,19.4-138.6,42.8-234.1L356.6,1147.1z"/>
          </g>
        </g>
      </g>
      <g class="st3">
        <g>
          <path class="st4" d="M123.1,1176.9c3.1-15.7,11.7-47.8,9.6-93.5c-1.5-33.2-8.4-69.3-2.2-130c6.1-60.4,11.5-55,9.8-2 c-1.6,52.8,9.8,98.3,11.3,131.5c2.1,45.7,0.3,67.7-2.8,83.4c-4.1,21,34.8,9,35.6,11.6c3.2,11.3-27.7,75.8-17.7,88.8 c1.4,1.8,2.9,3,4.6,3.9c-9.4,1.4-21.1,5-28.1-3.9c-10-13,20.4-57.7,17.2-68.9C159.6,1195.3,119.1,1197.9,123.1,1176.9z"/>
        </g>
      </g>
      <g class="st3">
        <g>
          <path class="st4" d="M182.9,1272.5c-4.1,0.3-8.1,0.1-11.6-1.8C176.1,1270,180.3,1269.9,182.9,1272.5z"/>
        </g>
      </g>
      <g>
        <g>
          <path class="st4" d="M355.6,1152.7c-14.8,90.2-12.6,175.2-13.7,243c-1.5,90.6-9,150.4-71.4,150.4c-73.2,0-119.4,5.6-128.7-29.2 c-13.8-51.5,64.5-60.2,64.5-60.2s13.1-67.4-18.3-170.3c6.1-27.9,18.2-50.2,33.6-67.9C259.9,1174.6,318.1,1158.5,355.6,1152.7z"/>
        </g>
      </g>
      <g class="st3">
        <g>
          <path class="st1" d="M338,1466.3c-6.5,49.8-23.1,79.9-67.3,79.9c-73.2,0-119.4,5.6-128.7-29.2c-3.2-11.8-1.5-21.4,3-29.1 c14.3,27.8,60.9,22.8,131.4,22.8C309.5,1510.7,327.8,1494.5,338,1466.3z"/>
        </g>
      </g>
      <g>
        <g>
          <path class="st1" d="M222.6,1553.5c-47.8,0-79.1-3.6-87.4-34.7c-3.7-14-1.9-26.5,5.5-37.3c14.5-21.2,46.7-28.8,59.6-31 c2.2-17.7,7.3-82.7-22.2-172.7c0-0.1-0.1-0.2-0.1-0.3c-1.5-0.5-6.4,0.3-9.3,0.8c-8.9,1.5-22.3,3.9-30.9-7.2 c-8.4-10.9,0-30.3,8.1-49.1c2.4-5.7,5.8-13.6,7.2-18.5c-0.1,0-0.2,0-0.4,0c-9.8-1.1-26.1-3-33.3-12.9c-3.1-4.2-4.1-9.4-3-15 c0.4-2.1,0.9-4.4,1.5-7.1c3.7-17.2,9.8-45.9,8-84.8c-0.4-8.2-1.1-16.7-1.9-25.7c-2.3-27.7-5-59.2-0.3-105.3 c6.8-67.5,21.3-146.6,43-235.1c0.9-3.8,4.8-6.1,8.5-5.2c3.8,0.9,6.1,4.7,5.2,8.5c-21.2,86.7-36,167.3-42.7,233.2 c-4.5,44.8-1.9,75.5,0.4,102.7c0.8,9.1,1.5,17.8,1.9,26.3c1.9,40.6-4.5,70.5-8.3,88.3c-0.5,2.6-1,4.8-1.4,6.9 c-0.4,2.2,0.1,3.2,0.6,3.9c3.6,4.9,17.1,6.4,23.6,7.2c6.9,0.8,11.4,1.3,12.9,6.5c2,6.8-1.8,16-8.5,31.6 c-4.3,10-13.2,30.7-9.9,34.9c3.1,4.1,8.6,3.4,17.3,1.9c8.4-1.5,21.1-3.7,25.3,9c36,109.5,22.5,181.6,22,184.7l-1,5.1l-5.2,0.6 c-0.4,0-40.7,4.8-55,25.8c-5,7.3-6.1,15.7-3.5,25.6c6.4,23.9,35.4,24.7,95.1,24.1c8.5-0.1,17.4-0.2,26.8-0.2 c60.5,0,63.8-61.5,64.7-179.4c0.5-63.9,1-136.2,14.3-213.7c0.7-3.8,4.3-6.4,8.1-5.8c3.8,0.7,6.4,4.3,5.8,8.1 c-13.1,76.3-13.6,148.1-14.1,211.4c-0.4,55.2-0.8,102.8-10,136.5c-10.7,38.9-32.5,57-68.7,57c-9.3,0-18.2,0.1-26.6,0.2 C236.5,1553.4,229.4,1553.5,222.6,1553.5z M177.8,1277.4L177.8,1277.4L177.8,1277.4z"/>
        </g>
      </g>
      <g class="st3">
        <g>
          <path class="st1" d="M355.6,1152.7c-14.8,90.2-12.6,175.2-13.7,243c-11.4-12.3-17-20.5-17-20.5s-15.6,37.5-43.3-9 c-9.6-16.1-27.5-96.8-27.5-96.8s-18.1,22.5-25.9,9.6c-6.5-10.7-9.2-32.3-6.6-60.3c0-0.1,0-0.1,0-0.2 C259.9,1174.6,318.1,1158.5,355.6,1152.7z"/>
        </g>
      </g>
      <g>
        <g>
          <path class="st4" d="M765.2,1017.7l-53.6,260.9l-37,180.4c-233.9,42.6-346.1-120.8-346.1-120.8s-15.6,37.5-43.3-9 c-9.6-16.1-27.5-96.8-27.5-96.8s-18.1,22.5-25.9,9.6c-6.5-10.7-9.2-32.3-6.6-60.3c0.3-3.4,0.7-7,1.2-10.6 c0,0-52.8-132.4,8.9-263.8c23.3-49.5,406.5-291.3,409.5-135.7C646.9,883.5,765.2,1017.7,765.2,1017.7z"/>
        </g>
      </g>
      <g class="st3">
        <g>
          <path class="st1" d="M711.6,1278.6l-37,180.4c-233.9,42.6-346.1-120.8-346.1-120.8s-15.6,37.5-43.3-9 c-9.6-16.1-27.5-96.8-27.5-96.8s-18.1,22.5-25.9,9.6c-6.5-10.7-9.2-32.3-6.6-60.3c1.8,15,6.5,41.8,16.4,37.7 c13.6-5.7,29.1-27.9,33.4-24.3c4.3,3.6,26.3,86.2,53.5,80.3c27.3-5.9,22.5-26.3,34.7-19.4 C374.4,1262.4,594.8,1352.6,711.6,1278.6z"/>
        </g>
      </g>
      <g>
        <g>
          <path class="st1" d="M228.8,1171.4c1.3,8.9,1.7,17.4,2.2,25.9c0.2,4.2,0.5,8.4,0.8,12.5c0.4,4.1,0.9,8.2,1.6,12.2 c0.7,3.9,1.6,7.8,2.8,11.2c0.6,1.7,1.3,3.3,2.1,4.7c0.3,0.6,0.4,0.7,0.5,0.8c0,0.1-0.2-0.1-0.3,0c-0.3,0,0.5,0.2,1.7-0.4 c1.2-0.5,2.7-1.4,4.1-2.5c2.8-2.1,5.8-5.1,8.2-7.8l9.3-11l3.1,13.9c2.9,13,6,26,9.3,38.9c3.3,12.9,6.7,25.8,10.6,38.3 c1,3.1,2,6.2,3.1,9.2c0.5,1.5,1.2,2.9,1.7,4.3c0.3,0.8,0.6,1.4,0.9,2l0.9,1.8c3.1,5.4,6.8,10.6,10.8,14.6c2,2,4.1,3.6,6.1,4.6 c2,1,3.5,1.1,4.9,0.7c1.5-0.3,3.2-1.5,4.9-3.3c0.8-0.9,1.6-2,2.3-3.1c0.4-0.6,0.7-1.1,1-1.7c0.3-0.5,0.7-1.3,0.8-1.6l5-11.5 l7.3,10.2c2.1,2.9,4.5,6.1,7,9c2.5,3,5.1,5.9,7.7,8.8c5.3,5.8,10.8,11.4,16.6,16.8c11.5,10.8,23.8,20.6,36.7,29.7 c25.8,18,54.1,32.5,84,42.5c3.7,1.3,7.4,2.6,11.2,3.6c3.8,1.1,7.5,2.3,11.4,3.2c7.7,1.8,15.3,3.8,23.1,5.1 c7.7,1.6,15.6,2.5,23.3,3.6c3.9,0.5,7.8,0.7,11.8,1.1c3.9,0.4,7.8,0.8,11.8,0.8l11.8,0.5c3.9,0.2,7.9,0,11.8,0 c3.9-0.1,7.9,0.1,11.8-0.3c3.9-0.3,7.9-0.6,11.8-0.9c2-0.2,3.9-0.3,5.9-0.6c2-0.2,3.9-0.5,5.9-0.7c3.9-0.5,7.9-0.7,11.8-0.9 c7.9-0.5,15.9-0.7,24.3,1.1l0.2,0c1.3,0.3,2.2,1.6,1.9,3c-0.2,0.7-0.6,1.3-1.2,1.6c-14.9,8.5-31.4,10.3-47.7,11 c-4.1,0.1-8.2,0.3-12.3,0.5c-4.1,0.3-8.2,0.1-12.3,0.2c-4.1,0-8.2,0.2-12.3,0l-12.3-0.5c-4.1-0.1-8.2-0.5-12.3-0.9 c-4.1-0.4-8.2-0.7-12.2-1.2c-8.1-1.2-16.3-2.1-24.3-3.8c-8.1-1.4-16-3.4-24-5.3c-4-1-7.9-2.3-11.8-3.4c-4-1.1-7.8-2.4-11.7-3.7 c-31.2-10.4-60.7-25.5-87.6-44.3c-13.4-9.4-26.3-19.7-38.3-30.9c-6-5.6-11.8-11.5-17.3-17.5c-2.8-3-5.5-6.1-8.1-9.3 c-2.7-3.2-5.2-6.4-7.8-10l12.3-1.3c-0.5,1.2-0.9,2-1.4,2.9c-0.5,0.9-1,1.7-1.5,2.6c-1.1,1.7-2.3,3.3-3.7,4.9 c-2.8,3.1-6.6,6.2-11.7,7.5c-5,1.4-10.6,0.4-14.6-1.6c-4.1-2-7.2-4.6-10-7.3c-5.4-5.5-9.4-11.4-13-17.6l-1.4-2.7 c-0.5-0.9-0.9-1.8-1.2-2.6c-0.7-1.7-1.4-3.4-2-5c-1.2-3.3-2.3-6.6-3.3-9.8c-4.1-13-7.5-26-10.9-39.1 c-3.3-13.1-6.4-26.1-9.4-39.3l12.4,2.9c-3.3,3.9-6.4,7.2-10.5,10.4c-2,1.6-4.2,3.1-7,4.3c-1.4,0.6-3,1.2-4.8,1.5 c-1.8,0.3-4,0.4-6.2-0.1c-4.6-1-8.1-4.8-9.5-7.4c-1.4-2.4-2.5-4.7-3.4-7.1c-1.8-4.7-2.8-9.4-3.6-14c-1.3-9.3-1.5-18.4-0.6-27.4 c0.9-9,2.8-17.8,6.3-26.2c0.5-1.2,1.9-1.8,3.2-1.3C228.1,1169.8,228.6,1170.6,228.8,1171.4L228.8,1171.4z"/>
        </g>
      </g>
      <g>
        <g>
          <path class="st4" d="M848.8,1397.7c-11.1,38.9-26.7,71.2-41.2,95.8c-19.3,32.9-54.6,53-92.7,53h-27.6c0,0-81.9,0.8-74.5-51.7 c5.9-41.8,61.6-55.4,61.6-55.4c0,0,0,0-0.1-0.1c-27.5-33.4-46.4-68.4-58.8-101.6c-16.6-44.4-21.3-85.7-18.7-115.9 c0.3-4.1,0.8-8,1.4-11.7c0.1-0.5,0.2-1,0.3-1.5l-167.2-108L416.9,868l215.6-115.9c29.8,114.4,56.7,163.1,130,262 C876,1167.2,876.2,1302,848.8,1397.7z"/>
        </g>
      </g>
      <g class="st3">
        <g>
          <path class="st1" d="M756.7,1441.8c-37.4-6.8-66.6-4.7-82.2-2.4c-27.5-33.4-46.4-68.4-58.8-101.6c33,40.9,41.1,43.7,80.8,61 C746.4,1420.7,756.7,1441.8,756.7,1441.8z"/>
        </g>
      </g>
      <g class="st3">
        <g>
          <path class="st1" d="M857.8,1359.1c-2.4,13.5-5.5,26.3-8.9,38.5c-11.1,38.9-26.7,71.2-41.2,95.8c-19.3,32.9-54.6,53-92.7,53 h-27.6c0,0-81.9,0.8-74.5-51.7c0.7-4.9,2-9.3,3.9-13.4c15.6,29.6,73.6,29.1,73.6,29.1h28.5c39.3,0,75.7-20.2,95.7-53 c14.9-24.6,31.1-56.9,42.5-95.8C857.3,1360.8,857.5,1360,857.8,1359.1z"/>
        </g>
      </g>
      <g>
        <g>
          <g>
            <path class="st2" d="M848.8,1397.7c-28.9-16.1-56.6-60.5-71.8-88.2c-4.8-8.7-17.8-6.8-19.9,2.9c-0.5,2.3-1,4.6-1.4,6.8 c-1.5,8-11,11.4-17.3,6.3c-20.7-16.8-34.3-44.1-42.1-64c-3.7-9.4-17-9-20.2,0.5c-2.3,6.8-3.7,13.1-4.7,18.1 c-1.2,6.6-8.1,10.6-14.3,8.2c-30.7-12-51.3-48.1-60.2-66.5c0.3-4.1,0.8-8,1.4-11.7c0.1-0.5,0.2-1,0.3-1.5l-167.2-108L416.9,868 l215.6-115.9c29.8,114.4,56.7,163.1,130,262C876,1167.2,876.2,1302,848.8,1397.7z"/>
          </g>
        </g>
      </g>
      <g class="st3">
        <g>
          <path class="st4" d="M863,1316.7c-6.7-80.5-27.8-180-107.6-279.6C672.1,933.2,643,884.4,610.9,763.7l21.6-11.6 c29.8,114.4,56.7,163.1,130,262C846.9,1127.9,868.6,1231.6,863,1316.7z"/>
        </g>
      </g>
      <g>
        <g>
          <path class="st1" d="M706.8,1107.2c-8.3,0.1-16.3,1.9-24.1,4.7c-3.9,1.4-7.7,3-11.4,4.7c-3.7,1.9-7.4,3.7-11,5.8 c-3.6,2.1-7.1,4.3-10.4,6.6l-1.2,0.9c-0.5,0.4-0.4,0.3-0.8,0.6c-0.7,0.6-1.4,1.3-2.1,1.9c-1.4,1.4-2.8,2.8-4.2,4.3 c-5.5,5.9-10.4,12.5-14.8,19.4c-8.7,13.9-15,29.2-18.9,45.2l-1.2,6.1c-0.4,2-0.9,4-1.1,6.1c-0.6,4.1-1.2,8.1-1.4,12.2l-0.4,6.2 l-0.1,6.2c-0.2,4.2,0.1,8.3,0.3,12.5c0.9,16.7,3.5,33.4,7.6,49.8c1.1,4.1,2,8.2,3.3,12.2l3.7,12.1c2.9,7.9,5.6,15.9,9,23.7 c3.1,7.9,7,15.4,10.6,23l6.1,11.1l3.1,5.6l3.3,5.4c2.2,3.6,4.4,7.2,6.7,10.8l7.2,10.4c1.2,1.7,2.4,3.5,3.6,5.2l3.9,5l7.8,10 l6.7,8.6l-10.5,2.7c-2.4,0.6-5.2,1.5-7.8,2.4c-2.6,0.9-5.2,2-7.8,3.1c-5.1,2.3-10.1,4.9-14.7,7.9c-9.2,5.9-17.2,13.6-21.8,22.7 c-2.4,4.5-3.8,9.5-4.4,14.5c-0.6,5.1-0.2,10,1.4,14.3c1.6,4.4,4.3,8.3,8.1,11.6c3.7,3.3,8.3,6,13.2,8.1 c9.9,4.3,21.1,6.6,32.3,7.8c2.8,0.3,5.6,0.5,8.5,0.6c1.4,0.1,2.8,0.1,4.1,0.1h4.4h17.8c3,0,6,0,8.7-0.1c2.8,0,5.5-0.3,8.3-0.6 c2.8-0.2,5.5-0.8,8.2-1.3c2.7-0.7,5.4-1.1,8.1-2c10.6-3.1,20.8-7.8,29.8-14.3c4.6-3.1,8.7-6.8,12.8-10.6 c3.8-4,7.6-8.1,10.8-12.6c1.7-2.2,3.1-4.6,4.6-6.9c1.5-2.3,2.9-5,4.4-7.5c2.8-5.1,5.6-10.2,8.3-15.4 c10.6-20.8,19.4-42.4,26.3-64.7c13.7-44.5,19.5-91.5,16.1-137.9c-3.2-46.5-15.1-92.2-33.5-135.1c-9.1-21.5-20.1-42.2-32.1-62.3 c-5.9-10.1-12.5-19.8-18.9-29.6c-6.8-9.6-13.5-19.1-20.6-28.7c-28.1-38.3-55.8-77.5-77.2-120.7c-21.6-43-38.1-88.7-43.2-136.4 c-0.1-1.3,0.8-2.5,2.1-2.6c1-0.1,2,0.5,2.4,1.4l0,0.1c2.5,5.5,4.8,11,6.9,16.5c2.1,5.5,4.3,11,6.2,16.6l6,16.6 c1,2.8,1.9,5.6,2.9,8.3c1,2.8,2,5.5,3,8.3c8,22,16,44,26.4,65c20.6,42,47.9,80.5,75.9,118.7c7,9.4,14,19.3,20.9,29.1 c6.6,10,13.3,19.9,19.3,30.3c12.3,20.6,23.6,41.8,33,64c18.9,44.2,31.4,91.5,34.6,139.7c3.5,48.2-2.5,96.9-16.7,143 c-7.1,23.1-16.2,45.5-27.2,66.9c-2.7,5.4-5.6,10.7-8.5,15.9c-1.5,2.6-2.9,5.2-4.6,7.9c-1.7,2.7-3.3,5.4-5.3,7.9 c-3.6,5.2-7.9,9.9-12.3,14.4c-4.6,4.3-9.3,8.5-14.6,12.1c-10.3,7.3-21.9,12.8-34,16.3c-3,1-6.1,1.5-9.2,2.3 c-3.1,0.5-6.2,1.2-9.4,1.4c-3.1,0.3-6.3,0.7-9.4,0.7c-3.2,0.1-6.2,0.1-9.1,0.1h-17.8h-4.4c-1.7,0-3.2,0-4.8-0.1 c-3.1-0.1-6.2-0.4-9.3-0.7c-12.3-1.3-24.6-3.8-36.5-8.9c-5.9-2.6-11.7-5.9-16.9-10.5c-5.2-4.5-9.5-10.6-12-17.3 c-2.5-6.8-2.9-14-2.1-20.7c0.7-6.7,2.7-13.4,5.8-19.3c3.1-6,7.1-11.4,11.7-16c4.6-4.7,9.7-8.7,15-12.1 c5.3-3.5,10.9-6.4,16.6-8.9c2.9-1.3,5.8-2.4,8.7-3.5c3-1.1,5.8-2,9.2-2.9l-3.8,11.3l-8.1-10.4l-4-5.2c-1.3-1.8-2.5-3.6-3.8-5.4 l-7.5-10.8c-2.4-3.7-4.6-7.5-7-11.2l-3.5-5.6l-3.2-5.8c-2.1-3.9-4.3-7.7-6.3-11.6c-3.8-7.9-7.8-15.8-11.1-24 c-3.6-8-6.4-16.4-9.4-24.7l-3.9-12.6c-1.3-4.2-2.3-8.5-3.4-12.8c-4.2-17.1-7.2-34.6-8.3-52.4c-0.2-4.4-0.5-8.9-0.5-13.3l0-6.7 c0.1-2.2,0.2-4.5,0.4-6.7c0.4-9,1.9-18,3.8-26.8c4.2-17.6,11.1-34.6,21.1-49.8c5.1-7.5,10.7-14.7,17.2-21.1 c1.6-1.6,3.3-3.2,5.1-4.7c0.9-0.8,1.8-1.5,2.8-2.3c0.5-0.4,1.4-1.1,1.8-1.3l1.5-0.9c3.9-2.4,7.9-4.4,12-6.4 c8.1-3.8,16.7-6.9,25.6-8.7c8.9-1.8,18.2-2.3,27.2-0.2c1.3,0.3,2.1,1.6,1.8,2.8C708.9,1106.4,708,1107.2,706.8,1107.2 L706.8,1107.2z"/>
        </g>
      </g>
      <g>
        <g>
          <path class="st1" d="M753.3,1439.7c-6.8,1-13.4,1.5-20,1.9c-6.6,0.5-13,0.6-19.5,1c-6.4,0.4-12.8,0.9-19.1,1.5 c-6.3,0.6-12.5,1.5-18.7,2.3l-0.2,0c-3.9,0.5-7.4-2.2-7.9-6.1c-0.5-3.6,1.9-6.9,5.3-7.8c6.8-1.7,13.6-2.5,20.5-2.9 c6.8-0.2,13.6-0.1,20.4,0.5c6.7,0.6,13.4,1.4,20,3C740.6,1434.6,747.1,1436.6,753.3,1439.7z"/>
        </g>
      </g>
      <g>
        <g>
          <path class="st2" d="M633.2,1205c-9.7,5.4-32.1-5.4-33.3-0.2c-8.4,39,11.5,99.5,4.2,102.7c-6.5,2.9-12.5,1.6-17.8-0.5 c0,0-0.1,0-0.1-0.1c-1.2-0.6-2.4-1.2-3.5-1.8c-67.3-36.1-26.6-104-103.8-155.8c-0.1-0.1-0.3-0.2-0.4-0.3 c-18.9-12.6-25.5-37.1-14.9-57.2C518.1,988.4,647,746.9,635.9,813.6c-19,114.2-18,210.4-17.7,228c0,1.9,0.1,2.9,0.1,2.9 C614.3,1080.6,660.4,1189.9,633.2,1205z"/>
        </g>
      </g>
      <g class="st3">
        <g>
          <path class="st4" d="M633.2,1205c-9.7,5.4-32.1-5.4-33.3-0.2c-8.4,39,11.5,99.5,4.2,102.7c-6.5,2.9-12.5,1.6-17.8-0.5 c0,0-0.1,0-0.1-0.1c-1.2-0.6-2.4-1.2-3.5-1.8c23.2-2.8,0.6-41.5-2.6-77.4c-3.5-38.6,15-46.2,34.6-34.4 c30.7,18.6,4.9-34.8,1.2-69.2c-4.5-42.1-0.4-70.2,2.3-82.6c0,1.9,0.1,2.9,0.1,2.9C614.3,1080.6,660.4,1189.9,633.2,1205z"/>
        </g>
      </g>
      <g>
        <g>
          <path class="st4" d="M578.1,1515.9c-12.2,35-81,30.2-81,30.2s-64.5,5.9-76.5-29.2c-13.3-38.8,21-186.1-28.7-300.2 c0-0.4,0.2-29,48.2-80.1c12.1-0.3,25.1,3.4,38.9,12.6c78.4,52.7,35.1,122,107.3,157.6c-8.7-3.5-15.2-9.2-17.5-2.1 c-25.4,77.9-23.5,152.5-23.5,152.5S592.9,1473.3,578.1,1515.9z"/>
        </g>
      </g>
      <g class="st3">
        <g>
          <path class="st1" d="M579.7,1490.5c1.9,7.1,1.8,15.6-1.6,25.4c-12.2,34.9-81,30.2-81,30.2s-64.5,5.9-76.5-29.2 c-3.5-10.4-3.7-28.4-2.9-51.5c0.5,5.9,1.4,10.9,2.8,14.9c12.6,36.9,80.6,30.7,80.6,30.7S557.7,1515,579.7,1490.5z"/>
        </g>
      </g>
      <g>
        <g>
          <path class="st1" d="M394.1,1215.8c9.1,14,15.4,29.7,20,45.6c4.6,16,7.6,32.4,9.6,48.9c3.7,33,3.8,66,3.1,98.8 c-0.4,16.4-1.1,32.7-1.8,49c-0.3,8.1-0.6,16.2-0.6,24.2c0,8,0.1,16,1.1,23.5c0.9,7.7,3,13.3,7.5,18.1c4.5,4.8,11,8.2,18,10.5 c7,2.3,14.6,3.7,22.4,4.4c3.9,0.4,7.8,0.6,11.7,0.6c3.8,0,7.9,0,11.5-0.3l0.5,0l0.6,0c6.4,0.3,13.3,0.2,19.9-0.2 c6.7-0.5,13.3-1.3,19.7-2.7c6.4-1.4,12.6-3.3,18.1-6.1c2.8-1.4,5.3-3,7.6-4.8c2.3-1.8,4.2-3.8,5.7-6.1c0.4-0.5,0.8-1.1,1.1-1.7 c0.3-0.6,0.7-1.2,0.9-1.8l0.8-1.9c0.3-0.6,0.5-1.4,0.7-2.1c0.9-2.9,1.5-5.9,1.7-8.8c0.5-5.8-0.6-11.4-3.1-16.5 c-2.6-5.1-6.6-9.6-11.5-13.4c-2.4-1.9-5.1-3.6-7.8-5.2c-1.4-0.8-2.8-1.5-4.2-2.2c-1.4-0.6-3-1.3-4.1-1.7l-4.7-1.7l-0.1-4.8 c-0.2-10.8,0.3-21.2,1-31.7c0.7-10.5,1.7-20.9,2.9-31.4c2.6-20.8,6.3-41.6,11.4-62l4.1-15.3l2.3-7.6l1.2-3.8l0.6-1.9l0.3-0.9 l0.2-0.5l0.3-0.8l0.3-0.8c0.1-0.3,0.3-0.6,0.5-0.9c0.2-0.3,0.3-0.6,0.6-0.9c0.3-0.3,0.5-0.7,0.8-1c0.5-0.6,1.4-1.4,2.2-1.9 c0.9-0.5,1.9-1.1,2.8-1.3c2-0.6,3.5-0.4,4.9-0.3c1.2,0.2,2.3,0.5,3.1,0.8c3.4,1.2,5.6,2.5,7.8,3.5c4.3,2.1,8.2,3.4,11.5,3.2 c0.8,0,1.6-0.2,2.4-0.4c0.4-0.1,0.8-0.2,1.2-0.4l0.6-0.2c0,0,0.5-0.2-0.3,0.2c-0.5,0.3-0.9,0.6-1.2,0.9c-1.1,1.3-0.9,1.6-1,1.5 c0,0,0.1-0.4,0.1-0.8c0.1-0.8,0-1.9,0-3c-0.3-4.6-1.1-9.7-1.8-14.8c-1.5-10.2-3.2-20.5-4.4-31c-1.2-10.5-2-21.2-1.6-32.1 c0.2-5.4,0.7-11,1.7-16.5l0.4-2.1c0,0.1,0.2-1.1,0.6-1.9c0.3-0.8,0.9-1.6,1.5-2.3c1.2-1.3,2.7-2,3.6-2.3c2-0.7,3.3-0.6,4.3-0.7 c1.1,0,1.9,0.1,2.7,0.2c3.2,0.4,5.7,1,8.2,1.5c4.9,1,9.8,1.9,13.4,1.5c0.9-0.1,1.5-0.2,2-0.4c0.3-0.1,0.3-0.1,0.6-0.3 c0.2-0.1,0.5-0.3,0.7-0.5c0.9-0.7,1.7-1.9,2.3-3.6c1.3-3.3,1.8-8,1.8-12.7c0-4.7-0.4-9.7-1-14.6c-2.5-19.9-7.9-39.9-13.1-60 c-2.5-10.1-4.6-20.3-6.1-30.8c-0.7-5.3-1.1-10.6-1-16c0.1-5.4,0.5-11,2.3-16.4c0.4-1.3,1.8-1.9,3.1-1.5c0.9,0.3,1.5,1,1.6,1.9 l0,0.1c0.8,4.9,2,9.8,3.3,14.6l3.9,14.7c2.6,9.8,5.2,19.8,7.6,29.9c2.3,10.1,4.5,20.3,6.7,30.5c2.1,10.3,4.3,20.6,5.6,31.2 c0.7,5.3,1.1,10.8,1.1,16.4c-0.1,5.6-0.4,11.5-2.8,17.9c-1.3,3.1-3.2,6.5-6.3,9.1c-0.8,0.7-1.6,1.3-2.5,1.8 c-0.8,0.5-2,1.1-2.9,1.4c-2,0.7-3.9,1.1-5.6,1.2c-3.5,0.3-6.5,0-9.3-0.3c-2.9-0.4-5.5-0.9-8.1-1.4c-2.5-0.5-5.1-1-7.1-1.3 c-0.5-0.1-0.9-0.1-1.2-0.1c-0.3,0-0.3,0.1,0.4-0.2c0.4-0.1,1.2-0.5,2-1.3c0.4-0.5,0.8-1,1-1.5c0.3-0.5,0.4-1.4,0.3-0.9l-0.3,1.7 c-0.9,4.6-1.3,9.5-1.5,14.4c-0.3,9.8,0.4,19.9,1.5,30c1.1,10.1,2.8,20.2,4.3,30.5c0.8,5.2,1.6,10.3,1.9,16.1 c0.1,1.5,0.1,3,0,4.7c-0.1,0.9-0.2,1.8-0.4,3.1c-0.4,1.2-0.6,2.7-2.6,5c-0.5,0.6-1.1,1.1-2,1.5c-1.1,0.6-0.9,0.4-1.2,0.6 l-1.2,0.5c-0.8,0.3-1.7,0.5-2.5,0.8c-1.7,0.4-3.5,0.7-5.3,0.8c-7.2,0.4-13.4-2.2-18.3-4.6c-2.4-1.2-4.8-2.4-6.3-2.9 c-0.4-0.1-0.6-0.2-0.6-0.2c0.1,0,0.3,0.1,1.1-0.1c0.7-0.2,1.5-0.8,1.8-1.1c0.1-0.1,0.1-0.2,0.2-0.3c0-0.1,0.1-0.1,0.1-0.1 c0,0,0-0.1,0-0.1l0,0.1l-4.4,14.2l-4,14.8c-4.9,19.8-8.5,40-11,60.3c-1.3,10.2-2.2,20.3-2.9,30.5c-0.6,10.1-1.1,20.5-0.9,30.4 l-4.8-6.5c2.2,0.8,3.8,1.5,5.6,2.3c1.7,0.8,3.4,1.7,5.1,2.6c3.3,1.9,6.6,4,9.6,6.4c6.1,4.8,11.7,10.8,15.4,18.2 c3.7,7.4,5.3,16,4.6,24c-0.3,4-1.1,8-2.3,11.7c-0.3,0.9-0.5,1.8-0.9,2.8l-1.2,3c-0.4,1-1,1.9-1.5,2.8c-0.5,1-1.1,1.8-1.7,2.7 c-2.4,3.5-5.3,6.6-8.5,9.1c-3.2,2.6-6.6,4.7-10.1,6.4c-7,3.5-14.2,5.7-21.4,7.3c-7.2,1.6-14.5,2.5-21.7,3 c-7.3,0.5-14.3,0.6-21.9,0.2l1.1,0c-4.5,0.4-8.6,0.4-12.9,0.4c-4.3,0-8.5-0.3-12.8-0.6c-8.5-0.8-17.1-2.3-25.5-5.1 c-8.4-2.8-16.9-7-23.7-14.2c-3.4-3.5-6.2-7.8-8-12.4c-1-2.3-1.5-4.6-2.2-6.9c-0.4-2.2-0.9-4.5-1.1-6.7 c-1.1-8.7-1.2-17.1-1.2-25.4c0-8.3,0.3-16.5,0.6-24.7c0.6-16.4,1.4-32.6,1.7-48.8c1-32.4,0-64.8-4.1-96.6 c-2-15.9-4.4-31.7-7.8-47.4c-3.2-15.7-7.1-31.2-11-47.1l0,0c-0.3-1.3,0.5-2.6,1.7-2.9C392.5,1214.5,393.5,1215,394.1,1215.8z"/>
        </g>
      </g>
      <g>
        <g>
          <path class="st4" d="M472,1121c55.5-35.8,65.9-94.8,65.9-94.8s23.1,10.7,33.4,6.8c20.9-8,16.2-83.7,16.2-83.7s20.2,12,28.1-6.5 c6.6-15.3-0.5-92.2-0.5-92.2s14.2,9.2,23.8,3.9c34.7-19-24.5-203.5-24.5-203.5c20.1-5.6,35.3-11.2,38.1-21.2 c4.3-15.8-13-39-19.3-46.9c-0.6-0.8,0.1-1.9,1.1-1.6c15.6-7.1,36.9-16.8,35.7-34.9c-1.4-21.8-43.6-55.7-84.3-112.4 c-26.2-36.6-49.7-76.3-80.2-98.7C445.9,291.6,372.7,321,372.7,321s-73.2-29.4-132.8,14.4c-30.4,22.4-53.9,62.1-80.2,98.7 c-40.7,56.6-82.8,90.6-84.3,112.4c-1.2,18.1,20,27.8,35.7,34.9c1-0.3,1.7,0.9,1.1,1.6c-6.3,7.8-23.6,31.1-19.3,46.9 c2.7,10,18,15.6,38.1,21.2c0,0-59.1,184.5-24.5,203.5c9.7,5.3,23.8-3.9,23.8-3.9s-7,76.9-0.5,92.2c7.9,18.5,28.1,6.5,28.1,6.5 s-4.7,75.7,16.2,83.7c10.3,3.9,33.4-6.8,33.4-6.8s10.3,59,65.9,94.8l94.2,64.2L472,1121z"/>
        </g>
      </g>
      <g class="st3">
        <g>
          <path class="st1" d="M639,854.6c-9.7,5.3-23.8-3.9-23.8-3.9s7,76.9,0.5,92.2c-7.9,18.5-28.1,6.5-28.1,6.5s4.7,75.7-16.2,83.8 c-10.3,3.9-33.4-6.8-33.4-6.8s-10.4,59-65.9,94.8l-104.3,64.2l-94.2-64.2c-55.5-35.8-65.9-94.8-65.9-94.8s-23.1,10.7-33.4,6.8 c-20.9-8-16.2-83.8-16.2-83.8s-20.2,12-28.1-6.5c-6.6-15.3,0.5-92.2,0.5-92.2s-14.2,9.2-23.8,3.9 c-23.1-12.7-4.5-99.2,10.5-155.3c-2.3,49.6-1.6,116,17.4,126.4c8.6,4.7,21.3-3.5,21.3-3.5s-6.3,68.8-0.4,82.5 c7.1,16.6,25.2,5.8,25.2,5.8s-4.2,67.8,14.5,74.9c9.2,3.5,29.9-6.1,29.9-6.1s9.3,52.8,59,84.8l84.3,57.5l93.3-57.5 c49.7-32,59-84.8,59-84.8s20.7,9.6,29.9,6.1c18.8-7.2,14.5-74.9,14.5-74.9s18.1,10.7,25.2-5.8c5.9-13.7-0.4-82.5-0.4-82.5 s12.7,8.2,21.3,3.5c19.1-10.4,19.7-76.9,17.4-126.5C643.4,755.3,662.1,841.9,639,854.6z"/>
        </g>
      </g>
      <g>
        <g>
          <g>
            <path class="st2" d="M635.7,583c6.3,7.8,23.6,31.1,19.3,46.9c-2.7,9.9-18,15.6-38,21.2c0,0,4.7,14.7,10.7,36.2v0 c0,0-10.6,9.3-28.4-4.2c-18.7-14.1-11.9-91-34.7-109.7c-19.7-16.2-37,6.2-52.2,20.3C397.7,700.9,374,578.8,374,578.8 s-23.7,122.1-138.4,14.9c-15.2-14.2-32.4-36.5-52.2-20.3c-22.8,18.7-16,95.6-34.7,109.7c-17.8,13.5-28.4,4.2-28.4,4.2v0 c6-21.5,10.7-36.2,10.7-36.2c-20.1-5.6-35.3-11.2-38-21.2c-4.3-15.8,13-39,19.3-46.9c0.6-0.8-0.1-1.9-1.1-1.6 c-15.6-7.1-36.9-16.8-35.7-34.9c1.5-21.8,43.6-55.8,84.3-112.4c26.2-36.6,49.7-76.3,80.1-98.7c59.6-43.8,132.8-14.4,132.8-14.4 s0.4-0.2,1.3-0.5c0.8,0.3,1.3,0.5,1.3,0.5s73.2-29.3,132.8,14.4c30.4,22.3,53.9,62.1,80.1,98.7c40.7,56.6,82.8,90.6,84.3,112.4 c1.2,18.1-20.1,27.8-35.7,34.9C635.8,581.1,635.1,582.3,635.7,583z"/>
          </g>
        </g>
      </g>
      <g class="st3">
        <g>
          <path class="st4" d="M670.6,556.7c-8.8-21.9-46.1-54.3-82.4-104.8c-26.2-36.5-49.7-76.3-80.2-98.7 c-59.6-43.8-132.8-14.4-132.8-14.4s-0.4-0.2-1.3-0.5c-0.8,0.3-1.3,0.5-1.3,0.5s-73.2-29.3-132.8,14.4 c-30.4,22.3-53.9,62.1-80.2,98.7c-36.2,50.5-73.6,82.9-82.4,104.8c-1.4-3.1-2.1-6.4-1.9-10.2c1.4-21.9,43.6-55.8,84.3-112.4 c26.2-36.5,49.7-76.3,80.2-98.7c59.6-43.8,132.8-14.4,132.8-14.4s0.4-0.2,1.3-0.5c0.8,0.3,1.3,0.5,1.3,0.5s73.2-29.3,132.8,14.4 c30.4,22.3,53.9,62.1,80.2,98.7c40.7,56.7,82.8,90.6,84.3,112.4C672.7,550.3,672,553.7,670.6,556.7z"/>
        </g>
      </g>
      <g>
        <g>
          <path class="st6" d="M159.8,434.1c4.3-6,8.5-12.1,12.7-18.2c-0.3,1.3-0.6,2.6-1,3.9c-4.8,17.9-12.3,32.7-24.9,40.9 c-2.5,1.6-5.2,1.9-8.2,1.2C145.4,453.4,152.6,444.1,159.8,434.1z"/>
        </g>
      </g>
      <g>
        <g>
          <path class="st6" d="M607,461.9c-3.1,0.8-5.9,0.5-8.5-1.1c-12.6-8.1-20.2-23-24.9-40.9c-0.4-1.5-0.8-3.1-1.2-4.7 c4.4,6.3,8.8,12.7,13.2,18.9C592.8,444.1,600,453.3,607,461.9z"/>
        </g>
      </g>
      <g>
        <g>
          <path class="st1" d="M470.7,1119.1c7.5-6.2,15-12.3,21.3-19.6c3.4-3.4,6.3-7.2,9.3-10.9c1.5-1.9,2.8-3.9,4.2-5.8l2.1-2.9l1.9-3 c5.1-8,9.6-16.4,13.1-25.2c0.9-2.2,1.7-4.4,2.6-6.6c0.8-2.2,1.6-4.5,2.3-6.7c0.7-2.2,1.4-4.5,1.9-6.7c0.6-2.2,1.1-4.6,1.5-6.5 l1.6-8.8l8.3,3.6c4.2,1.8,9,3.6,13.5,4.8c2.3,0.7,4.5,1.2,6.7,1.5c2.2,0.4,4.2,0.5,5.9,0.4c1.8-0.2,2-0.3,3-1.1 c0.9-0.8,2-2.1,2.9-3.9c1.8-3.5,3.2-8,4.2-12.6c1.9-9.3,2.9-19.2,3.3-29.2c0.4-9.9,0.4-20.1-0.1-30l-0.7-14l12.1,7 c0.1,0.1,0.7,0.4,1.1,0.6c0.5,0.2,0.9,0.4,1.4,0.6c0.9,0.4,1.9,0.7,2.8,1c1.9,0.5,3.7,0.8,5.2,0.6c1.5-0.2,2.6-0.5,3.6-1.2 c0.9-0.8,2-1.7,2.7-3.4c0.2-0.4,0.4-0.8,0.6-1.2c0.1-0.4,0.2-0.8,0.3-1.2c0.1-0.4,0.3-0.7,0.4-1.3l0.3-1.7 c0.4-2.1,0.6-4.7,0.8-7.1c0.3-5,0.5-10.1,0.5-15.2c0-10.3-0.4-20.7-0.9-31c-0.6-10.4-1.3-20.8-2.1-31.1l-1.2-14.1l12.1,7.5 c0.6,0.4,1.6,1,2.5,1.4c0.9,0.5,1.9,0.9,2.8,1.3c1.9,0.8,3.8,1.3,5.5,1.6c1.7,0.3,3.3,0.2,4.4-0.1c1.1-0.3,2-0.8,2.9-1.8 c1.9-1.9,3.4-5.8,4.2-10c0.9-4.2,1.2-8.8,1.4-13.4c0.2-9.3-0.5-18.9-1.6-28.4c-1.1-9.6-2.7-19.1-4.4-28.7 c-3.5-19.1-8-38.1-12.9-57.1c-4.9-18.9-10.3-37.8-16.1-56.3l-2.2-7l7-2c7.9-2.2,15.7-4.5,22.6-7.7c3.4-1.6,6.5-3.4,8.5-5.3 c1-1,1.6-1.9,1.9-2.7c0.1-0.2,0.2-0.4,0.2-0.7l0.2-1c0-0.3,0.2-0.6,0.2-1l0-1.1c0.1-2.9-0.6-6.3-1.8-9.7 c-1.2-3.4-2.8-6.9-4.7-10.2c-1.9-3.4-4-6.7-6.2-9.9c-1.1-1.6-2.3-3.2-3.5-4.8l-1.8-2.3l-0.2-0.3l-0.3-0.4 c-0.3-0.4-0.5-0.7-0.8-1.2c-1-1.9-1.1-4.3-0.4-6.2c0.7-1.9,2-3.5,3.8-4.5c1.8-1,4.2-1.2,6-0.7l-4.8,0.4 c8.7-3.9,17.1-7.8,23.5-13.1c3.2-2.6,5.6-5.5,6.9-8.5c1.3-3,1.4-6.2,0.6-9.4c-1-3.4-3-7.3-5.4-11c-2.4-3.7-5.2-7.4-8.1-11.1 c-5.8-7.3-12.1-14.5-18.4-21.7c-12.7-14.4-25.4-29.1-37.3-44.4c-12.1-15.3-22.9-31.5-33.8-47.2c-10.9-15.8-21.9-31.3-34.2-45.3 c-6.2-7-12.7-13.5-19.8-19.2c-7.1-5.7-14.8-10.5-23-14.3c-16.4-7.7-34.6-11.3-53-11.4c-9.2-0.1-18.4,0.7-27.5,2.3 c-4.5,0.8-9.1,1.7-13.5,2.9c-2.2,0.6-4.4,1.2-6.6,1.9c-2.1,0.7-4.4,1.4-6.3,2.1l-2.6,1l-2.6-1c-1.8-0.7-4.1-1.5-6.3-2.1 c-2.2-0.7-4.4-1.3-6.6-1.9c-4.5-1.1-9-2.1-13.5-2.9c-9.1-1.5-18.3-2.3-27.5-2.3c-18.3,0.1-36.6,3.6-53,11.4 c-8.2,3.8-15.9,8.6-23,14.3c-7.1,5.7-13.6,12.2-19.8,19.2c-12.4,14-23.3,29.5-34.2,45.3c-10.9,15.7-21.8,31.9-33.8,47.2 c-11.9,15.3-24.7,30-37.3,44.4c-6.3,7.2-12.6,14.4-18.4,21.7c-2.9,3.7-5.7,7.4-8.1,11.1c-2.4,3.7-4.4,7.5-5.4,11 c-0.9,3.2-0.7,6.5,0.6,9.4c1.3,3,3.8,5.9,6.9,8.5c6.4,5.2,14.8,9.2,23.5,13.1l-4.8-0.4c1.8-0.5,4.2-0.4,6,0.7 c1.8,1,3.1,2.6,3.8,4.5c0.7,1.9,0.6,4.4-0.4,6.2c-0.2,0.5-0.5,0.9-0.8,1.2l-0.3,0.4l-0.2,0.3l-1.8,2.3c-1.2,1.6-2.4,3.2-3.5,4.8 c-2.3,3.2-4.4,6.6-6.2,9.9c-1.9,3.4-3.5,6.8-4.7,10.2c-1.2,3.4-1.9,6.8-1.8,9.7l0,1.1c0,0.4,0.1,0.6,0.2,1l0.2,1 c0.1,0.3,0.2,0.4,0.2,0.7c0.4,0.8,0.9,1.8,1.9,2.7c1.9,1.9,5.1,3.8,8.5,5.3c6.8,3.1,14.7,5.4,22.6,7.7l7,2l-2.2,7 c-5.8,18.5-11.2,37.4-16.1,56.3c-4.9,18.9-9.3,37.9-12.9,57.1c-1.8,9.6-3.3,19.1-4.4,28.7c-1.1,9.5-1.8,19.1-1.6,28.4 c0.1,4.6,0.5,9.2,1.4,13.4c0.8,4.1,2.3,8.1,4.2,10c0.9,1,1.7,1.4,2.9,1.8c1.1,0.3,2.7,0.4,4.4,0.1c1.7-0.3,3.6-0.8,5.5-1.6 c0.9-0.4,1.9-0.8,2.8-1.3c0.9-0.4,1.9-1,2.5-1.4l12.1-7.5l-1.2,14c-0.9,10.3-1.6,20.7-2.2,31.1c-0.6,10.4-1,20.8-1,31.1 c0,5.1,0.1,10.2,0.4,15.2c0.2,2.4,0.4,5,0.8,7.1l0.3,1.7c0.1,0.6,0.3,0.8,0.4,1.3l0.3,1.2c0.2,0.4,0.4,0.8,0.6,1.2 c0.8,1.7,1.8,2.7,2.8,3.6c1,0.7,2.3,1.1,3.8,1.3c1.5,0.2,3.4-0.1,5.3-0.6c1-0.3,1.9-0.6,2.9-1c0.5-0.2,1-0.4,1.4-0.6 c0.4-0.2,1-0.5,1.2-0.6l11.3-6.5l-0.7,13c-0.5,9.9-0.6,20.1-0.1,30c0.5,10,1.4,20,3.5,29.2c1.1,4.6,2.5,9.1,4.4,12.5 c0.9,1.7,2,3,3,3.8c1,0.7,1.2,0.8,2.9,1c1.6,0.1,3.6,0,5.8-0.4c2.1-0.4,4.4-0.9,6.6-1.6c4.5-1.3,9.2-3.1,13.3-5l8.8-3.9l1.8,9.5 c0.4,1.9,0.9,4.3,1.5,6.5c0.6,2.2,1.3,4.5,2,6.7c0.8,2.2,1.5,4.4,2.3,6.6c0.9,2.2,1.7,4.4,2.6,6.6c1,2.1,1.9,4.3,2.9,6.4 l3.1,6.4l3.5,6.2c1.1,2.1,2.5,4,3.7,6c5.1,8,10.7,15.7,17.2,22.7c6.2,7.3,13.5,13.6,20.9,20l0.1,0.1c1,0.9,1.1,2.3,0.2,3.3 c-0.7,0.8-1.9,1-2.9,0.5c-8.9-4.7-17.6-10.1-25.2-16.9c-4-3.2-7.5-7-11.1-10.6c-1.8-1.8-3.3-3.9-5-5.8l-2.5-3l-2.3-3.1 c-6.1-8.2-11.5-17.1-15.8-26.4c-2.2-4.7-4.2-9.4-5.9-14.3c-0.8-2.5-1.7-4.9-2.4-7.4c-0.8-2.5-1.4-4.9-2-7.9l10.6,5.5 c-5.2,2.3-10.1,4.1-15.5,5.7c-2.7,0.8-5.4,1.5-8.3,1.9c-2.9,0.5-6,0.8-9.5,0.6c-0.9-0.1-1.8-0.2-2.8-0.4c-1-0.3-2-0.5-3-0.9 c-1-0.4-2-0.9-2.9-1.4c-0.9-0.5-1.7-1.2-2.5-1.8c-3-2.6-5-5.5-6.5-8.2c-2.9-5.6-4.4-11.1-5.6-16.5c-2.3-10.8-3.1-21.3-3.5-31.8 c-0.3-10.5-0.3-20.9,0.2-31.5l10.6,6.5c-1,0.6-1.6,0.8-2.3,1.2c-0.7,0.3-1.4,0.7-2.2,1c-1.5,0.6-3,1.1-4.5,1.5 c-3.1,0.8-6.5,1.4-10.2,1c-3.6-0.3-7.6-1.6-10.8-3.9c-3.1-2.4-5.6-5.4-7.1-8.4c-0.4-0.8-0.8-1.5-1.1-2.3l-0.8-2.5 c-0.2-0.8-0.6-1.8-0.7-2.5l-0.4-2.2c-0.6-3-0.7-5.7-1-8.5c-0.3-5.5-0.5-10.9-0.5-16.2c0-10.7,0.4-21.3,1-31.8 c0.6-10.6,1.3-21,2.3-31.6l10.9,6.6c-1.5,0.9-2.6,1.5-3.9,2.2c-1.3,0.6-2.6,1.2-3.9,1.8c-2.7,1.1-5.5,1.9-8.6,2.4 c-3.1,0.5-6.6,0.5-10.2-0.4c-3.6-0.9-7.1-3.1-9.5-5.8c-2.4-2.6-4.1-5.6-5.2-8.4c-1.1-2.8-2-5.6-2.5-8.3 c-1.2-5.5-1.5-10.7-1.7-15.9c-0.3-10.4,0.6-20.5,1.7-30.4c1.2-10,2.7-19.8,4.6-29.6c3.6-19.6,8.1-38.9,13.1-58 c5-19.2,10.3-38.1,16.3-57.1l4.8,8.9c-8.1-2.3-16.3-4.7-24.7-8.4c-4.1-2-8.4-4.2-12.5-8.1c-2-1.9-3.9-4.5-5.1-7.5 c-0.3-0.8-0.6-1.6-0.8-2.3l-0.4-2.1c-0.1-0.7-0.3-1.4-0.3-2.1l-0.1-2c-0.1-5.4,1.1-10.3,2.6-14.7c1.5-4.5,3.5-8.5,5.7-12.5 c2.2-3.9,4.5-7.6,7-11.2c1.3-1.8,2.5-3.6,3.9-5.3l2-2.6l0.3-0.3l0.1-0.1l0,0l-0.1,0.2c-0.2,0.3-0.4,0.5-0.6,0.9 c-0.8,1.4-0.8,3.3-0.3,4.7c0.5,1.4,1.4,2.6,2.8,3.3c1.4,0.8,3.2,0.9,4.5,0.5l-4.8-0.4c-8.8-4-18.1-8.1-26.6-15.1 c-4.2-3.5-8.3-7.9-10.9-13.8c-2.6-5.8-2.9-12.8-1.2-18.8c1.7-5.8,4.4-10.5,7.2-14.8c2.8-4.3,5.8-8.3,8.9-12.2 c6.1-7.7,12.5-15,18.9-22.2c12.7-14.5,25.2-28.8,36.8-43.8c11.7-14.9,22.4-30.7,33.3-46.5c11-15.8,22.2-31.8,35.3-46.6 c6.6-7.4,13.7-14.5,21.6-20.8c7.9-6.4,16.6-11.8,25.8-16.1c18.4-8.7,38.8-12.6,58.9-12.7c10-0.1,20.1,0.8,29.9,2.5 c4.9,0.8,9.8,1.9,14.7,3.1c2.4,0.6,4.8,1.3,7.3,2c2.5,0.8,4.7,1.5,7.4,2.5h-5.3c2.7-1,4.9-1.8,7.4-2.5c2.4-0.7,4.8-1.4,7.3-2 c4.9-1.2,9.7-2.3,14.7-3.1c9.9-1.7,19.9-2.5,29.9-2.5c20,0.1,40.4,4,58.9,12.7c9.2,4.3,17.9,9.7,25.8,16.1 c7.9,6.3,15,13.4,21.6,20.8c13.1,14.8,24.3,30.8,35.3,46.6c11,15.9,21.6,31.6,33.3,46.5c11.7,15,24.1,29.4,36.8,43.8 c6.3,7.3,12.7,14.5,18.9,22.2c3.1,3.9,6.1,7.9,8.9,12.2c2.8,4.3,5.5,9,7.2,14.8c1.7,6,1.4,12.9-1.2,18.8 c-2.6,5.9-6.7,10.3-10.9,13.8c-8.6,6.9-17.9,11-26.6,15.1l-4.8,0.4c1.3,0.4,3.1,0.3,4.5-0.5c1.4-0.8,2.3-1.9,2.8-3.3 c0.5-1.4,0.4-3.3-0.3-4.7c-0.2-0.4-0.4-0.6-0.6-0.9l-0.1-0.2l0,0l0.1,0.1l0.3,0.3l2,2.6c1.3,1.7,2.6,3.5,3.9,5.3 c2.5,3.6,4.9,7.3,7,11.2c2.2,3.9,4.1,8,5.7,12.5c1.5,4.5,2.7,9.3,2.6,14.7l-0.1,2c-0.1,0.7-0.2,1.4-0.3,2.1l-0.4,2.1 c-0.2,0.7-0.5,1.5-0.8,2.3c-1.2,3-3.1,5.6-5.1,7.5c-4,3.9-8.3,6.1-12.5,8.1c-8.3,3.8-16.5,6.1-24.7,8.4l4.8-8.9 c6,19,11.3,37.9,16.3,57.1c4.9,19.2,9.5,38.5,13.1,58c1.8,9.8,3.4,19.6,4.6,29.6c1.1,10,1.9,20.1,1.7,30.4 c-0.2,5.2-0.5,10.5-1.7,15.9c-0.5,2.7-1.4,5.5-2.5,8.3c-1.1,2.8-2.7,5.7-5.2,8.4c-2.4,2.7-5.9,4.9-9.5,5.8 c-3.6,1-7.1,0.9-10.2,0.4c-3.1-0.5-6-1.3-8.6-2.4c-1.3-0.5-2.6-1.1-3.9-1.8c-1.3-0.7-2.4-1.3-3.9-2.2l10.9-6.6 c1,10.6,1.7,21.1,2.3,31.6c0.6,10.6,1.1,21.1,1.1,31.8l-0.1,8.1c-0.1,2.7-0.2,5.4-0.3,8.2c-0.3,2.8-0.4,5.5-0.9,8.5l-0.4,2.2 c-0.1,0.7-0.4,1.7-0.7,2.5l-0.8,2.6c-0.3,0.8-0.8,1.6-1.2,2.3c-1.4,3.1-4,6.2-7.1,8.6c-3.3,2.4-7.3,3.7-11,4 c-3.8,0.4-7.2-0.1-10.4-1c-1.6-0.4-3.1-0.9-4.6-1.5c-0.7-0.3-1.5-0.6-2.2-1c-0.8-0.4-1.4-0.7-2.4-1.2l11.4-6.9 c0.6,10.7,0.6,21,0.2,31.5c-0.5,10.5-1.2,21.1-3.7,31.9c-1.3,5.4-2.9,10.8-5.8,16.4c-1.6,2.8-3.5,5.6-6.6,8.2 c-0.8,0.6-1.6,1.2-2.5,1.7c-0.9,0.5-1.9,1-2.9,1.4c-1,0.3-2,0.6-3,0.8c-0.9,0.2-1.8,0.2-2.7,0.3c-3.5,0.2-6.6-0.1-9.5-0.6 c-2.9-0.5-5.6-1.2-8.3-2c-5.4-1.6-10.2-3.5-15.4-5.8l9.9-5.2c-0.6,2.9-1.3,5.3-2,7.8c-0.7,2.5-1.6,4.9-2.4,7.4 c-1.8,4.8-3.7,9.6-5.9,14.2c-4.4,9.2-9.6,18.1-15.8,26.3l-2.3,3.1l-2.4,2.9c-1.7,1.9-3.2,3.9-5,5.8c-3.6,3.6-7,7.4-10.9,10.6 c-7.5,6.8-16,12.4-24.7,17.4c-1.1,0.6-2.6,0.3-3.2-0.9c-0.6-1-0.3-2.3,0.6-3L470.7,1119.1z"/>
        </g>
      </g>
      <g class="st3">
        <g>
          <path class="st1" d="M502.4,597.2c-55,58.8-72.5,175.5-130.1,175.5s-74.6-113.8-129.6-172.6"/>
        </g>
      </g>
      <g>
        <g>
          <path class="st1" d="M502.4,597.2c-55,58.8-72.5,127.1-130.1,127.1S297.7,656,242.7,597.2"/>
        </g>
      </g>
      <g>
        <g>
          <path class="st1" d="M372.3,731.4c-41.8,0-64-32.6-89.7-70.3c-12.6-18.5-26.9-39.6-45.1-59c-2.7-2.8-2.5-7.3,0.3-10 c2.8-2.7,7.3-2.5,10,0.3c19,20.3,33.6,41.8,46.5,60.8c25.3,37.2,43.6,64.1,78,64.1c34.5,0,53.9-28.4,78.5-64.4 c12.9-18.9,27.6-40.3,46.4-60.5c2.7-2.8,7.1-3,10-0.3c2.8,2.7,3,7.1,0.3,10c-18.2,19.4-32.5,40.3-45.1,58.8 C436.6,698.7,414.2,731.4,372.3,731.4z"/>
        </g>
      </g>
      <g>
        <g>
          <path class="st1" d="M264.9,1476.1c-8.3,4.5-16.4,8.2-23.6,12.8c-7.1,4.5-12.5,10.8-13.1,17.5c0,0.9-0.2,1.7-0.1,2.5l0.1,1.3 l0.2,1.5c0.3,2,0.4,4.1,1,6c0.8,3.9,2.3,7.5,4.2,10.6c1.9,3.1,4.3,5.6,7.3,7.5c1.5,0.9,3,1.8,4.7,2.4c0.8,0.3,1.7,0.6,2.5,0.8 c0.4,0.1,0.8,0.2,1.2,0.3c0.2,0,0.4,0.1,0.6,0.1c0.2,0,0.4,0.1,0.3,0.1c3.9,0.2,6.9,3.5,6.7,7.4c-0.2,3.9-3.5,6.9-7.4,6.7 c-0.7,0-1-0.1-1.4-0.1c-0.4,0-0.8-0.1-1.1-0.2c-0.7-0.1-1.4-0.3-2.1-0.4c-1.4-0.3-2.8-0.7-4.1-1.2c-2.7-1-5.2-2.2-7.6-3.8 c-4.8-3.1-8.8-7.5-11.5-12.3c-2.7-4.8-4.5-10.1-5.2-15.2c-0.5-2.6-0.6-5.1-0.8-7.7l-0.1-1.9l0.1-2.2c0-1.4,0.3-2.9,0.5-4.3 c0.6-2.9,1.6-5.6,3-8.1c1.4-2.5,3.1-4.7,5-6.7c3.8-3.9,8.2-6.7,12.6-9c4.4-2.3,9.1-3.8,13.8-4.8c4.7-0.9,9.6-1.3,14.4-0.6 c0.3,0,0.6,0.4,0.5,0.7C265.2,1475.8,265.1,1476,264.9,1476.1L264.9,1476.1z"/>
        </g>
      </g>
      <g>
        <g>
          <path class="st1" d="M212.5,1476.1c-8.4,4.2-16.5,7.7-23.6,12.1c-7.1,4.4-12.3,10.6-13,17.3c-0.2,1.7-0.2,3.3,0.1,5.4 c0.1,1,0.1,1.9,0.3,2.9l0.6,2.8c1,3.6,2.5,7,4.6,10c2.2,3,4.8,5.6,8,7.9c1.5,1.1,3.2,2.1,4.9,3.1c0.9,0.4,1.7,0.9,2.6,1.3 c0.8,0.4,1.9,0.8,2.4,1l0.6,0.2c3.6,1.4,5.5,5.4,4.1,9.1c-1.3,3.5-5.1,5.3-8.6,4.3c-1.7-0.5-2.8-0.9-4.1-1.4 c-1.2-0.5-2.4-1.1-3.6-1.7c-2.3-1.2-4.6-2.6-6.7-4.2c-4.3-3.1-8.1-7-11.1-11.6c-3.1-4.5-5-9.8-6.1-15l-0.6-4 c-0.2-1.3-0.1-2.6-0.2-3.9c-0.1-2.5,0-5.5,0.7-8.3c1.2-5.6,4.1-10.9,7.9-14.7c3.8-3.9,8.2-6.7,12.6-8.9 c4.5-2.2,9.1-3.7,13.9-4.5c4.7-0.8,9.5-1,14.3-0.2c0.3,0.1,0.6,0.4,0.5,0.7C212.8,1475.9,212.7,1476,212.5,1476.1L212.5,1476.1z "/>
        </g>
      </g>
      <g>
        <g>
          <path class="st1" d="M728.9,1472.5c-7.8,4.9-15,9.5-20.2,15.3c-0.6,0.8-1.3,1.4-1.8,2.2l-1.5,2.3l-1.2,2.5 c-0.5,0.8-0.5,1.7-0.8,2.6l-0.4,1.3l-0.2,1.3c-0.1,0.9-0.3,1.7-0.3,2.7c0.1,1.9-0.1,3.6,0.3,5.6l0.4,2.9c0.1,1,0.5,1.9,0.7,2.8 c0.3,0.9,0.4,1.9,0.8,2.7l1.1,2.6c1.6,3.3,3.5,6.4,6.1,9c2.5,2.6,5.5,4.8,8.9,6.5c1.7,0.8,3.4,1.6,5.2,2.3 c0.9,0.3,1.8,0.6,2.7,0.9c0.8,0.2,1.9,0.5,2.4,0.6l0.6,0.1c3.8,0.8,6.3,4.5,5.5,8.3c-0.8,3.7-4.3,6-7.9,5.5 c-1.7-0.2-2.8-0.5-4.2-0.8c-1.3-0.3-2.5-0.7-3.7-1.1c-2.5-0.8-4.8-1.9-7.1-3.1c-4.6-2.4-8.9-5.7-12.5-9.6c-0.9-1-1.8-2-2.6-3.1 l-2.2-3.3c-0.7-1.1-1.2-2.4-1.9-3.5c-0.6-1.2-1.2-2.4-1.6-3.6l-1.3-3.7c-0.4-1.2-0.6-2.5-0.8-3.8c-0.2-1.3-0.6-2.5-0.6-3.8 l-0.2-3.8c-1-10.2,3.5-21.9,11.4-28.4c3.8-3.4,8.2-5.9,12.7-7.5c4.6-1.5,9.3-2.4,14.1-2c0.3,0,0.6,0.3,0.6,0.7 C729.2,1472.2,729.1,1472.4,728.9,1472.5L728.9,1472.5z"/>
        </g>
      </g>
      <g>
        <g>
          <path class="st1" d="M682.7,1464.7c-7.8,5.4-15.3,10.1-21.5,15.6c-3.1,2.8-5.6,6-7.4,9.3c-1.8,3.4-2.6,6.9-2.8,10.6 c-0.1,8.2,1.5,16,5.5,22.7c2,3.3,4.4,6.4,7.3,9.1l2.2,2c0.8,0.6,1.5,1.3,2.3,1.8c0.8,0.6,1.6,1.2,2.4,1.7 c0.8,0.5,1.7,1.1,2.2,1.3l0.6,0.3c3.4,1.9,4.6,6.2,2.7,9.6c-1.8,3.3-5.9,4.5-9.2,2.9c-1.6-0.8-2.6-1.3-3.8-2 c-1.2-0.7-2.3-1.4-3.3-2.2c-2.1-1.5-4.2-3.2-6.1-5c-3.8-3.6-7.1-7.9-9.6-12.6c-1.4-2.3-2.3-4.8-3.3-7.3 c-0.7-2.6-1.6-5.1-1.9-7.7c-1.1-5.2-0.9-10.5-0.5-15.5c0.7-5.5,2.5-11,5.6-15.5c3.1-4.5,6.9-8.1,10.9-11.1c4-3,8.5-5.2,13.1-6.8 c4.6-1.5,9.4-2.5,14.3-2.3c0.3,0,0.6,0.3,0.6,0.6C682.9,1464.4,682.8,1464.6,682.7,1464.7L682.7,1464.7z"/>
        </g>
      </g>
      <g>
        <g>
          <path class="st1" d="M475.4,1475c4.3-0.2,8.4,1.1,12.2,3.1c3.8,2.1,7.2,5,9.7,8.7c5.2,7.2,7.6,16.5,7.3,25.1 c-0.1,2.1-0.1,4.2-0.3,6.3c-0.4,2.1-0.5,4.3-1.1,6.4c-1,4.3-2.5,8.6-4.9,12.7c-2.4,4-5.7,7.8-9.8,10.6c-2,1.5-4.3,2.5-6.6,3.4 c-1.2,0.4-2.4,0.8-3.6,1.1c-0.6,0.2-1.2,0.3-1.9,0.4c-0.3,0.1-0.6,0.1-1,0.1c-0.4,0-0.7,0.1-1.3,0.1c-3.9,0.2-7.2-2.9-7.3-6.8 c-0.2-3.9,2.9-7.2,6.8-7.3c-0.2,0,0,0,0.1,0c0.1,0,0.3,0,0.4-0.1c0.3-0.1,0.6-0.1,0.9-0.2c0.6-0.1,1.3-0.4,1.9-0.6 c1.2-0.5,2.5-1.1,3.6-1.9c2.3-1.5,4.2-3.6,5.9-6.1c0.8-1.3,1.6-2.6,2.2-4.1c0.7-1.4,1.2-3,1.7-4.5c0.6-1.5,0.8-3.3,1.2-4.9 c0.4-1.7,0.5-3.4,0.8-5.2c0.8-6.8,0-13.3-3.1-19.1c-3.2-5.7-7.9-10.8-14-16l-0.1,0c-0.3-0.2-0.3-0.6-0.1-0.9 C475.1,1475,475.2,1475,475.4,1475z"/>
        </g>
      </g>
      <g>
        <g>
          <path class="st1" d="M527.8,1475c8.5-0.6,16.9,4.3,22.1,11.6c2.6,3.7,4.3,7.8,5.6,12.1c0.4,2.1,1.1,4.3,1.2,6.5l0.3,3.3 c0.1,1.1,0,2.2,0,3.3c0,8.7-2.7,18.1-8.5,25.4c-2.8,3.7-6.3,6.8-10,9.3c-1.9,1.3-3.9,2.4-5.9,3.3c-1,0.5-2.1,0.9-3.1,1.3 c-1.1,0.4-2.1,0.7-3.6,1.1c-3.8,1-7.6-1.3-8.6-5c-0.9-3.6,1-7.2,4.4-8.4l0.7-0.3c0.3-0.1,1.2-0.4,1.9-0.7c0.7-0.3,1.4-0.6,2.2-1 c1.4-0.7,2.8-1.5,4.1-2.4c2.7-1.7,5-3.8,7-6.1c2.1-2.3,3.5-5,4.8-7.9c0.5-1.5,1.2-2.9,1.4-4.5l0.6-2.4l0.3-2.5 c0.5-3.3,0.2-6.7-0.1-10c-0.6-3.2-1.4-6.4-2.9-9.3c-3.1-5.7-7.7-10.8-14-15.7l-0.1,0c-0.3-0.2-0.3-0.6-0.1-0.9 C527.5,1475.1,527.6,1475,527.8,1475z"/>
        </g>
      </g>
      <g>
        <g>
          <g>
            <path class="st2" d="M309.1,311.6c-4.9,0.3-9.9,0.8-15,1.6c-10.3,1.6-21,4.5-31.6,9.3c-16.1-18.4-42.9-50.3-57.6-46.4 c-1.7,0.4-3.2,1.1-4.6,2c-10.5,6.7-14.6,25.5-17.1,48.6c-3.1,27.6-3.9,61.6-10.6,89.3c-0.3,1.3-0.6,2.6-1,3.9 c-4.8,17.9-12.3,32.7-24.9,40.9c-2.5,1.6-5.2,1.9-8.2,1.2c-0.7-0.2-1.4-0.4-2.2-0.7c-8.4-3.2-18.3-13.4-28.1-24.6 c-7.4-8.3-14.7-17.2-21.6-24.1c-25.4-25.8-56.4-35.1-63.6-50.7c-0.5-1.2-1-2.4-1.2-3.6c-0.7-3.1-0.4-6.5,1-10.4 c27.3-76.5,203.7-109.7,203.7-109.7s8.1-21.9,17.6-21.4c15,0.8,17.3,19.2,20.9,41.5c0.3,1.7,0.5,3.3,0.8,5 c0.3,1.8,2.7,2.3,3.7,0.7c0.8-1.3,1.6-2.6,2.5-4c4.6-6.9,10.9-14.3,15.7-13.9C295.2,246.8,304.3,284.1,309.1,311.6z"/>
          </g>
        </g>
      </g>
      <g class="st3">
        <g>
          <path class="st4" d="M264.8,258.3c-8.7-18.2-13.6-24.4-17.1-24.4c-12.5-0.1-11.7,18.3-11.7,18.3 c-61.2,8.9-143.4,44.7-182.2,72.2c-17.2,12.2-27.6,26.6-32.1,33.9c-0.7-3.1-0.4-6.5,1-10.4c27.3-76.5,203.7-109.7,203.7-109.7 s8.1-21.9,17.6-21.4C258.9,217.6,261.2,236,264.8,258.3z"/>
        </g>
      </g>
      <g class="st3">
        <g>
          <path class="st1" d="M200.2,278c-10.5,6.7-14.6,25.5-17.1,48.6c-3.1,27.6-3.9,61.6-10.6,89.3c-0.3,1.3-0.6,2.6-1,3.9 c-4.8,17.9-12.3,32.7-24.9,40.9c-2.5,1.6-5.2,1.9-8.2,1.2c-0.7-0.2-1.4-0.4-2.2-0.7c-8.4-3.2-18.3-13.4-28.1-24.6 c-7.4-8.3-14.7-17.2-21.6-24.1c-25.4-25.8-56.4-35.1-63.6-50.7l8.3-18.4c0,0-1.3,13.6,15.7,22.6c23.9,12.5,59.4,44.8,60.8,30.2 c1.4-14.6-7.8-74.7,7.7-92.7c4.9-5.7,2.3,92.7,21.7,98.6C155.5,407.6,174.8,286.2,200.2,278z"/>
        </g>
      </g>
      <g>
        <g>
          <path class="st1" d="M141.3,469.4c-1.5,0-2.9-0.2-4.5-0.5c-0.8-0.2-1.8-0.5-3-0.9c-9.5-3.6-19.2-13.2-31-26.6 c-2.1-2.3-4.1-4.7-6.2-7.1c-5.3-6.1-10.3-11.9-15.1-16.7c-11.7-11.9-24.7-20.1-36.2-27.4c-19-12-36.9-23.4-29.3-44.6 c26.3-73.9,178.4-108,205.3-113.5c3.5-8.1,11.2-22.3,22.3-22.3c0.2,0,0.5,0,0.7,0c18.7,1,22.9,19.4,26.3,39.9 c6.2-7.6,12-11.1,17.6-10.6c4.3,0.4,15.7,1.5,27.9,71.3l1.4,7.8l-7.9,0.4c-15.9,0.8-30.7,4.3-44.1,10.2l-4.7,2.1l-6.4-7.3 c-10.4-11.9-38-43.5-47.6-40.9c-10.6,2.8-14.4,25.3-16.5,44.6c-0.9,8.3-1.6,17-2.4,26.3c-1.7,21.7-3.5,44.1-8.4,64 c-0.3,1.4-0.7,2.8-1.1,4.2c-5.8,21.9-15,36.6-27.9,44.9C147.7,468.5,144.6,469.4,141.3,469.4z M243.5,223.8 c-2.3,0.6-7.6,9-10.6,16.8l-1.4,3.7l-3.9,0.7c-1.7,0.3-172.8,33.3-198.4,105.1c-3.5,9.8,3.3,15.1,23.6,28 c11.5,7.3,25.8,16.4,38.7,29.4c5.1,5.1,10.5,11.3,15.7,17.4c2,2.3,4.1,4.7,6.1,7c8.6,9.7,18.3,20,25.4,22.7 c0.4,0.1,0.8,0.3,1.2,0.4c1.7,0.4,2.3,0.1,2.8-0.2c9.9-6.4,17-18.4,22-36.8c0.4-1.3,0.6-2.5,0.9-3.8c4.5-18.8,6.3-40.7,8-61.8 c0.8-9.4,1.5-18.2,2.4-26.7c2.7-24.7,7.3-51.5,26.9-56.7c16.6-4.4,37.7,17.6,61.4,44.8c11.4-4.5,23.5-7.4,36.3-8.8 c-5-26.1-10.9-45.4-14.6-51.2c-2.2,1.7-6.1,5.9-10.8,13.7c-1.9,3.3-5.6,5-9.4,4.3c-3.8-0.7-6.6-3.6-7.3-7.3 c-0.5-2.7-0.9-5.3-1.3-7.9C253.9,234.6,251.4,224.2,243.5,223.8z M263.2,260.4C263.2,260.4,263.2,260.4,263.2,260.4 C263.2,260.4,263.2,260.4,263.2,260.4z"/>
        </g>
      </g>
      <g>
        <g>
          <g>
            <path class="st2" d="M437.3,311.6c4.9,0.3,9.9,0.8,15,1.6c10.3,1.6,21,4.5,31.6,9.3c16.1-18.4,42.9-50.3,57.6-46.4 c1.7,0.4,3.2,1.1,4.6,2c10.5,6.7,14.6,25.5,17.1,48.6c3.1,27.6,3.9,61.6,10.6,89.3c0.3,1.3,0.6,2.6,1,3.9 c4.8,17.9,12.3,32.7,24.9,40.9c2.5,1.6,5.2,1.9,8.2,1.2c0.7-0.2,1.4-0.4,2.2-0.7c8.4-3.2,18.3-13.4,28.1-24.6 c7.4-8.3,14.7-17.2,21.6-24.1c25.4-25.8,56.4-35.1,63.6-50.7c0.5-1.2,1-2.4,1.2-3.6c0.7-3.1,0.4-6.5-1-10.4 C696.5,271.4,520,238.2,520,238.2s-8.1-21.9-17.6-21.4c-15,0.8-17.3,19.2-20.9,41.5c-0.3,1.7-0.5,3.3-0.8,5 c-0.3,1.8-2.7,2.3-3.7,0.7c-0.8-1.3-1.6-2.6-2.5-4c-4.6-6.9-10.9-14.3-15.7-13.9C451.2,246.8,442.1,284.1,437.3,311.6z"/>
          </g>
        </g>
      </g>
      <g class="st3">
        <g>
          <path class="st4" d="M481.6,258.3c8.7-18.2,13.6-24.4,17.1-24.4c12.5-0.1,11.7,18.3,11.7,18.3c61.2,8.9,143.4,44.7,182.2,72.2 c17.2,12.2,27.6,26.6,32.1,33.9c0.7-3.1,0.4-6.5-1-10.4C696.5,271.4,520,238.2,520,238.2s-8.1-21.9-17.6-21.4 C487.4,217.6,485.2,236,481.6,258.3z"/>
        </g>
      </g>
      <g class="st3">
        <g>
          <path class="st1" d="M546.2,278c10.5,6.7,14.6,25.5,17.1,48.6c3.1,27.6,3.9,61.6,10.6,89.3c0.3,1.3,0.6,2.6,1,3.9 c4.8,17.9,12.3,32.7,24.9,40.9c2.5,1.6,5.2,1.9,8.2,1.2c0.7-0.2,1.4-0.4,2.2-0.7c8.4-3.2,18.3-13.4,28.1-24.6 c7.4-8.3,14.7-17.2,21.6-24.1c25.4-25.8,56.4-35.1,63.6-50.7l-8.3-18.4c0,0,1.3,13.6-15.7,22.6c-23.9,12.5-59.4,44.8-60.8,30.2 c-1.4-14.6,7.8-74.7-7.7-92.7c-4.9-5.7-2.3,92.7-21.7,98.6C590.9,407.6,571.6,286.2,546.2,278z"/>
        </g>
      </g>
      <g>
        <g>
          <path class="st1" d="M605.1,469.4c-3.3,0-6.4-0.9-9.2-2.7c-12.9-8.3-22.1-23-27.9-45c-0.4-1.3-0.7-2.7-1-4.1 c-4.8-19.8-6.6-42.3-8.4-63.9c-0.7-9.3-1.4-18-2.4-26.3c-2.1-19.3-5.9-41.8-16.5-44.6c-9.6-2.6-37.2,29-47.6,40.9l-6.4,7.3 l-4.7-2.1c-13.4-6-28.3-9.4-44.1-10.2l-7.9-0.4l1.4-7.8c12.2-69.8,23.6-70.9,27.9-71.3c5.6-0.5,11.4,3,17.6,10.6 c3.4-20.6,7.6-38.9,26.3-39.9c11.5-0.6,19.5,14,23,22.3c26.9,5.5,178.9,39.6,205.3,113.5c7.6,21.2-10.3,32.6-29.3,44.6 c-11.5,7.3-24.5,15.5-36.2,27.4c-4.8,4.8-9.8,10.6-15.1,16.7c-2.1,2.4-4.1,4.8-6.2,7.1c-11.8,13.3-21.5,23-30.9,26.5 c-1.3,0.5-2.3,0.8-3.2,1C608,469.2,606.6,469.4,605.1,469.4z M539,268.6c1.5,0,3,0.2,4.4,0.6c19.6,5.2,24.2,32,26.9,56.7 c0.9,8.5,1.6,17.3,2.4,26.7c1.7,21.1,3.5,43,8,61.8c0.3,1.3,0.6,2.5,0.9,3.7c4.9,18.5,12.1,30.5,22,36.8 c0.5,0.3,1.2,0.6,2.7,0.3c0.5-0.1,1-0.3,1.4-0.4c7-2.7,16.7-12.9,25.3-22.7c2-2.3,4.1-4.7,6.1-7c5.2-6,10.6-12.3,15.7-17.4 c12.8-13,27.2-22.1,38.7-29.4c20.3-12.9,27.1-18.2,23.6-28c-25.6-71.9-196.7-104.8-198.4-105.1l-3.9-0.7l-1.4-3.7 c-2.9-7.8-8.3-16.2-10.8-16.8c-7.6,0.4-10.1,10.8-13.6,32.8c-0.4,2.6-0.8,5.2-1.3,7.9c-0.7,3.8-3.5,6.7-7.3,7.4 c-3.8,0.7-7.5-1-9.4-4.3c-4.6-7.8-8.6-12-10.7-13.6c-3.7,5.8-9.6,25.1-14.6,51.2c12.8,1.3,25,4.3,36.3,8.8 C503.7,289.1,523.1,268.6,539,268.6z M483.1,260.3C483.1,260.3,483.2,260.4,483.1,260.3C483.2,260.4,483.1,260.3,483.1,260.3z"/>
        </g>
      </g>
      <g>
        <g>
          <path class="st4" d="M263.4,615c1.6,1.7,3.2,3.3,4.9,5.1h-1.9C266.3,620.1,265,618.3,263.4,615z"/>
        </g>
      </g>
      <g>
        <g>
          <path class="st4" d="M476.4,620.1c1-1.1,2-2.1,3.1-3.2c-1.1,2.1-2,3.2-2,3.2H476.4z"/>
        </g>
      </g>
      <g>
        <g>
          <path class="st4" d="M485.1,593.7c0.1,10.9-3.3,19-5.6,23.2L485.1,593.7z"/>
        </g>
      </g>
      <g>
        <g>
          <path class="st5" d="M438.8,616.8c0,0-1.5,29.9-8.5,62.7c-8.5,39.7-24.9,83.6-56.3,83.6c-31.1,0-47.5-43.2-56.1-82.6 c-7.2-33.2-8.7-63.7-8.7-63.7H438.8z"/>
        </g>
      </g>
      <g class="st3">
        <g>
          <path class="st4" d="M438.8,616.8c0,0-1.5,29.9-8.5,62.7c-8.5,39.7-24.9,83.6-56.3,83.6c-31.1,0-47.5-43.2-56.1-82.6 c-7.2-33.2-8.7-63.7-8.7-63.7h2c1.3,11.4,3.4,26.2,6.7,41.4c8.5,39.4,24.9,82.6,56.1,82.6c31.4,0,47.8-43.9,56.3-83.6 c3.2-14.9,5.2-29.3,6.5-40.5H438.8z"/>
        </g>
      </g>
      <g>
        <g>
          <path class="st1" d="M369.1,717.7l-4-92.3c-0.2-3.9,2.9-7.2,6.8-7.4c3.9-0.2,7.2,2.9,7.4,6.8c0,0.2,0,0.4,0,0.6l-4,92.3 c-0.1,1.7-1.5,3-3.2,3C370.5,720.6,369.2,719.3,369.1,717.7z"/>
        </g>
      </g>
      <g>
        <g>
          <path class="st1" d="M374,770.2c-27.4,0-47.8-26.4-60.7-78.5c-9.1-36.8-11-72.9-11.1-74.5l14.1-0.7 c2,38.8,16.3,139.6,57.7,139.6s55.7-100.7,57.7-139.6l14.1,0.7c-0.1,1.5-2,37.7-11.1,74.5C421.8,743.7,401.4,770.2,374,770.2z"/>
        </g>
      </g>
      <g>
        <g>
          <path class="st4" d="M485.1,593.6C485.1,593.7,485.1,593.7,485.1,593.6l-5.6,23.2c0,0,0,0,0,0c-1,1.1-2,2.1-3.1,3.2 c-17,17.7-35.6,37.1-61,37.1c-27.9,0-39-19.6-42.1-26.8c-0.4-1-1.6-1-2,0c-3.1,7.2-14.1,26.8-42.1,26.8c-25.4,0-44-19.4-61-37.1 c-1.7-1.7-3.3-3.4-4.9-5.1c0,0,0,0,0,0c-2.2-4.5-4.8-11.9-4.7-21.4c0.1-10.4,3.4-23.3,14.1-37.8c27.4-37.1,67.4-18.9,74.1-65.1 c6.7-46.2-24.4-131.4,25-131.4c49.4,0,18.3,85.2,25,131.4c6.7,46.2,46.7,28,74.1,65.1C481.7,570.3,485,583.2,485.1,593.6z"/>
        </g>
      </g>
      <g class="st3">
        <g>
          <path class="st1" d="M479.5,616.8C479.5,616.9,479.5,616.9,479.5,616.8c-1.1,1.1-2.1,2.2-3.1,3.2c-17,17.7-35.6,37.1-61,37.1 c-27.9,0-38.9-19.6-42.1-26.8c-0.4-1-1.6-1-2,0c-3.1,7.2-14.1,26.8-42.1,26.8c-25.4,0-43.9-19.4-61-37.1 c-1.7-1.7-3.3-3.4-4.9-5.1c0,0,0,0,0,0c-2.2-4.5-5.5-13.2-3.8-11.7c17,15.5,44.3,32.8,69.7,32.8c27.9,0,39-17.2,42.1-23.5 c0.4-0.8,1.6-0.8,2,0c3.1,6.3,14.1,23.5,42.1,23.5c25.4,0,69.1-34.1,69.1-34.1L479.5,616.8z"/>
        </g>
      </g>
      <g>
        <g>
          <path class="st1" d="M415.4,664.2c-23.1,0-36.2-11.9-43-21.4c-6.8,9.5-20,21.4-43,21.4c-28.2,0-48.2-20.7-65.7-38.9 c-10.6-11-20.6-21.4-30.5-25.1c-3.7-1.4-5.5-5.4-4.1-9.1c1.4-3.7,5.4-5.5,9.1-4.1c12.9,4.8,24,16.3,35.7,28.5 c16.4,17,33.3,34.6,55.6,34.6c23.3,0,32.7-15.8,35.6-22.5c1.3-3,4.2-5,7.5-5c3.2,0,6.2,1.9,7.5,5c2.9,6.8,12.3,22.5,35.6,22.5 c22.2,0,39.2-17.6,55.6-34.6c11.7-12.2,22.8-23.7,35.7-28.5c3.6-1.4,7.7,0.5,9.1,4.1c1.4,3.6-0.5,7.7-4.1,9.1 c-9.9,3.7-19.9,14.1-30.5,25.1C463.5,643.6,443.6,664.2,415.4,664.2z"/>
        </g>
      </g>
      <g>
        <g>
          <path class="st1" d="M416.9,560.4c0,14.1-11.2,29.4-22.2,41c-11.8,12.4-29.8,12.4-41.6,0c-11-11.6-22.2-26.8-22.2-41 C331,532.7,416.9,532.7,416.9,560.4z"/>
        </g>
      </g>
      <g class="st3">
        <g>
          <path class="st4" d="M394.3,557.5c0,2.2-5.3,4.6-10.5,6.5c-5.6,2-14.1,2-19.6,0c-5.2-1.8-10.5-4.2-10.5-6.5 C353.7,553.2,394.3,553.2,394.3,557.5z"/>
        </g>
      </g>
      <g>
        <g>
          <path class="st1" d="M371.9,636.8c-3.9,0-7.1-3.2-7.1-7.1v-19.1c0-3.9,3.2-7.1,7.1-7.1c3.9,0,7.1,3.2,7.1,7.1v19.1 C379,633.7,375.8,636.8,371.9,636.8z"/>
        </g>
      </g>
      <g>
        <g>
          <path class="st7" d="M295.3,414.5c6,2.5,11.9-3.5,9.5-9.4c-4.9-12-14.2-25.9-31.6-29.7c-32.1-6.9-50.6,25.8-29.7,30.6 C259.5,409.6,278.7,407.6,295.3,414.5z"/>
        </g>
      </g>
      <g>
        <g>
          <path class="st7" d="M444,414.5c-6,2.5-11.9-3.5-9.5-9.4c4.9-12,14.2-25.9,31.6-29.7c32.1-6.9,50.6,25.8,29.7,30.6 C479.8,409.6,460.6,407.6,444,414.5z"/>
        </g>
      </g>
      <g>
        <g>
          <g>
            <ellipse transform="matrix(0.1338 -0.991 0.991 0.1338 -239.1732 681.0369)" class="st1" cx="270" cy="477.3" rx="50.1" ry="36.9"/>
          </g>
        </g>
        <g>
          <g>
            <ellipse transform="matrix(0.131 -0.9914 0.9914 0.131 -217.2726 688.3686)" class="st4" cx="284" cy="468.1" rx="17.3" ry="9.9"/>
          </g>
        </g>
        <g>
          <g>
            <ellipse transform="matrix(0.1139 -0.9935 0.9935 0.1139 -265.2851 685.6931)" class="st4" cx="251.8" cy="491.6" rx="8.7" ry="4.9"/>
          </g>
        </g>
      </g>
      <g>
        <g>
          <g>
            <ellipse transform="matrix(0.991 -0.1338 0.1338 0.991 -59.5907 67.9991)" class="st1" cx="476.1" cy="477.3" rx="36.9" ry="50.1"/>
          </g>
        </g>
        <g>
          <g>
            <ellipse transform="matrix(0.9914 -0.131 0.131 0.9914 -57.3384 64.5632)" class="st4" cx="462.1" cy="468.1" rx="9.9" ry="17.3"/>
          </g>
        </g>
        <g>
          <g>
            <ellipse transform="matrix(0.9935 -0.1139 0.1139 0.9935 -52.7754 59.5083)" class="st4" cx="494.3" cy="491.6" rx="4.9" ry="8.7"/>
          </g>
        </g>
      </g>
      <g>
        <g>
          <path class="st2" d="M1042.6,633c1.9,0,1.9-3,0-3C1040.7,630,1040.7,633,1042.6,633L1042.6,633z"/>
        </g>
      </g>
    </g>
  </g>
  <g id="Layer_2"/>
  <g id="Layer_3"/>
  <g id="Layer_4"/>
  <g id="Layer_5"/>
  <g id="Layer_6"/>
</svg>