<?xml version="1.0" encoding="utf-8"?>
<svg version="1.1" id="svg2" width="1122.52" height="793.70667" viewBox="336.567 165.463 455.027 446.798" xmlns="http://www.w3.org/2000/svg">
  <defs id="defs6">
    <linearGradient x1="0" y1="0" x2="1" y2="0" gradientUnits="userSpaceOnUse" gradientTransform="matrix(-1.6097226,-155.33823,-155.33823,1.6097226,420.0307,296.75854)" spreadMethod="pad" id="linearGradient32">
      <stop style="stop-opacity:1;stop-color:#f15847" offset="0" id="stop24"/>
      <stop style="stop-opacity:1;stop-color:#f15847" offset="0.0452" id="stop26"/>
      <stop style="stop-opacity:1;stop-color:#d6313c" offset="0.3668" id="stop28"/>
      <stop style="stop-opacity:1;stop-color:#d6313c" offset="1" id="stop30"/>
    </linearGradient>
    <linearGradient x1="0" y1="0" x2="1" y2="0" gradientUnits="userSpaceOnUse" gradientTransform="matrix(-1.6097226,-155.33823,-155.33823,1.6097226,420.53992,295.17896)" spreadMethod="pad" id="linearGradient56">
      <stop style="stop-opacity:1;stop-color:#f15847" offset="0" id="stop48"/>
      <stop style="stop-opacity:1;stop-color:#f15847" offset="0.0452" id="stop50"/>
      <stop style="stop-opacity:1;stop-color:#d6313c" offset="0.3668" id="stop52"/>
      <stop style="stop-opacity:1;stop-color:#d6313c" offset="1" id="stop54"/>
    </linearGradient>
    <clipPath clipPathUnits="userSpaceOnUse" id="clipPath66">
      <path d="M 0,595.28 H 841.89 V 0 H 0 Z" id="path64"/>
    </clipPath>
  </defs>
  <g id="g10" transform="matrix(1.3333333,0,0,-1.3333333,0,793.70667)">
    <g id="g12">
      <g id="g14">
        <g id="g20">
          <g id="g22">
            <path d="m 420.566,460.108 c -11.17,-0.018 -20.211,-9.021 -20.195,-20.111 v 0 c 0.015,-7.788 4.507,-14.519 11.042,-17.834 v 0 c -38.443,-1.821 -71.321,-15.872 -87.09,-30.937 v 0 l 193.376,0.323 c -18.256,14.689 -50.408,28.494 -88.064,30.544 v 0 c 6.639,3.299 11.203,10.1 11.189,17.973 v 0 c -0.017,11.077 -9.07,20.041 -20.224,20.042 v 0 c -0.012,0 -0.022,0 -0.034,0" style="fill:url(#linearGradient32);stroke:none" id="path34"/>
          </g>
        </g>
      </g>
    </g>
    <g id="g36">
      <g id="g38">
        <g id="g44">
          <g id="g46">
            <path d="m 298.1,384.797 c 0,0 -7.899,-6.329 0.022,-12.05 v 0 c 3.518,-2.543 10.1,-6.911 16.325,-10.982 v 0 c -1.227,-1.35 -2.4,-2.73 -3.45,-4.166 v 0 c -1.516,-2.072 -2.935,-4.178 -4.308,-6.298 v 0 c -12.472,-0.392 -24.946,-0.782 -37.421,-1.174 v 0 c -4.868,-0.33 -8.605,-4.061 -9.371,-8.21 v 0 c -0.688,-4.162 1.567,-8.939 6.036,-10.901 v 0 c 8.751,-3.465 17.5,-6.931 26.252,-10.397 v 0 C 280.858,284.558 287.2,245.528 311.239,212.854 v 0 c 10.67,-14.456 31.297,-24.867 42.48,-25.409 v 0 c 45.035,-2.244 90.069,-2.168 135.098,0.225 v 0 c 11.181,0.578 31.77,11.062 42.393,25.552 v 0 c 23.929,32.753 30.14,71.805 18.694,107.827 v 0 c 8.739,3.495 17.479,6.989 26.219,10.485 v 0 c 4.463,1.976 6.699,6.761 5.998,10.92 v 0 c -0.777,4.149 -4.529,7.864 -9.4,8.18 v 0 c -12.477,0.35 -24.95,0.698 -37.424,1.047 v 0 c -1.381,2.117 -2.806,4.218 -4.328,6.286 v 0 c -1.056,1.43 -2.232,2.809 -3.464,4.154 v 0 c 6.211,4.092 12.778,8.482 16.288,11.036 v 0 c 7.903,5.747 -0.02,12.047 -0.02,12.047 v 0 z" style="fill:url(#linearGradient56);stroke:none" id="path58"/>
          </g>
        </g>
      </g>
    </g>
    <g id="g60">
      <g id="g62" clip-path="url(#clipPath66)">
        <g id="g68" transform="translate(366.1011,329.8762)">
          <path d="m 0,0 c -0.116,0 -0.231,-0.001 -0.35,-0.003 -1.287,-0.023 -2.322,-1.065 -2.336,-2.351 l -0.085,-7.679 c -0.007,-0.635 0.24,-1.247 0.687,-1.698 0.446,-0.452 1.055,-0.706 1.691,-0.706 4.648,0 9.65,1.974 9.65,6.307 0,1.82 -1.04,3.502 -2.853,4.613 C 4.783,-0.525 2.569,0 0,0 m -10.286,-40.355 c -3.715,0 -7.788,1.9 -7.949,6.074 -0.478,12.097 -0.64,29.99 0.337,43.933 0.262,3.61 2.96,6.234 6.414,6.234 13.924,0 24.31,-1.127 29.741,-6.626 3.096,-3.135 4.561,-7.77 4.48,-14.17 -0.071,-14.582 -7.882,-21.966 -23.216,-21.966 -0.638,0 -1.249,-0.256 -1.696,-0.711 -0.447,-0.455 -0.693,-1.07 -0.681,-1.708 l 0.085,-4.926 c -0.013,-4.841 -4.728,-6.134 -7.515,-6.134" style="fill:#ffffff;fill-opacity:1;fill-rule:nonzero;stroke:none" id="path70"/>
        </g>
        <g id="g72" transform="translate(410.6504,326.6296)">
          <path d="m 0,0 c -0.646,-0.027 -1.253,-0.316 -1.682,-0.8 -2.891,-3.268 -3.599,-10.127 -3.748,-12.152 -0.048,-0.653 0.177,-1.298 0.619,-1.78 0.443,-0.483 1.065,-0.763 1.72,-0.771 0,0 6.165,-0.086 6.176,-0.086 0.644,0 1.262,0.261 1.71,0.725 0.456,0.472 0.697,1.111 0.666,1.766 -0.105,2.184 -0.68,9.535 -3.718,12.44 C 1.3,-0.233 0.71,0.002 0.099,0.002 0.066,0.002 0.033,0.001 0,0 m 13.579,-37.866 c -2.081,0 -4.062,0.599 -5.436,1.643 -1.439,1.094 -2.168,2.608 -2.168,4.499 0,1.303 -1.048,2.364 -2.35,2.379 0,0 -7.271,0.085 -7.28,0.085 -1.263,0 -2.308,-0.989 -2.375,-2.253 -0.098,-1.87 -0.864,-3.353 -2.277,-4.41 -1.348,-1.009 -3.198,-1.563 -5.21,-1.563 -3.784,0 -7.949,2.023 -8.151,6.467 -0.853,23.641 2.03,38.603 8.815,45.722 3.112,3.266 7.023,4.882 11.957,4.942 0.153,0.002 0.3,0.003 0.444,0.003 5.644,0 10.015,-1.683 13.362,-5.146 8.784,-9.086 9.263,-29.342 8.699,-45.975 -0.13,-4.395 -4.254,-6.392 -8.03,-6.393" style="fill:#ffffff;fill-opacity:1;fill-rule:nonzero;stroke:none" id="path74"/>
        </g>
        <g id="g76" transform="translate(451.0908,288.6677)">
          <path d="m 0,0 c -3.767,0 -9.208,2.544 -13.736,14.664 -3.346,8.953 -5.531,21.632 -6.155,35.701 -0.001,0.031 -0.003,0.061 -0.005,0.092 -0.15,1.801 0.33,3.319 1.428,4.512 1.405,1.527 3.757,2.439 6.29,2.439 2.969,0 6.464,-1.283 7.389,-4.883 1.185,-5.387 1.485,-9.95 1.75,-13.976 0.222,-3.367 0.413,-6.274 1.073,-8.915 0.254,-1.016 1.144,-1.747 2.191,-1.799 0.039,-0.002 0.078,-0.002 0.117,-0.002 1,0 1.9,0.628 2.239,1.578 0.452,1.266 0.635,3.755 0.947,8.412 0.315,4.713 0.708,10.579 1.555,13.254 0.014,0.045 0.027,0.09 0.039,0.136 0.935,3.707 3.955,5.029 6.469,5.029 2.498,0 5.865,-1.4 7.131,-5.345 0.042,-0.128 0.093,-0.252 0.155,-0.371 0.942,-1.808 1.529,-7.487 1.958,-11.634 0.563,-5.448 0.925,-8.611 1.817,-10.246 0.421,-0.771 1.226,-1.24 2.087,-1.24 0.11,0 0.22,0.008 0.331,0.023 0.98,0.137 1.773,0.867 1.991,1.834 0.336,1.494 0.389,3.63 0.455,6.332 0.105,4.252 0.249,10.074 1.596,16.294 0.846,4.07 4.2,5.514 7.058,5.514 2.227,0 4.358,-0.84 5.7,-2.247 1.123,-1.177 1.65,-2.673 1.567,-4.443 C 43.049,40.815 41.872,26.757 38.457,15.876 35.171,5.41 30.592,0.098 24.845,0.086 18.231,0.205 16.842,4.003 15.371,8.023 15.009,9.014 14.667,9.95 14.242,10.8 c -0.404,0.806 -1.228,1.315 -2.127,1.315 -0.016,0 -0.032,-10e-4 -0.048,-10e-4 -0.918,-0.018 -1.743,-0.563 -2.121,-1.4 C 9.57,9.879 9.251,8.99 8.913,8.048 7.428,3.909 6.026,0 0,0" style="fill:#ffffff;fill-opacity:1;fill-rule:nonzero;stroke:none" id="path78"/>
        </g>
        <g id="g80" transform="translate(356.5156,265.8484)">
          <path d="m 0,0 c -0.116,0 -0.231,-0.002 -0.35,-0.004 -1.287,-0.022 -2.322,-1.064 -2.336,-2.351 l -0.085,-7.678 c -0.007,-0.635 0.24,-1.247 0.687,-1.698 0.446,-0.453 1.055,-0.707 1.691,-0.707 2.677,0 4.99,0.546 6.688,1.581 1.883,1.146 2.962,2.869 2.962,4.726 C 9.257,-3.079 6.395,0 0,0 m -10.286,-40.355 c -3.715,0 -7.788,1.9 -7.949,6.074 -0.478,12.097 -0.64,29.991 0.337,43.933 0.262,3.61 2.96,6.234 6.414,6.234 13.924,0 24.31,-1.127 29.741,-6.626 3.096,-3.136 4.561,-7.771 4.48,-14.17 -0.071,-14.582 -7.882,-21.966 -23.216,-21.966 -0.637,0 -1.249,-0.257 -1.696,-0.711 -0.447,-0.455 -0.692,-1.071 -0.681,-1.709 l 0.085,-4.926 c -0.013,-4.841 -4.728,-6.133 -7.515,-6.133" style="fill:#ffffff;fill-opacity:1;fill-rule:nonzero;stroke:none" id="path82"/>
        </g>
        <g id="g84" transform="translate(407.5635,247.9646)">
          <path d="M 0,0 C -0.89,-1.23 -2.253,-1.829 -4.168,-1.829 H -4.21 c -1.943,0 -3.304,0.602 -4.162,1.841 -0.746,1.078 -1.119,2.628 -1.14,4.737 -0.025,2.503 0.468,4.214 1.507,5.231 0.863,0.846 2.125,1.257 3.857,1.257 1.73,0 2.994,-0.414 3.864,-1.265 C 0.75,8.959 1.24,7.302 1.216,4.905 1.216,2.765 0.807,1.115 0,0 m 12.208,28.781 c -3.682,3.717 -9.032,5.525 -16.356,5.525 -7.331,0 -12.671,-1.794 -16.326,-5.485 -4.397,-4.439 -6.483,-11.906 -6.378,-22.826 0.091,-9.203 1.671,-15.964 4.829,-20.668 3.627,-5.404 9.389,-8.031 17.612,-8.031 l 0.178,0.001 c 8.107,0 13.878,2.608 17.642,7.976 3.415,4.87 5.146,12.063 5.146,21.404 0.102,10.458 -1.974,17.687 -6.347,22.104" style="fill:#ffffff;fill-opacity:1;fill-rule:nonzero;stroke:none" id="path86"/>
        </g>
        <g id="g88" transform="translate(445.6377,225.8552)">
          <path d="m 0,0 c -3.744,0 -7.818,1.936 -7.916,6.187 -0.251,10.977 -0.01,20 0.246,29.553 l 0.01,0.358 c 0.017,0.641 -0.226,1.262 -0.673,1.722 -0.448,0.46 -1.063,0.72 -1.705,0.72 l -4.079,-10e-4 c -4.488,0 -6.222,4.253 -6.343,7.895 -0.082,2.462 0.536,4.904 1.697,6.698 1.203,1.86 2.844,2.873 4.874,3.008 5.035,0.324 10.027,0.488 14.828,0.488 4.363,0 8.684,-0.136 12.844,-0.403 2.01,-0.121 3.65,-1.147 4.882,-3.046 1.196,-1.847 1.839,-4.332 1.764,-6.82 -0.039,-1.291 -0.532,-7.734 -6.408,-7.734 H 10.438 C 9.132,38.625 8.071,37.574 8.059,36.269 8.029,33.045 8.009,29.747 7.989,26.344 7.952,20.047 7.914,13.535 7.803,6.425 7.694,1.356 2.847,0 0,0" style="fill:#ffffff;fill-opacity:1;fill-rule:nonzero;stroke:none" id="path90"/>
        </g>
        <g id="g92" transform="translate(484.5527,224.7439)">
          <path d="m 0,0 c -4.792,0 -9.644,1.168 -13.663,3.289 -3.704,1.984 -5.359,5.025 -4.528,8.339 0.789,3.144 3.604,5.516 6.547,5.516 1.319,0 2.637,-0.449 3.918,-1.331 0.893,-0.679 3.78,-2.69 6.558,-2.69 1.834,0 3.292,0.885 3.999,2.428 0.013,0.03 0.026,0.06 0.039,0.091 0.351,0.857 0.891,3.074 -1.664,5.136 -1.085,0.875 -2.517,1.59 -4.032,2.346 l -0.304,0.152 c -0.028,0.014 -0.055,0.027 -0.083,0.039 -10.173,4.609 -13.803,9.36 -13.874,18.158 -0.019,4.4 1.437,8.108 4.329,11.013 3.565,3.581 9.063,5.635 15.083,5.635 5.186,0 9.984,-1.524 13.511,-4.292 3.323,-2.564 2.964,-5.444 2.456,-6.933 -0.979,-2.87 -3.864,-5.034 -6.713,-5.034 -1.291,0 -2.537,0.422 -3.705,1.255 -0.941,0.702 -2.789,1.86 -4.744,1.86 -1.566,0 -2.902,-0.757 -3.666,-2.077 -0.017,-0.028 -0.033,-0.057 -0.048,-0.087 -0.425,-0.81 -1.147,-2.921 1.301,-5.026 0.979,-0.842 2.29,-1.565 3.808,-2.404 0.496,-0.274 1.01,-0.557 1.527,-0.855 C 16.643,28.554 20.272,23.212 19.459,14.809 19.033,10.051 16.916,6.318 13.167,3.698 9.753,1.313 5.078,0 0,0" style="fill:#ffffff;fill-opacity:1;fill-rule:nonzero;stroke:none" id="path94"/>
        </g>
        <g id="g96" transform="translate(261.3179,155.5612)">
          <path d="m 0,0 v 0.063 c 0,6.292 4.9,11.446 11.603,11.446 3.352,0 5.564,-0.759 7.556,-2.15 0.474,-0.348 1.012,-1.011 1.012,-1.961 0,-1.328 -1.075,-2.402 -2.403,-2.402 -0.695,0 -1.138,0.253 -1.486,0.506 C 14.955,6.45 13.532,7.02 11.445,7.02 7.904,7.02 5.09,3.89 5.09,0.127 V 0.063 c 0,-4.046 2.783,-7.018 6.702,-7.018 1.771,0 3.352,0.442 4.585,1.328 v 3.161 h -3.288 c -1.17,0 -2.118,0.917 -2.118,2.087 0,1.17 0.948,2.118 2.118,2.118 h 5.564 c 1.36,0 2.435,-1.075 2.435,-2.434 V -6.07 c 0,-1.422 -0.538,-2.403 -1.708,-3.098 -1.801,-1.106 -4.425,-2.213 -7.745,-2.213 C 4.742,-11.381 0,-6.544 0,0" style="fill:#f15847;fill-opacity:1;fill-rule:nonzero;stroke:none" id="path98"/>
        </g>
        <g id="g100" transform="translate(285.4043,164.446)">
          <path d="M 0,0 C 0,1.359 1.075,2.435 2.435,2.435 3.794,2.435 4.869,1.359 4.869,0 v -17.642 c 0,-1.36 -1.075,-2.434 -2.434,-2.434 -1.36,0 -2.435,1.074 -2.435,2.434 z" style="fill:#f15847;fill-opacity:1;fill-rule:nonzero;stroke:none" id="path102"/>
        </g>
        <g id="g104" transform="translate(299.8193,146.1404)">
          <path d="m 0,0 -7.177,17.167 c -0.158,0.38 -0.284,0.759 -0.284,1.17 0,1.359 1.075,2.403 2.434,2.403 1.265,0 2.087,-0.727 2.466,-1.708 L 2.972,4.711 8.568,19.19 c 0.316,0.791 1.17,1.55 2.34,1.55 1.327,0 2.403,-1.011 2.403,-2.34 0,-0.379 -0.127,-0.79 -0.253,-1.075 L 5.817,0 C 5.312,-1.202 4.395,-1.929 3.067,-1.929 H 2.751 C 1.423,-1.929 0.506,-1.202 0,0" style="fill:#f15847;fill-opacity:1;fill-rule:nonzero;stroke:none" id="path106"/>
        </g>
        <g id="g108" transform="translate(314.959,146.9939)">
          <path d="m 0,0 v 17.263 c 0,1.359 1.075,2.433 2.435,2.433 h 12.267 c 1.201,0 2.181,-0.979 2.181,-2.18 0,-1.203 -0.98,-2.151 -2.181,-2.151 H 4.837 v -4.489 h 8.442 c 1.201,0 2.181,-0.98 2.181,-2.182 0,-1.201 -0.98,-2.15 -2.181,-2.15 H 4.837 V 1.896 h 10.022 c 1.202,0 2.182,-0.979 2.182,-2.18 0,-1.202 -0.98,-2.151 -2.182,-2.151 H 2.435 C 1.075,-2.435 0,-1.359 0,0" style="fill:#f15847;fill-opacity:1;fill-rule:nonzero;stroke:none" id="path110"/>
        </g>
        <g id="g112" transform="translate(352.355,148.8279)">
          <path d="m 0,0 c 2.15,0 3.446,0.759 3.446,2.402 v 0.064 c 0,1.486 -1.107,2.402 -3.604,2.402 H -5.786 V 0 Z m -1.296,8.915 c 2.15,0 3.509,0.696 3.509,2.34 v 0.063 c 0,1.454 -1.138,2.277 -3.193,2.277 h -4.806 v -4.68 z m -9.232,6.514 c 0,1.359 1.074,2.433 2.434,2.433 h 7.841 c 2.529,0 4.521,-0.695 5.786,-1.96 C 6.544,14.891 7.05,13.658 7.05,12.141 V 12.077 C 7.05,9.579 5.722,8.188 4.142,7.303 6.703,6.323 8.283,4.837 8.283,1.865 V 1.802 C 8.283,-2.245 4.995,-4.269 0,-4.269 h -8.094 c -1.36,0 -2.434,1.076 -2.434,2.435 z" style="fill:#f15847;fill-opacity:1;fill-rule:nonzero;stroke:none" id="path114"/>
        </g>
        <g id="g116" transform="translate(375.208,153.823)">
          <path d="M 0,0 -3.066,7.303 -6.133,0 Z m -13.689,-6.134 7.714,17.421 c 0.538,1.201 1.517,1.929 2.845,1.929 h 0.285 c 1.327,0 2.276,-0.728 2.814,-1.929 L 7.683,-6.134 c 0.158,-0.347 0.253,-0.664 0.253,-0.979 0,-1.297 -1.012,-2.34 -2.308,-2.34 -1.138,0 -1.897,0.664 -2.34,1.676 L 1.802,-4.3 h -9.738 l -1.548,-3.636 c -0.412,-0.949 -1.234,-1.517 -2.245,-1.517 -1.265,0 -2.245,1.012 -2.245,2.276 0,0.348 0.126,0.696 0.285,1.043" style="fill:#f15847;fill-opacity:1;fill-rule:nonzero;stroke:none" id="path118"/>
        </g>
        <g id="g120" transform="translate(383.2974,155.5612)">
          <path d="m 0,0 v 0.063 c 0,6.292 4.742,11.446 11.54,11.446 3.319,0 5.564,-0.886 7.398,-2.245 0.506,-0.379 0.948,-1.075 0.948,-1.928 0,-1.328 -1.074,-2.372 -2.402,-2.372 -0.664,0 -1.107,0.253 -1.455,0.474 C 14.67,6.45 13.247,7.02 11.508,7.02 7.777,7.02 5.09,3.921 5.09,0.127 V 0.063 c 0,-3.793 2.624,-6.955 6.418,-6.955 2.055,0 3.415,0.632 4.806,1.739 0.379,0.316 0.885,0.538 1.454,0.538 1.233,0 2.276,-1.012 2.276,-2.245 0,-0.759 -0.379,-1.36 -0.821,-1.74 -1.992,-1.738 -4.332,-2.781 -7.873,-2.781 C 4.837,-11.381 0,-6.354 0,0" style="fill:#f15847;fill-opacity:1;fill-rule:nonzero;stroke:none" id="path122"/>
        </g>
        <g id="g124" transform="translate(405.7085,164.446)">
          <path d="M 0,0 C 0,1.359 1.075,2.435 2.435,2.435 3.794,2.435 4.869,1.359 4.869,0 v -7.43 l 8.979,8.916 c 0.601,0.601 1.201,0.949 2.055,0.949 1.359,0 2.245,-1.044 2.245,-2.246 0,-0.758 -0.348,-1.328 -0.886,-1.834 l -6.228,-5.817 6.798,-8.536 c 0.379,-0.475 0.664,-0.981 0.664,-1.707 0,-1.359 -1.044,-2.371 -2.467,-2.371 -0.948,0 -1.517,0.473 -2.055,1.17 l -6.323,8.283 -2.782,-2.593 v -4.426 c 0,-1.36 -1.075,-2.434 -2.434,-2.434 -1.36,0 -2.435,1.074 -2.435,2.434 z" style="fill:#f15847;fill-opacity:1;fill-rule:nonzero;stroke:none" id="path126"/>
        </g>
        <g id="g128" transform="translate(439.0566,162.2009)">
          <path d="m 0,0 h -4.679 c -1.233,0 -2.245,1.012 -2.245,2.245 0,1.233 1.012,2.244 2.245,2.244 H 9.548 c 1.233,0 2.245,-1.011 2.245,-2.244 C 11.793,1.012 10.781,0 9.548,0 H 4.869 v -15.396 c 0,-1.361 -1.075,-2.435 -2.434,-2.435 -1.36,0 -2.435,1.074 -2.435,2.435 z" style="fill:#f15847;fill-opacity:1;fill-rule:nonzero;stroke:none" id="path130"/>
        </g>
        <g id="g132" transform="translate(452.4893,164.446)">
          <path d="M 0,0 C 0,1.359 1.075,2.435 2.435,2.435 3.795,2.435 4.869,1.359 4.869,0 v -6.513 h 8.98 V 0 c 0,1.359 1.075,2.435 2.434,2.435 1.36,0 2.434,-1.076 2.434,-2.435 v -17.642 c 0,-1.36 -1.074,-2.434 -2.434,-2.434 -1.359,0 -2.434,1.074 -2.434,2.434 v 6.639 h -8.98 v -6.639 c 0,-1.36 -1.074,-2.434 -2.434,-2.434 -1.36,0 -2.435,1.074 -2.435,2.434 z" style="fill:#f15847;fill-opacity:1;fill-rule:nonzero;stroke:none" id="path134"/>
        </g>
        <g id="g136" transform="translate(474.6162,146.9939)">
          <path d="m 0,0 v 17.263 c 0,1.359 1.074,2.433 2.434,2.433 h 12.267 c 1.201,0 2.182,-0.979 2.182,-2.18 0,-1.203 -0.981,-2.151 -2.182,-2.151 H 4.837 v -4.489 h 8.441 c 1.201,0 2.182,-0.98 2.182,-2.182 0,-1.201 -0.981,-2.15 -2.182,-2.15 H 4.837 V 1.896 h 10.022 c 1.202,0 2.182,-0.979 2.182,-2.18 0,-1.202 -0.98,-2.151 -2.182,-2.151 H 2.434 C 1.074,-2.435 0,-1.359 0,0" style="fill:#f15847;fill-opacity:1;fill-rule:nonzero;stroke:none" id="path138"/>
        </g>
        <g id="g140" transform="translate(501.4834,164.446)">
          <path d="M 0,0 C 0,1.359 1.074,2.435 2.434,2.435 3.793,2.435 4.868,1.359 4.868,0 v -15.461 h 9.011 c 1.233,0 2.213,-0.979 2.213,-2.213 0,-1.232 -0.98,-2.213 -2.213,-2.213 H 2.434 c -1.36,0 -2.434,1.075 -2.434,2.435 z" style="fill:#f15847;fill-opacity:1;fill-rule:nonzero;stroke:none" id="path142"/>
        </g>
        <g id="g144" transform="translate(535.3408,155.5612)">
          <path d="m 0,0 v 0.063 c 0,3.794 -2.783,6.957 -6.703,6.957 -3.92,0 -6.64,-3.099 -6.64,-6.893 V 0.063 c 0,-3.793 2.782,-6.955 6.703,-6.955 C -2.72,-6.892 0,-3.793 0,0 m -18.433,0 v 0.063 c 0,6.292 4.964,11.446 11.793,11.446 6.829,0 11.73,-5.09 11.73,-11.382 V 0.063 c 0,-6.291 -4.964,-11.444 -11.793,-11.444 -6.829,0 -11.73,5.09 -11.73,11.381" style="fill:#f15847;fill-opacity:1;fill-rule:nonzero;stroke:none" id="path146"/>
        </g>
        <g id="g148" transform="translate(547.9824,146.1404)">
          <path d="m 0,0 -7.177,17.167 c -0.158,0.38 -0.285,0.759 -0.285,1.17 0,1.359 1.075,2.403 2.435,2.403 1.264,0 2.087,-0.727 2.465,-1.708 L 2.972,4.711 8.567,19.19 c 0.317,0.791 1.17,1.55 2.34,1.55 1.328,0 2.403,-1.011 2.403,-2.34 0,-0.379 -0.126,-0.79 -0.252,-1.075 L 5.817,0 C 5.312,-1.202 4.395,-1.929 3.066,-1.929 H 2.75 C 1.423,-1.929 0.506,-1.202 0,0" style="fill:#f15847;fill-opacity:1;fill-rule:nonzero;stroke:none" id="path150"/>
        </g>
        <g id="g152" transform="translate(563.1221,146.9939)">
          <path d="m 0,0 v 17.263 c 0,1.359 1.074,2.433 2.434,2.433 h 12.267 c 1.201,0 2.182,-0.979 2.182,-2.18 0,-1.203 -0.981,-2.151 -2.182,-2.151 H 4.837 v -4.489 h 8.441 c 1.201,0 2.182,-0.98 2.182,-2.182 0,-1.201 -0.981,-2.15 -2.182,-2.15 H 4.837 V 1.896 h 10.022 c 1.202,0 2.182,-0.979 2.182,-2.18 0,-1.202 -0.98,-2.151 -2.182,-2.151 H 2.434 C 1.074,-2.435 0,-1.359 0,0" style="fill:#f15847;fill-opacity:1;fill-rule:nonzero;stroke:none" id="path154"/>
        </g>
      </g>
    </g>
  </g>
</svg>