<?xml version="1.0" encoding="utf-8"?>
<svg version="1.1" x="0px" y="0px" viewBox="0 213.633 624.225 579.817" style="enable-background:new 0 0 2000 1080;" xmlns="http://www.w3.org/2000/svg">
  <style type="text/css">
	.st0{fill:#FFFFFF;}
	.st1{fill:#F05848;}
</style>
  <g id="Layer_2"/>
  <g id="Layer_3"/>
  <g id="Layer_4"/>
  <g id="Layer_5"/>
  <g id="Layer_6"/>
  <g transform="matrix(1, 0, 0, 1, -1299.30481, -2.842009)">
    <g>
      <path class="st1" d="M1469.6,600.5c2.3,16.6,11.4,23.6,12.8,34.3c1.8,13.5,3.4,69.5-1.3,69.5c-4.7,0-16.4,11.7-18.7,21.1 c-2.3,9.4,25.7,4.7,25.7,4.7s18.7-2.3,18.7-35.1c0-12.6-1.4-32.2-3.1-51.6C1500.9,612.6,1467.5,585.8,1469.6,600.5z"/>
      <path class="st1" d="M1474.5,732.4c-5.1,0-10.2-0.7-12.3-3c-1.1-1.2-1.4-2.7-1-4.3c2.4-9.6,14.1-21.6,19.6-21.9 c3.3-3.9,2.2-53.8,0.4-68.2c-0.6-4.6-2.7-8.5-5.1-13c-3-5.6-6.4-12-7.7-21.4l0,0c-0.3-2.3,0.1-3.9,1.3-4.8 c1.3-1,3.1-0.9,5.5,0.2c9,4,27.6,24.3,29.6,47.3c2.1,23.3,3.1,40.7,3.1,51.7c0,33.4-18.9,36.2-19.7,36.3 C1487,731.4,1480.7,732.4,1474.5,732.4z M1470.7,600.3c1.3,9,4.5,15.1,7.5,20.6c2.4,4.5,4.7,8.8,5.3,13.8 c1.4,10.7,3.5,64.9-1,70.1c-0.5,0.6-1.1,0.7-1.5,0.7c-4,0-15.4,11.3-17.6,20.2c-0.3,1.2,0.1,1.8,0.4,2.2c3.3,3.6,18.4,2,24,1.1 c0.8-0.1,17.7-2.7,17.7-34c0-10.9-1-28.2-3.1-51.5c-2-22.1-19.7-41.6-28.3-45.4c-1.5-0.7-2.6-0.8-3.1-0.4 C1470.7,598,1470.5,599,1470.7,600.3L1470.7,600.3z"/>
    </g>
    <g>
      <path class="st1" d="M1777.3,648.8c13.8,15.6,22.1,20.4,22.1,32.1s2.3,28.1-4.7,28.1c-7,0-14,11.7-14,16.4 c0,4.7,28.1,2.3,28.1,2.3s9.5,2.3,11.7-30.4c2.3-35.1-23.4-35.1-30.4-39.8C1782.9,652.8,1777.3,648.8,1777.3,648.8z"/>
      <path class="st1" d="M1794.9,729.5c-6.3,0-12.6-0.5-14.6-2.3c-0.7-0.6-0.8-1.3-0.8-1.8c0-4.9,7.2-17.6,15.2-17.6 c0.7,0,1.3-0.2,1.8-0.7c2.5-2.6,2.2-11.2,1.9-18.8c-0.1-2.5-0.2-5.1-0.2-7.4c0-8.3-4.5-13-12.6-21.4c-2.7-2.8-5.8-6-9.2-9.9 l-6.7-7.6l8.2,5.8c0.1,0,5.7,4.1,12.7,8.7c1.3,0.9,3.4,1.6,5.8,2.4c10.1,3.5,27.1,9.4,25.1,38.4c-1.4,20.5-5.7,27.8-9.1,30.3 c-1.8,1.3-3.3,1.3-3.8,1.2C1806.5,729.1,1800.7,729.5,1794.9,729.5z M1785.3,655.8c0.7,0.7,1.3,1.4,2,2.1 c8.2,8.6,13.2,13.8,13.2,23.1c0,2.3,0.1,4.8,0.2,7.3c0.3,8.8,0.6,17.2-2.6,20.5c-0.9,1-2.1,1.5-3.5,1.5 c-6.3,0-12.9,11.3-12.9,15.2c0.7,1.7,13.2,2.3,26.8,1.2l0.2,0l0.2,0l0,0c0,0,1,0.1,2.3-0.9c2.4-1.9,6.6-8.1,8-28.4 c1.8-27.2-13.5-32.5-23.6-36c-2.6-0.9-4.8-1.7-6.3-2.7C1787.9,657.5,1786.5,656.6,1785.3,655.8z"/>
    </g>
    <g>
      <path class="st0" d="M1709.8,608.4c-47.6-6.3-76.7-1.7-102.3,9.4c-25.6,11.1-74.2,10.2-88.3,2.7l-3.7-30.7l183.7-25.4 c0,0,26.5,32.3,19.5,35.7S1709.8,608.4,1709.8,608.4z"/>
      <path class="st1" d="M1557,627.4c-16.6,0-31.5-2.2-38.4-5.8l1.1-2.1c13.4,7.1,61.6,8.4,87.3-2.7c28.6-12.4,59.8-15.3,103.4-9.5 l-0.8,2.3c-43.1-5.7-73.5-2.9-101.7,9.3C1594.2,624.9,1574.7,627.4,1557,627.4z"/>
    </g>
    <g>
      <path class="st0" d="M1520.5,598.8c-1.1,21.3-2,34.3-2,40c0,11.7,9.2,53,6.9,64.7s-13.9,28.9-18.6,33.6 c-4.7,4.7-25.7,2.3-28.1,0s0-14,9.4-18.7c9.4-4.7,9.4,2.3,11.7-30.4s-6.8-50.2-15.3-58.6c-12.2-12-27.1-27.1-32.7-38.9 c-5-10.6-32.4-41.5-37.1-57.9c-4.7-16.4-6.3-27.5-9.7-51.7c-3.5-25-7.7-47.5-14.7-59.2l74.3-32.5c15.8,9.3,36.7,34.5,44,40.3 c11.7,9.4,35.4,15.9,46.4,20.4c59.4,24.4,137.4,4.8,172.3,9.5c7,0.9,34.5,7.2,59.1,31.8c14,14,17.4,38.3,20.2,50.6 c7.1,30,49.5,86.8,47.2,86.8s-32.3-13.3-43.8-26.1c-9.1-10.2-27.5-35.5-27.9-45.5"/>
      <path class="st1" d="M1494.6,740.9c-7.3,0-15.1-1.4-16.7-3c-1.1-1.1-1.4-3.3-1-6c0.8-4.7,4-11.3,10.7-14.6 c1.8-0.9,3.2-1.4,4.4-1.8c4.6-1.5,4.8-1.6,6.7-27.7c2.5-34.9-8.3-51.2-14.9-57.7c-13-12.8-27.4-27.5-32.9-39.2 c-1.9-3.9-7-10.9-12.9-18.9c-9.5-12.9-21.3-28.8-24.3-39.2c-4.7-16.6-6.4-27.9-9.7-51.8c-3.1-22.2-7.2-46.6-14.5-58.8l-0.7-1.1 l76.1-33.3l0.5,0.3c10.7,6.3,23.7,19.8,33.2,29.6c4.6,4.8,8.6,8.9,10.9,10.8c8.5,6.8,23.4,12.1,35.4,16.3 c4.2,1.5,7.9,2.8,10.8,4c39.3,16.2,86.7,12.9,124.7,10.3c19.1-1.3,35.5-2.4,47.3-0.8c3.3,0.4,32.9,5.2,59.8,32.1 c12.3,12.3,16.5,32.2,19.3,45.3c0.5,2.1,0.9,4.1,1.3,5.8c4.9,20.7,27.1,54.8,39.1,73.2c8.4,12.9,8.6,13.4,8.1,14.4l-0.3,0.6 l-0.8,0c-2.8,0-32.9-13.4-44.6-26.5c-7.9-8.8-27.8-35.4-28.2-46.2l2.3-0.1c0.3,9.4,18.4,34.5,27.6,44.7 c9.8,11,33.5,22.3,40.9,25.1c-1.4-2.3-4.1-6.5-6.9-10.8c-12-18.5-34.4-52.8-39.4-73.9c-0.4-1.7-0.8-3.7-1.3-5.9 c-2.7-12.9-6.8-32.3-18.6-44.1c-26.8-26.8-57.2-31.3-58.5-31.4c-11.5-1.6-27.9-0.4-46.8,0.9c-38.3,2.6-85.9,5.9-125.7-10.5 c-2.8-1.2-6.5-2.4-10.7-3.9c-12.1-4.3-27.2-9.6-36-16.7c-2.5-2-6.3-6-11.1-11c-9.2-9.6-21.8-22.7-32.2-28.9l-72.6,31.8 c7.1,12.8,11.1,36.7,14.2,58.5c3.3,23.8,5,35.1,9.7,51.5c2.8,9.9,14.5,25.7,23.9,38.4c6,8.1,11.2,15.2,13.1,19.3 c5.4,11.4,19.5,25.9,32.4,38.6c6.9,6.8,18.2,23.7,15.6,59.5c-1.9,26.6-2.2,27.7-8.3,29.8c-1.1,0.4-2.5,0.8-4.1,1.6 c-5.9,2.9-8.7,8.8-9.4,12.9c-0.4,2.5,0.1,3.7,0.3,4c0.6,0.6,5.3,2,12.4,2.3c6.9,0.3,12.3-0.5,14-2.3c4.4-4.4,15.9-21.5,18.2-33 c1.4-6.8-1.4-24.4-3.8-39.9c-1.7-10.6-3.1-19.8-3.1-24.5c0-4.1,0.4-11.9,1.1-23.7c0.3-4.8,0.6-10.2,0.9-16.3l2.3,0.1 c-0.3,6.1-0.6,11.6-0.9,16.3c-0.7,11.8-1.1,19.6-1.1,23.6c0,4.6,1.5,14.1,3.1,24.1c2.5,15.7,5.2,33.5,3.8,40.8 c-2.3,11.7-13.7,29-18.9,34.2C1505.4,740.1,1500.1,740.9,1494.6,740.9z"/>
    </g>
    <g>
      <path class="st0" d="M1694.8,571.1c0,19.8,27.9,63.6,58.3,80.5c36,20.1,61.5,28.7,62.6,31.6c2.4,6.6,0,35.1-4.7,35.1 c-4.7,0-11.7,7-11.7,14c0,7,28.6,4.7,30.9,0c2.3-4.7,3.7-16.7,6.5-32.8c2.2-12.7,2-34.7-5.3-38.3c-18.9-9.4-41.8-54.1-46.4-72.8 c-4.7-18.7,0.2-50.4-9.1-66.8"/>
      <path class="st1" d="M1812,738c-3.1,0-5.9-0.2-8.1-0.8c-4.8-1.1-5.8-3.3-5.8-4.9c0-7.5,7.5-15.2,12.9-15.2c0,0,0.3-0.1,0.7-0.8 c3.3-5.6,4.8-27.3,2.8-32.7c-0.6-1-6.9-3.8-14.2-7.1c-11.1-5.1-27.9-12.7-47.9-23.8c-29.8-16.6-58.9-60.7-58.9-81.6h2.3 c0,20.2,28.5,63.3,57.7,79.5c19.9,11.1,36.6,18.7,47.7,23.7c11.2,5.1,14.8,6.8,15.4,8.5c2.3,6.2,0.6,29.6-3.3,35.1 c-0.7,1-1.6,1.6-2.5,1.6c-3.9,0-10.5,6.4-10.5,12.9c0,1.4,2.5,2.2,3.9,2.6c8.7,2.1,23.6-0.6,24.8-3.1c1.6-3.3,2.8-10.5,4.4-20.6 c0.6-3.6,1.2-7.6,2-11.9c2.3-13.3,1.7-33.9-4.7-37c-18.9-9.4-42.1-53.9-47-73.6c-1.9-7.7-2.2-17.3-2.6-27.4 c-0.5-14.5-1-29.5-6.4-39.1l2-1.2c5.7,10,6.2,25.3,6.7,40.1c0.3,10,0.6,19.5,2.5,26.9c4.8,19.3,27.5,62.9,45.8,72 c8.3,4.1,8,27.8,5.9,39.5c-0.7,4.3-1.4,8.3-2,11.9c-1.7,10.2-2.8,17.6-4.6,21.3C1829.7,736.2,1820.1,738,1812,738z"/>
    </g>
    <g>
      <path class="st1" d="M1685.7,543.3l-2.3-0.1c0-0.7,0.8-16.8,5.5-22.2l1.8,1.5C1686.4,527.3,1685.7,543.1,1685.7,543.3z"/>
      <path class="st1" d="M1652.3,589.5v-2.3c14.7,0,21.4-13.4,21.5-13.6l2.1,1C1675.6,575.2,1668.4,589.5,1652.3,589.5z"/>
      <path class="st1" d="M1672.2,596.2c-0.9,0-1.9,0-3-0.1l0.2-2.3c11.1,1,14.1-3.9,14.1-3.9l2,1.2 C1685.4,591.2,1682.5,596.2,1672.2,596.2z"/>
      <path class="st1" d="M1562.7,596.2c-0.6-0.1-13.9-1.6-23.7-6.8l1.1-2.1c9.4,5,22.7,6.6,22.8,6.6L1562.7,596.2z"/>
      <path class="st1" d="M1553.5,617c-0.3-0.1-6.5-1.6-14.5-5.8l1.1-2.1c7.8,4,13.9,5.5,14,5.6L1553.5,617z"/>
      <path class="st1" d="M1509.9,480.9l-2.3-0.2c0-0.4,0.7-10,2.9-13.7l2,1.2C1510.9,470.9,1510,478.3,1509.9,480.9z"/>
      <path class="st1" d="M1526.8,623.5l-2-1.2c0.1-0.1,6-10,5.6-16.7l2.3-0.1C1533.1,612.9,1527,623.1,1526.8,623.5z"/>
    </g>
    <g>
      <path class="st0" d="M1434.2,367.3c0,0-7,46.8,4.7,46.8c11.7,0,29.9-23,30.3-27.7c0.3-4.2-15.2-46.2-48-46.2 c-38.3,0-43.1,22.4-50.1,29.4c-7,7-30.4,9.4-32.8,18.7c-2.3,9.4,15.6,35.7,20.3,38c4.7,2.3,69.4,10.4,75.7-16.3"/>
      <path class="st1" d="M1387.6,430.5c-14.8,0-27.6-2.1-29.6-3.1c-5-2.5-23.5-29.2-20.9-39.4c1.5-6,10.3-9.2,18.8-12.3 c5.7-2.1,11.6-4.2,14.3-7c1.3-1.3,2.6-3.3,4.1-5.6c6.2-9.6,15.7-24.1,46.8-24.1c11.8,0,22.5,5.2,31.9,15.4 c11.5,12.5,17.5,29.1,17.2,32.1c-0.4,5-18.7,28.8-31.4,28.8c-1.6,0-3-0.7-4.1-2c-0.1-0.1-0.2-0.2-0.2-0.3 c-2,4.9-6.1,8.8-12.2,11.7C1412.7,429.2,1399.6,430.5,1387.6,430.5z M1421.2,341.4c-29.9,0-38.9,13.9-44.9,23 c-1.6,2.4-2.9,4.5-4.4,6c-3.1,3.1-9,5.3-15.2,7.5c-7.9,2.9-16.1,5.8-17.3,10.7c-2.2,8.7,15.7,34.7,19.7,36.7 c3.3,1.6,41.8,6.7,62.2-2.8c6.4-3,10.4-7.2,11.7-12.4c-4.5-11.9-0.2-41.6,0-43l2.3,0.3c-1.5,10.2-4.3,37.9,1.2,44.3 c0.7,0.8,1.4,1.2,2.3,1.2c10.9,0,28.8-22.7,29.1-26.6c0.1-1.9-5-17.7-16.6-30.3C1442.4,346.3,1432.3,341.4,1421.2,341.4z"/>
    </g>
    <g>
      <path class="st0" d="M1338.3,383.7c4.7-2.3,9.4-2.3,9.4,4.7c0,7-7,11.7-9.4,9.4C1335.9,395.4,1333.6,386,1338.3,383.7z"/>
      <path class="st1" d="M1339.9,399.5c-1,0-1.8-0.3-2.4-1c-1.9-1.9-3.5-7.1-2.9-11.1c0.4-2.3,1.5-4,3.2-4.9c3.5-1.7,6.3-2,8.3-0.8 c1.8,1.1,2.7,3.3,2.7,6.5c0,5.2-3.4,9.3-6.7,10.7C1341.3,399.3,1340.6,399.5,1339.9,399.5z M1343.2,383.5 c-1.2,0-2.7,0.4-4.4,1.3c-1,0.5-1.7,1.6-1.9,3.1c-0.6,3.4,1,7.7,2.2,9c0.4,0.4,1.1,0.4,2.1,0c2.6-1.1,5.3-4.4,5.3-8.5 c0-2.3-0.5-3.8-1.6-4.5C1344.4,383.6,1343.9,383.5,1343.2,383.5z"/>
    </g>
  </g>
</svg>