<?xml version="1.0" encoding="utf-8"?>
<svg version="1.1" x="0px" y="0px" viewBox="0 213.633 624.225 579.817" style="enable-background:new 0 0 2000 1080;" xmlns="http://www.w3.org/2000/svg">
  <style type="text/css">
	.st0{fill:#FFFFFF;}
	.st1{fill:#F05848;}
</style>
  <g id="Layer_2"/>
  <g id="Layer_3"/>
  <g id="Layer_4"/>
  <g id="Layer_5"/>
  <g id="Layer_6"/>
  <g transform="matrix(1, 0, 0, 1, -705.102417, -0.920303)">
    <path class="st0" d="M920.8,590.7c29.5,7,58.7-3.5,79.8-10.5c21.1-7,69-24.6,108.8-24.6l5.4-24.4c0,0-167.2-57.9-181.2-50.6 C919.7,487.9,920.8,590.7,920.8,590.7z"/>
    <path class="st1" d="M941.2,594.1c-6.8,0-13.7-0.7-20.7-2.3c-0.6-0.1-1-0.8-0.9-1.4c0.1-0.6,0.8-1,1.4-0.9 c27.9,6.7,56-2.7,76.5-9.6l2.7-0.9c1.8-0.6,3.9-1.3,6.1-2c23.3-7.9,66.6-22.6,103.1-22.6c0.6,0,1.2,0.5,1.2,1.2 c0,0.6-0.5,1.2-1.2,1.2c-36.1,0-79.2,14.6-102.4,22.5c-2.2,0.7-4.2,1.4-6.1,2l-2.7,0.9C982.6,587.4,962.5,594.1,941.2,594.1z"/>
    <path class="st1" d="M871.3,557.9c1.8,23.4,6.5,67.9,13.5,79.6c7,11.7,7,65.5,2.3,65.5c-4.7,0-16.4,11.7-18.7,21.1 s25.7,4.7,25.7,4.7s18.7-2.3,18.7-35.1c0-32.8-9.4-112.3-9.4-112.3l-23.4-30.4L871.3,557.9z"/>
    <path class="st1" d="M880.6,731.1c-5.1,0-10.2-0.7-12.3-3c-1.1-1.2-1.4-2.7-1-4.3c2.4-9.6,14.1-21.7,19.7-21.9 c3.3-3.5,3.7-52.4-3.1-63.8c-7.9-13.2-12.5-64.6-13.7-80.1l-0.1-0.6l10.3-8.1l24.3,31.6l0,0.3c0.1,0.8,9.4,80,9.4,112.5 c0,33.4-18.9,36.2-19.7,36.3C893.1,730.1,886.8,731.1,880.6,731.1z M872.5,558.4c2.5,31.4,7.3,68.4,13.3,78.4 c6.7,11.2,7.1,59.2,3.3,65.9c-0.6,1.1-1.4,1.4-1.9,1.4c-4,0-15.4,11.3-17.6,20.2c-0.3,1.2,0.1,1.8,0.4,2.2c3.3,3.6,18.4,2,24,1.1 c0.8-0.1,17.7-2.7,17.7-34c0-31.3-8.7-106.3-9.3-111.9l-22.5-29.2L872.5,558.4z"/>
    <path class="st1" d="M1172.9,638.2c13.8,15.6,32.5,29.7,32.5,41.4s2.3,28.1-4.7,28.1s-14,11.7-14,16.4s28.1,2.3,28.1,2.3 s9.5,2.3,11.7-30.4c2.3-35.1-23.4-35.1-30.4-39.8C1189,651.5,1172.9,638.2,1172.9,638.2z"/>
    <path class="st1" d="M1201,728.2c-6.3,0-12.6-0.5-14.6-2.3c-0.7-0.6-0.8-1.3-0.8-1.8c0-4.9,7.2-17.6,15.2-17.6 c0.7,0,1.3-0.2,1.8-0.7c2.5-2.6,2.2-11.2,1.9-18.8c-0.1-2.5-0.2-5.1-0.2-7.4c0-7.9-9.6-17.5-19.8-27.6c-4.2-4.2-8.5-8.5-12.5-13 l1.6-1.7c0.2,0.1,16.2,13.3,23.1,17.9c1.3,0.9,3.4,1.6,5.8,2.4c10.1,3.5,27.1,9.4,25.1,38.4c-1.4,20.5-5.7,27.8-9.1,30.3 c-1.8,1.3-3.3,1.3-3.8,1.2C1212.6,727.8,1206.8,728.2,1201,728.2z M1186.2,650.3c11,11,20.4,20.4,20.4,29.3 c0,2.3,0.1,4.8,0.2,7.3c0.3,8.8,0.6,17.2-2.6,20.5c-0.9,1-2.1,1.5-3.5,1.5c-6.3,0-12.9,11.3-12.9,15.2c0.7,1.7,13.3,2.3,26.8,1.2 l0.2,0l0.2,0l0,0c0,0,1,0.1,2.3-0.9c2.4-1.9,6.6-8.1,8-28.4c1.8-27.2-13.5-32.5-23.6-36c-2.6-0.9-4.8-1.7-6.3-2.7 C1193,655.6,1189.6,653,1186.2,650.3z"/>
    <path class="st0" d="M938.6,499.4c0,7-9.4,16.4-9.4,35.1c0,18.7-4.7,91.3-4.7,103s4.7,53.8,2.3,65.5s-9.4,28.1-14,32.8 c-4.7,4.7-25.7,2.3-28.1,0s0-14,9.4-18.7c9.4-4.7,9.4,2.3,11.7-30.4s-7-46.8-9.4-58.5s-4.7-53.8-14-60.8 c-9.4-7-39.8-35.1-44.5-51.5c-4.7-16.4-4.7-42.1-11.7-65.5c-7-23.4-14-25.7-21.1-37.4l65.5-23.4c2.3,13.3,37.2,36.3,44.5,42.1 c11.7,9.4,37.4,23.4,49.1,25.7c9.7,1.9,137,9.4,161.5,9.4c7,0,29.2-1.2,53.8,23.4c14,14,24.5,46.4,28.1,58.5 c7,23.4,58.5,77.2,56.2,77.2s-35.1-18.7-46.8-25.7c-11.7-7-31.8-25.2-32.8-44.5"/>
    <path class="st1" d="M900.7,739.6c-7.3,0-15.1-1.4-16.7-3c-1.1-1.1-1.4-3.3-1-6c0.8-4.7,4-11.3,10.7-14.6 c1.8-0.9,3.2-1.4,4.4-1.8c4.6-1.5,4.8-1.6,6.7-27.7c1.7-24.1-3-38.1-6.4-48.3c-1.2-3.7-2.3-6.8-2.9-9.9 c-0.6-2.9-1.2-7.8-1.9-13.3c-2-16.7-5.1-41.8-11.7-46.8c-10.5-7.9-40.2-35.9-44.9-52.1c-2.1-7.4-3.3-16.7-4.5-26.6 c-1.5-12.2-3.3-26-7.2-38.9c-4.8-16-9.5-21.8-14.4-28c-2.1-2.7-4.4-5.5-6.6-9.2l-0.7-1.2l68.2-24.4l0.2,1.4 c1.9,10.5,26.3,28.4,38,36.9c2.7,1.9,4.8,3.5,6,4.5c11.5,9.2,37.1,23.2,48.6,25.5c9.6,1.9,137.7,9.3,161.3,9.3l0.9,0 c8.2,0,29.8-0.2,53.7,23.8c13.3,13.3,23.5,42.7,28.4,59c4.9,16.2,31.8,47.7,46.3,64.7c10.4,12.2,10.4,12.3,9.9,13.3l-0.3,0.7 l-0.8,0c-3.3,0-43.2-23.4-47.4-25.9c-12.9-7.7-32.4-26.2-33.3-45.4c0-0.6,0.5-1.2,1.1-1.2c0.7-0.1,1.2,0.5,1.2,1.1 c0.9,18.3,19.8,36.1,32.2,43.5c11.4,6.9,34.5,20,43.1,24.2c-1.8-2.2-4.6-5.5-7.5-8.8c-14.6-17.1-41.7-48.9-46.7-65.5 c-4.8-16.1-14.9-45.1-27.8-58c-23.3-23.3-44.2-23.1-52.1-23.1l-0.9,0c-24.7,0-151.6-7.4-161.7-9.4c-12.1-2.4-37.9-16.5-49.7-26 c-1.3-1-3.3-2.5-6-4.4c-12.4-9-35.1-25.6-38.6-37.1L807,413.4c1.9,3,3.8,5.4,5.6,7.7c4.8,6.1,9.9,12.4,14.8,28.8 c3.9,13.1,5.7,27,7.2,39.3c1.2,9.8,2.4,19,4.5,26.2c4.5,15.7,33.7,43.1,44,50.9c7.4,5.6,10.5,30.3,12.7,48.4 c0.7,5.5,1.3,10.3,1.8,13.2c0.6,2.9,1.6,6,2.8,9.6c3.5,10.4,8.3,24.6,6.5,49.2c-1.9,26.6-2.2,27.7-8.3,29.8 c-1.1,0.4-2.5,0.8-4.1,1.6c-5.9,2.9-8.7,8.8-9.4,12.9c-0.4,2.5,0.1,3.7,0.3,4c1.7,1.7,22.2,4.2,26.4,0 c4.5-4.5,11.4-20.7,13.7-32.2c1.5-7.6,0-28.4-1.2-45.1c-0.6-8.7-1.2-16.2-1.2-20.2c0-5.2,0.9-21.9,1.9-41.3 c1.3-24,2.7-51.3,2.7-61.7c0-11.9,3.7-20.1,6.4-26.2c1.6-3.6,2.9-6.5,2.9-8.9c0-0.6,0.5-1.2,1.2-1.2s1.2,0.5,1.2,1.2 c0,2.9-1.4,6-3.1,9.9c-2.8,6.2-6.2,13.9-6.2,25.2c0,10.5-1.5,37.8-2.8,61.8c-1,19.3-1.9,36-1.9,41.2c0,3.9,0.5,11.4,1.2,20 c1.2,16.9,2.7,37.9,1.2,45.8c-2.4,12-9.5,28.5-14.4,33.4C911.5,738.8,906.2,739.6,900.7,739.6z"/>
    <path class="st0" d="M1111.8,527.5c-7,11.7,0,49.1,4.7,60.8c4.7,11.7,35.1,30.4,60.8,53.8s44.5,32.8,44.5,39.8 c0,7,0,35.1-4.7,35.1s-11.7,7-11.7,14c0,7,25.7,7,28.1,2.3c2.3-4.7,9.4-18.7,9.4-35.1c0-16.4,0-32.8-9.4-39.8 c-9.4-7-44.5-44.5-49.1-63.2c-4.7-18.7,7-58.5-2.3-74.9"/>
    <path class="st1" d="M1220.8,737.9c-3.3,0-6.6-0.3-9.2-0.9c-6.1-1.4-7.3-4-7.3-5.8c0-7.5,7.5-15.2,12.9-15.2 c0.4-0.1,3.5-1.8,3.5-33.9c0-3.5-6.5-8.5-16.3-16c-7.6-5.8-17-13.1-27.8-22.9c-10-9.1-20.8-17.5-30.3-25 c-15.6-12.2-27.9-21.8-30.9-29.3c-4.8-12-11.9-49.8-4.6-61.9c0.3-0.6,1.1-0.7,1.6-0.4c0.6,0.3,0.7,1.1,0.4,1.6 c-6.6,11.1-0.1,47.7,4.8,59.8c2.7,6.9,15.4,16.8,30.2,28.3c9.5,7.5,20.4,16,30.4,25.1c10.7,9.7,20.1,17,27.7,22.8 c11.1,8.5,17.2,13.2,17.2,17.9c0,32-3,36.3-5.9,36.3c-3.9,0-10.5,6.4-10.5,12.9c0,1.4,2,2.7,5.5,3.6c7.9,1.9,19.2,0.5,20.3-1.7 c2.3-4.6,9.2-18.5,9.2-34.6c0-15.8,0-32.2-8.9-38.8c-9.7-7.3-44.9-45-49.6-63.8c-2.1-8.3-1-20.3,0.1-33 c1.4-16.1,2.8-32.7-2.3-41.6c-0.3-0.6-0.1-1.3,0.4-1.6c0.6-0.3,1.3-0.1,1.6,0.4c5.5,9.6,4,26.6,2.6,43 c-1.1,12.5-2.1,24.3-0.1,32.2c4.6,18.4,39.2,55.4,48.7,62.5c9.8,7.4,9.8,24.3,9.8,40.7c0,16.7-7.1,30.9-9.5,35.6 C1233.2,736.7,1227,737.9,1220.8,737.9z"/>
    <path class="st0" d="M840.3,366c0,0-7,46.8,4.7,46.8s25.7-18.7,25.7-23.4c0-4.7-11.7-49.1-44.5-49.1s-42.1,21.1-49.1,28.1 s-30.4,9.4-32.8,18.7c-2.3,9.4,14,32.8,18.7,35.1c4.7,2.3,50.1,5,75.8-16.1"/>
    <path class="st1" d="M778.7,424.9c-8.3,0-14.4-0.9-16.1-1.7c-5.1-2.6-21.8-26.6-19.3-36.4c1.5-6,10.3-9.2,18.8-12.3 c5.7-2.1,11.6-4.2,14.3-7c1.2-1.2,2.5-2.9,4-4.8c6.9-8.8,18.5-23.6,46-23.6c34.1,0,45.6,46.2,45.6,50.3 c0,5.7-14.9,24.6-26.9,24.6c-1.6,0-3-0.7-4.1-2c-0.9-1-1.6-2.5-2.2-4.3C821.2,421.5,795.4,424.9,778.7,424.9z M826.3,341.4 c-26.4,0-37.1,13.7-44.1,22.7c-1.5,2-2.9,3.7-4.2,5c-3.1,3.1-9,5.3-15.2,7.5c-7.9,2.9-16.1,5.8-17.3,10.7 c-2.2,8.7,13.8,31.6,18.1,33.8c4.6,2.3,49.4,4.6,74.5-15.9c-2.8-13.4,0.9-38.2,1-39.4c0.1-0.6,0.7-1.1,1.3-1 c0.6,0.1,1.1,0.7,1,1.3c-1.5,10.2-4.3,37.9,1.2,44.3c0.7,0.8,1.4,1.2,2.3,1.2c11.1,0,24.6-18.3,24.6-22.2 C869.6,385.5,858.6,341.4,826.3,341.4z"/>
    <path class="st0" d="M744.4,382.4c4.7-2.3,9.4-2.3,9.4,4.7s-7,11.7-9.4,9.4C742,394.1,739.7,384.7,744.4,382.4z"/>
    <path class="st1" d="M746,398.2c-1,0-1.8-0.3-2.4-1c-1.9-1.9-3.5-7.1-2.9-11.1c0.4-2.3,1.5-4,3.2-4.9c3.5-1.7,6.3-2,8.3-0.8 c1.8,1.1,2.7,3.3,2.7,6.5c0,5.2-3.4,9.3-6.7,10.7C747.4,398,746.7,398.2,746,398.2z M749.3,382.1c-1.2,0-2.7,0.4-4.4,1.3 c-1,0.5-1.7,1.6-1.9,3.1c-0.6,3.4,1,7.7,2.2,9c0.4,0.4,1.1,0.4,2.1,0c2.6-1.1,5.3-4.4,5.3-8.5c0-2.3-0.5-3.8-1.6-4.5 C750.5,382.3,750,382.1,749.3,382.1z"/>
    <path class="st1" d="M868.4,484.2c-0.1,0-0.3,0-0.4-0.1c-0.6-0.2-0.9-0.9-0.7-1.5c4.8-12,21-19.1,21.7-19.4 c0.6-0.3,1.3,0,1.5,0.6c0.3,0.6,0,1.3-0.6,1.5c-0.2,0.1-16,7-20.4,18.1C869.3,483.9,868.9,484.2,868.4,484.2z"/>
    <path class="st1" d="M1111.8,507.6c-0.4,0-0.7-0.2-0.9-0.5c-0.2-0.2-4-5.5-6-10.8c-0.2-0.6,0.1-1.3,0.7-1.5 c0.6-0.2,1.3,0.1,1.5,0.7c1.9,5.1,5.7,10.2,5.7,10.2c0.4,0.5,0.3,1.3-0.2,1.6C1112.3,507.5,1112.1,507.6,1111.8,507.6z"/>
    <path class="st1" d="M1142.2,561.4c-0.2,0-0.4-0.1-0.6-0.2c-3.5-2.1-6.4-11.7-6.4-20.9c0-0.6,0.5-1.2,1.2-1.2 c0.6,0,1.2,0.5,1.2,1.2c0,8.8,2.8,17.4,5.3,18.9c0.6,0.3,0.7,1.1,0.4,1.6C1143,561.2,1142.6,561.4,1142.2,561.4z"/>
    <path class="st1" d="M791.2,395.2c-0.4,0-0.7-0.2-1-0.5c-0.4-0.5-0.2-1.3,0.3-1.6c7.2-4.8,16.6-4.9,17-4.9c0.6,0,1.2,0.5,1.2,1.2 c0,0.6-0.5,1.2-1.2,1.2c-0.1,0-9.1,0.1-15.7,4.5C791.6,395.2,791.4,395.2,791.2,395.2z"/>
    <path class="st1" d="M1024.5,546.2c-0.1,0-0.1,0-0.2,0c-0.6-0.1-1.1-0.7-1-1.3c0-0.3,3.9-27.9,0.1-36.8c-0.3-0.6,0-1.3,0.6-1.5 c0.6-0.3,1.3,0,1.5,0.6c4,9.5,0.2,36.9,0.1,38.1C1025.6,545.8,1025.1,546.2,1024.5,546.2z"/>
    <path class="st1" d="M1036.9,535.7c-0.1,0-0.1,0-0.2,0c-0.6-0.1-1.1-0.7-0.9-1.4c0.7-3.9,2.2-15,0.1-19.2 c-0.3-0.6-0.1-1.3,0.5-1.6c0.6-0.3,1.3-0.1,1.6,0.5c2.9,5.7,0.2,20,0.1,20.6C1038,535.3,1037.5,535.7,1036.9,535.7z"/>
    <path class="st1" d="M1049.8,550.9c-0.2,0-0.4-0.1-0.6-0.2c-0.6-0.3-0.8-1-0.4-1.6c4.4-7.6,35.4-24,45.5-24 c0.6,0,1.2,0.5,1.2,1.2s-0.5,1.2-1.2,1.2c-10.1,0-39.7,16.4-43.5,22.8C1050.6,550.7,1050.2,550.9,1049.8,550.9z"/>
  </g>
</svg>