<?xml version="1.0" encoding="utf-8"?>
<svg version="1.1" x="0px" y="0px" viewBox="12.362 327.639 541.811 422.544" style="enable-background:new 0 0 2000 1080;" xmlns="http://www.w3.org/2000/svg">
  <style type="text/css">
	.st0{fill:#FFFFFF;}
	.st1{fill:#F05848;}
</style>
  <g id="Layer_1" transform="matrix(1, 0, 0, 1, -18, 0)">
    <g>
      <g transform="matrix(1, 0, 0, 1, 22, 0)"/>
      <g transform="matrix(1, 0, 0, 1, -110, 0)">
        <path class="st1" d="M275.5,557.9c1.8,23.4,6.5,67.9,13.5,79.6c7,11.7,7,65.5,2.3,65.5s-16.4,11.7-18.7,21.1 c-2.3,9.4,25.7,4.7,25.7,4.7s18.7-2.3,18.7-35.1s-9.4-112.3-9.4-112.3l-23.4-30.4L275.5,557.9z"/>
        <path class="st1" d="M284.8,731.1c-5.1,0-10.2-0.7-12.3-3c-1.1-1.2-1.4-2.7-1-4.3c2.4-9.6,14.1-21.7,19.7-21.9 c3.3-3.5,3.7-52.4-3.1-63.8c-7.9-13.2-12.5-64.6-13.7-80.1l0-0.6l10.3-8.1l24.3,31.6l0,0.3c0.1,0.8,9.4,80,9.4,112.5 c0,33.4-18.9,36.2-19.7,36.3C297.4,730.1,291.1,731.1,284.8,731.1z M276.7,558.4c2.5,31.4,7.3,68.4,13.3,78.4 c6.7,11.2,7.1,59.2,3.3,65.9c-0.6,1.1-1.4,1.4-1.9,1.4c-4,0-15.4,11.3-17.6,20.2c-0.3,1.2,0.1,1.8,0.4,2.2c3.3,3.6,18.4,2,24,1.1 c0.8-0.1,17.7-2.7,17.7-34c0-31.3-8.7-106.3-9.3-111.9l-22.5-29.2L276.7,558.4z"/>
        <path class="st1" d="M584.1,638.2c13.8,15.6,25.5,29.7,25.5,41.4s2.3,28.1-4.7,28.1s-14,11.7-14,16.4c0,4.7,28.1,2.3,28.1,2.3 s11.7,2.3,11.7-30.4s-14-42.1-21.1-46.8C602.7,644.5,584.1,638.2,584.1,638.2z"/>
        <path class="st1" d="M605.2,728.2c-6.3,0-12.6-0.5-14.6-2.3c-0.7-0.6-0.8-1.3-0.8-1.8c0-4.9,7.2-17.6,15.2-17.6 c0.7,0,1.3-0.2,1.8-0.7c2.5-2.6,2.2-11.2,1.9-18.8c-0.1-2.5-0.2-5.1-0.2-7.4c0-11.1-11.4-25-25.2-40.6l-2.9-3.3l4.2,1.4 c0.8,0.3,18.7,6.4,25.8,11.1c7,4.7,21.6,14.4,21.6,47.8c0,19.4-4.2,26.9-7.6,29.8c-2.4,2-4.6,1.9-5.3,1.8 C616.9,727.8,611.1,728.2,605.2,728.2z M588,640.8c13.1,15,22.8,27.6,22.8,38.8c0,2.3,0.1,4.8,0.2,7.3c0.3,8.8,0.6,17.2-2.6,20.5 c-0.9,1-2.1,1.5-3.5,1.5c-6.3,0-12.9,11.3-12.9,15.2c0.7,1.7,13.3,2.3,26.8,1.2l0.2,0l0.2,0c0.1,0,1.7,0.3,3.6-1.4 c3.1-2.6,6.7-9.5,6.7-27.9c0-32.1-13.4-41-20.5-45.8C604.2,647,593.9,643,588,640.8z"/>
        <path class="st0" d="M518.4,543.9c-39.8,0-88.9,25.7-110,32.8c-21.1,7-60.8,7-83.3,4.5c0,0-5.5-53.6-0.8-63 c4.7-9.4,11.7-23.4,14-23.4c2.3,0,191.9,23.4,191.9,23.4L518.4,543.9z"/>
        <path class="st1" d="M355.9,583.8c-11.6,0-22.7-0.6-31-1.6c-0.6-0.1-1.1-0.7-1-1.3c0.1-0.6,0.6-1.1,1.3-1 c21.6,2.4,61.5,2.7,82.8-4.4c5.1-1.7,11.9-4.5,19.8-7.8c24-10,60.2-25,90.5-25c0.6,0,1.2,0.5,1.2,1.2c0,0.6-0.5,1.2-1.2,1.2 c-29.8,0-65.8,14.9-89.6,24.8c-7.9,3.3-14.8,6.1-20,7.9C395.4,582.2,374.8,583.8,355.9,583.8z"/>
        <path class="st0" d="M333.5,506.4c0,7-7,21.1-7,39.8c0,18.7-4.7,86.6-4.7,98.3s11.7,44.5,9.4,56.2c-2.3,11.7-11.7,28.1-16.4,32.8 c-4.7,4.7-23.4,4.7-25.7,2.3c-2.3-2.3,0-14,9.4-18.7c9.4-4.7,9.4,2.3,11.7-30.4c2.3-32.8-7-46.8-9.4-58.5 c-2.3-11.7-4.7-53.8-14-60.8c-9.4-7-25.7-21.1-30.4-37.4c-4.7-16.4-4.7-46.8-11.7-70.2c-7-23.4-21.1-51.5-32.8-49.1l63.2-22.7 c4.7,7.7,46.8,60.1,56.2,60.1c9.4,0,35.1,9.4,42.1,16.4c7,7,103,7,119.4,9.4c16.4,2.3,42.1,0,74.9,18.7 c32.8,18.7,37.4,51.5,44.5,70.2c7,18.7,58.5,58.5,56.2,58.5c-2.3,0-35.1-16.4-46.8-23.4c-11.7-7-35.1-30.4-36.1-49.7"/>
        <path class="st1" d="M298.3,738.5c-4.7,0-8.8-0.7-10.1-1.9c-1.1-1.1-1.4-3.3-1-6c0.8-4.7,4-11.3,10.7-14.6 c1.8-0.9,3.2-1.4,4.4-1.8c4.6-1.5,4.8-1.6,6.7-27.7c1.7-24.1-3-38.1-6.4-48.3c-1.2-3.7-2.3-6.8-2.9-9.9 c-0.6-2.9-1.2-7.8-1.9-13.3c-2-16.7-5.1-41.8-11.7-46.8c-11.6-8.7-26.4-22.4-30.8-38.1c-2.1-7.4-3.3-17.7-4.5-28.6 c-1.5-13.5-3.3-28.7-7.2-41.6c-7.6-25.3-21.4-50.3-31.4-48.3l-0.6-2.2l64.1-23l0.5,0.8c5,8.3,46.7,59.6,55.2,59.6 c9.7,0,35.7,9.5,43,16.7c4.3,4.3,50.7,6,81.3,7.1c17.1,0.6,31.8,1.1,37.4,1.9c3.4,0.5,7.2,0.8,11.3,1.1c16,1.2,37.8,2.8,64,17.8 c27.5,15.7,35.6,41.4,41.4,60.1c1.2,3.9,2.4,7.5,3.5,10.7c4.9,13.1,32.2,36.9,46.9,49.7c9.8,8.5,9.8,8.6,9.4,9.6l-0.3,0.8l-0.9,0 c-3,0-37.1-17.4-47.4-23.6c-12.3-7.4-35.7-31.2-36.6-50.7c0-0.6,0.5-1.2,1.1-1.2c0.7,0,1.2,0.5,1.2,1.1 c0.9,18.6,23.6,41.6,35.5,48.8c9.6,5.7,31.8,17,41.6,21.4c-1.5-1.3-3.3-2.9-5.1-4.5c-14.8-12.9-42.4-37-47.5-50.6 c-1.2-3.2-2.4-6.9-3.6-10.8c-5.8-18.4-13.6-43.5-40.4-58.8c-25.7-14.7-47.3-16.3-63-17.5c-4.1-0.3-8-0.6-11.5-1.1 c-5.5-0.8-20.1-1.3-37.1-1.9c-44.1-1.6-78.3-3.2-82.9-7.8c-6.8-6.8-32.2-16-41.3-16c-10.1,0-50.5-50.8-56.6-59.9l-57.7,20.7 c11.6,4.7,23.3,30.6,28.9,49.4c3.9,13.1,5.7,28.4,7.2,42c1.2,10.8,2.4,21,4.5,28.2c4.3,15.1,18.7,28.3,30,36.8 c7.4,5.6,10.5,30.3,12.7,48.4c0.7,5.5,1.3,10.3,1.8,13.2c0.6,2.9,1.6,6,2.8,9.6c3.5,10.4,8.3,24.6,6.5,49.2 c-1.9,26.6-2.2,27.7-8.3,29.8c-1.1,0.4-2.5,0.8-4.1,1.6c-5.9,2.9-8.7,8.8-9.4,12.9c-0.4,2.5,0.1,3.7,0.3,4 c1.8,1.8,19.8,2,24.1-2.3c4.8-4.8,13.8-21.1,16.1-32.2c1.3-6.5-2-20.3-5-32.6c-2.3-9.4-4.4-18.3-4.4-23.4c0-5.2,0.9-21,1.9-39.3 c1.3-22.7,2.7-48.5,2.7-58.9c0-11.8,2.8-21.8,4.8-29.2c1.2-4.5,2.2-8.1,2.2-10.6c0-0.6,0.5-1.2,1.2-1.2c0.6,0,1.2,0.5,1.2,1.2 c0,2.8-1,6.5-2.3,11.2c-2,7.2-4.7,17.1-4.7,28.6c0,10.5-1.5,36.3-2.8,59.1c-1,18.3-1.9,34.1-1.9,39.2c0,4.8,2.1,13.6,4.3,22.8 c3.1,13.1,6.4,26.6,5,33.6c-2.4,11.9-11.8,28.4-16.7,33.4C312.7,737.2,304.9,738.5,298.3,738.5z"/>
        <path class="st0" d="M242.2,366c0,0-4.7,44.5,7,44.5s25.7-16.4,25.7-21.1c0-4.7-11.7-49.1-44.5-49.1s-42.1,21.1-49.1,28.1 c-7,7-30.4,9.4-32.8,18.7c-2.3,9.4,11.7,25.7,16.4,28.1c4.7,2.3,29.4-1.1,78.5-8.2"/>
        <path class="st1" d="M170.7,417c-3.1,0-5.1-0.3-6.2-0.8c-5.1-2.6-19.5-19.4-17-29.4c1.5-6,10.3-9.2,18.8-12.3 c5.7-2.1,11.6-4.2,14.3-7c1.2-1.2,2.5-2.9,4-4.8c6.9-8.8,18.5-23.6,46-23.6c34.1,0,45.6,46.2,45.6,50.3 c0,5.3-14.6,22.2-26.9,22.2c-1.6,0-3.1-0.7-4.3-2c-0.4-0.4-0.8-0.9-1.1-1.5c-0.1,0-0.1,0-0.2,0C203.1,413.9,180.9,417,170.7,417z M230.5,341.4c-26.4,0-37.1,13.7-44.1,22.7c-1.5,2-2.9,3.7-4.2,5c-3.1,3.1-9,5.3-15.2,7.5c-7.9,2.9-16.1,5.8-17.3,10.7 c-2.2,8.6,11.3,24.5,15.8,26.8c4.4,2.2,31.8-1.7,77.3-8.2c-4.6-11.9-1.9-38.7-1.7-40c0.1-0.6,0.7-1.1,1.3-1 c0.6,0.1,1.1,0.6,1,1.3c-1,9.5-2.4,35.6,3.3,41.9c0.8,0.8,1.6,1.3,2.6,1.3c11.1,0,24.6-16,24.6-19.9 C273.8,385.5,262.9,341.4,230.5,341.4z"/>
        <path class="st0" d="M148.6,382.4c4.7-2.3,9.4-2.3,9.4,4.7s-7,11.7-9.4,9.4C146.3,394.1,143.9,384.7,148.6,382.4z"/>
        <path class="st1" d="M150.2,398.2c-1,0-1.8-0.3-2.4-1c-1.9-1.9-3.5-7.1-2.9-11.1c0.4-2.3,1.5-4,3.2-4.9c3.5-1.7,6.4-2,8.3-0.8 c1.8,1.1,2.7,3.3,2.7,6.5c0,5.2-3.4,9.3-6.7,10.7C151.7,398,150.9,398.2,150.2,398.2z M153.5,382.1c-1.2,0-2.7,0.4-4.4,1.3 c-1,0.5-1.7,1.6-1.9,3.1c-0.5,3.4,1,7.7,2.2,9c0.4,0.4,1.1,0.4,2.1,0c2.6-1.1,5.3-4.4,5.3-8.5c0-2.3-0.5-3.8-1.6-4.5 C154.8,382.3,154.2,382.1,153.5,382.1z"/>
        <path class="st0" d="M520.7,527.5c-7,11.7,0,49.1,4.7,60.8s37.4,30.4,63.2,53.8c25.7,23.4,37.4,37.4,37.4,44.5 c0,7,0,30.4-4.7,30.4c-4.7,0-11.7,7-11.7,14c0,7,25.7,7,28.1,2.3c2.3-4.7,9.4-18.7,9.4-35.1c0-16.4,0-32.8-9.4-39.8 c-9.4-7-44.5-44.5-49.1-63.2c-4.7-18.7,0-60.8-9.4-77.2"/>
        <path class="st1" d="M625,737.9c-3.3,0-6.6-0.3-9.2-0.9c-6.1-1.4-7.3-4-7.3-5.8c0-7.5,7.5-15.2,12.9-15.2c0.4,0,3.5-0.8,3.5-29.3 c0-6.7-12.1-20.9-37.1-43.6c-10.6-9.7-22.6-18.6-33.1-26.5c-15.4-11.5-27.5-20.6-30.4-27.8c-4.8-12-11.9-49.8-4.6-61.9 c0.3-0.6,1.1-0.7,1.6-0.4c0.6,0.3,0.7,1.1,0.4,1.6c-6.6,11.1-0.1,47.7,4.8,59.8c2.6,6.5,15.1,15.9,29.6,26.8 c10.6,7.9,22.5,16.9,33.3,26.6c26.2,23.8,37.8,37.8,37.8,45.3c0,27.8-3,31.6-5.9,31.6c-3.9,0-10.5,6.4-10.5,12.9 c0,1.4,2,2.7,5.5,3.6c7.9,1.9,19.2,0.5,20.3-1.7c2.3-4.6,9.2-18.5,9.2-34.6c0-15.8,0-32.2-8.9-38.8c-9.7-7.3-44.9-45-49.6-63.8 c-1.9-7.7-2.3-19.1-2.7-31.2c-0.6-17.8-1.1-36.2-6.6-45.7c-0.3-0.6-0.1-1.3,0.4-1.6c0.6-0.3,1.3-0.1,1.6,0.4 c5.7,10,6.3,28.7,6.9,46.8c0.4,12,0.7,23.3,2.6,30.7c4.6,18.4,39.2,55.4,48.7,62.5c9.8,7.4,9.8,24.3,9.8,40.7 c0,16.7-7.1,30.9-9.5,35.6C637.4,736.7,631.3,737.9,625,737.9z"/>
        <path class="st1" d="M195.4,395.2c-0.4,0-0.7-0.2-1-0.5c-0.4-0.5-0.2-1.3,0.3-1.6c7.2-4.8,16.6-4.9,17-4.9c0.6,0,1.2,0.5,1.2,1.2 c0,0.6-0.5,1.2-1.2,1.2c-0.1,0-9.1,0.1-15.7,4.5C195.9,395.2,195.7,395.2,195.4,395.2z"/>
        <g>
          <path class="st1" d="M275,477.2c-0.1,0-0.3,0-0.4-0.1c-0.6-0.2-0.9-0.9-0.7-1.5c4.9-12.2,25.8-14.7,26.7-14.8 c0.6-0.1,1.2,0.4,1.3,1c0.1,0.6-0.4,1.2-1,1.3c-0.2,0-20.4,2.4-24.8,13.3C275.9,476.9,275.5,477.2,275,477.2z"/>
          <path class="st1" d="M509,505.2c-0.4,0-0.7-0.2-1-0.5c-0.2-0.3-4.8-7.2-7.2-14.3c-0.2-0.6,0.1-1.3,0.7-1.5 c0.6-0.2,1.3,0.1,1.5,0.7c2.3,6.8,6.8,13.7,6.9,13.8c0.4,0.5,0.2,1.3-0.3,1.6C509.5,505.2,509.3,505.2,509,505.2z"/>
          <path class="st1" d="M546.5,561.4c-0.3,0-0.6-0.1-0.8-0.3c-2.7-2.7-5-14.9-5-26.6c0-0.6,0.5-1.2,1.2-1.2c0.6,0,1.2,0.5,1.2,1.2 c0,12.6,2.6,23.1,4.3,24.9c0.5,0.5,0.5,1.2,0,1.7C547.1,561.3,546.8,561.4,546.5,561.4z"/>
          <g>
            <path class="st1" d="M342.9,559.1c-0.1,0-0.1,0-0.2,0c-0.6-0.1-1.1-0.7-1-1.3c1.3-7.7,3.8-28.8,0.2-34.3 c-0.4-0.5-0.2-1.3,0.3-1.6c0.5-0.4,1.3-0.2,1.6,0.3c4.9,7.3,0.4,34.8,0.2,35.9C343.9,558.7,343.4,559.1,342.9,559.1z"/>
            <path class="st1" d="M352.2,561.4c-0.2,0-0.4-0.1-0.6-0.2c-0.5-0.4-0.7-1.1-0.3-1.6c4.4-6.6,6.8-27.4,4.5-38.9 c-0.1-0.6,0.3-1.3,0.9-1.4c0.6-0.1,1.3,0.3,1.4,0.9c2.4,12.2-0.1,33.5-4.9,40.7C353,561.2,352.6,561.4,352.2,561.4z"/>
            <path class="st1" d="M363.9,561.4c-0.2,0-0.4,0-0.5-0.1c-0.6-0.3-0.8-1-0.5-1.6c2.4-4.8,9.2-27.9,9.2-36.9 c0-0.6,0.5-1.2,1.2-1.2s1.2,0.5,1.2,1.2c0,9.5-7,32.9-9.5,38C364.8,561.2,364.4,561.4,363.9,561.4z"/>
            <path class="st1" d="M378,563.7c-0.2,0-0.4,0-0.5-0.1c-0.6-0.3-0.8-1-0.5-1.6c2.1-4.1,9.3-27.4,6.9-41.4 c-0.1-0.6,0.3-1.2,1-1.3c0.6-0.1,1.2,0.3,1.3,1c2.5,14.8-4.9,38.5-7.1,42.8C378.8,563.5,378.4,563.7,378,563.7z"/>
            <path class="st1" d="M394.4,561.4c-0.1,0-0.2,0-0.4-0.1c-0.6-0.2-0.9-0.9-0.7-1.5c2.1-6.2,9.3-39.1,7-55.6 c-0.1-0.6,0.4-1.2,1-1.3c0.6-0.1,1.2,0.4,1.3,1c2.4,16.9-5,50.4-7.1,56.7C395.3,561.1,394.8,561.4,394.4,561.4z"/>
            <path class="st1" d="M408.4,561.4c-0.2,0-0.4,0-0.5-0.1c-0.6-0.3-0.8-1-0.5-1.6c2.3-4.6,6.9-37.1,6.9-46.3 c0-0.6,0.5-1.2,1.2-1.2c0.6,0,1.2,0.5,1.2,1.2c0,9.6-4.7,42.4-7.1,47.3C409.2,561.2,408.8,561.4,408.4,561.4z"/>
            <path class="st1" d="M429.5,538c0,0-0.1,0-0.1,0c-0.6-0.1-1.1-0.7-1-1.3c0-0.2,2.3-20.9,0.1-27.6c-0.2-0.6,0.1-1.3,0.7-1.5 c0.6-0.2,1.3,0.1,1.5,0.7c2.4,7.2,0.1,27.7,0.1,28.6C430.6,537.6,430.1,538,429.5,538z"/>
            <path class="st1" d="M441.2,531c-0.1,0-0.1,0-0.1,0c-0.6-0.1-1.1-0.7-1-1.3c0-0.2,2.3-18.5,0.1-25.2c-0.2-0.6,0.1-1.3,0.7-1.5 c0.6-0.2,1.3,0.1,1.5,0.7c2.4,7.2,0.1,25.5,0.1,26.3C442.3,530.6,441.7,531,441.2,531z"/>
            <path class="st1" d="M450.5,524c-0.1,0-0.2,0-0.2,0c-0.6-0.1-1-0.7-0.9-1.4c0-0.1,2.3-11.5,0-18.1c-0.2-0.6,0.1-1.3,0.7-1.5 c0.6-0.2,1.3,0.1,1.5,0.7c2.4,7.2,0.1,18.8,0,19.3C451.6,523.6,451.1,524,450.5,524z"/>
            <path class="st1" d="M455.2,547.4c-0.2,0-0.5-0.1-0.6-0.2c-0.5-0.4-0.7-1.1-0.3-1.6c5.1-7.6,40.9-23.9,52.5-23.9 c0.6,0,1.2,0.5,1.2,1.2s-0.5,1.2-1.2,1.2c-11.8,0-46.2,16.4-50.5,22.9C456,547.2,455.6,547.4,455.2,547.4z"/>
          </g>
        </g>
      </g>
    </g>
  </g>
  <g id="Layer_2"/>
  <g id="Layer_3"/>
  <g id="Layer_4"/>
  <g id="Layer_5"/>
  <g id="Layer_6"/>
</svg>